<?xml version="1.0" encoding="utf-8"?>
<!-- Generator: Adobe Illustrator 19.2.0, SVG Export Plug-In . SVG Version: 6.00 Build 0)  -->
<svg version="1.1" id="Objects" xmlns="http://www.w3.org/2000/svg" xmlns:xlink="http://www.w3.org/1999/xlink" x="0px" y="0px"
	 viewBox="0 0 323.8 328.3" style="enable-background:new 0 0 323.8 328.3;" xml:space="preserve">
<style type="text/css">
	.st0{opacity:0.4;fill:#FFFFFF;}
	.st1{fill:#E2604A;}
	.st2{fill:#FFFFFF;}
	.st3{fill:#D4D2CF;}
	.st4{fill:#F98663;}
	.st5{fill:#E0DEDC;}
	.st6{fill:#1F3656;}
	.st7{fill:none;stroke:#27AAE1;stroke-width:0.4472;stroke-miterlimit:10;}
	.st8{fill:none;}
	.st9{font-family:'TeXGyreAdventor-Bold';}
	.st10{font-size:8.508px;}
	.st11{font-size:5.672px;}
	.st12{fill:#FFFFFF;stroke:#231F20;stroke-width:1.3108;stroke-linecap:round;stroke-linejoin:round;stroke-miterlimit:10;}
	.st13{fill:none;stroke:#ED1C24;stroke-width:0.3277;stroke-miterlimit:10;}
	.st14{fill:#040404;}
	.st15{fill:#C4F0F1;}
	.st16{fill-rule:evenodd;clip-rule:evenodd;fill:#EC9E06;}
	.st17{fill-rule:evenodd;clip-rule:evenodd;fill:#E2604A;}
	.st18{fill:#103754;}
	.st19{fill:#030502;}
	.st20{fill:#FD6120;}
	.st21{fill:#D1ECFB;}
	.st22{fill:#F1F2F2;}
	.st23{fill:#2C465F;}
	.st24{fill:#F07549;}
	.st25{fill:#D1D3D4;}
	.st26{fill:#FDCF9D;}
	.st27{fill:#FFAE00;}
	.st28{fill:#FFCD61;}
	.st29{fill:#174F78;}
	.st30{fill:#B1B6B2;}
	.st31{fill:#0D2F44;}
	.st32{opacity:0.1;}
	.st33{fill:#A6DAE9;}
	.st34{fill:#F8FDFF;}
	.st35{opacity:0.1;fill:#FFFFFF;}
	.st36{opacity:0.6;fill:#FFFFFF;}
	.st37{fill:#0E303F;}
	.st38{fill:#2C5871;}
	.st39{fill:#164866;}
</style>
<g id="light_blue_block">
	<circle class="st0" cx="168.9" cy="173.4" r="154.9"/>
	<g>
		<path class="st1" d="M6.9,71.5c-1.2,0-2.3,1-2.3,2.3v88.6c0,1.2,1,2.3,2.3,2.3h61.3c1.2,0,2.3-1,2.3-2.3V73.8c0-1.2-1-2.3-2.3-2.3
			H6.9z"/>
		<rect x="8.4" y="76.8" class="st2" width="58.4" height="82.5"/>
		<g>
			<g>
				<rect x="15.8" y="141.6" class="st3" width="43.5" height="1.3"/>
				<rect x="15.8" y="144.8" class="st3" width="43.5" height="1.3"/>
				<rect x="15.8" y="148" class="st3" width="21.8" height="1.3"/>
			</g>
		</g>
		<g>
			<g>
				<rect x="15.8" y="131.8" class="st3" width="43.5" height="1.3"/>
				<rect x="15.8" y="135.1" class="st3" width="43.5" height="1.3"/>
				<rect x="15.8" y="138.3" class="st3" width="43.3" height="1.3"/>
			</g>
		</g>
		<g>
			<g>
				<g>
					<rect x="27.5" y="91.6" class="st3" width="31.7" height="1.4"/>
					<rect x="27.5" y="101.2" class="st3" width="31.7" height="1.4"/>
					<rect x="27.5" y="110.8" class="st3" width="31.7" height="1.4"/>
					<rect x="27.5" y="120.3" class="st3" width="31.7" height="1.4"/>
				</g>
			</g>
			<g>
				<g>
					<path class="st3" d="M19.9,96.2c-2.1,0-3.9-1.7-3.9-3.9c0-2.1,1.7-3.9,3.9-3.9c2.1,0,3.9,1.7,3.9,3.9
						C23.7,94.5,22,96.2,19.9,96.2z M19.9,89.3c-1.7,0-3.1,1.4-3.1,3.1c0,1.7,1.4,3.1,3.1,3.1c1.7,0,3.1-1.4,3.1-3.1
						C22.9,90.6,21.6,89.3,19.9,89.3z"/>
					<path class="st3" d="M19.9,105.8c-2.1,0-3.9-1.7-3.9-3.9c0-2.1,1.7-3.9,3.9-3.9c2.1,0,3.9,1.7,3.9,3.9
						C23.7,104,22,105.8,19.9,105.8z M19.9,98.8c-1.7,0-3.1,1.4-3.1,3.1c0,1.7,1.4,3.1,3.1,3.1c1.7,0,3.1-1.4,3.1-3.1
						C22.9,100.2,21.6,98.8,19.9,98.8z"/>
					<path class="st3" d="M19.9,115.3c-2.1,0-3.9-1.7-3.9-3.9s1.7-3.9,3.9-3.9c2.1,0,3.9,1.7,3.9,3.9S22,115.3,19.9,115.3z
						 M19.9,108.4c-1.7,0-3.1,1.4-3.1,3.1c0,1.7,1.4,3.1,3.1,3.1c1.7,0,3.1-1.4,3.1-3.1C22.9,109.8,21.6,108.4,19.9,108.4z"/>
					<path class="st3" d="M19.9,124.9c-2.1,0-3.9-1.7-3.9-3.9c0-2.1,1.7-3.9,3.9-3.9c2.1,0,3.9,1.7,3.9,3.9
						C23.7,123.2,22,124.9,19.9,124.9z M19.9,117.9c-1.7,0-3.1,1.4-3.1,3.1c0,1.7,1.4,3.1,3.1,3.1c1.7,0,3.1-1.4,3.1-3.1
						C22.9,119.3,21.6,117.9,19.9,117.9z"/>
				</g>
			</g>
			<polygon class="st4" points="17.4,101.2 18.1,100.6 19.9,102.4 23.7,98.6 24.4,99.3 19.9,103.7 			"/>
		</g>
		<g>
			<path class="st5" d="M42.6,71.7c0-2.8-2.2-5-5-5s-5,2.2-5,5h-6.3v10.3h22.7V71.7H42.6z M37.6,70c0.9,0,1.7,0.8,1.7,1.7
				c0,0.9-0.8,1.7-1.7,1.7c-0.9,0-1.7-0.8-1.7-1.7C35.9,70.7,36.7,70,37.6,70z"/>
			<path class="st3" d="M42.6,71.7c0-2.8-2.2-5-5-5s-5,2.2-5,5h-6.3v5.1h22.7v-5.1H42.6z M37.6,70c0.9,0,1.7,0.8,1.7,1.7
				c0,0.9-0.8,1.7-1.7,1.7c-0.9,0-1.7-0.8-1.7-1.7C35.9,70.7,36.7,70,37.6,70z"/>
			<rect x="26.3" y="75.7" class="st2" width="22.7" height="1.1"/>
			<rect x="26.3" y="76.8" class="st3" width="22.7" height="1.1"/>
		</g>
	</g>
	<g>
		<circle class="st6" cx="37.6" cy="220.6" r="37.6"/>
		<circle class="st2" cx="37.6" cy="220.6" r="34.5"/>
		<circle class="st7" cx="37.6" cy="220.6" r="33.2"/>
		<g>
			<circle class="st8" cx="37.6" cy="220.1" r="29.7"/>
			<text transform="matrix(1 0 0 1 33.1885 196.4522)" class="st9 st10">12</text>
			<text transform="matrix(1 0 0 1 50.9283 198.0269)" class="st9 st11">1</text>
			<text transform="matrix(1 0 0 1 61.0962 209.1968)" class="st9 st11">2</text>
			<g>
				<text transform="matrix(1 0 0 1 63.5923 223.4478)" class="st9 st10">3</text>
			</g>
			<text transform="matrix(1 0 0 1 61.0962 234.6187)" class="st9 st11">4</text>
			<text transform="matrix(1 0 0 1 50.9283 245.2886)" class="st9 st11">5</text>
			<g>
				<text transform="matrix(1 0 0 1 35.3707 249.1548)" class="st9 st10">6</text>
			</g>
			<text transform="matrix(1 0 0 1 22.7789 245.7173)" class="st9 st11">7</text>
			<text transform="matrix(1 0 0 1 12.7164 234.9771)" class="st9 st11">8</text>
			<g>
				<text transform="matrix(1 0 0 1 7.8355 223.233)" class="st9 st10">9</text>
			</g>
			<text transform="matrix(1 0 0 1 11.024 209.1968)" class="st9 st11">10</text>
			<text transform="matrix(1 0 0 1 21.7525 197.3824)" class="st9 st11">11</text>
		</g>
		<g>
			<line class="st12" x1="38.1" y1="220" x2="23.9" y2="220"/>
			<line class="st12" x1="38.1" y1="220" x2="38.1" y2="204.6"/>
			<line class="st13" x1="38.1" y1="220" x2="31.2" y2="228.2"/>
			<circle class="st14" cx="38.1" cy="220" r="1.5"/>
		</g>
	</g>
	<g>
		<path class="st6" d="M306.1,245.7c0,0.9-0.8,1.7-1.7,1.7h-34.3c-0.9,0-1.7-0.8-1.7-1.7v-65c0-0.9,0.8-1.7,1.7-1.7h34.3
			c0.9,0,1.7,0.8,1.7,1.7V245.7z"/>
		<rect x="271.1" y="186.2" class="st2" width="32.4" height="53.7"/>
		<circle class="st2" cx="287.3" cy="243.4" r="2.2"/>
		<circle class="st2" cx="287.3" cy="182.5" r="1"/>
	</g>
	<g>
		<g>
			<polygon class="st2" points="187.2,229.3 145.3,229.3 150.6,203.4 181.8,203.4 			"/>
			<polygon class="st5" points="187.2,229.3 181.8,203.4 150.6,203.4 176.5,229.3 			"/>
			<path class="st2" d="M198.4,232.4h-64.3v-1.2c0-0.5,0.2-1,0.6-1.4c0.4-0.4,0.9-0.6,1.4-0.6h60.4c0.5,0,1,0.2,1.4,0.6
				c0.4,0.4,0.6,0.9,0.6,1.4V232.4z"/>
		</g>
		<path class="st6" d="M89.8,96.9c-2.1,0-3.9,1.8-3.9,3.9v98.7c0,2.2,1.8,3.9,3.9,3.9h152.9c2.2,0,3.9-1.8,3.9-3.9v-98.7
			c0-2.1-1.8-3.9-3.9-3.9H89.8z"/>
		<rect x="94" y="105" class="st15" width="144.5" height="90.3"/>
		<g>
			<rect x="101.1" y="190" class="st2" width="131.1" height="1.2"/>
			<rect x="101.1" y="180.7" class="st2" width="131.1" height="1.2"/>
			<rect x="101.1" y="171.3" class="st2" width="131.1" height="1.2"/>
			<rect x="101.1" y="162" class="st2" width="131.1" height="1.2"/>
			<rect x="101.1" y="152.7" class="st2" width="131.1" height="1.2"/>
			<rect x="101.1" y="143.3" class="st2" width="131.1" height="1.2"/>
			<rect x="101.1" y="134" class="st2" width="131.1" height="1.2"/>
			<rect x="101.1" y="124.7" class="st2" width="131.1" height="1.2"/>
		</g>
		<g>
			<polygon class="st16" points="101.1,173.6 115.6,173.6 115.6,191.3 101.1,191.3 			"/>
			<rect x="117.9" y="165.9" class="st17" width="14.5" height="25.4"/>
			
				<rect x="134.6" y="148.1" transform="matrix(1 -1.285870e-003 1.285870e-003 1 -0.2181 0.1825)" class="st16" width="14.5" height="43.2"/>
			<rect x="151.3" y="154.1" class="st17" width="14.5" height="37.2"/>
			
				<rect x="168" y="172.6" transform="matrix(1 -1.652445e-003 1.652445e-003 1 -0.3003 0.2899)" class="st16" width="14.5" height="18.6"/>
			
				<rect x="184.3" y="165.5" transform="matrix(1 -1.548382e-003 1.548382e-003 1 -0.2759 0.2968)" class="st17" width="14.5" height="25.6"/>
			<rect x="201" y="153.9" class="st16" width="14.5" height="37.2"/>
			
				<rect x="217.8" y="129.4" transform="matrix(1 -1.119882e-003 1.119882e-003 1 -0.1793 0.2521)" class="st17" width="14.5" height="61.7"/>
		</g>
	</g>
	<g>
		<path class="st18" d="M250.2,239.5h-41.4c-2.1,0-3.8,1.7-3.8,3.8v55.9c0,2.1,1.7,3.8,3.8,3.8h41.4c2.1,0,3.8-1.7,3.8-3.8v-55.9
			C254,241.2,252.3,239.5,250.2,239.5z"/>
		<path class="st19" d="M250.2,239.5h-41.4c-2.1,0-3.8,1.7-3.8,3.8v18.2h49v-18.2C254,241.2,252.3,239.5,250.2,239.5z"/>
		<g>
			<g>
				<path class="st18" d="M249,285.1c0,0.7-0.6,1.3-1.3,1.3h-7.4c-0.7,0-1.3-0.6-1.3-1.3v-4.9c0-0.7,0.6-1.3,1.3-1.3h7.4
					c0.7,0,1.3,0.6,1.3,1.3V285.1z"/>
			</g>
			<g>
				<path class="st2" d="M220.1,295.6c0,0.7-0.6,1.3-1.3,1.3h-7.4c-0.7,0-1.3-0.6-1.3-1.3v-4.9c0-0.7,0.6-1.3,1.3-1.3h7.4
					c0.7,0,1.3,0.6,1.3,1.3V295.6z"/>
				<path class="st2" d="M220.1,283.8c0,0.7-0.6,1.3-1.3,1.3h-7.4c-0.7,0-1.3-0.6-1.3-1.3V279c0-0.7,0.6-1.3,1.3-1.3h7.4
					c0.7,0,1.3,0.6,1.3,1.3V283.8z"/>
				<path class="st2" d="M220.1,272c0,0.7-0.6,1.3-1.3,1.3h-7.4c-0.7,0-1.3-0.6-1.3-1.3v-4.9c0-0.7,0.6-1.3,1.3-1.3h7.4
					c0.7,0,1.3,0.6,1.3,1.3V272z"/>
				<path class="st2" d="M234.5,295.6c0,0.7-0.6,1.3-1.3,1.3h-7.4c-0.7,0-1.3-0.6-1.3-1.3v-4.9c0-0.7,0.6-1.3,1.3-1.3h7.4
					c0.7,0,1.3,0.6,1.3,1.3V295.6z"/>
				<path class="st2" d="M234.5,283.8c0,0.7-0.6,1.3-1.3,1.3h-7.4c-0.7,0-1.3-0.6-1.3-1.3V279c0-0.7,0.6-1.3,1.3-1.3h7.4
					c0.7,0,1.3,0.6,1.3,1.3V283.8z"/>
				<path class="st2" d="M234.5,272c0,0.7-0.6,1.3-1.3,1.3h-7.4c-0.7,0-1.3-0.6-1.3-1.3v-4.9c0-0.7,0.6-1.3,1.3-1.3h7.4
					c0.7,0,1.3,0.6,1.3,1.3V272z"/>
				<path class="st20" d="M249,295.6c0,0.7-0.6,1.3-1.3,1.3h-7.4c-0.7,0-1.3-0.6-1.3-1.3v-13.6c0-0.7,0.6-1.3,1.3-1.3h7.4
					c0.7,0,1.3,0.6,1.3,1.3V295.6z"/>
				<path class="st20" d="M249,283.8c0,0.7-0.6,1.3-1.3,1.3h-7.4c-0.7,0-1.3-0.6-1.3-1.3V279c0-0.7,0.6-1.3,1.3-1.3h7.4
					c0.7,0,1.3,0.6,1.3,1.3V283.8z"/>
				<path class="st2" d="M249,272c0,0.7-0.6,1.3-1.3,1.3h-7.4c-0.7,0-1.3-0.6-1.3-1.3v-4.9c0-0.7,0.6-1.3,1.3-1.3h7.4
					c0.7,0,1.3,0.6,1.3,1.3V272z"/>
			</g>
		</g>
		<path class="st21" d="M249,256.2c0,0.7-0.6,1.3-1.3,1.3h-36.3c-0.7,0-1.3-0.6-1.3-1.3v-10.4c0-0.7,0.6-1.3,1.3-1.3h36.3
			c0.7,0,1.3,0.6,1.3,1.3V256.2z"/>
	</g>
	<g>
		<g>
			<path class="st2" d="M76.8,243.9v66c0,2.7,2.2,4.8,4.8,4.8h86.9c2.7,0,4.8-2.2,4.8-4.8v-66c0-2.7-2.2-4.8-4.8-4.8H81.6
				C79,239.1,76.8,241.2,76.8,243.9z"/>
			<path class="st22" d="M168.5,239.1h-44.2v75.6h44.2c2.7,0,4.8-2.2,4.8-4.8v-66C173.4,241.2,171.2,239.1,168.5,239.1z"/>
			<ellipse class="st23" cx="169" cy="276.9" rx="1.9" ry="1.9"/>
			<circle class="st23" cx="82.5" cy="276.9" r="1.1"/>
			<rect x="86.1" y="247.6" class="st23" width="77.9" height="58.5"/>
		</g>
		<g>
			<rect x="119" y="267.6" class="st24" width="9.7" height="32"/>
			<rect x="92.8" y="281.5" class="st24" width="9.7" height="18"/>
			<rect x="105.9" y="272.7" class="st24" width="9.7" height="26.8"/>
		</g>
		<rect x="136" y="253.5" class="st25" width="22.9" height="5.2"/>
		<rect x="136" y="261.3" class="st25" width="22.9" height="5.2"/>
		<rect x="136" y="269.1" class="st25" width="22.9" height="5.2"/>
		<rect x="136" y="277" class="st25" width="22.9" height="5.2"/>
		<rect x="136" y="284.8" class="st25" width="22.9" height="5.2"/>
		<rect x="136" y="292.6" class="st25" width="22.9" height="5.2"/>
	</g>
	<g>
		<polygon class="st26" points="293.8,104 265.4,124.5 265.4,159 322.1,159 322.1,124.5 		"/>
		<g>
			<rect x="270.3" y="95.9" class="st2" width="47" height="49"/>
			<g>
				<rect x="275.9" y="105.3" class="st4" width="17.1" height="17.1"/>
				<path class="st2" d="M285.1,108.6c-3.1,0-5.9,2.6-5.9,5.8c0,2.6,2,4.6,4.7,4.6c1.1,0,2.2-0.3,3.1-0.9l-0.3-0.4
					c-0.8,0.5-1.7,0.8-2.8,0.8c-2.5,0-4.2-1.8-4.2-4.2c0-2.8,2.4-5.3,5.3-5.3c2.5,0,4.2,1.8,4.2,4.2c0,2-1,2.7-1.6,2.7
					c-0.4,0-0.7-0.3-0.7-0.8c0-0.1,0-0.2,0-0.3l0.8-4h-1l-0.2,0.9c-0.3-0.6-0.9-1.2-1.9-1.2c-1.7,0-3.5,1.7-3.5,3.7
					c0,1.4,0.9,2.4,2.3,2.4c0.9,0,1.8-0.6,2.4-1.3v0.1c0,0.6,0.5,1.2,1.3,1.2c1.2,0,2.6-1.2,2.6-3.5
					C289.7,110.7,287.9,108.6,285.1,108.6z M286,114.6c-0.4,0.6-1.2,1.3-2.2,1.3c-1,0-1.5-0.7-1.5-1.6c0-1.4,1.1-2.8,2.6-2.8
					c0.9,0,1.4,0.6,1.5,1.1L286,114.6z"/>
				<g>
					<g>
						<rect x="296.3" y="105.3" class="st3" width="16.3" height="1.8"/>
						<rect x="296.3" y="110.4" class="st3" width="16.3" height="1.8"/>
						<rect x="296.3" y="115.5" class="st3" width="16.3" height="1.8"/>
						<rect x="296.3" y="120.5" class="st3" width="16.3" height="1.8"/>
						<rect x="275.9" y="125.6" class="st3" width="36.6" height="1.8"/>
						<rect x="275.9" y="130.7" class="st3" width="18.3" height="1.8"/>
					</g>
				</g>
			</g>
		</g>
		<polygon class="st27" points="322.1,124.5 322.1,159 293.8,141.7 		"/>
		<polygon class="st27" points="293.8,141.7 265.4,159 265.4,124.5 		"/>
		<polygon class="st28" points="322.1,159 265.4,159 293.8,141.7 		"/>
	</g>
	<g>
		<g>
			<path class="st18" d="M153,5.9c-0.4,0.9-1.3,1.3-1.9,1.1c-9.6-4.3-20.7-4.3-30.3,0c-0.6,0.3-1.5-0.2-1.9-1.1
				c0-0.1-0.1-0.1-0.1-0.2c-0.4-0.9-0.2-1.9,0.4-2.2c10.6-4.8,22.8-4.8,33.4,0c0.7,0.3,0.9,1.3,0.4,2.2C153.1,5.8,153.1,5.9,153,5.9
				z"/>
			<path class="st29" d="M152.7,3.6c-10.6-4.8-22.8-4.8-33.4,0c-0.7,0.3-0.9,1.3-0.4,2.2c10.8-5.3,23.5-5.3,34.3,0
				C153.6,4.9,153.4,3.9,152.7,3.6z"/>
		</g>
		<g>
			<g>
				<path class="st30" d="M122.4,16c0,0.6-0.5,1.2-1.2,1.2h-0.2c-0.6,0-1.2-0.5-1.2-1.2V6.1c0-0.6,0.5-1.2,1.2-1.2h0.2
					c0.6,0,1.2,0.5,1.2,1.2V16z"/>
				<ellipse class="st30" cx="121.2" cy="11.6" rx="2.8" ry="2.8"/>
			</g>
			<g>
				<path class="st30" d="M152.1,16c0,0.6-0.5,1.2-1.2,1.2h-0.2c-0.6,0-1.2-0.5-1.2-1.2V6.1c0-0.6,0.5-1.2,1.2-1.2h0.2
					c0.6,0,1.2,0.5,1.2,1.2V16z"/>
				<circle class="st30" cx="150.8" cy="11.6" r="2.8"/>
			</g>
		</g>
		<path class="st18" d="M189.3,79.6c0,1.9-1.6,3.5-3.5,3.5H86.2c-1.9,0-3.5-1.6-3.5-3.5V15c0-1.9,1.6-3.5,3.5-3.5h99.6
			c1.9,0,3.5,1.6,3.5,3.5V79.6z"/>
		<path class="st31" d="M185.8,80.5H86.2c-1.9,0-3.5-1.6-3.5-3.5v2.7c0,1.9,1.6,3.5,3.5,3.5h99.6c1.9,0,3.5-1.6,3.5-3.5V77
			C189.3,78.9,187.7,80.5,185.8,80.5z"/>
		<path class="st32" d="M189.3,41.7c0,1.9-1.5,3.9-3.5,4.4c-32.8,7.8-67,7.8-99.7,0c-1.9-0.5-3.5-2.4-3.5-4.4c0-7.9,0-15.8,0-23.7
			c0-1.9,1.6-3.5,3.5-3.5c33.2,0,66.4,0,99.6,0c1.9,0,3.5,1.6,3.5,3.5C189.3,25.9,189.3,33.8,189.3,41.7z"/>
		<path class="st29" d="M189.3,38.8c0,1.9-1.5,3.9-3.5,4.4c-32.8,7.8-67,7.8-99.7,0c-1.9-0.5-3.5-2.4-3.5-4.4c0-7.9,0-15.8,0-23.7
			c0-1.9,1.6-3.5,3.5-3.5c33.2,0,66.4,0,99.6,0c1.9,0,3.5,1.6,3.5,3.5C189.3,23,189.3,30.9,189.3,38.8z"/>
		<path class="st18" d="M129.2,11.5v30.9c0,1.5,0.5,2.8,1.2,2.8h11.3c0.6,0,1.2-1.3,1.2-2.8V11.5H129.2z"/>
		<path class="st32" d="M189.3,17.2c0-0.7,0-1.4,0-2.1c0-1.9-1.6-3.5-3.5-3.5c-33.2,0-66.4,0-99.6,0c-1.9,0-3.5,1.6-3.5,3.5
			c0,0.7,0,1.4,0,2.1C118.2,17.2,153.7,17.2,189.3,17.2z"/>
		<g>
			<path class="st33" d="M142,56.3c0,0.6-0.4,1.2-1,1.4c-3.3,1-6.8,1-10.1,0c-0.6-0.2-1-0.8-1-1.4c0-4,0-8,0-12.1
				c0-0.6,0.4-1.2,1-1.4c3.3-1,6.8-1,10.1,0c0.6,0.2,1,0.8,1,1.4C142,48.3,142,52.3,142,56.3z"/>
			<path class="st21" d="M141,43.3c-3.3-1-6.8-1-10.1,0c-0.6,0.2-1,0.8-1,1.3c0,1.8,0,3.5,0,5.3c0,0,0.1,0,0.1,0c4,0,8,0,12,0
				c0-1.8,0-3.5,0-5.3C142,44,141.6,43.4,141,43.3z"/>
			<path class="st34" d="M140.1,43.8c-2.7-0.8-5.6-0.8-8.3,0c-0.5,0.1-0.8,0.6-0.8,1.1c0,1.5,0,2.9,0,4.4c0,0,0.1,0,0.1,0
				c3.3,0,6.6,0,9.9,0c0-1.5,0-2.9,0-4.4C141,44.4,140.6,43.9,140.1,43.8z"/>
			<path class="st33" d="M129.9,50.9c0,1.8,0,3.6,0,5.3c0,0.6,0.4,1.2,1,1.4c3.3,1,6.8,1,10.1,0c0.6-0.2,1-0.8,1-1.4
				c0-1.8,0-3.6,0-5.3H129.9z"/>
			<path class="st21" d="M136,57.4c-1.6,0-3.2-0.2-4.7-0.7c-0.1,0-0.3-0.3-0.3-0.4V52h10v4.3c0,0.1-0.2,0.4-0.3,0.4
				C139.2,57.2,137.6,57.4,136,57.4L136,57.4z"/>
		</g>
	</g>
	<g>
		<path class="st35" d="M222.6,52.1c0-4.6,1.7-8.9,4.9-12.2c6.6-6.8,17.6-6.9,24.3-0.3c3.3,3.2,5.1,7.5,5.2,12.2l0,0
			c0,4.6-1.7,8.9-4.9,12.2c-3.2,3.3-7.5,5.1-12.1,5.2c-4.6,0.1-8.9-1.7-12.2-4.9C224.4,61.1,222.6,56.8,222.6,52.1L222.6,52.1z"/>
		<g>
			<g>
				<path class="st8" d="M260.1,51.8"/>
			</g>
			<g>
				<path class="st33" d="M256.9,50.3c0,0.2,0,0.5,0.1,0.7C256.9,50.8,256.9,50.5,256.9,50.3z"/>
				<path class="st33" d="M257,51.1c0,0.3,0,0.5,0,0.8C257,51.6,257,51.3,257,51.1z"/>
				<path class="st36" d="M222.6,52.1c0,4.1,1.5,8,4.2,11.1c-0.5-0.6-1-1.2-1.4-1.9c-0.7-1.9-1.1-4-1.2-6.1c0-4.6,1.7-8.9,4.9-12.2
					c6.6-6.8,17.6-6.9,24.3-0.3c0.9,0.9,1.7,1.9,2.4,3c0.6,1.4,0.9,3,1.1,4.5c-0.4-4-2.2-7.7-5.1-10.6c-6.8-6.6-17.7-6.5-24.3,0.3
					C224.3,43.2,222.5,47.5,222.6,52.1z"/>
				<path class="st33" d="M226.7,63.2c0.1,0.1,0.2,0.2,0.3,0.3C226.9,63.4,226.8,63.3,226.7,63.2z"/>
				<path class="st33" d="M227.1,63.6c0.1,0.1,0.2,0.2,0.2,0.3C227.2,63.8,227.2,63.7,227.1,63.6z"/>
				<path class="st33" d="M227.4,64c0.1,0.1,0.2,0.2,0.3,0.3C227.6,64.2,227.5,64.1,227.4,64z"/>
			</g>
			<g>
				<path class="st37" d="M269.9,51.6c0-1.6-1.4-2.9-3-2.9l-5.3,0.1c-1.6,0-2.9,1.4-2.9,3c0,0,0,0,0,0c0,1.6,1.4,2.9,3,2.9l5.3-0.1
					C268.6,54.6,269.9,53.2,269.9,51.6C269.9,51.6,269.9,51.6,269.9,51.6z"/>
			</g>
		</g>
		<path class="st38" d="M216.6,52.2c0.1,6.2,2.5,12,6.9,16.3c4.4,4.3,10.3,6.7,16.4,6.6c6.2-0.1,12-2.5,16.3-6.9
			c4.3-4.4,6.6-10.2,6.6-16.4c0,0,0,0,0,0c-0.1-6.2-2.5-12-7-16.3c-9.1-8.9-23.8-8.8-32.7,0.4C218.9,40.2,216.6,46,216.6,52.2z
			 M251.8,39.7c3.3,3.2,5.1,7.5,5.2,12.2c0,4.6-1.7,8.9-4.9,12.2c-3.2,3.3-7.5,5.1-12.1,5.2c-4.6,0.1-8.9-1.7-12.2-4.9
			c-3.3-3.2-5.1-7.5-5.2-12.2c0-4.6,1.7-8.9,4.9-12.2C234.1,33.1,245,33,251.8,39.7z"/>
		
			<rect x="266.7" y="45.5" transform="matrix(1 -9.233260e-003 9.233260e-003 1 -0.4631 2.6364)" class="st18" width="37.3" height="11.9"/>
		
			<rect x="266.7" y="48" transform="matrix(1 -9.238276e-003 9.238276e-003 1 -0.4634 2.6379)" class="st38" width="37.3" height="7"/>
		
			<rect x="298.2" y="45.4" transform="matrix(1 -9.149494e-003 9.149494e-003 1 -0.4571 2.7569)" class="st37" width="5.7" height="11.9"/>
		
			<rect x="298.2" y="47.8" transform="matrix(1 -9.036812e-003 9.036812e-003 1 -0.4516 2.7229)" class="st39" width="5.7" height="7"/>
		<g>
			<path class="st36" d="M236.8,66.2c-4.4-1.4-7.9-4.5-10-8.6c-0.7-1.4-1.2-2.9-1.5-4.4l3.3-1.5c0.3,1.8,0.8,3.6,1.7,5.4
				c2.1,4.1,5.6,7.1,10,8.6c2,0.7,4.1,0.9,6.2,0.8C243.3,67.3,239.9,67.2,236.8,66.2z"/>
		</g>
	</g>
</g>
</svg>
