<svg id="SvgjsSvg1000" xmlns="http://www.w3.org/2000/svg" version="1.1" xmlns:xlink="http://www.w3.org/1999/xlink" xmlns:svgjs="http://svgjs.com/svgjs" width="14" height="16" viewBox="0 0 14 16"><title>calendar copy</title><desc>Created with Avocode.</desc><defs id="SvgjsDefs1001"></defs><path id="SvgjsPath1007" d="M1400.5 714.464H1389.5C1388.95 714.464 1388.5 714.0160000000001 1388.5 713.464V702.464C1388.5 701.912 1388.95 701.464 1389.5 701.464H1390.5V701.964C1390.5 702.793 1391.17 703.464 1392 703.464C1392.83 703.464 1393.5 702.793 1393.5 701.964V701.464H1396.5V701.964C1396.5 702.793 1397.17 703.464 1398 703.464C1398.83 703.464 1399.5 702.793 1399.5 701.964V701.464H1400.5C1401.05 701.464 1401.5 701.912 1401.5 702.464V713.464C1401.5 714.0160000000001 1401.05 714.464 1400.5 714.464ZM1400.5 704.964H1389.5V713.464H1400.5ZM1392 707.464H1390.5V705.964H1392ZM1392 709.964H1390.5V708.464H1392ZM1392 712.464H1390.5V710.964H1392ZM1394.5 707.464H1393V705.964H1394.5ZM1394.5 709.964H1393V708.464H1394.5ZM1394.5 712.464H1393V710.964H1394.5ZM1397 707.464H1395.5V705.964H1397ZM1397 709.964H1395.5V708.464H1397ZM1397 712.464H1395.5V710.964H1397ZM1399.5 707.464H1398V705.964H1399.5ZM1399.5 709.964H1398V708.464H1399.5ZM1399.5 712.464H1398V710.964H1399.5ZM1397.98 702.964C1397.44 702.964 1397 702.523 1397 701.98V700.9490000000001C1397 700.4050000000001 1397.44 699.964 1397.98 699.964C1398.53 699.964 1398.97 700.4050000000001 1398.97 700.9490000000001V701.98C1398.97 702.523 1398.53 702.964 1397.98 702.964ZM1392.97 701.98V700.9490000000001C1392.97 700.4050000000001 1392.53 699.964 1391.98 699.964C1391.44 699.964 1391 700.4050000000001 1391 700.9490000000001V701.98C1391 702.523 1391.44 702.964 1391.98 702.964C1392.53 702.964 1392.97 702.523 1392.97 701.98Z " fill="#3cbd0d" fill-opacity="1" transform="matrix(1,0,0,1,-1388,-699)"></path></svg>