<?xml version="1.0" encoding="utf-8"?>
<!-- Generator: Adobe Illustrator 16.0.0, SVG Export Plug-In . SVG Version: 6.00 Build 0)  -->
<!DOCTYPE svg PUBLIC "-//W3C//DTD SVG 1.1//EN" "http://www.w3.org/Graphics/SVG/1.1/DTD/svg11.dtd">
<svg version="1.1" id="Режим_изоляции"
	 xmlns="http://www.w3.org/2000/svg" xmlns:xlink="http://www.w3.org/1999/xlink" x="0px" y="0px" width="58.144px"
	 height="79.63px" viewBox="0 0 58.144 79.63" enable-background="new 0 0 58.144 79.63" xml:space="preserve">
<path fill-rule="evenodd" clip-rule="evenodd" fill="#FFFFFF" d="M57.939,0H0.204C0.092,0,0,0.092,0,0.204v79.222
	c0,0.112,0.092,0.204,0.204,0.204h57.735c0.112,0,0.204-0.092,0.204-0.204V0.204C58.144,0.092,58.052,0,57.939,0z"/>
<rect x="37.053" y="46.737" display="none" fill-rule="evenodd" clip-rule="evenodd" fill="#F9A818" width="4.103" height="0.872"/>
<rect x="42.56" y="46.737" display="none" fill-rule="evenodd" clip-rule="evenodd" fill="#F9A818" width="4.103" height="0.872"/>
<rect x="48.065" y="46.737" display="none" fill-rule="evenodd" clip-rule="evenodd" fill="#F9A818" width="4.103" height="0.872"/>
<rect x="53.571" y="46.737" display="none" fill-rule="evenodd" clip-rule="evenodd" fill="#F9A818" width="4.104" height="0.872"/>
<rect x="3.115" y="6.419" fill-rule="evenodd" clip-rule="evenodd" fill="#9BB5B5" width="22.309" height="1.292"/>
<g>
	<rect x="5.654" y="73.058" fill-rule="evenodd" clip-rule="evenodd" fill="#FFAE00" width="46.836" height="1.291"/>
	<rect x="44.163" y="46.028" fill-rule="evenodd" clip-rule="evenodd" fill="#0E8E42" width="8.327" height="27.03"/>
	<rect x="34.536" y="56.22" fill-rule="evenodd" clip-rule="evenodd" fill="#FCCC00" width="8.326" height="16.838"/>
	<rect x="24.909" y="61.922" fill-rule="evenodd" clip-rule="evenodd" fill="#89C53E" width="8.326" height="11.136"/>
	<rect x="15.281" y="56.7" fill-rule="evenodd" clip-rule="evenodd" fill="#FFA403" width="8.326" height="16.357"/>
	<rect x="5.654" y="61.361" fill-rule="evenodd" clip-rule="evenodd" fill="#077D38" width="8.326" height="11.697"/>
</g>
<g>
	<circle fill-rule="evenodd" clip-rule="evenodd" fill="#FFA403" cx="7.979" cy="49.699" r="1.785"/>
	<polygon fill-rule="evenodd" clip-rule="evenodd" fill="#FFA403" points="51.95,29.384 47.257,29.468 48.888,31.662 50.52,33.855 	
		"/>
	<path fill="#FFA403" d="M9.566,47.181l13.375-9.958l0.424-0.315l0.344,0.404l6.363,7.495l17.761-13.213l0.366,0.492l0.308,0.414
		L30.319,46.028l-0.424,0.315l-0.343-0.404l-6.363-7.495l-12.949,9.64C10.088,47.733,9.855,47.424,9.566,47.181z"/>
</g>
<rect x="3.115" y="8.419" fill-rule="evenodd" clip-rule="evenodd" fill="#9BB5B5" width="22.309" height="1.292"/>
<rect x="3.115" y="10.419" fill-rule="evenodd" clip-rule="evenodd" fill="#9BB5B5" width="22.309" height="1.292"/>
<rect x="3.115" y="12.419" fill-rule="evenodd" clip-rule="evenodd" fill="#9BB5B5" width="22.309" height="1.292"/>
<rect x="3.115" y="14.419" fill-rule="evenodd" clip-rule="evenodd" fill="#9BB5B5" width="22.309" height="1.292"/>
<rect x="3.115" y="16.419" fill-rule="evenodd" clip-rule="evenodd" fill="#9BB5B5" width="22.309" height="1.292"/>
<rect x="3.115" y="21.419" fill-rule="evenodd" clip-rule="evenodd" fill="#9BB5B5" width="22.309" height="1.292"/>
<rect x="3.115" y="23.419" fill-rule="evenodd" clip-rule="evenodd" fill="#9BB5B5" width="22.309" height="1.292"/>
<rect x="3.115" y="25.419" fill-rule="evenodd" clip-rule="evenodd" fill="#9BB5B5" width="22.309" height="1.292"/>
<rect x="3.115" y="27.419" fill-rule="evenodd" clip-rule="evenodd" fill="#9BB5B5" width="22.309" height="1.292"/>
<rect x="32.115" y="6.419" fill-rule="evenodd" clip-rule="evenodd" fill="#9BB5B5" width="22.309" height="1.292"/>
<rect x="32.115" y="8.419" fill-rule="evenodd" clip-rule="evenodd" fill="#9BB5B5" width="22.309" height="1.292"/>
<rect x="32.115" y="10.419" fill-rule="evenodd" clip-rule="evenodd" fill="#9BB5B5" width="22.309" height="1.292"/>
<rect x="32.115" y="12.419" fill-rule="evenodd" clip-rule="evenodd" fill="#9BB5B5" width="22.309" height="1.292"/>
<rect x="32.115" y="14.419" fill-rule="evenodd" clip-rule="evenodd" fill="#9BB5B5" width="22.309" height="1.292"/>
<rect x="32.115" y="16.419" fill-rule="evenodd" clip-rule="evenodd" fill="#9BB5B5" width="22.309" height="1.292"/>
</svg>
