<?xml version="1.0" encoding="utf-8"?>
<!-- Generator: Adobe Illustrator 17.1.0, SVG Export Plug-In . SVG Version: 6.00 Build 0)  -->
<!DOCTYPE svg PUBLIC "-//W3C//DTD SVG 1.1//EN" "http://www.w3.org/Graphics/SVG/1.1/DTD/svg11.dtd">
<svg version="1.1" id="Layer_1" xmlns="http://www.w3.org/2000/svg" xmlns:xlink="http://www.w3.org/1999/xlink" x="0px" y="0px"
	 viewBox="0 0 19.468 19.503" enable-background="new 0 0 19.468 19.503" xml:space="preserve">
<path fill="#FFFFFF" d="M0,7.883h3.438v10.361H0V7.883z"/>
<path fill="#FFFFFF" d="M19.468,17.517l-4.104-4.203l-0.533,0.333l-0.808-0.803c1.263-1.814,1.113-4.344-0.476-5.971
	c-0.109-0.111-0.233-0.195-0.349-0.292V0H9.762v5.566c-0.5,0.065-0.985,0.217-1.446,0.452V4.327H4.883v13.917h3.432v-3.95
	c0.46,0.235,0.946,0.386,1.446,0.452v3.497h3.435v-4.089l0.53,0.523l-0.305,0.626l4.105,4.199c0,0,0.892,0.011,1.43-0.617
	C19.496,18.257,19.468,17.517,19.468,17.517z M7.869,7.626c1.359-1.398,3.576-1.398,4.941-0.001c1.363,1.398,1.364,3.66-0.003,5.062
	c-1.362,1.394-3.577,1.396-4.942-0.002C6.499,11.289,6.501,9.023,7.869,7.626z"/>
</svg>
