<?xml version="1.0" encoding="utf-8"?>
<!-- Generator: Adobe Illustrator 19.2.0, SVG Export Plug-In . SVG Version: 6.00 Build 0)  -->
<svg version="1.1" id="Objects" xmlns="http://www.w3.org/2000/svg" xmlns:xlink="http://www.w3.org/1999/xlink" x="0px" y="0px"
	 viewBox="0 0 130 130" style="enable-background:new 0 0 130 130;" xml:space="preserve">
<style type="text/css">
	.st0{fill:#FFFFFF;}
	.st1{fill:#45464F;}
	.st2{fill:#D4D2CF;}
	.st3{fill:#3BBC0D;}
	.st4{fill:#E0DEDC;}
</style>
<circle class="st0" cx="65" cy="65" r="65"/>
<g>
	<path class="st1" d="M34.3,20.9c-1.2,0-2.3,1-2.3,2.3v88.6c0,1.2,1,2.3,2.3,2.3h61.3c1.2,0,2.3-1,2.3-2.3V23.1c0-1.2-1-2.3-2.3-2.3
		H34.3z"/>
	<rect x="35.8" y="26.2" class="st0" width="58.4" height="82.5"/>
	<g>
		<g>
			<rect x="43.2" y="90.9" class="st2" width="43.5" height="1.3"/>
			<rect x="43.2" y="94.2" class="st2" width="43.5" height="1.3"/>
			<rect x="43.2" y="97.4" class="st2" width="21.8" height="1.3"/>
		</g>
	</g>
	<g>
		<g>
			<rect x="43.2" y="81.2" class="st2" width="43.5" height="1.3"/>
			<rect x="43.2" y="84.4" class="st2" width="43.5" height="1.3"/>
			<rect x="43.2" y="87.7" class="st2" width="43.3" height="1.3"/>
		</g>
	</g>
	<g>
		<g>
			<g>
				<rect x="54.9" y="41" class="st2" width="31.7" height="1.4"/>
				<rect x="54.9" y="50.6" class="st2" width="31.7" height="1.4"/>
				<rect x="54.9" y="60.1" class="st2" width="31.7" height="1.4"/>
				<rect x="54.9" y="69.7" class="st2" width="31.7" height="1.4"/>
			</g>
		</g>
		<g>
			<g>
				<path class="st2" d="M47.3,45.6c-2.1,0-3.9-1.7-3.9-3.9c0-2.1,1.7-3.9,3.9-3.9c2.1,0,3.9,1.7,3.9,3.9
					C51.1,43.8,49.4,45.6,47.3,45.6z M47.3,38.6c-1.7,0-3.1,1.4-3.1,3.1c0,1.7,1.4,3.1,3.1,3.1c1.7,0,3.1-1.4,3.1-3.1
					C50.3,40,49,38.6,47.3,38.6z"/>
				<path class="st2" d="M47.3,55.1c-2.1,0-3.9-1.7-3.9-3.9c0-2.1,1.7-3.9,3.9-3.9c2.1,0,3.9,1.7,3.9,3.9
					C51.1,53.4,49.4,55.1,47.3,55.1z M47.3,48.2c-1.7,0-3.1,1.4-3.1,3.1c0,1.7,1.4,3.1,3.1,3.1c1.7,0,3.1-1.4,3.1-3.1
					C50.3,49.6,49,48.2,47.3,48.2z"/>
				<path class="st2" d="M47.3,64.7c-2.1,0-3.9-1.7-3.9-3.9s1.7-3.9,3.9-3.9c2.1,0,3.9,1.7,3.9,3.9S49.4,64.7,47.3,64.7z M47.3,57.8
					c-1.7,0-3.1,1.4-3.1,3.1c0,1.7,1.4,3.1,3.1,3.1c1.7,0,3.1-1.4,3.1-3.1C50.3,59.1,49,57.8,47.3,57.8z"/>
				<path class="st2" d="M47.3,74.2c-2.1,0-3.9-1.7-3.9-3.9c0-2.1,1.7-3.9,3.9-3.9c2.1,0,3.9,1.7,3.9,3.9
					C51.1,72.5,49.4,74.2,47.3,74.2z M47.3,67.3c-1.7,0-3.1,1.4-3.1,3.1c0,1.7,1.4,3.1,3.1,3.1c1.7,0,3.1-1.4,3.1-3.1
					C50.3,68.7,49,67.3,47.3,67.3z"/>
			</g>
		</g>
		<polygon class="st3" points="44.8,50.6 45.5,49.9 47.3,51.8 51.1,48 51.8,48.7 47.3,53.1 		"/>
	</g>
	<g>
		<path class="st4" d="M70,21c0-2.8-2.2-5-5-5c-2.8,0-5,2.2-5,5h-6.3v10.3h22.7V21H70z M65,19.3c0.9,0,1.7,0.8,1.7,1.7
			c0,0.9-0.8,1.7-1.7,1.7c-0.9,0-1.7-0.8-1.7-1.7C63.3,20.1,64.1,19.3,65,19.3z"/>
		<path class="st2" d="M70,21c0-2.8-2.2-5-5-5c-2.8,0-5,2.2-5,5h-6.3v5.1h22.7V21H70z M65,19.3c0.9,0,1.7,0.8,1.7,1.7
			c0,0.9-0.8,1.7-1.7,1.7c-0.9,0-1.7-0.8-1.7-1.7C63.3,20.1,64.1,19.3,65,19.3z"/>
		<rect x="53.7" y="25.1" class="st0" width="22.7" height="1.1"/>
		<rect x="53.7" y="26.2" class="st2" width="22.7" height="1.1"/>
	</g>
</g>
</svg>
