<?xml version="1.0" encoding="utf-8"?>
<!-- Generator: Adobe Illustrator 19.2.0, SVG Export Plug-In . SVG Version: 6.00 Build 0)  -->
<svg version="1.1" id="Objects" xmlns="http://www.w3.org/2000/svg" xmlns:xlink="http://www.w3.org/1999/xlink" x="0px" y="0px"
	 viewBox="0 0 130 130" style="enable-background:new 0 0 130 130;" xml:space="preserve">
<style type="text/css">
	.st0{fill:#FFFFFF;}
	.st1{display:none;}
	.st2{display:inline;fill:#45464F;}
	.st3{display:inline;fill:#FFFFFF;}
	.st4{display:inline;}
	.st5{fill:#D4D2CF;}
	.st6{fill:#3BBC0D;}
	.st7{fill:#E0DEDC;}
	.st8{fill:#5F7283;}
	.st9{fill:#45464F;}
	.st10{fill:#32495B;}
	.st11{fill:#FFD360;}
	.st12{fill:#FC513F;}
	.st13{fill:#3CBD0D;}
	.st14{fill:#415B6D;}
	.st15{fill:#CECECE;}
	.st16{fill:#404040;}
	.st17{fill:#EF7F1A;}
	.st18{clip-path:url(#SVGID_2_);fill:#3CBD0D;}
	.st19{clip-path:url(#SVGID_2_);}
	.st20{fill:#F76666;}
	.st21{fill:#4BD4C0;}
</style>
<circle class="st0" cx="65" cy="65" r="65"/>
<g class="st1">
	<path class="st2" d="M34.3,20.9c-1.2,0-2.3,1-2.3,2.3v88.6c0,1.2,1,2.3,2.3,2.3h61.3c1.2,0,2.3-1,2.3-2.3V23.1c0-1.2-1-2.3-2.3-2.3
		H34.3z"/>
	<rect x="35.8" y="26.2" class="st3" width="58.4" height="82.5"/>
	<g class="st4">
		<g>
			<rect x="43.2" y="90.9" class="st5" width="43.5" height="1.3"/>
			<rect x="43.2" y="94.2" class="st5" width="43.5" height="1.3"/>
			<rect x="43.2" y="97.4" class="st5" width="21.8" height="1.3"/>
		</g>
	</g>
	<g class="st4">
		<g>
			<rect x="43.2" y="81.2" class="st5" width="43.5" height="1.3"/>
			<rect x="43.2" y="84.4" class="st5" width="43.5" height="1.3"/>
			<rect x="43.2" y="87.7" class="st5" width="43.3" height="1.3"/>
		</g>
	</g>
	<g class="st4">
		<g>
			<g>
				<rect x="54.9" y="41" class="st5" width="31.7" height="1.4"/>
				<rect x="54.9" y="50.6" class="st5" width="31.7" height="1.4"/>
				<rect x="54.9" y="60.1" class="st5" width="31.7" height="1.4"/>
				<rect x="54.9" y="69.7" class="st5" width="31.7" height="1.4"/>
			</g>
		</g>
		<g>
			<g>
				<path class="st5" d="M47.3,45.6c-2.1,0-3.9-1.7-3.9-3.9c0-2.1,1.7-3.9,3.9-3.9c2.1,0,3.9,1.7,3.9,3.9
					C51.1,43.8,49.4,45.6,47.3,45.6z M47.3,38.6c-1.7,0-3.1,1.4-3.1,3.1c0,1.7,1.4,3.1,3.1,3.1c1.7,0,3.1-1.4,3.1-3.1
					C50.3,40,49,38.6,47.3,38.6z"/>
				<path class="st5" d="M47.3,55.1c-2.1,0-3.9-1.7-3.9-3.9c0-2.1,1.7-3.9,3.9-3.9c2.1,0,3.9,1.7,3.9,3.9
					C51.1,53.4,49.4,55.1,47.3,55.1z M47.3,48.2c-1.7,0-3.1,1.4-3.1,3.1c0,1.7,1.4,3.1,3.1,3.1c1.7,0,3.1-1.4,3.1-3.1
					C50.3,49.6,49,48.2,47.3,48.2z"/>
				<path class="st5" d="M47.3,64.7c-2.1,0-3.9-1.7-3.9-3.9s1.7-3.9,3.9-3.9c2.1,0,3.9,1.7,3.9,3.9S49.4,64.7,47.3,64.7z M47.3,57.8
					c-1.7,0-3.1,1.4-3.1,3.1c0,1.7,1.4,3.1,3.1,3.1c1.7,0,3.1-1.4,3.1-3.1C50.3,59.1,49,57.8,47.3,57.8z"/>
				<path class="st5" d="M47.3,74.2c-2.1,0-3.9-1.7-3.9-3.9c0-2.1,1.7-3.9,3.9-3.9c2.1,0,3.9,1.7,3.9,3.9
					C51.1,72.5,49.4,74.2,47.3,74.2z M47.3,67.3c-1.7,0-3.1,1.4-3.1,3.1c0,1.7,1.4,3.1,3.1,3.1c1.7,0,3.1-1.4,3.1-3.1
					C50.3,68.7,49,67.3,47.3,67.3z"/>
			</g>
		</g>
		<polygon class="st6" points="44.8,50.6 45.5,49.9 47.3,51.8 51.1,48 51.8,48.7 47.3,53.1 		"/>
	</g>
	<g class="st4">
		<path class="st7" d="M70,21c0-2.8-2.2-5-5-5c-2.8,0-5,2.2-5,5h-6.3v10.3h22.7V21H70z M65,19.3c0.9,0,1.7,0.8,1.7,1.7
			c0,0.9-0.8,1.7-1.7,1.7c-0.9,0-1.7-0.8-1.7-1.7C63.3,20.1,64.1,19.3,65,19.3z"/>
		<path class="st5" d="M70,21c0-2.8-2.2-5-5-5c-2.8,0-5,2.2-5,5h-6.3v5.1h22.7V21H70z M65,19.3c0.9,0,1.7,0.8,1.7,1.7
			c0,0.9-0.8,1.7-1.7,1.7c-0.9,0-1.7-0.8-1.7-1.7C63.3,20.1,64.1,19.3,65,19.3z"/>
		<rect x="53.7" y="25.1" class="st0" width="22.7" height="1.1"/>
		<rect x="53.7" y="26.2" class="st5" width="22.7" height="1.1"/>
	</g>
</g>
<g>
	<g>
		<g>
			<g>
				<path class="st8" d="M71.2,81.5h-4.3h-4.1h-4.3c0,0,1,17.9-5.2,17.9h9.5h4.1h9.5C70.2,99.4,71.2,81.5,71.2,81.5z"/>
				<g>
					<path class="st9" d="M104.9,35.7H24.8c-1.3,0-2.3,1-2.3,2.3v47.2v0.5v3.7c0,1.1,0.9,2,2,2h80.7c1.1,0,2-0.9,2-2v-3.7v-0.5V38
						C107.2,36.7,106.2,35.7,104.9,35.7z"/>
					<rect x="25.2" y="38.3" class="st0" width="79.3" height="42.6"/>
				</g>
				<rect x="25.2" y="80.5" class="st8" width="79.3" height="2.5"/>
				<circle class="st8" cx="64.9" cy="87.1" r="2.1"/>
			</g>
			<rect x="53.1" y="99" class="st10" width="23.6" height="0.8"/>
		</g>
		<g>
			<g>
				<g>
					<path class="st9" d="M74.3,71.6H55.4V59.8c0-5.2,4.2-9.4,9.4-9.4h0c5.2,0,9.4,4.2,9.4,9.4V71.6z"/>
					<rect x="56" y="53.8" class="st0" width="17.8" height="17.2"/>
					<g>
						<path class="st11" d="M58.1,51.6c0.3,0.4-0.1,0.8-0.5,0.5C57.3,51.7,57.7,51.3,58.1,51.6z"/>
						<g>
							<circle class="st12" cx="56.8" cy="51.8" r="0.4"/>
							<path class="st13" d="M59.2,51.6c0.3,0.4-0.1,0.8-0.5,0.5C58.4,51.7,58.8,51.3,59.2,51.6z"/>
						</g>
					</g>
					<path class="st14" d="M72.6,52.3H60.7c-0.3,0-0.5-0.2-0.5-0.5l0,0c0-0.3,0.2-0.5,0.5-0.5h11.9c0.3,0,0.5,0.2,0.5,0.5l0,0
						C73.1,52.1,72.9,52.3,72.6,52.3z"/>
				</g>
				<g>
					<path class="st9" d="M62.1,59.2l-0.4,0.2c-0.1-0.1-0.2-0.2-0.3-0.2l0.1-0.4c0,0,0-0.1-0.1-0.1l-0.6-0.1c0,0-0.1,0-0.1,0.1
						l-0.1,0.4c-0.1,0-0.3,0-0.4,0.1l-0.2-0.4c0,0-0.1,0-0.1,0L59.5,59c0,0,0,0.1,0,0.1l0.2,0.4c-0.1,0.1-0.2,0.2-0.2,0.3l-0.4-0.1
						c0,0-0.1,0-0.1,0.1l-0.1,0.6c0,0,0,0.1,0.1,0.1l0.4,0.1c0,0.1,0,0.3,0.1,0.4L59,61.1c0,0,0,0.1,0,0.1l0.3,0.5c0,0,0.1,0,0.1,0
						l0.4-0.2c0.1,0.1,0.2,0.2,0.3,0.2L60,62.2c0,0,0,0.1,0.1,0.1l0.6,0.1c0,0,0.1,0,0.1-0.1l0.1-0.4c0.1,0,0.3,0,0.4-0.1l0.2,0.4
						c0,0,0.1,0,0.1,0l0.5-0.3c0,0,0-0.1,0-0.1l-0.2-0.4c0.1-0.1,0.2-0.2,0.2-0.3l0.4,0.1c0,0,0.1,0,0.1-0.1l0.1-0.6
						c0,0,0-0.1-0.1-0.1l-0.4-0.1c0-0.1,0-0.3-0.1-0.4l0.4-0.2c0,0,0-0.1,0-0.1L62.1,59.2C62.2,59.2,62.1,59.2,62.1,59.2z
						 M61.2,61.2c-0.4,0.3-0.9,0.1-1.2-0.3c-0.3-0.4-0.1-0.9,0.3-1.2c0.4-0.3,0.9-0.1,1.2,0.3C61.7,60.4,61.6,61,61.2,61.2z"/>
					<path class="st9" d="M62,56.4l-0.2,0.1c-0.1-0.1-0.1-0.1-0.2-0.1l0.1-0.2c0,0,0,0,0,0l-0.3-0.1c0,0,0,0,0,0l-0.1,0.2
						c-0.1,0-0.2,0-0.2,0l-0.1-0.2c0,0,0,0-0.1,0l-0.3,0.2c0,0,0,0,0,0.1l0.1,0.2c-0.1,0.1-0.1,0.1-0.1,0.2l-0.2-0.1c0,0,0,0,0,0
						l-0.1,0.3c0,0,0,0,0,0l0.2,0.1c0,0.1,0,0.2,0,0.2l-0.2,0.1c0,0,0,0,0,0.1l0.2,0.3c0,0,0,0,0.1,0l0.2-0.1
						c0.1,0.1,0.1,0.1,0.2,0.1l-0.1,0.2c0,0,0,0,0,0l0.3,0.1c0,0,0,0,0,0l0.1-0.2c0.1,0,0.2,0,0.2,0l0.1,0.2c0,0,0,0,0.1,0l0.3-0.2
						c0,0,0,0,0-0.1l-0.1-0.2c0.1-0.1,0.1-0.1,0.1-0.2l0.2,0.1c0,0,0,0,0,0l0.1-0.3c0,0,0,0,0,0l-0.2-0.1c0-0.1,0-0.2,0-0.2l0.2-0.1
						c0,0,0,0,0-0.1L62,56.4C62.1,56.4,62,56.4,62,56.4z M61.5,57.6c-0.2,0.1-0.5,0.1-0.7-0.2c-0.1-0.2-0.1-0.5,0.2-0.7
						c0.2-0.1,0.5-0.1,0.7,0.2C61.8,57.1,61.7,57.4,61.5,57.6z"/>
					<path class="st13" d="M59.4,56.7l-0.3,0.2c-0.1-0.1-0.2-0.1-0.3-0.2l0.1-0.3c0,0,0-0.1,0-0.1l-0.4-0.1c0,0-0.1,0-0.1,0
						l-0.1,0.3c-0.1,0-0.2,0-0.3,0.1l-0.2-0.3c0,0,0,0-0.1,0l-0.4,0.2c0,0,0,0,0,0.1l0.2,0.3c-0.1,0.1-0.1,0.2-0.2,0.3L57,57
						c0,0-0.1,0-0.1,0l-0.1,0.4c0,0,0,0.1,0,0.1l0.3,0.1c0,0.1,0,0.2,0.1,0.3L57,58.2c0,0,0,0,0,0.1l0.2,0.4c0,0,0,0,0.1,0l0.3-0.2
						c0.1,0.1,0.2,0.1,0.3,0.2L57.8,59c0,0,0,0.1,0,0.1l0.4,0.1c0,0,0.1,0,0.1,0l0.1-0.3c0.1,0,0.2,0,0.3-0.1l0.2,0.3c0,0,0,0,0.1,0
						l0.4-0.2c0,0,0,0,0-0.1l-0.2-0.3c0.1-0.1,0.1-0.2,0.2-0.3l0.3,0.1c0,0,0.1,0,0.1,0l0.1-0.4c0,0,0-0.1,0-0.1l-0.3-0.1
						c0-0.1,0-0.2-0.1-0.3l0.3-0.2c0,0,0,0,0-0.1L59.4,56.7C59.5,56.7,59.5,56.6,59.4,56.7z M58.7,58.2c-0.3,0.2-0.7,0.1-0.9-0.2
						c-0.2-0.3-0.1-0.7,0.2-0.9c0.3-0.2,0.7-0.1,0.9,0.2C59.2,57.6,59.1,58,58.7,58.2z"/>
				</g>
				<g>
					<g>
						<path class="st15" d="M66.7,59l-1.5-1.3c-0.2,0.2-0.9,1-0.9,1l0,0c0,0,0.6-0.6,0.9-1l0,0L66.7,59l0.8-1l0.5,0.4l1.3-1.3
							l1.8,1.3l1.5-1.6l0,0l-1.5,1.7l-1.8-1.2l-1.3,1.2l-0.5-0.4L66.7,59z"/>
					</g>
					
						<ellipse transform="matrix(0.9978 -6.646874e-002 6.646874e-002 0.9978 -3.7626 4.403)" class="st16" cx="64.3" cy="58.7" rx="0.1" ry="0.1"/>
					
						<ellipse transform="matrix(0.9977 -6.729255e-002 6.729255e-002 0.9977 -3.7359 4.5195)" class="st16" cx="65.2" cy="57.7" rx="0.1" ry="0.1"/>
					
						<ellipse transform="matrix(0.9978 -6.658117e-002 6.658117e-002 0.9978 -3.7759 4.5703)" class="st16" cx="66.7" cy="58.9" rx="0.1" ry="0.1"/>
					
						<ellipse transform="matrix(0.9977 -6.734972e-002 6.734972e-002 0.9977 -3.7527 4.6793)" class="st16" cx="67.5" cy="58" rx="0.1" ry="0.1"/>
					
						<ellipse transform="matrix(0.9978 -6.649641e-002 6.649641e-002 0.9978 -3.7306 4.6544)" class="st16" cx="68.1" cy="58.4" rx="0.1" ry="0.1"/>
					
						<ellipse transform="matrix(0.9977 -6.729255e-002 6.729255e-002 0.9977 -3.6903 4.798)" class="st16" cx="69.4" cy="57.2" rx="0.1" ry="0.1"/>
					
						<ellipse transform="matrix(0.9978 -6.650206e-002 6.650206e-002 0.9978 -3.6151 4.9552)" class="st16" cx="72.6" cy="56.8" rx="0.1" ry="0.1"/>
					
						<ellipse transform="matrix(0.9978 -6.649641e-002 6.649641e-002 0.9978 -3.7268 4.8586)" class="st16" cx="71.1" cy="58.4" rx="0.1" ry="0.1"/>
				</g>
				<polygon class="st17" points="64.2,61.6 65.5,61.2 66.2,60.9 67.4,61.5 68.2,60.5 69.3,60.6 70,59.6 71.2,59.8 72.7,59.1 
					72.7,62.7 64.3,62.7 				"/>
				<g>
					<g>
						<path class="st15" d="M65.5,66.6H57c-0.1,0-0.1-0.1-0.1-0.1l0,0c0-0.1,0.1-0.1,0.1-0.1h8.5c0.1,0,0.1,0.1,0.1,0.1l0,0
							C65.6,66.5,65.5,66.6,65.5,66.6z"/>
						<path class="st15" d="M65.5,67.1H57c-0.1,0-0.1-0.1-0.1-0.1l0,0c0-0.1,0.1-0.1,0.1-0.1h8.5c0.1,0,0.1,0.1,0.1,0.1l0,0
							C65.6,67,65.5,67.1,65.5,67.1z"/>
					</g>
					<g>
						<path class="st15" d="M65.5,68.4H57c-0.1,0-0.1-0.1-0.1-0.1l0,0c0-0.1,0.1-0.1,0.1-0.1h8.5c0.1,0,0.1,0.1,0.1,0.1l0,0
							C65.6,68.3,65.5,68.4,65.5,68.4z"/>
						<path class="st15" d="M65.5,68.9H57c-0.1,0-0.1-0.1-0.1-0.1l0,0c0-0.1,0.1-0.1,0.1-0.1h8.5c0.1,0,0.1,0.1,0.1,0.1l0,0
							C65.6,68.8,65.5,68.9,65.5,68.9z"/>
					</g>
				</g>
				<path class="st15" d="M70.9,69.8h-1.4c-1,0-1.9-0.8-1.9-1.9v0c0-1,0.8-1.9,1.9-1.9h1.4c1,0,1.9,0.8,1.9,1.9v0
					C72.7,69,71.9,69.8,70.9,69.8z"/>
			</g>
			<g>
				<g>
					<g>
						<path class="st9" d="M51.9,73.7H28.5V58.6c0-6.2,5-11.2,11.2-11.2h0.9c6.2,0,11.2,5,11.2,11.2V73.7z"/>
						<rect x="29.2" y="51.6" class="st0" width="22.1" height="21.3"/>
						<g>
							<path class="st11" d="M31.8,48.8c0.4,0.5-0.2,1-0.7,0.7C30.8,49,31.3,48.4,31.8,48.8z"/>
							<g>
								<circle class="st12" cx="30.1" cy="49.1" r="0.4"/>
								<path class="st13" d="M33.2,48.8c0.4,0.5-0.2,1-0.7,0.7C32.1,49,32.7,48.4,33.2,48.8z"/>
							</g>
						</g>
						<path class="st14" d="M49.8,49.7H35c-0.3,0-0.6-0.3-0.6-0.6l0,0c0-0.3,0.3-0.6,0.6-0.6h14.8c0.3,0,0.6,0.3,0.6,0.6l0,0
							C50.4,49.5,50.2,49.7,49.8,49.7z"/>
					</g>
					<g>
						<g>
							<defs>
								
									<ellipse id="SVGID_1_" transform="matrix(0.2581 -0.9661 0.9661 0.2581 -29.9743 76.6083)" cx="34.9" cy="57.8" rx="4.2" ry="4.2"/>
							</defs>
							<clipPath id="SVGID_2_">
								<use xlink:href="#SVGID_1_"  style="overflow:visible;"/>
							</clipPath>
							
								<ellipse transform="matrix(0.2581 -0.9661 0.9661 0.2581 -29.9743 76.6083)" class="st18" cx="34.9" cy="57.8" rx="4.2" ry="4.2"/>
							<g class="st19">
								<g>
									<polygon class="st20" points="34.9,57.8 38.6,52.4 31.4,53.4 									"/>
									<polygon class="st0" points="40.9,59.8 34.9,57.8 40.4,55.2 									"/>
								</g>
								<g>
									<polygon class="st17" points="34.9,57.8 38.6,52.4 31.4,53.4 									"/>
									<polygon class="st9" points="40.9,59.8 34.9,57.8 38.6,52.4 									"/>
								</g>
							</g>
						</g>
						<g>
							<path class="st17" d="M47.6,62L47.6,62c-0.3,0-0.5-0.2-0.5-0.5V58c0-0.3,0.2-0.5,0.5-0.5l0,0c0.3,0,0.5,0.2,0.5,0.5v3.5
								C48.1,61.8,47.9,62,47.6,62z"/>
							<g>
								<path class="st10" d="M46.1,62L46.1,62c-0.3,0-0.5-0.2-0.5-0.5v-2.7c0-0.3,0.2-0.5,0.5-0.5l0,0c0.3,0,0.5,0.2,0.5,0.5v2.7
									C46.6,61.8,46.3,62,46.1,62z"/>
								<path class="st21" d="M49.2,62L49.2,62c-0.3,0-0.5-0.2-0.5-0.5v-4.3c0-0.3,0.2-0.5,0.5-0.5l0,0c0.3,0,0.5,0.2,0.5,0.5v4.3
									C49.7,61.8,49.5,62,49.2,62z"/>
							</g>
						</g>
						<path class="st15" d="M48.4,53.3h-4.6c-0.2,0-0.3,0.1-0.3,0.3v1.7c0,0.2,0.1,0.3,0.3,0.3H47c0.3,0.5,0.6,1.2,0.6,1.2v-1.2h0.7
							c0.2,0,0.3-0.1,0.3-0.3v-1.7C48.7,53.5,48.6,53.3,48.4,53.3z"/>
						<g>
							<g>
								<path class="st15" d="M44.4,61.2h-3.8c-0.1,0-0.2-0.1-0.2-0.2l0,0c0-0.1,0.1-0.2,0.2-0.2h3.8c0.1,0,0.2,0.1,0.2,0.2l0,0
									C44.6,61.1,44.5,61.2,44.4,61.2z"/>
								<path class="st15" d="M44.4,62h-3.8c-0.1,0-0.2-0.1-0.2-0.2l0,0c0-0.1,0.1-0.2,0.2-0.2h3.8c0.1,0,0.2,0.1,0.2,0.2l0,0
									C44.6,61.9,44.5,62,44.4,62z"/>
							</g>
							<g>
								<path class="st15" d="M44.4,59.8h-3.8c-0.1,0-0.2-0.1-0.2-0.2l0,0c0-0.1,0.1-0.2,0.2-0.2h3.8c0.1,0,0.2,0.1,0.2,0.2l0,0
									C44.6,59.7,44.5,59.8,44.4,59.8z"/>
								<path class="st15" d="M44.4,60.6h-3.8c-0.1,0-0.2-0.1-0.2-0.2l0,0c0-0.1,0.1-0.2,0.2-0.2h3.8c0.1,0,0.2,0.1,0.2,0.2l0,0
									C44.6,60.5,44.5,60.6,44.4,60.6z"/>
							</g>
						</g>
					</g>
					<g>
						<g>
							<circle class="st13" cx="32.7" cy="64.9" r="0.5"/>
							<circle class="st13" cx="34.6" cy="64.9" r="0.5"/>
							<circle class="st13" cx="36.5" cy="64.9" r="0.5"/>
							<circle class="st13" cx="38.3" cy="64.9" r="0.5"/>
							<circle class="st13" cx="40.2" cy="64.9" r="0.5"/>
							<circle class="st13" cx="42.1" cy="64.9" r="0.5"/>
							<circle class="st21" cx="44" cy="64.9" r="0.5"/>
							<circle class="st21" cx="45.8" cy="64.9" r="0.5"/>
							<circle class="st15" cx="47.7" cy="64.9" r="0.5"/>
						</g>
						<g>
							<circle class="st17" cx="32.7" cy="66.8" r="0.5"/>
							<circle class="st17" cx="34.6" cy="66.8" r="0.5"/>
							<circle class="st17" cx="36.5" cy="66.8" r="0.5"/>
							<circle class="st17" cx="38.3" cy="66.8" r="0.5"/>
							<circle class="st12" cx="40.2" cy="66.8" r="0.5"/>
							<circle class="st15" cx="42.1" cy="66.8" r="0.5"/>
							<circle class="st15" cx="44" cy="66.8" r="0.5"/>
							<circle class="st15" cx="45.8" cy="66.8" r="0.5"/>
							<circle class="st15" cx="47.7" cy="66.8" r="0.5"/>
						</g>
						<g>
							<circle class="st9" cx="32.7" cy="68.7" r="0.5"/>
							<circle class="st9" cx="34.6" cy="68.7" r="0.5"/>
							<circle class="st9" cx="36.5" cy="68.7" r="0.5"/>
							<circle class="st10" cx="38.3" cy="68.7" r="0.5"/>
							<circle class="st10" cx="40.2" cy="68.7" r="0.5"/>
							<circle class="st10" cx="42.1" cy="68.7" r="0.5"/>
							<circle class="st15" cx="44" cy="68.7" r="0.5"/>
							<circle class="st15" cx="45.8" cy="68.7" r="0.5"/>
							<circle class="st15" cx="47.7" cy="68.7" r="0.5"/>
						</g>
						<g>
							<circle class="st11" cx="32.7" cy="70.6" r="0.5"/>
							<circle class="st11" cx="34.6" cy="70.6" r="0.5"/>
							<circle class="st15" cx="36.5" cy="70.6" r="0.5"/>
							<circle class="st15" cx="38.3" cy="70.6" r="0.5"/>
							<circle class="st15" cx="40.2" cy="70.6" r="0.5"/>
							<circle class="st15" cx="42.1" cy="70.6" r="0.5"/>
							<circle class="st15" cx="44" cy="70.6" r="0.5"/>
							<circle class="st15" cx="45.8" cy="70.6" r="0.5"/>
							<circle class="st15" cx="47.7" cy="70.6" r="0.5"/>
						</g>
					</g>
				</g>
				<g>
					<g>
						<path class="st9" d="M101.2,73.7H77.8V58.6c0-6.2,5-11.2,11.2-11.2H90c6.2,0,11.2,5,11.2,11.2V73.7z"/>
						<rect x="78.5" y="51.6" class="st0" width="22.1" height="21.3"/>
						<g>
							<path class="st11" d="M81.1,48.8c0.4,0.5-0.2,1-0.7,0.7C80.1,49,80.6,48.4,81.1,48.8z"/>
							<g>
								<circle class="st12" cx="79.4" cy="49.1" r="0.4"/>
								<path class="st13" d="M82.5,48.8c0.4,0.5-0.2,1-0.7,0.7C81.4,49,82,48.4,82.5,48.8z"/>
							</g>
						</g>
						<path class="st14" d="M99.1,49.7H84.3c-0.3,0-0.6-0.3-0.6-0.6l0,0c0-0.3,0.3-0.6,0.6-0.6h14.8c0.3,0,0.6,0.3,0.6,0.6l0,0
							C99.7,49.5,99.5,49.7,99.1,49.7z"/>
					</g>
					<g>
						<path class="st17" d="M84.1,67.3v3.1c0,0.4-0.3,0.7-0.7,0.7l0,0c-0.4,0-0.7-0.3-0.7-0.7v-3.1c0-0.4,0.3-0.7,0.7-0.7h0
							C83.8,66.6,84.1,66.9,84.1,67.3z"/>
						<path class="st9" d="M86.1,64.7v5.7c0,0.4-0.3,0.7-0.7,0.7l0,0c-0.4,0-0.7-0.3-0.7-0.7v-5.7c0-0.4,0.3-0.7,0.7-0.7h0
							C85.8,64,86.1,64.3,86.1,64.7z"/>
						<path class="st17" d="M88.2,66.3v4.1c0,0.4-0.3,0.7-0.7,0.7l0,0c-0.4,0-0.7-0.3-0.7-0.7v-4.1c0-0.4,0.3-0.7,0.7-0.7h0
							C87.9,65.6,88.2,65.9,88.2,66.3z"/>
						<path class="st9" d="M90.2,63.9v6.5c0,0.4-0.3,0.7-0.7,0.7h0c-0.4,0-0.7-0.3-0.7-0.7v-6.5c0-0.4,0.3-0.7,0.7-0.7l0,0
							C89.9,63.2,90.2,63.5,90.2,63.9z"/>
						<path class="st17" d="M92.2,64.6v5.7c0,0.4-0.3,0.7-0.7,0.7h0c-0.4,0-0.7-0.3-0.7-0.7v-5.7c0-0.4,0.3-0.7,0.7-0.7l0,0
							C91.9,64,92.2,64.3,92.2,64.6z"/>
						<path class="st9" d="M94.2,62.4v8c0,0.4-0.3,0.7-0.7,0.7l0,0c-0.4,0-0.7-0.3-0.7-0.7v-8c0-0.4,0.3-0.7,0.7-0.7l0,0
							C93.9,61.7,94.2,62,94.2,62.4z"/>
						<path class="st17" d="M96.2,61.6v8.8c0,0.4-0.3,0.7-0.7,0.7l0,0c-0.4,0-0.7-0.3-0.7-0.7v-8.8c0-0.4,0.3-0.7,0.7-0.7l0,0
							C95.9,60.9,96.2,61.2,96.2,61.6z"/>
					</g>
					<g>
						<g>
							<circle class="st15" cx="81.2" cy="55.3" r="1.7"/>
							<path class="st17" d="M81.2,55.4v-2.3c-1.2,0-2.1,1-2.1,2.1c0,1.2,1,2.1,2.1,2.1c1.1,0,2-0.9,2.1-1.9H81.2z"/>
						</g>
						<g>
							<circle class="st15" cx="86.9" cy="55.3" r="1.7"/>
							<path class="st9" d="M86.9,53.1c-1.2,0-2.1,1-2.1,2.1c0,1.2,1,2.1,2.1,2.1V53.1z"/>
						</g>
						<g>
							<circle class="st15" cx="92.5" cy="55.3" r="1.7"/>
							<path class="st13" d="M91,56.8l1.5-1.5v-2.1c-1.2,0-2.1,1-2.1,2.1C90.4,55.8,90.6,56.4,91,56.8z"/>
						</g>
						<g>
							<circle class="st15" cx="98.2" cy="55.3" r="1.7"/>
							<path class="st11" d="M98.2,53.1c-0.6,0-1.1,0.2-1.5,0.6l1.5,1.5V53.1z"/>
						</g>
					</g>
					<g>
						<path class="st15" d="M90,59.9H79.5c-0.1,0-0.2-0.1-0.2-0.2l0,0c0-0.1,0.1-0.2,0.2-0.2H90c0.1,0,0.2,0.1,0.2,0.2l0,0
							C90.2,59.9,90.1,59.9,90,59.9z"/>
						<path class="st15" d="M90,60.5H79.5c-0.1,0-0.2-0.1-0.2-0.2l0,0c0-0.1,0.1-0.2,0.2-0.2H90c0.1,0,0.2,0.1,0.2,0.2l0,0
							C90.2,60.5,90.1,60.5,90,60.5z"/>
					</g>
				</g>
			</g>
		</g>
	</g>
</g>
</svg>
