<?xml version="1.0" encoding="utf-8"?>
<!-- Generator: Adobe Illustrator 19.2.0, SVG Export Plug-In . SVG Version: 6.00 Build 0)  -->
<svg version="1.1" id="Objects" xmlns="http://www.w3.org/2000/svg" xmlns:xlink="http://www.w3.org/1999/xlink" x="0px" y="0px"
	 viewBox="0 0 130 130" style="enable-background:new 0 0 130 130;" xml:space="preserve">
<style type="text/css">
	.st0{clip-path:url(#SVGID_2_);fill:#FFFFFF;}
	.st1{clip-path:url(#SVGID_2_);}
	.st2{fill:#EFB378;}
	.st3{fill:#FFCC99;}
	.st4{fill:#FFFFFF;}
	.st5{fill:#45464F;}
	.st6{fill:#A6DAE9;}
	.st7{fill:#B0B0B0;}
	.st8{fill:#F1F2F2;}
	.st9{fill:#2C465F;}
	.st10{fill:#3BBC0D;}
</style>
<g id="Hand_shake">
	<defs>
		<circle id="SVGID_1_" cx="65" cy="65" r="65"/>
	</defs>
	<use xlink:href="#SVGID_1_"  style="overflow:visible;fill:#FFFFFF;"/>
	<clipPath id="SVGID_2_">
		<use xlink:href="#SVGID_1_"  style="overflow:visible;"/>
	</clipPath>
	<circle class="st0" cx="65" cy="65" r="65"/>
	<g id="Hand_shake_1_" class="st1">
		<g>
			<g>
				<g>
					<g>
						<path class="st2" d="M67.8,75.8c2.9-2.4,7.1-1.9,9.5,1l6.9,8.5c2.4,2.9,1.9,7.1-1,9.5L71.9,104c-2.9,2.4-7.1,1.9-9.5-1
							l-6.9-8.5c-2.4-2.9-1.9-7.1,1-9.5L67.8,75.8z"/>
					</g>
					<g>
						<path class="st2" d="M88.5,94.3l-13.8-2.7c-2.6-0.3-4.4-2.5-4.2-5.1l0.8-7.5c0.3-2.6,2.5-4.4,5.1-4.2l20,2.2L88.5,94.3z"/>
					</g>
				</g>
			</g>
			<g>
				<g>
					<g>
						<g>
							<path class="st3" d="M60.6,73.8c-2.9-2.3-7.1-1.9-9.5,1L44.5,83c-2.3,2.9-1.9,7.1,1,9.5l9.5,8c2.9,2.3,7.1,1.9,9.5-1l6.6-8.2
								c2.3-2.9,1.9-7.1-1-9.5L60.6,73.8z"/>
						</g>
						<g>
							<path class="st3" d="M73.7,104.5c-1,1.2-2.8,1.4-4,0.4L53.5,91.8c-1.2-1-1.4-2.8-0.4-4l0,0c1-1.2,2.8-1.4,4-0.4l16.2,13.1
								C74.5,101.5,74.6,103.3,73.7,104.5L73.7,104.5z"/>
						</g>
						<g>
							<path class="st3" d="M69.3,108.7c-1,1.2-2.8,1.4-4,0.4l-16-13.4c-1.2-1-1.4-2.8-0.4-4l0,0c1-1.2,2.8-1.4,4-0.4l16,13.4
								C70.2,105.7,70.3,107.5,69.3,108.7L69.3,108.7z"/>
						</g>
						<g>
							<path class="st3" d="M77.8,100.2c-1,1.2-2.8,1.4-4,0.4L57.6,87.5c-1.2-1-1.4-2.8-0.4-4l0,0c1-1.2,2.8-1.4,4-0.4l16.2,13.1
								C78.6,97.2,78.8,99,77.8,100.2L77.8,100.2z"/>
						</g>
						<g>
							<path class="st3" d="M81.9,95.8c-1,1.2-2.8,1.4-4,0.4L61.7,83.1c-1.2-1-1.4-2.8-0.4-4l0,0c1-1.2,2.8-1.4,4-0.4l16.2,13.1
								C82.7,92.9,82.9,94.6,81.9,95.8L81.9,95.8z"/>
						</g>
						<g>
							<path class="st3" d="M42.3,93.7l14.5-1.2c2.7-0.3,4.7-2.7,4.4-5.5l-0.8-8.1c-0.3-2.7-2.7-4.7-5.5-4.4l-14.5,1.2L42.3,93.7z"
								/>
						</g>
					</g>
					<g>
						<g>
							<g>
								<path class="st3" d="M66.8,72.4l0.6,7.8c0.2,2.7,2.6,4.7,5.3,4.5l1.6-0.1c0.1,0,0.1,0,0.2,0l-0.9-9.8L66.8,72.4z"/>
							</g>
						</g>
						<g>
							<polygon class="st3" points="71.1,79.9 61.9,77.9 63.3,71.3 73.6,74.6 							"/>
						</g>
						<g>
							<path class="st3" d="M40.7,73.7l22.7-2.4c0.2,0.5,0.3,1.1,0.4,1.7c0.6,5.6-4.9,10.7-12.2,11.4c-3.8,0.4-7.4-0.5-10-2.2
								L40.7,73.7z"/>
						</g>
					</g>
				</g>
			</g>
			<g>
				<g>
					
						<rect x="29.3" y="76.9" transform="matrix(0.2606 -0.9654 0.9654 0.2606 -49.5559 99.45)" class="st4" width="21.7" height="10.3"/>
					<polygon class="st5" points="-29.5,76.2 36.6,93.2 42.7,70.7 -29.5,52.1 					"/>
				</g>
				<ellipse transform="matrix(0.2605 -0.9655 0.9655 0.2605 -58.0845 105.9965)" class="st6" cx="40.2" cy="90.9" rx="1" ry="1"/>
			</g>
			<g>
				<g>
					<g>
						<g>
							<path class="st2" d="M62,73.8l-1,7.9c-0.4,2.7-2.9,4.6-5.7,4.2l-1.7-0.2c-0.1,0-0.1,0-0.2,0l1.4-9.9L62,73.8z"/>
						</g>
					</g>
					<g>
						<polygon class="st2" points="57.2,81.2 66.7,79.7 65.6,72.9 54.9,75.7 						"/>
					</g>
					<g>
						<path class="st2" d="M88.5,76.6l-23-3.7c-0.2,0.5-0.4,1.1-0.5,1.7c-0.9,5.6,4.4,11.2,11.8,12.3c3.9,0.6,7.5-0.1,10.3-1.6
							L88.5,76.6z"/>
					</g>
				</g>
			</g>
			<g>
				<g>
					
						<rect x="82.5" y="72.4" transform="matrix(0.9642 -0.2651 0.2651 0.9642 -18.9365 26.2171)" class="st4" width="10.3" height="21.7"/>
					<polygon class="st7" points="157.3,51.7 85.1,71.9 91.3,94.4 157.3,76 					"/>
				</g>
				<ellipse transform="matrix(0.9643 -0.2647 0.2647 0.9643 -21.1929 26.4875)" class="st6" cx="87.7" cy="91.9" rx="1" ry="1"/>
			</g>
			<path class="st2" d="M61.4,109.1c1,1.2,2.8,1.4,4,0.4l3.4-2.8c1.2-1,1.4-2.8,0.4-4l0,0c-1-1.2-2.8-1.4-4-0.4l-3.4,2.8
				C60.6,106.2,60.5,107.9,61.4,109.1L61.4,109.1z"/>
			<path class="st2" d="M57.1,105.1c1,1.2,2.8,1.4,4,0.4l3.4-2.8c1.2-1,1.4-2.8,0.4-4l0,0c-1-1.2-2.8-1.4-4-0.4l-3.4,2.8
				C56.3,102.1,56.1,103.9,57.1,105.1L57.1,105.1z"/>
			<path class="st2" d="M52.7,101.2c1,1.2,2.8,1.4,4,0.4l3.4-2.8c1.2-1,1.4-2.8,0.4-4l0,0c-1-1.2-2.8-1.4-4-0.4l-3.4,2.8
				C51.9,98.2,51.7,99.9,52.7,101.2L52.7,101.2z"/>
			<path class="st2" d="M48.4,97.2c1,1.2,2.8,1.4,4,0.4l3.4-2.8c1.2-1,1.4-2.8,0.4-4l0,0c-1-1.2-2.8-1.4-4-0.4l-3.4,2.8
				C47.6,94.2,47.4,96,48.4,97.2L48.4,97.2z"/>
		</g>
	</g>
	<g class="st1">
		<g>
			<path class="st4" d="M41.9,24.7v30.8c0,1.2,1,2.2,2.3,2.2h40.6c1.2,0,2.2-1,2.2-2.2V24.7c0-1.2-1-2.2-2.2-2.2H44.2
				C42.9,22.4,41.9,23.4,41.9,24.7z"/>
			<path class="st8" d="M84.8,22.4H64.1v35.3h20.6c1.2,0,2.2-1,2.2-2.2V24.7C87,23.4,86,22.4,84.8,22.4z"/>
			<circle class="st9" cx="85" cy="40.1" r="0.9"/>
			<circle class="st9" cx="44.6" cy="40.1" r="0.5"/>
			<rect x="46.3" y="26.4" class="st9" width="36.4" height="27.3"/>
			<polygon class="st10" points="55.1,40.5 57.1,38.6 62.5,44 73.6,32.9 75.6,34.8 62.5,47.9 			"/>
		</g>
	</g>
</g>
</svg>
