<?xml version="1.0" encoding="utf-8"?>
<!-- Generator: Adobe Illustrator 16.0.0, SVG Export Plug-In . SVG Version: 6.00 Build 0)  -->
<!DOCTYPE svg PUBLIC "-//W3C//DTD SVG 1.1//EN" "http://www.w3.org/Graphics/SVG/1.1/DTD/svg11.dtd">
<svg version="1.1" id="Режим_изоляции"
	 xmlns="http://www.w3.org/2000/svg" xmlns:xlink="http://www.w3.org/1999/xlink" x="0px" y="0px" width="108.334px"
	 height="153.214px" viewBox="0 0 108.334 153.214" enable-background="new 0 0 108.334 153.214" xml:space="preserve">
<g>
	<polygon fill-rule="evenodd" clip-rule="evenodd" fill="#FFFFFF" points="0,0 90.811,0 108.334,17.796 108.334,153.214 
		0.001,153.214 	"/>
	<rect x="27.87" y="16.411" fill-rule="evenodd" clip-rule="evenodd" fill="#CCCCCC" width="52.594" height="2.696"/>
	<rect x="9.943" y="23.153" fill-rule="evenodd" clip-rule="evenodd" fill="#CCCCCC" width="88.448" height="2.697"/>
	<rect x="9.943" y="27.873" fill-rule="evenodd" clip-rule="evenodd" fill="#CCCCCC" width="88.448" height="2.697"/>
	<rect x="9.943" y="32.593" fill-rule="evenodd" clip-rule="evenodd" fill="#CCCCCC" width="88.448" height="2.697"/>
	<rect x="9.943" y="37.313" fill-rule="evenodd" clip-rule="evenodd" fill="#CCCCCC" width="88.448" height="2.697"/>
	<rect x="9.943" y="42.033" fill-rule="evenodd" clip-rule="evenodd" fill="#CCCCCC" width="88.448" height="2.697"/>
	<rect x="9.943" y="46.753" fill-rule="evenodd" clip-rule="evenodd" fill="#CCCCCC" width="88.448" height="2.697"/>
	<rect x="9.943" y="51.473" fill-rule="evenodd" clip-rule="evenodd" fill="#CCCCCC" width="88.448" height="2.697"/>
	<rect x="9.943" y="56.192" fill-rule="evenodd" clip-rule="evenodd" fill="#CCCCCC" width="88.448" height="2.697"/>
	<rect x="9.943" y="60.912" fill-rule="evenodd" clip-rule="evenodd" fill="#CCCCCC" width="44.225" height="2.697"/>
	<g>
		<circle fill-rule="evenodd" clip-rule="evenodd" fill="#077D38" cx="86.921" cy="87.014" r="11.47"/>
		<path fill-rule="evenodd" clip-rule="evenodd" fill="#FFA403" d="M80.608,96.592c-1.646-1.087-2.996-2.587-3.901-4.354
			l10.214-5.225L80.608,96.592z"/>
		<path fill-rule="evenodd" clip-rule="evenodd" fill="#89C53E" d="M76.707,92.238c-0.803-1.566-1.256-3.342-1.256-5.225
			c0-3.667,1.721-6.933,4.4-9.032l7.069,9.032L76.707,92.238z"/>
		<path fill-rule="evenodd" clip-rule="evenodd" fill="#FCCC00" d="M79.852,77.981c1.948-1.526,4.402-2.438,7.069-2.438v11.47
			L79.852,77.981z"/>
		<path fill-rule="evenodd" clip-rule="evenodd" fill="#0E8E42" d="M86.921,75.544v11.47l8.175-8.045
			C93.015,76.855,90.121,75.544,86.921,75.544z"/>
	</g>
	<g>
		<rect x="9.943" y="100.434" fill-rule="evenodd" clip-rule="evenodd" fill="#CCCCCC" width="52.629" height="1.347"/>
		<rect x="9.943" y="72.248" fill-rule="evenodd" clip-rule="evenodd" fill="#077D38" width="9.355" height="28.186"/>
		<rect x="20.762" y="82.876" fill-rule="evenodd" clip-rule="evenodd" fill="#89C53E" width="9.355" height="17.558"/>
		<rect x="31.579" y="88.822" fill-rule="evenodd" clip-rule="evenodd" fill="#FCCC00" width="9.356" height="11.611"/>
		<rect x="42.397" y="83.377" fill-rule="evenodd" clip-rule="evenodd" fill="#0E8E42" width="9.356" height="17.057"/>
		<rect x="53.216" y="88.236" fill-rule="evenodd" clip-rule="evenodd" fill="#FFA403" width="9.356" height="12.197"/>
		<rect x="76.181" y="100.434" fill-rule="evenodd" clip-rule="evenodd" fill="#CCCCCC" width="4.722" height="1.347"/>
		<rect x="83.09" y="100.434" fill-rule="evenodd" clip-rule="evenodd" fill="#CCCCCC" width="14.026" height="1.347"/>
	</g>
	<rect x="9.943" y="106.042" fill-rule="evenodd" clip-rule="evenodd" fill="#CCCCCC" width="40.592" height="2.697"/>
	<rect x="9.943" y="110.763" fill-rule="evenodd" clip-rule="evenodd" fill="#CCCCCC" width="40.592" height="2.696"/>
	<rect x="9.943" y="115.482" fill-rule="evenodd" clip-rule="evenodd" fill="#CCCCCC" width="40.592" height="2.696"/>
	<rect x="9.943" y="120.202" fill-rule="evenodd" clip-rule="evenodd" fill="#CCCCCC" width="40.592" height="2.697"/>
	<rect x="9.943" y="124.922" fill-rule="evenodd" clip-rule="evenodd" fill="#CCCCCC" width="40.592" height="2.697"/>
	<rect x="9.943" y="129.642" fill-rule="evenodd" clip-rule="evenodd" fill="#CCCCCC" width="40.592" height="2.697"/>
	<rect x="9.943" y="134.361" fill-rule="evenodd" clip-rule="evenodd" fill="#CCCCCC" width="40.592" height="2.697"/>
	<rect x="9.943" y="139.081" fill-rule="evenodd" clip-rule="evenodd" fill="#CCCCCC" width="20.296" height="2.697"/>
	<rect x="57.799" y="106.042" fill-rule="evenodd" clip-rule="evenodd" fill="#CCCCCC" width="40.593" height="2.697"/>
	<rect x="57.799" y="110.763" fill-rule="evenodd" clip-rule="evenodd" fill="#CCCCCC" width="40.593" height="2.696"/>
	<rect x="57.799" y="115.482" fill-rule="evenodd" clip-rule="evenodd" fill="#CCCCCC" width="40.593" height="2.697"/>
	<rect x="57.799" y="120.202" fill-rule="evenodd" clip-rule="evenodd" fill="#CCCCCC" width="40.593" height="2.697"/>
	<rect x="57.799" y="124.922" fill-rule="evenodd" clip-rule="evenodd" fill="#CCCCCC" width="40.593" height="2.697"/>
	<rect x="57.799" y="129.642" fill-rule="evenodd" clip-rule="evenodd" fill="#CCCCCC" width="40.593" height="2.697"/>
	<rect x="57.799" y="134.361" fill-rule="evenodd" clip-rule="evenodd" fill="#CCCCCC" width="40.593" height="2.697"/>
	<rect x="57.799" y="139.081" fill-rule="evenodd" clip-rule="evenodd" fill="#CCCCCC" width="28.572" height="2.697"/>
</g>
</svg>
