<?xml version="1.0" encoding="utf-8"?>
<!-- Generator: Adobe Illustrator 19.2.0, SVG Export Plug-In . SVG Version: 6.00 Build 0)  -->
<svg version="1.1" id="Background" xmlns="http://www.w3.org/2000/svg" xmlns:xlink="http://www.w3.org/1999/xlink" x="0px" y="0px"
	 viewBox="0 0 769.8 583.7" style="enable-background:new 0 0 769.8 583.7;" xml:space="preserve">
<style type="text/css">
	.st0{fill-rule:evenodd;clip-rule:evenodd;fill:#EDEDED;}
	.st1{fill-rule:evenodd;clip-rule:evenodd;fill:#CCCCCC;}
	.st2{fill-rule:evenodd;clip-rule:evenodd;fill:#F06358;}
	.st3{fill-rule:evenodd;clip-rule:evenodd;fill:#C17BB5;}
	.st4{fill-rule:evenodd;clip-rule:evenodd;fill:#B6A94A;}
	.st5{fill-rule:evenodd;clip-rule:evenodd;fill:#5896CC;}
	.st6{fill-rule:evenodd;clip-rule:evenodd;fill:#FFCD61;}
	.st7{fill-rule:evenodd;clip-rule:evenodd;fill:#FFFFFF;}
	.st8{fill-rule:evenodd;clip-rule:evenodd;fill:#FF623B;}
	.st9{fill-rule:evenodd;clip-rule:evenodd;fill:#5CD1BA;}
	.st10{fill-rule:evenodd;clip-rule:evenodd;fill:#087E38;}
	.st11{fill-rule:evenodd;clip-rule:evenodd;fill:#212B38;}
	.st12{fill-rule:evenodd;clip-rule:evenodd;fill:#9DB8CC;}
	.st13{fill-rule:evenodd;clip-rule:evenodd;fill:none;stroke:#CCCCCC;stroke-width:2.4001;stroke-miterlimit:22.9256;}
	.st14{fill:#91569A;}
	.st15{fill-rule:evenodd;clip-rule:evenodd;fill:#91569A;}
	.st16{fill:#4C8EB4;}
	.st17{fill:#FF623B;}
	.st18{fill:#F9A818;}
	.st19{fill-rule:evenodd;clip-rule:evenodd;fill:#FFAE00;}
	.st20{fill-rule:evenodd;clip-rule:evenodd;fill:#6A8733;}
	.st21{fill-rule:evenodd;clip-rule:evenodd;fill:#F9A818;}
	.st22{fill-rule:evenodd;clip-rule:evenodd;fill:#FFD7B7;}
	.st23{fill-rule:evenodd;clip-rule:evenodd;fill:#7FB4E3;}
	.st24{fill-rule:evenodd;clip-rule:evenodd;fill:#4D86B8;}
	.st25{fill-rule:evenodd;clip-rule:evenodd;fill:#B3D6F5;}
	.st26{fill-rule:evenodd;clip-rule:evenodd;fill:#DEB99B;}
	.st27{fill-rule:evenodd;clip-rule:evenodd;fill:#FFF2E8;}
	.st28{fill-rule:evenodd;clip-rule:evenodd;fill:#4D4D4D;}
	.st29{fill-rule:evenodd;clip-rule:evenodd;fill:#999999;}
	.st30{fill-rule:evenodd;clip-rule:evenodd;fill:#E6E6E6;}
	.st31{fill:#4D4D4D;}
	.st32{fill-rule:evenodd;clip-rule:evenodd;fill:#FCC058;}
	.st33{fill:#FFFFFF;}
</style>
<g>
	<g>
		<g>
			
				<rect x="498.1" y="57.4" transform="matrix(0.9682 -0.2501 0.2501 0.9682 -14.3886 156.2181)" class="st0" width="218.6" height="154.6"/>
			
				<rect x="686.8" y="76.2" transform="matrix(0.9682 -0.2501 0.2501 0.9682 -6.5494 175.8873)" class="st1" width="3.8" height="75.1"/>
			
				<rect x="677.5" y="53" transform="matrix(0.9682 -0.2501 0.2501 0.9682 -7.448 173.6298)" class="st1" width="3.8" height="126.2"/>
			
				<rect x="670.9" y="54.7" transform="matrix(0.9682 -0.2501 0.2501 0.9682 -8.0767 172.0521)" class="st1" width="3.8" height="126.2"/>
			
				<rect x="664.4" y="56.4" transform="matrix(0.9682 -0.2501 0.2501 0.9682 -8.705 170.4797)" class="st1" width="3.8" height="126.2"/>
			
				<rect x="657.9" y="58.1" transform="matrix(0.9682 -0.2501 0.2501 0.9682 -9.3341 168.8969)" class="st1" width="3.8" height="126.2"/>
			
				<rect x="651.4" y="59.7" transform="matrix(0.9682 -0.2501 0.2501 0.9682 -9.963 167.3192)" class="st1" width="3.8" height="126.2"/>
			
				<rect x="644.8" y="61.4" transform="matrix(0.9682 -0.2501 0.2501 0.9682 -10.5916 165.7404)" class="st1" width="3.8" height="126.2"/>
			
				<rect x="638.3" y="63.1" transform="matrix(0.9682 -0.2501 0.2501 0.9682 -11.2203 164.164)" class="st1" width="3.8" height="126.2"/>
			
				<rect x="631.8" y="64.8" transform="matrix(0.9682 -0.2501 0.2501 0.9682 -11.8488 162.5908)" class="st1" width="3.8" height="126.2"/>
			
				<rect x="617.4" y="67.5" transform="matrix(0.9682 -0.2501 0.2501 0.9682 -5.0863 158.0675)" class="st1" width="3.8" height="63.1"/>
			<g>
				
					<rect x="566.2" y="81.2" transform="matrix(0.9682 -0.2501 0.2501 0.9682 -11.6659 145.6426)" class="st2" width="1.9" height="75.1"/>
				
					<rect x="559.7" y="76.9" transform="matrix(0.9682 -0.2501 0.2501 0.9682 -2.4691 147.6723)" class="st3" width="40.2" height="13.4"/>
				
					<rect x="563.8" y="93.7" transform="matrix(0.9682 -0.2501 0.2501 0.9682 -6.7904 147.3634)" class="st4" width="25.1" height="13.4"/>
				
					<rect x="567.8" y="109.7" transform="matrix(0.9682 -0.2501 0.2501 0.9682 -10.8026 147.8107)" class="st2" width="16.6" height="13.4"/>
				
					<rect x="571.6" y="123.7" transform="matrix(0.9682 -0.2502 0.2502 0.9682 -14.056 150.1629)" class="st5" width="24.3" height="13.4"/>
				
					<rect x="575.5" y="139.5" transform="matrix(0.9682 -0.2502 0.2502 0.9682 -17.9956 150.8233)" class="st6" width="17.4" height="13.4"/>
				
					<rect x="581.3" y="173.8" transform="matrix(0.9682 -0.2501 0.2501 0.9682 -25.7977 151.2282)" class="st1" width="1.9" height="6.7"/>
				
					<rect x="585.4" y="183.1" transform="matrix(0.9682 -0.2501 0.2501 0.9682 -29.6642 152.8187)" class="st1" width="1.9" height="20"/>
			</g>
			
				<rect x="554.4" y="83.7" transform="matrix(0.9682 -0.2502 0.2502 0.9682 -10.4908 142.7481)" class="st1" width="3.8" height="57.9"/>
			
				<rect x="547.9" y="85.4" transform="matrix(0.9682 -0.2501 0.2501 0.9682 -11.1202 141.1609)" class="st1" width="3.8" height="57.9"/>
			
				<rect x="541.3" y="87.1" transform="matrix(0.9682 -0.2502 0.2502 0.9682 -11.7485 139.5902)" class="st1" width="3.8" height="57.9"/>
			
				<rect x="534.8" y="88.7" transform="matrix(0.9682 -0.2501 0.2501 0.9682 -12.3776 138.0057)" class="st1" width="3.8" height="57.9"/>
			
				<rect x="528.3" y="90.4" transform="matrix(0.9682 -0.2501 0.2501 0.9682 -13.0063 136.427)" class="st1" width="3.8" height="57.9"/>
			
				<rect x="521.8" y="92.1" transform="matrix(0.9682 -0.2502 0.2502 0.9682 -13.6348 134.8586)" class="st1" width="3.8" height="57.9"/>
			
				<rect x="515.3" y="93.8" transform="matrix(0.9682 -0.2501 0.2501 0.9682 -14.264 133.264)" class="st1" width="3.8" height="57.9"/>
			
				<rect x="505.1" y="95.9" transform="matrix(0.9682 -0.2501 0.2501 0.9682 -11.5008 130.3316)" class="st1" width="3.8" height="29"/>
			
				<rect x="571.5" y="149.8" transform="matrix(0.9682 -0.2501 0.2501 0.9682 -26.4875 149.1135)" class="st1" width="3.8" height="57.9"/>
			
				<rect x="565" y="151.5" transform="matrix(0.9682 -0.2501 0.2501 0.9682 -27.1162 147.5348)" class="st1" width="3.8" height="57.9"/>
			
				<rect x="558.4" y="153.2" transform="matrix(0.9682 -0.2501 0.2501 0.9682 -27.7448 145.9548)" class="st1" width="3.8" height="57.9"/>
			
				<rect x="551.9" y="154.9" transform="matrix(0.9682 -0.2501 0.2501 0.9682 -28.3735 144.3771)" class="st1" width="3.8" height="57.9"/>
			
				<rect x="545.4" y="156.5" transform="matrix(0.9682 -0.2501 0.2501 0.9682 -29.0025 142.8019)" class="st1" width="3.8" height="57.9"/>
			
				<rect x="538.9" y="158.2" transform="matrix(0.9682 -0.2501 0.2501 0.9682 -29.6311 141.2245)" class="st1" width="3.8" height="57.9"/>
			
				<rect x="532.3" y="159.9" transform="matrix(0.9682 -0.2501 0.2501 0.9682 -30.2592 139.6383)" class="st1" width="3.8" height="57.9"/>
			
				<rect x="523.7" y="161.9" transform="matrix(0.9682 -0.2502 0.2502 0.9682 -28.8803 137.2765)" class="st1" width="3.8" height="40.8"/>
		</g>
		<g>
			
				<rect x="533" y="28.6" transform="matrix(0.9561 -0.2929 0.2929 0.9561 -2.8525 192.8065)" class="st7" width="218.6" height="154.6"/>
			
				<rect x="720.7" y="43.8" transform="matrix(0.9561 -0.2929 0.2929 0.9561 7.8743 215.24)" class="st1" width="3.8" height="75.1"/>
			
				<rect x="711.5" y="21" transform="matrix(0.9561 -0.2929 0.2929 0.9561 6.6459 212.6738)" class="st1" width="3.8" height="126.2"/>
			
				<rect x="705" y="23" transform="matrix(0.9561 -0.2929 0.2929 0.9561 5.7854 210.8735)" class="st1" width="3.8" height="126.2"/>
			
				<rect x="698.6" y="25" transform="matrix(0.9561 -0.2929 0.2929 0.9561 4.9248 209.0725)" class="st1" width="3.8" height="126.2"/>
			
				<rect x="692.2" y="27" transform="matrix(0.9561 -0.2929 0.2929 0.9561 4.0652 207.2773)" class="st1" width="3.8" height="126.2"/>
			
				<rect x="685.7" y="28.9" transform="matrix(0.9561 -0.2929 0.2929 0.9561 3.2041 205.4738)" class="st1" width="3.8" height="126.2"/>
			
				<rect x="679.3" y="30.9" transform="matrix(0.9561 -0.2929 0.2929 0.9561 2.3438 203.6745)" class="st1" width="3.8" height="126.2"/>
			
				<rect x="672.9" y="32.9" transform="matrix(0.9561 -0.2929 0.2929 0.9561 1.4843 201.8807)" class="st1" width="3.8" height="126.2"/>
			
				<rect x="666.4" y="34.8" transform="matrix(0.9561 -0.2929 0.2929 0.9561 0.6229 200.0747)" class="st1" width="3.8" height="126.2"/>
			
				<rect x="650.7" y="38.2" transform="matrix(0.9561 -0.2929 0.2929 0.9561 8.1943 194.2417)" class="st1" width="3.8" height="63.1"/>
			<g>
				
					<rect x="614.7" y="61.4" transform="matrix(0.9561 -0.2929 0.2929 0.9561 -6.3801 185.464)" class="st8" width="2.7" height="105.4"/>
				
					<rect x="603.8" y="57.2" transform="matrix(0.9561 -0.2929 0.2929 0.9561 7.84 185.4653)" class="st3" width="38.7" height="18.7"/>
				
					<rect x="610.2" y="78.4" transform="matrix(0.9561 -0.2929 0.2929 0.9561 1.8234 187.7482)" class="st4" width="35.1" height="18.7"/>
				
					<rect x="616.8" y="100.9" transform="matrix(0.9561 -0.2929 0.2929 0.9561 -4.7244 188.9213)" class="st8" width="23.2" height="18.7"/>
				
					<rect x="622.9" y="120" transform="matrix(0.9561 -0.2929 0.2929 0.9561 -9.8142 193.1541)" class="st9" width="34.1" height="18.7"/>
				
					<rect x="629.5" y="142.1" transform="matrix(0.9561 -0.2929 0.2929 0.9561 -16.2233 194.6106)" class="st6" width="24.4" height="18.7"/>
			</g>
			
				<rect x="588.4" y="57.2" transform="matrix(0.9561 -0.2929 0.2929 0.9561 0.6593 176.6992)" class="st1" width="3.8" height="57.9"/>
			
				<rect x="582" y="59.2" transform="matrix(0.9561 -0.2929 0.2929 0.9561 -0.2009 174.9001)" class="st1" width="3.8" height="57.9"/>
			
				<rect x="575.5" y="61.1" transform="matrix(0.9561 -0.2929 0.2929 0.9561 -1.0605 173.1062)" class="st1" width="3.8" height="57.9"/>
			
				<rect x="569.1" y="63.1" transform="matrix(0.9561 -0.2929 0.2929 0.9561 -1.9209 171.3069)" class="st1" width="3.8" height="57.9"/>
			
				<rect x="562.6" y="65.1" transform="matrix(0.9561 -0.2929 0.2929 0.9561 -2.7822 169.5009)" class="st1" width="3.8" height="57.9"/>
			
				<rect x="556.2" y="67.1" transform="matrix(0.9561 -0.2929 0.2929 0.9561 -3.6427 167.7008)" class="st1" width="3.8" height="57.9"/>
			
				<rect x="549.8" y="69" transform="matrix(0.9561 -0.2929 0.2929 0.9561 -4.5019 165.9101)" class="st1" width="3.8" height="57.9"/>
			
				<rect x="539.1" y="71.6" transform="matrix(0.9561 -0.2929 0.2929 0.9561 -1.4919 162.2628)" class="st1" width="3.8" height="29"/>
			
				<rect x="608.4" y="122.5" transform="matrix(0.9561 -0.2929 0.2929 0.9561 -17.5898 185.423)" class="st1" width="3.8" height="57.9"/>
			
				<rect x="602" y="124.5" transform="matrix(0.9561 -0.2929 0.2929 0.9561 -18.4497 183.6345)" class="st1" width="3.8" height="57.9"/>
			
				<rect x="595.5" y="126.4" transform="matrix(0.9561 -0.2929 0.2929 0.9561 -19.3101 181.8367)" class="st1" width="3.8" height="57.9"/>
			
				<rect x="589.1" y="128.4" transform="matrix(0.9561 -0.2929 0.2929 0.9561 -20.171 180.0246)" class="st1" width="3.8" height="57.9"/>
			
				<rect x="582.6" y="130.4" transform="matrix(0.9561 -0.2929 0.2929 0.9561 -21.0315 178.2238)" class="st1" width="3.8" height="57.9"/>
			
				<rect x="576.2" y="132.3" transform="matrix(0.9561 -0.2929 0.2929 0.9561 -21.8917 176.4317)" class="st1" width="3.8" height="57.9"/>
			
				<rect x="569.8" y="134.3" transform="matrix(0.9561 -0.2929 0.2929 0.9561 -22.7524 174.625)" class="st1" width="3.8" height="57.9"/>
			
				<rect x="560.8" y="136.7" transform="matrix(0.9561 -0.2929 0.2929 0.9561 -21.3208 171.7316)" class="st1" width="3.8" height="40.8"/>
		</g>
		<g>
			
				<rect x="511.4" y="356.3" transform="matrix(0.1521 -0.9884 0.9884 0.1521 34.1353 990.5633)" class="st10" width="166" height="238.2"/>
			<polygon class="st11" points="710.4,415 686.8,567.9 467.4,537.3 494.2,381.7 			"/>
			
				<rect x="513.2" y="365.4" transform="matrix(0.1521 -0.9884 0.9884 0.1521 31.4234 986.2006)" class="st7" width="154.7" height="218.8"/>
			<polygon class="st1" points="703.2,461.5 693.8,522.5 687.3,520.9 696.7,459.9 			"/>
			<path class="st12" d="M711.8,468.4l-2.5,16.4l4.1,0.6l-2.8,17.9l-4.1-0.6l-2.5,16.4c-0.4,2.8-3.1,5-5.9,4.3l-4.2-1l9.4-60.9
				l4.2,1C710.2,463.2,712.2,465.6,711.8,468.4z"/>
		</g>
		<g>
			
				<rect x="513.3" y="367.1" transform="matrix(0.1521 -0.9884 0.9884 0.1521 29.8423 987.6625)" class="st0" width="154.6" height="218.6"/>
			<g>
				<g>
					<line class="st13" x1="604.6" y1="421.4" x2="585.9" y2="542.6"/>
					<line class="st13" x1="681.6" y1="433.2" x2="604.6" y2="421.4"/>
					<line class="st13" x1="678" y1="456.3" x2="601" y2="444.5"/>
					<line class="st13" x1="674.5" y1="479.5" x2="597.5" y2="467.6"/>
					<line class="st13" x1="670.9" y1="502.6" x2="593.9" y2="490.7"/>
					<line class="st13" x1="667.1" y1="526.6" x2="590.4" y2="513.8"/>
					<line class="st13" x1="663.8" y1="548.8" x2="586.8" y2="537"/>
					<line class="st13" x1="622.7" y1="424.2" x2="604" y2="545.4"/>
					<line class="st13" x1="640.7" y1="426.9" x2="621.2" y2="548"/>
					<line class="st13" x1="658.8" y1="429.7" x2="640.1" y2="550.9"/>
					<line class="st13" x1="676.8" y1="432.5" x2="658.2" y2="553.7"/>
				</g>
				<g>
					<path class="st14" d="M653.9,456.5l-50.2-34.3l2-3l50.2,34.3l-0.4,3.2L653.9,456.5L653.9,456.5z M655.9,453.5l2.8,1.9l-3.2,1.2
						L655.9,453.5L655.9,453.5z M614.9,468.7l39.4-15.4l1.3,3.4l-39.4,15.4l-2.2-0.8L614.9,468.7L614.9,468.7z M614,471.3l-1-1.8
						l1.9-0.8L614,471.3L614,471.3z M628.5,497.2L614,471.3l3.1-1.8l14.5,25.9l-0.3,2.2L628.5,497.2L628.5,497.2z M631.6,495.4
						l0.7,1.2l-1,1L631.6,495.4L631.6,495.4z M607.2,515.3l21.6-20.3l2.5,2.6l-21.6,20.3l-2.2,0.2L607.2,515.3L607.2,515.3z
						 M607.5,518.2l-2-1.2l1.7-1.6L607.5,518.2L607.5,518.2z M644.9,540.9l-37.4-22.7l1.9-3.1l37.4,22.7L644.9,540.9L644.9,540.9z
						 M649.4,530.5l9.7,16.9l-19.5-0.8L649.4,530.5z"/>
				</g>
				
					<rect x="596.8" y="418.9" transform="matrix(0.1521 -0.9884 0.9884 0.1521 93.232 950.1396)" class="st1" width="7.1" height="3.6"/>
				
					<rect x="593.3" y="442" transform="matrix(0.1521 -0.9884 0.9884 0.1521 67.3584 966.213)" class="st1" width="7.1" height="3.6"/>
				
					<rect x="589.7" y="465.2" transform="matrix(0.1521 -0.9884 0.9884 0.1521 41.5064 982.3084)" class="st1" width="7.1" height="3.6"/>
				
					<rect x="586.1" y="488.3" transform="matrix(0.1521 -0.9884 0.9884 0.1521 15.632 998.3798)" class="st1" width="7.1" height="3.6"/>
				
					<rect x="582.6" y="511.4" transform="matrix(0.1521 -0.9884 0.9884 0.1521 -10.2315 1014.4639)" class="st1" width="7.1" height="3.6"/>
				
					<rect x="579" y="534.5" transform="matrix(0.1521 -0.9884 0.9884 0.1521 -36.0855 1030.5591)" class="st1" width="7.1" height="3.6"/>
				
					<rect x="620" y="416.4" transform="matrix(0.1519 -0.9884 0.9884 0.1519 115.4168 971.0197)" class="st1" width="7.1" height="3.6"/>
				
					<rect x="638.1" y="419.2" transform="matrix(0.1521 -0.9884 0.9884 0.1521 127.9083 991.1601)" class="st1" width="7.1" height="3.6"/>
				
					<rect x="656.1" y="422" transform="matrix(0.1521 -0.9884 0.9884 0.1521 140.4784 1011.3726)" class="st1" width="7.1" height="3.6"/>
				
					<rect x="672.1" y="424.5" transform="matrix(0.1521 -0.9884 0.9884 0.1521 151.5859 1029.234)" class="st1" width="7.1" height="3.6"/>
			</g>
		</g>
		<g>
			
				<rect x="416.5" y="370.1" transform="matrix(0.2672 -0.9636 0.9636 0.2672 -100.1349 827.2249)" class="st7" width="154.6" height="218.6"/>
			
				<rect x="537.2" y="500" transform="matrix(0.2672 -0.9636 0.9636 0.2672 -62.457 921.6436)" class="st1" width="75.1" height="3.8"/>
			
				<rect x="502.4" y="497.4" transform="matrix(0.2672 -0.9636 0.9636 0.2672 -66.7722 910.829)" class="st1" width="126.2" height="3.8"/>
			
				<rect x="495.9" y="495.6" transform="matrix(0.2672 -0.9636 0.9636 0.2672 -69.794 903.2559)" class="st1" width="126.2" height="3.8"/>
			
				<rect x="489.4" y="493.8" transform="matrix(0.2672 -0.9636 0.9636 0.2672 -72.8156 895.6829)" class="st1" width="126.2" height="3.8"/>
			
				<rect x="482.9" y="492" transform="matrix(0.2672 -0.9636 0.9636 0.2672 -75.8341 888.1158)" class="st1" width="126.2" height="3.8"/>
			
				<rect x="476.4" y="490.2" transform="matrix(0.2672 -0.9636 0.9636 0.2672 -78.857 880.5421)" class="st1" width="126.2" height="3.8"/>
			
				<rect x="469.9" y="488.4" transform="matrix(0.2672 -0.9636 0.9636 0.2672 -81.8791 872.9684)" class="st1" width="126.2" height="3.8"/>
			
				<rect x="463.4" y="486.6" transform="matrix(0.2672 -0.9636 0.9636 0.2672 -84.9004 865.3965)" class="st1" width="126.2" height="3.8"/>
			
				<rect x="456.9" y="484.8" transform="matrix(0.2672 -0.9636 0.9636 0.2672 -87.9234 857.823)" class="st1" width="126.2" height="3.8"/>
			
				<rect x="490.4" y="452.6" transform="matrix(0.2672 -0.9636 0.9636 0.2672 -55.4694 836.0856)" class="st1" width="63.1" height="3.8"/>
			<g>
				
					<rect x="429.4" y="444.5" transform="matrix(0.2672 -0.9637 0.9637 0.2672 -87.0774 776.4605)" class="st2" width="75.1" height="1.9"/>
				
					<rect x="488.8" y="401.2" transform="matrix(0.2671 -0.9637 0.9637 0.2671 -42.8968 786.3106)" class="st3" width="13.4" height="40.2"/>
				
					<rect x="477.4" y="421.7" transform="matrix(0.2673 -0.9636 0.9636 0.2673 -63.7077 784.6343)" class="st4" width="13.4" height="25.1"/>
				
					<rect x="469.2" y="439.7" transform="matrix(0.2673 -0.9636 0.9636 0.2673 -82.9619 786.8017)" class="st2" width="13.4" height="16.6"/>
				
					<rect x="468.8" y="451.7" transform="matrix(0.2673 -0.9636 0.9636 0.2673 -98.5761 798.0956)" class="st15" width="13.4" height="24.3"/>
				
					<rect x="461.4" y="469.1" transform="matrix(0.2671 -0.9637 0.9637 0.2671 -117.4435 801.206)" class="st6" width="13.4" height="17.4"/>
				
					<rect x="447.5" y="502.7" transform="matrix(0.2673 -0.9636 0.9636 0.2673 -154.953 803.4787)" class="st1" width="6.7" height="1.9"/>
				
					<rect x="436.4" y="518.6" transform="matrix(0.2673 -0.9636 0.9636 0.2673 -173.5051 810.8734)" class="st1" width="20" height="1.9"/>
			</g>
			
				<rect x="431.7" y="432.9" transform="matrix(0.2672 -0.9636 0.9636 0.2672 -81.4515 762.5115)" class="st1" width="57.9" height="3.8"/>
			
				<rect x="425.2" y="431.1" transform="matrix(0.2672 -0.9636 0.9636 0.2672 -84.4756 754.9355)" class="st1" width="57.9" height="3.8"/>
			
				<rect x="418.7" y="429.3" transform="matrix(0.2672 -0.9636 0.9636 0.2672 -87.4965 747.3649)" class="st1" width="57.9" height="3.8"/>
			
				<rect x="412.2" y="427.5" transform="matrix(0.2672 -0.9636 0.9636 0.2672 -90.5178 739.7925)" class="st1" width="57.9" height="3.8"/>
			
				<rect x="405.7" y="425.7" transform="matrix(0.2672 -0.9636 0.9636 0.2672 -93.5404 732.2186)" class="st1" width="57.9" height="3.8"/>
			
				<rect x="399.2" y="423.9" transform="matrix(0.2672 -0.9636 0.9636 0.2672 -96.5637 724.6432)" class="st1" width="57.9" height="3.8"/>
			
				<rect x="392.7" y="422.1" transform="matrix(0.2672 -0.9636 0.9636 0.2672 -99.5841 717.0736)" class="st1" width="57.9" height="3.8"/>
			
				<rect x="404.6" y="406.3" transform="matrix(0.2672 -0.9636 0.9636 0.2672 -86.3225 703.0039)" class="st1" width="29" height="3.8"/>
			
				<rect x="413.4" y="498.7" transform="matrix(0.2672 -0.9636 0.9636 0.2672 -158.2394 793.1522)" class="st1" width="57.9" height="3.8"/>
			
				<rect x="406.9" y="496.9" transform="matrix(0.2672 -0.9636 0.9636 0.2672 -161.2609 785.5805)" class="st1" width="57.9" height="3.8"/>
			
				<rect x="400.4" y="495.1" transform="matrix(0.2672 -0.9636 0.9636 0.2672 -164.2827 778.0073)" class="st1" width="57.9" height="3.8"/>
			
				<rect x="393.9" y="493.3" transform="matrix(0.2672 -0.9636 0.9636 0.2672 -167.3058 770.4327)" class="st1" width="57.9" height="3.8"/>
			
				<rect x="387.5" y="491.5" transform="matrix(0.2672 -0.9636 0.9636 0.2672 -170.3271 762.8611)" class="st1" width="57.9" height="3.8"/>
			
				<rect x="381" y="489.7" transform="matrix(0.2672 -0.9636 0.9636 0.2672 -173.3491 755.2881)" class="st1" width="57.9" height="3.8"/>
			
				<rect x="374.5" y="487.9" transform="matrix(0.2672 -0.9636 0.9636 0.2672 -176.3705 747.7158)" class="st1" width="57.9" height="3.8"/>
			
				<rect x="378.8" y="477.8" transform="matrix(0.2672 -0.9636 0.9636 0.2672 -169.7567 736.2784)" class="st1" width="40.8" height="3.8"/>
		</g>
		<g>
			<g>
				<path class="st16" d="M490,446.6c-0.5,0.1-1-0.3-1-0.8c-0.1-0.5,0.3-1,0.8-1l3.6-0.5c0.5-0.1,1,0.3,1,0.8c0.1,0.5-0.3,1-0.8,1
					L490,446.6z"/>
			</g>
			<g>
				<path class="st17" d="M498.5,448.7c-3.3,0.5-6.2-1-6.5-3.3c-0.3-2.3,2.1-4.5,5.4-5l105.7-15c3.3-0.5,6.2,1,6.5,3.3
					c0.3,2.3-2.1,4.5-5.4,5L498.5,448.7z"/>
			</g>
			<path class="st18" d="M504.7,448.9c-2.9,0.4-5.6-1.6-6-4.5c-0.4-2.9,1.6-5.6,4.5-6l94.9-13.5c2.9-0.4,5.6,1.6,6,4.5
				c0.4,2.9-1.6,5.6-4.5,6L504.7,448.9z"/>
			<path class="st17" d="M598.3,435.6l-6,4l-28.5,4c0,0-1.7-0.6-2.9-1.6l23.7-3.4c0,0,3.3-5.8-0.9-12.1l13.4-1.9
				C597,424.7,601,429.9,598.3,435.6z"/>
		</g>
		<g>
			<circle class="st8" cx="477" cy="514.6" r="15.8"/>
			<path class="st15" d="M463.8,505.8c1.5-2.3,3.6-4.1,6-5.4l7.2,14.1L463.8,505.8z"/>
			<path class="st15" d="M469.8,500.5c2.2-1.1,4.6-1.7,7.2-1.7c5.1,0,9.6,2.4,12.5,6.1l-12.5,9.7L469.8,500.5z"/>
			<path class="st19" d="M489.5,504.8c2.1,2.7,3.4,6.1,3.4,9.8l-15.8,0L489.5,504.8z"/>
			<path class="st20" d="M492.9,514.6l-15.8,0l11.1,11.3C491.1,523,492.9,519,492.9,514.6z"/>
		</g>
		<path class="st21" d="M744.3,497.1c0,0.5,0,0.9-0.1,1.4v0c-0.8,4.9-5.4,8.3-10.3,7.6l-26.1-4l-2.5,16.4c-0.4,2.8-3.1,4.8-5.9,4.3
			l-12-1.9l3.7-23.8h40.1c0,2,1.5,3.8,3.5,4.1c2.3,0.3,4.4-1.2,4.7-3.5c0-0.2,0-0.4,0-0.6H744.3z M713.1,467.7l-2.5,16.4l26.1,4
			c4.5,0.7,7.7,4.6,7.7,8.9h-4.9c0-2-1.5-3.8-3.5-4.1c-2.3-0.3-4.4,1.2-4.7,3.5c0,0.2,0,0.4,0,0.6H691l5.7-37.1l12,1.9
			C711.6,462.2,713.5,464.9,713.1,467.7z"/>
		<path class="st22" d="M357.9,360.3L357.9,360.3c-3.3,2.6-8.1,2-10.7-1.2l-48.5-59.4c-2.7-3.2-2.1-8.1,1.2-10.7l0,0
			c3.3-2.6,8.1-2,10.7,1.2l48.5,59.4C361.7,352.8,361.1,357.7,357.9,360.3z"/>
		<polygon class="st22" points="270.3,255.1 257.8,295.4 289.5,305.2 328.1,338.6 346.7,278.8 		"/>
		<path class="st22" d="M333.6,357L333.6,357c-3.3,2.6-8.1,2-10.7-1.2l-48.5-59.4c-2.7-3.2-2.1-8.1,1.2-10.7l0,0
			c3.3-2.6,8.1-2,10.7,1.2l48.5,59.4C337.4,349.5,336.8,354.3,333.6,357z"/>
		<path class="st22" d="M387.2,368.6L387.2,368.6c-3.3,2.6-8.1,2-10.7-1.2l-46.7-57.2c-2.7-3.3-2.1-8.1,1.2-10.7l0,0
			c3.3-2.6,8.1-2,10.7,1.2l46.7,57.2C391.1,361.1,390.5,366,387.2,368.6z"/>
		<g>
			<path class="st10" d="M431.6,299.5V342c0,8.2-6.7,15-15,15H303.8c-8.2,0-15-6.7-15-15v-42.5c0-8.2,6.7-15,15-15h112.8
				C424.9,284.6,431.6,291.3,431.6,299.5z"/>
			<path class="st10" d="M419.7,291.2v59.3c0,0.1-0.1,0.2-0.2,0.2H302.2c-0.1,0-0.2-0.1-0.2-0.2v-59.3c0-0.1,0.1-0.2,0.2-0.2h117.2
				C419.6,291,419.7,291,419.7,291.2z"/>
			<path class="st10" d="M428.1,309.8v22c0,0.6-0.5,1.1-1.1,1.1l0,0c-0.6,0-1.1-0.5-1.1-1.1v-22c0-0.6,0.5-1.1,1.1-1.1l0,0
				C427.6,308.7,428.1,309.2,428.1,309.8z"/>
			<circle class="st10" cx="295.6" cy="320.8" r="3.7"/>
		</g>
		<g>
			<path class="st7" d="M419.7,291.3l0,59c0,0.1-0.1,0.2-0.2,0.2l-116.6-0.1c-0.1,0-0.2-0.1-0.2-0.2l0-59c0-0.1,0.1-0.2,0.2-0.2
				l116.6,0.1C419.6,291.1,419.7,291.2,419.7,291.3z"/>
			<g>
				<g>
					<circle class="st8" cx="357.1" cy="320.8" r="15.8"/>
					<path class="st23" d="M343.9,312.1c1.5-2.3,3.6-4.1,6-5.4l7.2,14.1L343.9,312.1z"/>
					<path class="st24" d="M349.9,306.7c2.2-1.1,4.6-1.7,7.2-1.7c5.1,0,9.6,2.4,12.5,6.1l-12.5,9.7L349.9,306.7z"/>
					<path class="st19" d="M369.6,311.1c2.1,2.7,3.4,6.1,3.4,9.8l-15.8,0L369.6,311.1z"/>
					<path class="st20" d="M373,320.8l-15.8,0l11.1,11.3C371.1,329.2,372.9,325.2,373,320.8z"/>
				</g>
				<g>
					<rect x="322" y="297.9" class="st25" width="1.1" height="45.8"/>
					<rect x="319.6" y="297.9" class="st25" width="1.1" height="45.8"/>
					<rect x="317.1" y="297.9" class="st25" width="1.1" height="45.8"/>
					<rect x="314.7" y="297.9" class="st25" width="1.1" height="45.8"/>
					<rect x="312.3" y="297.9" class="st25" width="1.1" height="24.7"/>
					<rect x="327.1" y="297.9" class="st25" width="5.9" height="45.8"/>
				</g>
			</g>
			<g>
				<rect x="380.5" y="304.6" class="st2" width="1.2" height="32.3"/>
				<rect x="381.7" y="304.6" class="st3" width="25.1" height="5.8"/>
				<rect x="381.7" y="311.3" class="st4" width="15.6" height="5.8"/>
				<rect x="381.7" y="317.9" class="st8" width="10.3" height="5.8"/>
				<rect x="381.7" y="324.6" class="st5" width="15.2" height="5.7"/>
				<rect x="381.7" y="331.2" class="st6" width="10.9" height="5.8"/>
			</g>
		</g>
		<path class="st22" d="M338,362.5L338,362.5c-3.3,2.6-8.1,2.1-10.7-1.2l-8.9-11.1c-2.6-3.3-2.1-8.1,1.2-10.7l0,0
			c3.3-2.6,8.1-2.1,10.7,1.2l8.9,11.1C341.8,355.1,341.3,359.9,338,362.5z"/>
		<path class="st22" d="M362.9,366.7L362.9,366.7c-3.3,2.6-8.1,2.1-10.7-1.2l-7.6-9.5c-2.6-3.3-2.1-8.1,1.2-10.7l0,0
			c3.3-2.6,8.1-2.1,10.7,1.2l7.6,9.5C366.8,359.2,366.2,364,362.9,366.7z"/>
		
			<rect x="125.7" y="112.7" transform="matrix(0.2958 -0.9553 0.9553 0.2958 -122.3526 315.4778)" class="st21" width="54.2" height="256"/>
		<path class="st22" d="M300.4,269.8l-1.6,5.1l6.5,1.4l52.5,11.4c10.9,2.4,14.6-4.4,16.7-11.2l-62-13.4
			C307.4,262.1,301.9,265.1,300.4,269.8z"/>
		<g>
			<g>
				<polygon class="st22" points="247.4,351.6 211.7,366.2 211.7,412.4 255.3,395.4 				"/>
				
					<rect x="1.6" y="400.2" transform="matrix(0.9328 -0.3605 0.3605 0.9328 -145.8003 71.3142)" class="st21" width="233.3" height="52.6"/>
			</g>
			<g>
				<path class="st26" d="M284.2,312.2l-30.3,21.4c-3.9,2.7-16,17-13.5,21.2c2.4,4.1,15.8-1.7,19.6-4.5l20.5-16.4
					C292.2,324.5,287.3,316.4,284.2,312.2z"/>
				<path class="st22" d="M344.4,318.8l-39.3,17.2c7.1,1.4,8.2,12.2,1.5,16.2c7.5,0.4,9.4,10.5,4,15.3c6.8,1.5,7.5,12.4,0.2,15.6
					l-33.3,14.7c-9.4,4.1-23.6,4.4-30.2,2.5c-19.4-5.6-20-31.2-14-40.2c4.6-7,7.2-12.6,12.2-14.8l92.3-42.2
					C349.4,297.7,354.1,314.7,344.4,318.8z"/>
				<path class="st26" d="M299.1,373.1c0,0,6.7-2.8,12.6-5.3c-0.4-0.1-0.7-0.3-1.1-0.4c0.5-0.4,0.9-0.9,1.3-1.4
					C306.1,369.2,299.1,373.1,299.1,373.1L299.1,373.1z M305.3,336.1c0.6,0.1,1.2,0.4,1.7,0.6c-6.6,2.8-18.1,7.3-18.1,7.3
					s11.3-5.7,16.1-8C305.1,336.1,305.1,336.1,305.3,336.1L305.3,336.1z M309,350.1c-0.7,0.8-1.5,1.5-2.4,2.1c0.5,0,1,0.1,1.4,0.2
					c-6.5,2.8-14.6,6.3-14.6,6.3S303,353.3,309,350.1z"/>
			</g>
		</g>
		<path class="st27" d="M373.8,279c0.3-0.8,0.6-1.6,0.8-2.4l-12.5-2.7C362.2,278.4,369.2,278.8,373.8,279z"/>
		<path class="st27" d="M355.3,347.7l2,2.6c-1.3,4.7-4.4,7-9.2,7.2l-2-2.4C340.8,348.3,351.1,342.1,355.3,347.7z"/>
		<path class="st27" d="M329.2,342l2,2.6c-1.3,4.7-4.4,7-9.2,7.2l-2-2.4C314.7,342.7,325,336.4,329.2,342z"/>
		<path class="st27" d="M344,316.7l-3.4,1.5c-4.8-2.7-6.4-6.8-5.3-12l3.2-1.5C347.3,300.7,351.3,313.7,344,316.7z"/>
	</g>
	<g>
		<path class="st28" d="M638.8,251.7l8.7,74.1c0.5,4.2-2.5,8-6.7,8.5l-94.1,11c-4.2,0.5-8-2.5-8.5-6.7l-8.7-74.1
			c-0.5-4.2,2.5-8,6.7-8.5l94.1-11C634.4,244.5,638.3,247.5,638.8,251.7z"/>
		<path class="st29" d="M632.9,254l8.3,71c0.2,2.1-1.3,4.1-3.4,4.3l-10.8,1.3c-2.1,0.2-4.1-1.3-4.3-3.4l-8.3-71
			c-0.2-2.1,1.3-4.1,3.4-4.3l10.8-1.3C630.8,250.3,632.7,251.8,632.9,254z"/>
		<path class="st30" d="M611.5,256.2l1.2,10c0.2,2-1.2,3.7-3.1,4l-10.4,1.2c-2,0.2-3.7-1.2-4-3.1l-1.2-10c-0.2-2,1.2-3.7,3.1-4
			l10.4-1.2C609.5,252.8,611.3,254.2,611.5,256.2z"/>
		<path class="st30" d="M613.9,276.7l1.2,10c0.2,2-1.2,3.7-3.1,4l-10.4,1.2c-2,0.2-3.7-1.2-4-3.1l-1.2-10c-0.2-2,1.2-3.7,3.1-4
			l10.4-1.2C611.9,273.3,613.7,274.8,613.9,276.7z"/>
		<path class="st30" d="M616.3,297.2l1.2,10c0.2,2-1.2,3.7-3.1,4l-10.4,1.2c-2,0.2-3.7-1.2-4-3.1l-1.2-10c-0.2-2,1.2-3.7,3.1-4
			l10.4-1.2C614.3,293.9,616.1,295.3,616.3,297.2z"/>
		<path class="st30" d="M618.7,317.8l1.2,10c0.2,2-1.2,3.7-3.1,4l-10.4,1.2c-2,0.2-3.7-1.2-4-3.1l-1.2-10c-0.2-2,1.2-3.7,3.1-4
			l10.4-1.2C616.7,314.4,618.5,315.8,618.7,317.8z"/>
		<path class="st30" d="M591.6,258.5l1.2,10c0.2,2-1.2,3.7-3.1,4l-10.4,1.2c-2,0.2-3.7-1.2-4-3.1l-1.2-10c-0.2-2,1.2-3.7,3.1-4
			l10.4-1.2C589.6,255.1,591.4,256.6,591.6,258.5z"/>
		<path class="st30" d="M594,279l1.2,10c0.2,2-1.2,3.7-3.1,4l-10.4,1.2c-2,0.2-3.7-1.2-4-3.1l-1.2-10c-0.2-2,1.2-3.7,3.1-4l10.4-1.2
			C592,275.7,593.8,277.1,594,279z"/>
		<path class="st30" d="M596.4,299.6l1.2,10c0.2,2-1.2,3.7-3.1,4l-10.4,1.2c-2,0.2-3.7-1.2-4-3.1l-1.2-10c-0.2-2,1.2-3.7,3.1-4
			l10.4-1.2C594.4,296.2,596.2,297.6,596.4,299.6z"/>
		<path class="st30" d="M598.8,320.1l1.2,10c0.2,2-1.2,3.7-3.1,4l-10.4,1.2c-2,0.2-3.7-1.2-4-3.1l-1.2-10c-0.2-2,1.2-3.7,3.1-4
			l10.4-1.2C596.8,316.8,598.6,318.2,598.8,320.1z"/>
		<path class="st30" d="M571.7,260.8l1.2,10c0.2,2-1.2,3.7-3.1,4l-10.4,1.2c-2,0.2-3.7-1.2-4-3.1l-1.2-10c-0.2-2,1.2-3.7,3.1-4
			l10.4-1.2C569.7,257.5,571.4,258.9,571.7,260.8z"/>
		<path class="st30" d="M574.1,281.4l1.2,10c0.2,2-1.2,3.7-3.1,4l-10.4,1.2c-2,0.2-3.7-1.2-4-3.1l-1.2-10c-0.2-2,1.2-3.7,3.1-4
			l10.4-1.2C572.1,278,573.8,279.4,574.1,281.4z"/>
		<path class="st30" d="M576.5,301.9l1.2,10c0.2,2-1.2,3.7-3.1,4l-10.4,1.2c-2,0.2-3.7-1.2-4-3.1l-1.2-10c-0.2-2,1.2-3.7,3.1-4
			l10.4-1.2C574.5,298.6,576.3,300,576.5,301.9z"/>
		<path class="st30" d="M578.9,322.5l1.2,10c0.2,2-1.2,3.7-3.1,4l-10.4,1.2c-2,0.2-3.7-1.2-4-3.1l-1.2-10c-0.2-2,1.2-3.7,3.1-4
			l10.4-1.2C576.9,319.1,578.7,320.5,578.9,322.5z"/>
		<path class="st30" d="M551.8,263.2l1.2,10c0.2,2-1.2,3.7-3.1,4l-10.4,1.2c-2,0.2-3.7-1.2-4-3.1l-1.2-10c-0.2-2,1.2-3.7,3.1-4
			l10.4-1.2C549.7,259.8,551.5,261.2,551.8,263.2z"/>
		<path class="st30" d="M554.2,283.7l1.2,10c0.2,2-1.2,3.7-3.1,4l-10.4,1.2c-2,0.2-3.7-1.2-4-3.1l-1.2-10c-0.2-2,1.2-3.7,3.1-4
			l10.4-1.2C552.1,280.3,553.9,281.8,554.2,283.7z"/>
		<path class="st30" d="M556.6,304.3l1.2,10c0.2,2-1.2,3.7-3.1,4l-10.4,1.2c-2,0.2-3.7-1.2-4-3.1l-1.2-10c-0.2-2,1.2-3.7,3.1-4
			l10.4-1.2C554.5,300.9,556.3,302.3,556.6,304.3z"/>
		<path class="st21" d="M559,324.8l1.2,10c0.2,2-1.2,3.7-3.1,4l-10.4,1.2c-2,0.2-3.7-1.2-4-3.1l-1.2-10c-0.2-2,1.2-3.7,3.1-4
			l10.4-1.2C557,321.4,558.7,322.8,559,324.8z"/>
		<path class="st1" d="M632.9,254l8.3,71c0.2,2.1-1.3,4.1-3.4,4.3l-10.8,1.3c-0.9,0.1-1.7-0.1-2.4-0.5l5.9-79.2
			C631.8,251.3,632.8,252.5,632.9,254z"/>
		<path class="st31" d="M627.8,322.6l-0.4,0.5l0.5,0.4l0.2,1.8l3.2-0.4l0.6,0.4l0.4-0.5l1.8-0.2l-2.1-1.1l-0.1-0.7l1.1-0.1l2.4,1.3
			l-0.2-1.4l0-0.1h1.2l0.2,1.9l-0.5,0.7l0,0l-0.4,0.5l-3.3,0.4l-0.6-0.4l-0.4,0.5l-3.3,0.4l-0.7-0.5l0,0l-0.5-0.4l-0.2-1.9l0.4-0.6
			l-0.5-0.4l0-0.1H627.8z M627.7,321.1l0.2,1.4l0,0.1h-1.2l-0.2-1.9l0.5-0.7l0,0l0.4-0.5l3.3-0.4l0.6,0.4l0.4-0.5l3.3-0.4l0.7,0.5
			l0,0l0.5,0.4l0.2,1.9l-0.4,0.6l0.5,0.4l0,0.1h-1.2l0.4-0.5l-0.5-0.4l-0.2-1.8l-3.2,0.4l-0.6-0.4l-0.4,0.5l-1.8,0.2l2.1,1.1
			l0.1,0.7l-1.1,0.1L627.7,321.1z"/>
		<path class="st31" d="M606,264.5c-1-0.7-1.9-1.1-2.8-1.3c-0.8-0.2-1.8-0.3-3-0.3l-0.8,0l-0.2-1.5l0.8,0c1.1,0,2.1,0.1,3.1,0.4
			c1,0.3,1.8,0.7,2.7,1.3l-0.4-3.8l1.1-0.1l0.6,5.2L606,264.5z"/>
		<path class="st31" d="M607.8,285.1c-0.4,0-0.7,0-1-0.2c-0.3-0.2-0.6-0.4-0.8-0.7c-0.1,0.4-0.3,0.8-0.6,1c-0.3,0.3-0.6,0.4-1,0.5
			c-0.7,0.1-1.2-0.1-1.7-0.5c-0.4-0.4-0.7-1-0.8-1.8c0-0.1,0-0.2,0-0.3h1.1c0,0,0,0.1,0,0.1c0,0.3,0.2,0.5,0.4,0.7
			c0.2,0.2,0.5,0.2,0.8,0.2c0.3,0,0.6-0.2,0.8-0.4c0.2-0.2,0.2-0.4,0.2-0.7h1.2c0.1,0.1,0.2,0.3,0.3,0.3c0.2,0.1,0.5,0.2,0.8,0.1
			c0.3,0,0.5-0.1,0.7-0.3c0-0.1,0.1-0.1,0.1-0.2h1.2c0,0.4-0.1,0.8-0.4,1.1C608.9,284.7,608.4,285,607.8,285.1z M602,283.1
			c0-0.6,0.1-1.2,0.4-1.6c0.3-0.5,0.8-0.8,1.5-0.9c0.4,0,0.8,0,1.1,0.2c0.3,0.2,0.6,0.5,0.8,0.8c0.1-0.4,0.3-0.7,0.6-0.9
			c0.3-0.2,0.6-0.4,0.9-0.4c0.7-0.1,1.2,0.1,1.6,0.5c0.4,0.4,0.7,0.9,0.7,1.6c0,0.2,0,0.4,0,0.6h-1.2c0.1-0.1,0.1-0.3,0.1-0.5
			c0-0.3-0.1-0.5-0.3-0.6c-0.2-0.1-0.4-0.2-0.7-0.1c-0.3,0-0.5,0.1-0.7,0.3c-0.2,0.2-0.2,0.4-0.2,0.7c0,0.1,0,0.2,0.1,0.3h-1.2
			c0,0,0-0.1,0-0.1c0-0.3-0.2-0.5-0.4-0.7c-0.2-0.2-0.5-0.2-0.8-0.2c-0.3,0-0.6,0.2-0.8,0.4c-0.1,0.2-0.2,0.4-0.2,0.7H602z"/>
		<path class="st31" d="M605.5,303.4c0,0.4,0.2,0.7,0.5,0.9c0.3,0.2,0.7,0.3,1.3,0.2l0.4,0c-0.2-0.1-0.4-0.3-0.5-0.5
			c-0.1-0.2-0.2-0.4-0.2-0.7h1.1c0,0,0,0,0,0.1c0,0.2,0.1,0.5,0.2,0.6c0.1,0.2,0.3,0.3,0.4,0.4l0.7-0.1c0.5-0.1,0.9-0.2,1.2-0.4
			c0.2-0.2,0.3-0.4,0.3-0.6h1.2c0,0.6-0.2,1.1-0.6,1.6c-0.5,0.5-1.2,0.9-2.1,1l-1.7,0.2c-0.9,0.1-1.6-0.1-2.2-0.5
			c-0.6-0.5-0.9-1.1-1-1.9c0-0.1,0-0.2,0-0.3h1.1L605.5,303.4z M606.9,303.3L606.9,303.3c-0.1-0.7,0.1-1.3,0.5-1.7
			c0.4-0.4,1-0.7,1.8-0.8c0.7-0.1,1.4,0.1,1.9,0.5c0.5,0.4,0.9,1,0.9,1.7c0,0.1,0,0.3,0,0.4h-1.2c0-0.1,0-0.2,0-0.2
			c0-0.3-0.2-0.5-0.5-0.7c-0.3-0.2-0.6-0.2-1-0.2c-0.4,0-0.7,0.2-1,0.4c-0.2,0.2-0.3,0.4-0.3,0.7H606.9L606.9,303.3z M604.3,303.3
			c0-0.2,0-0.4,0-0.5c0-0.3,0.1-0.5,0.1-0.8l1.1,0c-0.1,0.2-0.1,0.5-0.1,0.7c0,0.2,0,0.4,0,0.6H604.3z"/>
		<path class="st31" d="M607,326.1h0.8c0,0,0,0.1,0,0.1c0,0.2,0.1,0.4,0.2,0.4c0.1,0.1,0.3,0.1,0.5,0.1l0.4,0c0.2,0,0.4-0.1,0.5-0.2
			c0.1-0.1,0.2-0.2,0.2-0.4h0.8c0,0.4-0.1,0.8-0.3,1c-0.3,0.3-0.6,0.5-1,0.6l-0.4,0c-0.4,0.1-0.8,0-1.1-0.3
			c-0.3-0.2-0.5-0.6-0.6-1.1C607,326.2,607,326.2,607,326.1z M610.5,326.1h-0.8c0,0,0-0.1,0-0.1c0-0.1-0.1-0.2-0.1-0.3h0.9
			c0,0.1,0,0.2,0,0.2C610.5,326,610.5,326,610.5,326.1L610.5,326.1z M607.8,326.1H607c0-0.2,0-0.3,0-0.4h1c0,0-0.1,0-0.1,0.1
			C607.9,325.8,607.8,325.9,607.8,326.1L607.8,326.1z M613,325.6h0.5l-0.1,0.2L613,325.6z M613.6,325.6H613l-1-0.5h1.8L613.6,325.6
			L613.6,325.6z M610.4,325.6h-0.9c0,0-0.1-0.1-0.1-0.1c-0.1-0.1-0.3-0.1-0.5-0.1l-0.4,0c-0.2,0-0.3,0.1-0.4,0.2h-1
			c0-0.2,0.1-0.3,0.2-0.5h3C610.3,325.3,610.4,325.5,610.4,325.6z M614,322.9c0,0.1-0.1,0.1-0.1,0.2c-0.3,0.3-0.6,0.5-1,0.5l-0.4,0
			c-0.4,0.1-0.8,0-1.1-0.3c-0.2-0.1-0.3-0.3-0.4-0.5H614L614,322.9z M613.8,325.1L613.8,325.1l-4.5-2.2h-1.9l4.7,2.2H613.8
			L613.8,325.1z M610.2,325.1h-3c0,0,0-0.1,0.1-0.1c0.3-0.3,0.6-0.5,1-0.6l0.4,0c0.4,0,0.8,0,1.1,0.3
			C610,324.9,610.1,325,610.2,325.1z M614.2,322.4c0,0.2-0.1,0.3-0.2,0.5H611c-0.1-0.1-0.1-0.3-0.2-0.5h0.9c0,0.1,0.1,0.1,0.2,0.2
			c0.1,0.1,0.3,0.1,0.5,0.1l0.4,0c0.2,0,0.4-0.1,0.5-0.2l0,0H614.2L614.2,322.4z M609.2,322.9h-1.9l0,0l0.2-0.5h0.7L609.2,322.9z
			 M614.2,322.1c0,0.1,0,0.3,0,0.4h-1c0.1-0.1,0.2-0.2,0.2-0.4H614.2L614.2,322.1z M610.8,322.4c0-0.1,0-0.1,0-0.2
			c0-0.1,0-0.1,0-0.2h0.8c0,0,0,0.1,0,0.1c0,0.1,0,0.2,0.1,0.3H610.8L610.8,322.4z M608.2,322.4h-0.7l0.1-0.3L608.2,322.4z
			 M612.5,320.4c0.4-0.1,0.8,0,1.1,0.3c0.3,0.2,0.5,0.6,0.6,1.1c0,0.1,0,0.1,0,0.2h-0.8c0,0,0-0.1,0-0.1c0-0.2-0.1-0.3-0.3-0.4
			c-0.1-0.1-0.3-0.1-0.5-0.1l-0.4,0c-0.2,0-0.4,0.1-0.5,0.2c-0.1,0.1-0.1,0.2-0.2,0.4h-0.8c0-0.4,0.1-0.8,0.3-1
			c0.3-0.3,0.6-0.5,1-0.6L612.5,320.4z"/>
		<path class="st31" d="M582.7,266.6l0.1,0.8l-1.1,0.1l-0.1-0.8l-1.6,0.2l-0.2-1.5l1.6-0.2l-0.1-1h1.2l0.1,0.8l2.7-0.3l0,0l-0.2-0.1
			l-0.9-0.4h2.4l0.6,0.3l0.2,1.5L582.7,266.6z M581.3,264.2l-0.2-2l0.9-0.2l4.6,2.2h-2.4l-1.8-0.8l0.1,0.8H581.3z"/>
		<path class="st31" d="M585.2,283l4.2-0.1l0.5,4.1l-1.2,0.1l-0.3-2.9l-1.7,0c0.1,0.1,0.2,0.3,0.3,0.5c0.1,0.2,0.1,0.4,0.2,0.6
			c0.1,0.7-0.1,1.3-0.5,1.7c-0.4,0.4-1,0.7-1.8,0.8c-0.7,0.1-1.3-0.1-1.8-0.4c-0.5-0.4-0.8-1-0.9-1.8c-0.1-0.7,0-1.3,0.4-1.8
			c0.3-0.5,0.8-0.8,1.4-0.9l0,0l0.2,1.4c-0.3,0-0.6,0.2-0.7,0.4c-0.2,0.2-0.2,0.5-0.2,0.8c0,0.3,0.2,0.6,0.5,0.7
			c0.3,0.1,0.6,0.2,1,0.1c0.4,0,0.8-0.2,1-0.4c0.2-0.2,0.3-0.5,0.3-0.8c0-0.3-0.1-0.5-0.2-0.6c-0.1-0.1-0.3-0.2-0.5-0.3L585.2,283z"
			/>
		<path class="st31" d="M592.2,306c0,0.2,0,0.4,0,0.6c0,0.2-0.1,0.5-0.1,0.7l-1.1-0.1c0.1-0.2,0.1-0.4,0.1-0.6c0-0.2,0-0.4,0-0.6v0
			H592.2L592.2,306z M589.6,306c0,0.1,0,0.1,0,0.2c0.1,0.7-0.1,1.2-0.5,1.6c-0.4,0.4-1,0.7-1.7,0.8c-0.7,0.1-1.4-0.1-1.9-0.5
			c-0.5-0.4-0.8-1-0.9-1.7c0-0.1,0-0.3,0-0.4h1.2c0,0.1,0,0.2,0,0.3c0,0.3,0.2,0.5,0.5,0.7c0.3,0.2,0.6,0.2,1,0.2
			c0.4,0,0.7-0.2,1-0.4c0.2-0.2,0.3-0.4,0.3-0.7H589.6z M592.1,305.9l0,0.1H591c-0.1-0.5-0.3-0.8-0.6-1c-0.4-0.2-0.8-0.3-1.4-0.2
			l0,0c0.2,0.1,0.4,0.3,0.5,0.6c0.1,0.2,0.2,0.4,0.2,0.6h-1.1l0-0.1c0-0.3-0.1-0.5-0.2-0.7c-0.1-0.2-0.2-0.3-0.4-0.4l-0.5,0.1
			c-0.6,0.1-1,0.2-1.3,0.5c-0.2,0.2-0.3,0.4-0.4,0.6h-1.2c0-0.6,0.2-1.1,0.6-1.6c0.5-0.6,1.2-0.9,2.1-1l1.4-0.2
			c1-0.1,1.8,0.1,2.4,0.6C591.7,304.3,592,305,592.1,305.9z"/>
		<polygon class="st31" points="590.7,326.4 590.7,326.4 592.6,327 592.8,328.7 589.9,327.4 587.3,329.4 587.1,327.7 588.8,326.6 
			586.9,325.9 586.7,324.3 589.7,325.7 592.2,323.7 592.4,325.3 		"/>
		<polygon class="st31" points="559.9,268.2 559.8,266.7 565.8,266 565.7,264.5 566.7,264.4 567.3,267.4 		"/>
		<path class="st31" d="M562.6,290.6l-0.6-5l1-0.1l2.8,2.1c0.4,0.3,0.8,0.5,1.1,0.6c0.3,0.1,0.6,0.2,0.8,0.1c0.3,0,0.6-0.2,0.7-0.3
			c0.2-0.2,0.2-0.4,0.2-0.7c0-0.3-0.2-0.6-0.4-0.7c-0.3-0.1-0.6-0.2-1-0.2l-0.2-1.4l0,0c0.7-0.1,1.3,0.1,1.8,0.5
			c0.5,0.4,0.8,1,0.9,1.8c0.1,0.8,0,1.4-0.4,1.9c-0.3,0.5-0.8,0.8-1.5,0.8c-0.4,0.1-0.9,0-1.3-0.2c-0.4-0.2-0.9-0.5-1.6-1l-1.6-1.1
			l0,0l0.4,3.1L562.6,290.6z"/>
		<path class="st31" d="M568.9,307.1l0.1,0.8c0,0.4,0.2,0.6,0.4,0.7c0.2,0.1,0.5,0.2,0.8,0.2c0.3,0,0.5-0.1,0.7-0.3
			c0.2-0.2,0.2-0.4,0.2-0.8c0-0.3-0.1-0.5-0.3-0.7c-0.2-0.2-0.4-0.2-0.7-0.2l-0.2-1.4l0,0c0.6-0.1,1.1,0.1,1.5,0.5
			c0.4,0.4,0.7,1,0.8,1.7c0.1,0.8,0,1.4-0.3,1.9c-0.3,0.5-0.8,0.8-1.5,0.9c-0.3,0-0.6,0-1-0.2c-0.3-0.2-0.6-0.4-0.8-0.8
			c-0.1,0.4-0.3,0.8-0.6,1c-0.3,0.3-0.6,0.4-1,0.4c-0.7,0.1-1.2-0.1-1.7-0.5c-0.4-0.4-0.7-1.1-0.8-1.8c-0.1-0.7,0-1.3,0.3-1.8
			c0.3-0.5,0.8-0.8,1.5-0.9l0,0l0.2,1.4c-0.3,0-0.5,0.2-0.7,0.4c-0.2,0.2-0.2,0.5-0.2,0.8c0,0.3,0.2,0.6,0.4,0.8
			c0.2,0.2,0.5,0.2,0.8,0.2c0.4,0,0.7-0.2,0.8-0.4c0.2-0.2,0.2-0.5,0.2-0.9l-0.1-0.8L568.9,307.1z"/>
		
			<rect x="569.6" y="327.4" transform="matrix(0.9932 -0.1164 0.1164 0.9932 -34.3879 68.5827)" class="st31" width="1.1" height="2.9"/>
		<path class="st31" d="M543.1,271.9c-1,0.1-1.7,0-2.3-0.4c-0.6-0.4-0.9-1-1-1.7c0-0.2,0-0.3,0-0.5h1.2c0,0.1,0,0.2,0,0.3
			c0,0.3,0.2,0.6,0.5,0.7c0.3,0.1,0.7,0.2,1.3,0.1l1.9-0.2c0.6-0.1,1-0.2,1.3-0.4c0.2-0.1,0.3-0.3,0.3-0.5h1.2
			c0,0.6-0.2,1.1-0.6,1.5c-0.5,0.5-1.2,0.8-2.1,0.9L543.1,271.9z M539.8,269.3c0-0.6,0.2-1.1,0.6-1.5c0.5-0.5,1.2-0.8,2.1-0.9
			l1.6-0.2c1-0.1,1.7,0,2.3,0.4c0.6,0.4,0.9,1,1,1.7c0,0.2,0,0.3,0,0.4h-1.2c0-0.1,0-0.2,0-0.3c0-0.3-0.2-0.6-0.5-0.7
			c-0.3-0.1-0.7-0.2-1.3-0.1l-1.9,0.2c-0.6,0.1-1,0.2-1.3,0.4c-0.2,0.1-0.3,0.3-0.3,0.5H539.8z"/>
		<path class="st31" d="M546.3,288.7c0.3,0,0.6,0,0.9,0.2c0.2,0.2,0.4,0.5,0.4,0.8c0,0.4,0,0.7-0.2,0.9c-0.2,0.2-0.5,0.4-0.8,0.4
			l-0.5,0.1c-0.3,0-0.6,0-0.9-0.2c-0.2-0.2-0.4-0.5-0.4-0.8c0-0.4,0-0.7,0.2-0.9c0.2-0.2,0.4-0.4,0.8-0.4L546.3,288.7z"/>
		<polygon class="st31" points="548.9,311.1 549.2,312.9 547.9,313.1 547.7,311.3 545.6,311.5 545.4,310.1 547.5,309.9 547.3,308 
			548.6,307.9 548.8,309.7 550.8,309.5 550.9,310.9 		"/>
		<path class="st31" d="M551.3,333.3l-0.5-4.5l1.2-0.1l0.5,4.5L551.3,333.3L551.3,333.3z M549.1,333.5l-0.5-4.5l1.2-0.1l0.5,4.5
			L549.1,333.5z"/>
	</g>
	<g>
		<g>
			
				<rect x="377.4" y="159.5" transform="matrix(0.9401 -0.341 0.341 0.9401 -40.6206 150.877)" class="st21" width="63" height="63"/>
			<polygon class="st21" points="409.7,224.2 390,231.3 385.4,218.7 			"/>
			<path class="st32" d="M409.7,224.2c-4.7-4.5-7.9-9.6-8.6-15.5c-3.8,5.4-9.2,8.3-15.7,9.9L409.7,224.2z"/>
			
				<rect x="431.3" y="150" transform="matrix(0.9401 -0.341 0.341 0.9401 -35.824 159.2164)" class="st32" width="7.4" height="63"/>
		</g>
		<g>
			<path class="st33" d="M407.5,178.7c0.1,0.5-0.2,0.6-0.7,0.2c-0.5-0.3-0.9-1-1-1.5c-0.3-1.6-0.5-3.5-0.6-5.4
				c-0.2-1.8-0.3-3.7-0.6-5.2c-0.1-0.5,0.2-0.6,0.7-0.2c0.5,0.3,0.9,1,1,1.5c0.3,1.6,0.5,3.5,0.6,5.4
				C407,175.3,407.2,177.1,407.5,178.7z"/>
			<path class="st33" d="M400.9,179.8c0.2,0.4-0.1,0.6-0.6,0.4c-0.6-0.2-1.2-0.7-1.4-1.2c-0.7-1.5-1.3-3.3-2-5.1
				c-0.6-1.7-1.3-3.5-1.9-4.9c-0.2-0.4,0.1-0.6,0.6-0.4c0.5,0.2,1.2,0.7,1.4,1.2c0.7,1.5,1.3,3.3,2,5.1
				C399.6,176.6,400.2,178.3,400.9,179.8z"/>
			<g>
				<g>
					<path class="st33" d="M395.1,194.9c-0.4,0.2-1.2,0-1.7-0.4c-0.5-0.4-0.5-0.8-0.1-1c1.4-0.5,2.2-1.9,3.1-3.4
						c1.3-2.3,2.9-5.1,7.1-6.7c4-1.6,7.7,0.1,10.3,3c0.9,1.1,1.7,2.3,2.1,3.6c0.5,1.3,0.7,2.7,0.6,4c-0.2,3-1.9,5.9-5.9,7.2
						c-4.7,1.5-7.6,0.3-10-0.7c-1.2-0.5-2.3-0.9-3.4-0.5c-0.4,0.2-1.2,0-1.7-0.4c-0.5-0.4-0.5-0.8-0.1-1c2.2-0.8,3.9-0.1,5.9,0.8
						c1.8,0.8,4,1.7,7.7,0.5c3.6-1.1,5.1-3.7,5.2-6.4c0.1-1.2-0.2-2.5-0.6-3.6c-0.4-1.2-1.1-2.2-1.8-3.1c-1.6-1.8-3.9-2.8-6.4-1.9
						c-3.8,1.5-5.3,4.1-6.6,6.3C397.8,192.8,396.9,194.3,395.1,194.9z"/>
					<path class="st33" d="M390.6,193.2c0.1-0.2,0.5-0.3,0.9-0.2c0.5,0.1,0.8,0.5,0.7,0.7c-0.2,1-0.3,2.6-0.1,4.2
						c0.1,1.5,0.4,3,0.9,4.3c0.1,0.3-0.2,0.5-0.6,0.4c-0.5-0.1-0.9-0.3-1-0.6c-0.5-1.4-0.8-3-1-4.5
						C390.3,195.9,390.3,194.3,390.6,193.2z"/>
					<path class="st33" d="M388.1,194.9c0.1-0.2,0.5-0.3,0.9-0.2c0.5,0.1,0.8,0.5,0.7,0.7c-0.2,0.8-0.2,2.1-0.1,3.5
						c0.1,1.2,0.3,2.5,0.7,3.6c0.1,0.3-0.2,0.5-0.6,0.4c-0.5-0.1-0.9-0.3-1-0.6c-0.4-1.2-0.7-2.5-0.8-3.7
						C387.8,197.2,387.9,195.8,388.1,194.9z"/>
					<path class="st33" d="M385.1,196.8c0-0.3,0.4-0.4,0.9-0.2c0.5,0.1,0.8,0.4,0.8,0.7c-0.1,0.7,0,1.7,0.2,2.7
						c0.2,0.9,0.5,1.8,1,2.5c0.2,0.3,0,0.5-0.4,0.5c-0.4,0-0.9-0.2-1.1-0.5c-0.5-0.8-0.9-1.8-1.1-2.8
						C385.1,198.6,385,197.6,385.1,196.8z"/>
				</g>
				<path class="st33" d="M415,202.6c-0.3-0.3-0.1-0.5,0.4-0.5c0.5,0,1.2,0.2,1.5,0.5c1,1,2.2,2.2,3.3,3.5c1.1,1.2,2.2,2.4,3.2,3.4
					c0.3,0.3,0.1,0.5-0.4,0.5c-0.5,0-1.2-0.2-1.5-0.5c-1.1-1-2.2-2.2-3.3-3.5C417.1,204.8,416,203.6,415,202.6z"/>
				<path class="st33" d="M408.1,205.2c-0.2-0.3,0.1-0.5,0.7-0.4c0.6,0.1,1.2,0.4,1.3,0.7c0.7,1.2,1.4,2.8,2.1,4.3l0,0
					c0.7,1.5,1.4,3,2.1,4.2c0.2,0.3-0.1,0.5-0.7,0.4c-0.6-0.1-1.2-0.4-1.3-0.7c-0.7-1.2-1.4-2.8-2.1-4.3l0,0v0
					C409.5,207.9,408.8,206.4,408.1,205.2z"/>
				<path class="st33" d="M402,205.2c0-0.3,0.2-0.3,0.6-0.1c0.4,0.2,0.8,0.6,0.8,0.9c0.2,1.1,0.3,2.5,0.4,3.8v0
					c0.1,1.3,0.2,2.6,0.4,3.7c0,0.3-0.2,0.3-0.6,0.1c-0.4-0.2-0.8-0.6-0.8-0.9c-0.2-1.1-0.3-2.5-0.4-3.8v0v0
					C402.3,207.7,402.2,206.3,402,205.2z"/>
				<path class="st33" d="M419.1,198.4c-0.4-0.1-0.4-0.4,0.1-0.7c0.5-0.2,1.2-0.4,1.6-0.3c1.4,0.4,3,1,4.5,1.6
					c1.5,0.6,3.1,1.1,4.4,1.5c0.4,0.1,0.4,0.4-0.1,0.7c-0.5,0.2-1.2,0.4-1.6,0.3c-1.4-0.4-3-1-4.5-1.6
					C422,199.3,420.5,198.8,419.1,198.4z"/>
				<path class="st33" d="M419.1,191.7c-0.4,0-0.5-0.2-0.2-0.6c0.3-0.4,0.9-0.8,1.4-0.8c1.4-0.2,3.1-0.2,4.8-0.2
					c1.6,0,3.3-0.1,4.7-0.2c0.4,0,0.5,0.2,0.2,0.6c-0.3,0.4-0.9,0.8-1.4,0.8c-1.4,0.2-3.1,0.2-4.8,0.2
					C422.1,191.5,420.5,191.6,419.1,191.7z"/>
				<path class="st33" d="M416.4,185.4c-0.4,0.2-0.5,0-0.4-0.5c0.1-0.5,0.5-1.1,0.9-1.3c1.2-0.8,2.7-1.5,4.2-2.3
					c1.5-0.7,2.9-1.5,4.1-2.2c0.4-0.2,0.5,0,0.4,0.5c-0.1,0.5-0.5,1.1-0.9,1.3c-1.2,0.8-2.7,1.5-4.2,2.3
					C419,184,417.5,184.7,416.4,185.4z"/>
				<path class="st33" d="M412.4,180.3c-0.2,0.4-0.5,0.3-0.6-0.3c-0.1-0.5-0.1-1.2,0.2-1.6c0.7-1.2,1.7-2.6,2.7-4
					c0.9-1.3,1.9-2.7,2.6-3.9c0.2-0.4,0.5-0.3,0.6,0.3c0.1,0.5,0.1,1.2-0.2,1.6c-0.7,1.2-1.7,2.6-2.7,4
					C414.1,177.8,413.1,179.1,412.4,180.3z"/>
				<path class="st33" d="M394.6,185.4c0.2,0.3,0,0.5-0.4,0.4c-0.5-0.1-1-0.4-1.2-0.7c-0.7-1.1-1.5-2.4-2.2-3.7
					c-0.7-1.3-1.4-2.6-2.1-3.6c-0.2-0.3,0-0.5,0.4-0.4c0.5,0.1,1,0.4,1.2,0.7c0.7,1.1,1.5,2.4,2.2,3.7
					C393.2,183,393.9,184.3,394.6,185.4z"/>
			</g>
		</g>
	</g>
</g>
</svg>
