<?xml version="1.0" encoding="utf-8"?>
<!-- Generator: Adobe Illustrator 17.1.0, SVG Export Plug-In . SVG Version: 6.00 Build 0)  -->
<!DOCTYPE svg PUBLIC "-//W3C//DTD SVG 1.1//EN" "http://www.w3.org/Graphics/SVG/1.1/DTD/svg11.dtd">
<svg version="1.1" id="Layer_1" xmlns="http://www.w3.org/2000/svg" xmlns:xlink="http://www.w3.org/1999/xlink" x="0px" y="0px"
	 viewBox="0 0 321.4 88.4" enable-background="new 0 0 321.4 88.4" xml:space="preserve">
<g>
	<polygon fill-rule="evenodd" clip-rule="evenodd" fill="#73B452" points="121.8,1.9 121.8,62 72.9,86.5 	"/>
	<polygon fill-rule="evenodd" clip-rule="evenodd" fill="#9DC44D" points="121.8,1.9 170.6,86.5 121.8,62 	"/>
	<polygon fill-rule="evenodd" clip-rule="evenodd" fill="#427C3F" points="121.8,62 170.6,86.5 72.9,86.5 	"/>
	<path fill-rule="evenodd" clip-rule="evenodd" fill="#484B51" d="M179,24.3C179,6.8,194.8,0,210.1,0c10.8,0,20.7,2.5,30.3,7.5
		l-7,12.2c-6.5-2.9-14.1-5.6-21.2-5.5c-6.1,0.1-18.5,1.4-18.5,9.9c0,16.6,50.5,9,50.5,39.3c0,19.7-16.3,25.1-33.2,25.1
		c-10.8,0-23-3.2-33-7.2l7.7-13.3c2,0.8,4.1,1.5,6.2,2.2c5.2,1.6,12.3,3.4,17.8,3.4c5.9,0,19.5-1,19.5-9.4
		C229.2,46.4,179,54.4,179,24.3z"/>
	<polygon fill-rule="evenodd" clip-rule="evenodd" fill="#484B51" points="15.8,37.5 29.5,37.5 50,1.9 66.8,1.9 42.4,44.2 
		66.8,86.5 50,86.5 29.5,50.9 15.8,50.9 15.8,86.5 0,86.5 0,1.9 15.8,1.9 	"/>
	<path fill-rule="evenodd" clip-rule="evenodd" fill="#484B51" d="M263,86.5h58.4V73h-42.6V50.9h38.9V37.5h-38.9V15.4h42.6V1.9H263
		C263,30.1,263,58.3,263,86.5z"/>
</g>
</svg>
