<?xml version="1.0" encoding="utf-8"?>
<!-- Generator: Adobe Illustrator 19.2.0, SVG Export Plug-In . SVG Version: 6.00 Build 0)  -->
<svg version="1.1" id="objects" xmlns="http://www.w3.org/2000/svg" xmlns:xlink="http://www.w3.org/1999/xlink" x="0px" y="0px"
	 viewBox="0 0 633.1 633.1" style="enable-background:new 0 0 633.1 633.1;" xml:space="preserve">
<style type="text/css">
	.st0{clip-path:url(#SVGID_2_);fill:#E8EEF0;}
	.st1{clip-path:url(#SVGID_2_);fill:#FFFFFF;}
	.st2{clip-path:url(#SVGID_2_);fill:none;stroke:#FFFFFF;stroke-width:30;stroke-miterlimit:10;}
	.st3{clip-path:url(#SVGID_2_);}
	.st4{fill:#FFE0B8;}
	.st5{fill:#8AC53F;}
	.st6{fill:#FFFFFF;}
	.st7{fill:#0A622B;}
	.st8{fill:#454A51;}
	.st9{fill:#8AC53F;stroke:#0A622B;stroke-width:6;stroke-miterlimit:10;}
	.st10{fill-rule:evenodd;clip-rule:evenodd;fill:#0A622B;}
	.st11{fill-rule:evenodd;clip-rule:evenodd;fill:#8CD3CB;}
	.st12{clip-path:url(#SVGID_2_);fill-rule:evenodd;clip-rule:evenodd;fill:#FFFFFF;}
</style>
<g>
	<defs>
		<circle id="SVGID_1_" cx="316.6" cy="316.6" r="316.6"/>
	</defs>
	<clipPath id="SVGID_2_">
		<use xlink:href="#SVGID_1_"  style="overflow:visible;"/>
	</clipPath>
	<rect x="-56.6" y="-60.5" class="st0" width="737.8" height="737.8"/>
	<polygon class="st1" points="492.7,327.8 311.3,327.6 312.4,138.7 323.6,123.6 334.8,138.8 333.8,305.5 493,305.4 507.5,316.6 	"/>
	<circle class="st2" cx="316.6" cy="316.6" r="282.8"/>
	<g class="st3">
		<path class="st4" d="M225.9,398.6l15.2,0.1c0,0,7.8-20,20.9-24.1l141.1-2.6c0,0,12.4-1.3,12.4,11.1c0,5.5-1.9,10.2-9.1,10.2
			l-73.7,1.4l1.9,5.7l83,0.3c0,0,11.9,0.5,11.9,9.8c0,9.3-8.6,10.6-8.6,10.6l-79.9,2.6l-1,6.2l87.5-1c0,0,9.2-0.5,9.2,10
			c0,10.6-10.6,10.5-10.6,10.5l-86.9,0.5v6.4l77.5,0.9c0,0,10.3,1.1,10.3,10.3c0,9.3-8.1,10.6-8.1,10.6l-193.1-4.3L225.9,398.6z"/>
		
			<ellipse transform="matrix(0.7071 -0.7071 0.7071 0.7071 -202.684 365.6312)" class="st5" cx="340" cy="427.5" rx="57.8" ry="57.8"/>
		<path class="st6" d="M294.6,472.9c-25-25-25-65.7,0-90.8c25-25,65.7-25,90.8,0c25,25,25,65.7,0,90.8
			C360.4,497.9,319.7,497.9,294.6,472.9z M377.6,389.8c-20.8-20.8-54.5-20.8-75.3,0c-20.8,20.8-20.8,54.5,0,75.3
			c20.7,20.8,54.5,20.8,75.3,0C398.4,444.4,398.4,410.6,377.6,389.8z"/>
		<path class="st7" d="M289.5,478c-27.8-27.8-27.8-73.2,0-101c27.8-27.8,73.2-27.8,101,0c27.8,27.8,27.8,73.2,0,101
			C362.7,505.8,317.4,505.8,289.5,478z M381.9,385.6c-23.1-23.1-60.7-23.1-83.8,0c-23.1,23.1-23.1,60.7,0,83.8
			c23.1,23.1,60.7,23.1,83.8,0C405,446.3,405,408.7,381.9,385.6z"/>
		
			<ellipse transform="matrix(0.7071 -0.7072 0.7072 0.7071 -187.0187 328.088)" class="st6" cx="302.5" cy="389.8" rx="5.8" ry="5.8"/>
		
			<ellipse transform="matrix(0.7072 -0.707 0.707 0.7072 -218.1279 403.1146)" class="st6" cx="377.6" cy="464.9" rx="5.8" ry="5.8"/>
		
			<ellipse transform="matrix(0.7072 -0.707 0.707 0.7072 -165.0558 381.1352)" class="st6" cx="377.6" cy="389.8" rx="5.8" ry="5.8"/>
		
			<ellipse transform="matrix(0.7071 -0.7071 0.7071 0.7071 -240.4202 350.0167)" class="st6" cx="302.3" cy="465.2" rx="5.8" ry="5.8"/>
		
			<ellipse transform="matrix(0.7071 -0.7071 0.7071 0.7071 -202.6155 365.741)" class="st6" cx="340.1" cy="427.4" rx="5.8" ry="5.8"/>
		
			<rect x="335.4" y="384.1" transform="matrix(0.9831 -0.183 0.183 0.9831 -68.6566 68.3613)" class="st6" width="1.4" height="44.4"/>
		
			<rect x="351.3" y="417.6" transform="matrix(0.2195 -0.9756 0.9756 0.2195 -144.9965 679.2394)" class="st6" width="1.4" height="25.4"/>
		<path class="st4" d="M222.5,435.2c0,0,28.9-5.9,45.9,5.4c17,11.4,21.5,25.1,21.5,25.1l44,1.9c0,0,18.5,1.2,19.3,20.8l-95.5-1.9
			c0,0-10.8,0.9-22.7-12.3l-12.7-0.4L222.5,435.2z"/>
		<rect x="216.1" y="389.8" class="st6" width="9.7" height="92.2"/>
		<rect x="-50.2" y="378.9" class="st8" width="266.3" height="112.7"/>
		<circle class="st6" cx="200.4" cy="391.7" r="4.6"/>
		<circle class="st6" cx="176.1" cy="391.7" r="4.6"/>
	</g>
	<g class="st3">
		<path class="st4" d="M516.2,256.8c0,0-35.7,20.4-48.3,21.5c-12.7,1.1-91.3-67.8-91.3-67.8s19.8-24.4,25.8-25.3
			c6-0.8,75.7,12.9,75.7,12.9l13.3-6L516.2,256.8z"/>
		<g>
			
				<rect x="228.5" y="225.5" transform="matrix(0.9693 -0.2458 0.2458 0.9693 -58.5125 88.4476)" class="st7" width="193.3" height="106.3"/>
			
				<rect x="235.6" y="232.7" transform="matrix(0.9693 -0.2457 0.2457 0.9693 -58.5104 88.4428)" class="st5" width="179" height="91.8"/>
			
				<ellipse transform="matrix(0.9693 -0.2459 0.2459 0.9693 -41.6221 104.3076)" class="st7" cx="396.9" cy="218.8" rx="12.4" ry="12.4"/>
			
				<ellipse transform="matrix(0.9694 -0.2456 0.2456 0.9694 -60.3048 111.5061)" class="st7" cx="416.8" cy="297.5" rx="12.4" ry="12.4"/>
			
				<ellipse transform="matrix(0.9693 -0.2457 0.2457 0.9693 -56.7919 65.3584)" class="st7" cx="233.5" cy="260.3" rx="12.4" ry="12.4"/>
			
				<ellipse transform="matrix(0.9693 -0.2458 0.2458 0.9693 -58.5139 88.4498)" class="st7" cx="325.1" cy="278.7" rx="29.4" ry="29.4"/>
			
				<ellipse transform="matrix(0.9693 -0.2457 0.2457 0.9693 -75.5119 72.6739)" class="st7" cx="253.5" cy="338.9" rx="12.4" ry="12.4"/>
		</g>
		
			<rect x="502.8" y="177.9" transform="matrix(0.9354 -0.3535 0.3535 0.9354 -45.7248 193.7229)" class="st6" width="9.3" height="88.4"/>
		<rect x="228.5" y="201.7" class="st7" width="193.3" height="106.3"/>
		<rect x="235.6" y="208.9" class="st5" width="179" height="91.8"/>
		<circle class="st7" cx="409.4" cy="214.5" r="12.4"/>
		<circle class="st7" cx="414" cy="293.9" r="12.4"/>
		<circle class="st7" cx="240.8" cy="214.5" r="12.4"/>
		
			<ellipse transform="matrix(0.9999 -1.235031e-002 1.235031e-002 0.9999 -3.1225 4.0348)" class="st9" cx="325.1" cy="254.8" rx="29.4" ry="29.4"/>
		<circle class="st7" cx="240.8" cy="295.6" r="12.4"/>
		<path class="st4" d="M470.7,277.8c0,0-30.3,6.2-48.1-5.7c-17.9-11.9-20.9-21.3-20.9-21.3l-41.2-2.7c0,0-14.1-5.5-14.9-26l88.1,2
			c0,0,11.4-0.9,23.8,12.9l13.3,0.5L470.7,277.8z"/>
		<path class="st10" d="M324.7,229.5c-14,0.2-25.2,11.8-25,25.8c0.2,14,11.8,25.2,25.8,25c14-0.2,25.2-11.8,24.9-25.8
			C350.3,240.4,338.7,229.2,324.7,229.5z M332.3,264c-1.1,1.3-2.6,2.1-4.4,2.6v2.3h-4.3v-2c-1.3-0.1-2.4-0.3-3.5-0.8
			c-1.3-0.6-2.7-1.4-3.9-2.6l3-5c1,1.1,2,1.9,3,2.5c0.5,0.3,1,0.5,1.5,0.6c0.5,0.1,1.1,0.2,1.6,0.2c0.8,0,1.5-0.3,2.1-0.8
			c0.3-0.2,0.5-0.5,0.6-0.8V258c-0.1-0.3-0.3-0.5-0.5-0.8c-0.5-0.4-1.5-0.8-3.2-1.3c-0.2,0-0.4-0.1-0.6-0.2
			c-2.3-0.6-3.9-1.4-4.8-2.4c-1-1-1.6-2.4-1.6-4.3c0-2.2,0.6-4,2-5.5c1.1-1.1,2.6-1.9,4.4-2.3v-2.7h4.3v2.4c0.7,0.1,1.5,0.3,2.2,0.6
			c1,0.3,1.9,0.8,2.8,1.4l-2.1,4.9c-0.8-0.6-1.6-1.1-2.4-1.4c-0.2-0.1-0.4-0.1-0.6-0.2c-0.6-0.2-1.2-0.2-1.8-0.2
			c-0.8,0-1.5,0.2-1.9,0.6c-0.3,0.2-0.5,0.5-0.6,0.7c-0.1,0.2-0.1,0.5-0.1,0.7c0,0.3,0.1,0.5,0.1,0.7c0.1,0.3,0.3,0.5,0.5,0.7
			c0.4,0.4,1.3,0.7,2.6,1l0.2,0.1c0.3,0.1,0.6,0.2,0.9,0.2c2.3,0.6,3.8,1.3,4.6,2.1c0.6,0.6,1.1,1.3,1.4,2.2
			c0.3,0.8,0.5,1.8,0.5,2.8C334.4,260.4,333.7,262.4,332.3,264z"/>
		<polygon class="st8" points="530.9,270.5 492.9,172.5 676.6,97 704.3,194.4 		"/>
		<ellipse transform="matrix(0.886 -0.4637 0.4637 0.886 -46.9632 287.0516)" class="st6" cx="560.2" cy="239" rx="4.6" ry="4.6"/>
		
			<ellipse transform="matrix(0.8859 -0.4639 0.4639 0.8859 -53.6228 278.8321)" class="st6" cx="539.9" cy="248.4" rx="4.6" ry="4.6"/>
		<path class="st11" d="M327.9,238.7v2.4c-0.2,0-0.5-0.1-0.7-0.1l-2.2,0.1c-0.5,0.1-1,0.1-1.4,0.3v-2.7H327.9z"/>
		<path class="st11" d="M327.9,266.5v2.3h-4.3v-2c0.3,0,0.6,0,0.9,0l2.2-0.1C327.1,266.7,327.5,266.6,327.9,266.5z"/>
	</g>
	<path class="st12" d="M322.1,63.3c-14,0.2-25.2,11.8-25,25.8c0.2,14,11.8,25.2,25.8,25c14-0.2,25.2-11.8,24.9-25.8
		C347.7,74.3,336.1,63.1,322.1,63.3z M329.7,97.8c-1.1,1.3-2.6,2.1-4.4,2.6v2.3H321v-2c-1.3-0.1-2.4-0.3-3.5-0.8
		c-1.3-0.6-2.7-1.4-3.9-2.6l3-5c1,1.1,2,1.9,3,2.5c0.5,0.3,1,0.5,1.5,0.6c0.5,0.1,1.1,0.2,1.6,0.2c0.8,0,1.5-0.3,2.1-0.8
		c0.3-0.2,0.5-0.5,0.6-0.8v-2.1c-0.1-0.3-0.3-0.5-0.5-0.8c-0.5-0.4-1.5-0.8-3.2-1.3c-0.2,0-0.4-0.1-0.6-0.2
		c-2.3-0.6-3.9-1.4-4.8-2.4c-1-1-1.6-2.4-1.6-4.3c0-2.2,0.6-4,2-5.5c1.1-1.1,2.6-1.9,4.4-2.3v-2.7h4.3V75c0.7,0.1,1.5,0.3,2.2,0.6
		c1,0.3,1.9,0.8,2.8,1.4l-2.1,4.9c-0.8-0.6-1.6-1.1-2.4-1.4c-0.2-0.1-0.4-0.1-0.6-0.2c-0.6-0.2-1.2-0.2-1.8-0.2
		c-0.8,0-1.5,0.2-1.9,0.6c-0.3,0.2-0.5,0.5-0.6,0.7c-0.1,0.2-0.1,0.5-0.1,0.7c0,0.3,0.1,0.5,0.1,0.7c0.1,0.3,0.3,0.5,0.5,0.7
		c0.4,0.4,1.3,0.7,2.6,1l0.2,0.1c0.3,0.1,0.6,0.2,0.9,0.2c2.3,0.6,3.8,1.3,4.6,2.1c0.6,0.6,1.1,1.3,1.4,2.2c0.3,0.8,0.5,1.8,0.5,2.8
		C331.8,94.3,331.1,96.3,329.7,97.8z"/>
	<path class="st12" d="M322.1,520.6c-14,0.2-25.2,11.8-25,25.8c0.2,14,11.8,25.2,25.8,25c14-0.2,25.2-11.8,24.9-25.8
		C347.7,531.5,336.1,520.4,322.1,520.6z M329.7,555.1c-1.1,1.3-2.6,2.1-4.4,2.6v2.3H321v-2c-1.3-0.1-2.4-0.3-3.5-0.8
		c-1.3-0.6-2.7-1.4-3.9-2.6l3-5c1,1.1,2,1.9,3,2.5c0.5,0.3,1,0.5,1.5,0.6c0.5,0.1,1.1,0.2,1.6,0.2c0.8,0,1.5-0.3,2.1-0.8
		c0.3-0.2,0.5-0.5,0.6-0.8v-2.1c-0.1-0.3-0.3-0.5-0.5-0.8c-0.5-0.4-1.5-0.8-3.2-1.3c-0.2,0-0.4-0.1-0.6-0.2
		c-2.3-0.6-3.9-1.4-4.8-2.4c-1-1-1.6-2.4-1.6-4.3c0-2.2,0.6-4,2-5.5c1.1-1.1,2.6-1.9,4.4-2.3v-2.7h4.3v2.4c0.7,0.1,1.5,0.3,2.2,0.6
		c1,0.3,1.9,0.8,2.8,1.4l-2.1,4.9c-0.8-0.6-1.6-1.1-2.4-1.4c-0.2-0.1-0.4-0.1-0.6-0.2c-0.6-0.2-1.2-0.2-1.8-0.2
		c-0.8,0-1.5,0.2-1.9,0.6c-0.3,0.2-0.5,0.5-0.6,0.7c-0.1,0.2-0.1,0.5-0.1,0.7c0,0.3,0.1,0.5,0.1,0.7c0.1,0.3,0.3,0.5,0.5,0.7
		c0.4,0.4,1.3,0.7,2.6,1l0.2,0.1c0.3,0.1,0.6,0.2,0.9,0.2c2.3,0.6,3.8,1.3,4.6,2.1c0.6,0.6,1.1,1.3,1.4,2.2c0.3,0.8,0.5,1.8,0.5,2.8
		C331.8,551.6,331.1,553.5,329.7,555.1z"/>
	<path class="st12" d="M90.2,291.2c-14,0.2-25.2,11.8-25,25.8c0.2,14,11.8,25.2,25.8,25c14-0.2,25.2-11.8,24.9-25.8
		C115.8,302.1,104.3,291,90.2,291.2z M97.8,325.7c-1.1,1.3-2.6,2.1-4.4,2.6v2.3h-4.3v-2c-1.3-0.1-2.4-0.3-3.5-0.8
		c-1.3-0.6-2.7-1.4-3.9-2.6l3-5c1,1.1,2,1.9,3,2.5c0.5,0.3,1,0.5,1.5,0.6c0.5,0.1,1.1,0.2,1.6,0.2c0.8,0,1.5-0.3,2.1-0.8
		c0.3-0.2,0.5-0.5,0.6-0.8v-2.1c-0.1-0.3-0.3-0.5-0.5-0.8c-0.5-0.4-1.5-0.8-3.2-1.3c-0.2,0-0.4-0.1-0.6-0.2
		c-2.3-0.6-3.9-1.4-4.8-2.4c-1-1-1.6-2.4-1.6-4.3c0-2.2,0.6-4,2-5.5c1.1-1.1,2.6-1.9,4.4-2.3v-2.7h4.3v2.4c0.7,0.1,1.5,0.3,2.2,0.6
		c0.9,0.3,1.9,0.8,2.8,1.4l-2.1,4.9c-0.8-0.6-1.6-1.1-2.4-1.4c-0.2-0.1-0.4-0.1-0.6-0.2c-0.6-0.2-1.2-0.2-1.8-0.2
		c-0.8,0-1.5,0.2-1.9,0.6c-0.3,0.2-0.5,0.5-0.6,0.7c-0.1,0.2-0.1,0.5-0.1,0.7c0,0.3,0.1,0.5,0.1,0.7c0.1,0.3,0.3,0.5,0.5,0.7
		c0.4,0.4,1.3,0.7,2.6,1l0.2,0.1c0.3,0.1,0.6,0.2,0.9,0.3c2.3,0.6,3.8,1.3,4.6,2.1c0.6,0.6,1.1,1.3,1.4,2.2c0.3,0.8,0.5,1.8,0.5,2.8
		C99.9,322.2,99.2,324.1,97.8,325.7z"/>
	<path class="st12" d="M542.7,291.2c-14,0.2-25.2,11.8-25,25.8c0.2,14,11.8,25.2,25.8,25c14-0.2,25.2-11.8,24.9-25.8
		C568.3,302.1,556.7,291,542.7,291.2z M550.3,325.7c-1.1,1.3-2.6,2.1-4.4,2.6v2.3h-4.3v-2c-1.3-0.1-2.4-0.3-3.5-0.8
		c-1.3-0.6-2.7-1.4-3.9-2.6l3-5c1,1.1,2,1.9,3,2.5c0.5,0.3,1,0.5,1.5,0.6c0.5,0.1,1.1,0.2,1.6,0.2c0.8,0,1.5-0.3,2.1-0.8
		c0.3-0.2,0.5-0.5,0.6-0.8v-2.1c-0.1-0.3-0.3-0.5-0.5-0.8c-0.5-0.4-1.6-0.8-3.2-1.3c-0.2,0-0.4-0.1-0.6-0.2
		c-2.3-0.6-3.9-1.4-4.8-2.4c-1-1-1.6-2.4-1.6-4.3c0-2.2,0.6-4,2-5.5c1.1-1.1,2.6-1.9,4.4-2.3v-2.7h4.3v2.4c0.7,0.1,1.5,0.3,2.2,0.6
		c1,0.3,1.9,0.8,2.8,1.4l-2.1,4.9c-0.8-0.6-1.6-1.1-2.4-1.4c-0.2-0.1-0.4-0.1-0.6-0.2c-0.6-0.2-1.2-0.2-1.8-0.2
		c-0.8,0-1.5,0.2-1.9,0.6c-0.3,0.2-0.5,0.5-0.6,0.7c-0.1,0.2-0.1,0.5-0.1,0.7c0,0.3,0.1,0.5,0.1,0.7c0.1,0.3,0.3,0.5,0.5,0.7
		c0.4,0.4,1.3,0.7,2.6,1l0.2,0.1c0.3,0.1,0.6,0.2,0.9,0.3c2.3,0.6,3.8,1.3,4.6,2.1c0.6,0.6,1.1,1.3,1.4,2.2c0.3,0.8,0.5,1.8,0.5,2.8
		C552.4,322.2,551.7,324.1,550.3,325.7z"/>
</g>
</svg>
