<svg id="SvgjsSvg1023" xmlns="http://www.w3.org/2000/svg" version="1.1" xmlns:xlink="http://www.w3.org/1999/xlink" xmlns:svgjs="http://svgjs.com/svgjs" width="34" height="45" viewBox="0 0 34 45"><title>Forma 1</title><desc>Created with Avocode.</desc><defs id="SvgjsDefs1024"><linearGradient id="SvgjsLinearGradient1027" gradientUnits="userSpaceOnUse" x1="1814" y1="1567.1227789824586" x2="1848" y2="1545.8772210175416"><stop id="SvgjsStop1028" stop-opacity="1" stop-color="#087e38" offset="0"></stop><stop id="SvgjsStop1029" stop-opacity="1" stop-color="#8ac53f" offset="1"></stop></linearGradient></defs><path id="SvgjsPath1025" d="M1846.51 1537.65H1840.86V1535.48C1840.86 1534.66 1840.1899999999998 1534 1839.37 1534C1838.54 1534 1837.87 1534.66 1837.87 1535.48V1537.65H1832.4899999999998V1535.48C1832.4899999999998 1534.66 1831.8199999999997 1534 1830.9999999999998 1534C1830.1699999999998 1534 1829.5099999999998 1534.66 1829.5099999999998 1535.48V1537.65H1824.1299999999997V1535.48C1824.1299999999997 1534.66 1823.4599999999996 1534 1822.6299999999997 1534C1821.8099999999997 1534 1821.1399999999996 1534.66 1821.1399999999996 1535.48V1537.65H1815.4899999999996C1814.6699999999996 1537.65 1813.9999999999995 1538.3100000000002 1813.9999999999995 1539.1200000000001V1577.5200000000002C1813.9999999999995 1578.3400000000001 1814.6699999999996 1579.0000000000002 1815.4899999999996 1579.0000000000002H1846.5099999999995C1847.3299999999995 1579.0000000000002 1847.9999999999995 1578.3400000000001 1847.9999999999995 1577.5200000000002V1539.1200000000001C1847.9999999999995 1538.3100000000002 1847.3299999999995 1537.65 1846.5099999999995 1537.65ZM1845.01 1576.05H1816.99V1540.6H1821.14V1542.32C1821.14 1543.1399999999999 1821.8100000000002 1543.8 1822.63 1543.8C1823.46 1543.8 1824.13 1543.1399999999999 1824.13 1542.32V1540.6H1829.5100000000002V1542.32C1829.5100000000002 1543.1399999999999 1830.1700000000003 1543.8 1831.0000000000002 1543.8C1831.8200000000002 1543.8 1832.4900000000002 1543.1399999999999 1832.4900000000002 1542.32V1540.6H1837.8700000000003V1542.32C1837.8700000000003 1543.1399999999999 1838.5400000000004 1543.8 1839.3700000000003 1543.8C1840.1900000000003 1543.8 1840.8600000000004 1543.1399999999999 1840.8600000000004 1542.32V1540.6H1845.0100000000004ZM1839.84 1550.51H1822.1599999999999C1821.33 1550.51 1820.6599999999999 1551.18 1820.6599999999999 1551.99C1820.6599999999999 1552.81 1821.33 1553.47 1822.1599999999999 1553.47H1839.84C1840.6699999999998 1553.47 1841.34 1552.81 1841.34 1551.99C1841.34 1551.18 1840.6699999999998 1550.51 1839.84 1550.51ZM1839.84 1558.79H1822.1599999999999C1821.33 1558.79 1820.6599999999999 1559.45 1820.6599999999999 1560.26C1820.6599999999999 1561.08 1821.33 1561.74 1822.1599999999999 1561.74H1839.84C1840.6699999999998 1561.74 1841.34 1561.08 1841.34 1560.26C1841.34 1559.45 1840.6699999999998 1558.79 1839.84 1558.79ZM1839.84 1567.06H1822.1599999999999C1821.33 1567.06 1820.6599999999999 1567.72 1820.6599999999999 1568.53C1820.6599999999999 1569.35 1821.33 1570.01 1822.1599999999999 1570.01H1839.84C1840.6699999999998 1570.01 1841.34 1569.35 1841.34 1568.53C1841.34 1567.72 1840.6699999999998 1567.06 1839.84 1567.06Z " fill="#000000" fill-opacity="1" transform="matrix(1,0,0,1,-1814,-1534)"></path><path id="SvgjsPath1026" d="M1846.51 1537.65H1840.86V1535.48C1840.86 1534.66 1840.1899999999998 1534 1839.37 1534C1838.54 1534 1837.87 1534.66 1837.87 1535.48V1537.65H1832.4899999999998V1535.48C1832.4899999999998 1534.66 1831.8199999999997 1534 1830.9999999999998 1534C1830.1699999999998 1534 1829.5099999999998 1534.66 1829.5099999999998 1535.48V1537.65H1824.1299999999997V1535.48C1824.1299999999997 1534.66 1823.4599999999996 1534 1822.6299999999997 1534C1821.8099999999997 1534 1821.1399999999996 1534.66 1821.1399999999996 1535.48V1537.65H1815.4899999999996C1814.6699999999996 1537.65 1813.9999999999995 1538.3100000000002 1813.9999999999995 1539.1200000000001V1577.5200000000002C1813.9999999999995 1578.3400000000001 1814.6699999999996 1579.0000000000002 1815.4899999999996 1579.0000000000002H1846.5099999999995C1847.3299999999995 1579.0000000000002 1847.9999999999995 1578.3400000000001 1847.9999999999995 1577.5200000000002V1539.1200000000001C1847.9999999999995 1538.3100000000002 1847.3299999999995 1537.65 1846.5099999999995 1537.65ZM1845.01 1576.05H1816.99V1540.6H1821.14V1542.32C1821.14 1543.1399999999999 1821.8100000000002 1543.8 1822.63 1543.8C1823.46 1543.8 1824.13 1543.1399999999999 1824.13 1542.32V1540.6H1829.5100000000002V1542.32C1829.5100000000002 1543.1399999999999 1830.1700000000003 1543.8 1831.0000000000002 1543.8C1831.8200000000002 1543.8 1832.4900000000002 1543.1399999999999 1832.4900000000002 1542.32V1540.6H1837.8700000000003V1542.32C1837.8700000000003 1543.1399999999999 1838.5400000000004 1543.8 1839.3700000000003 1543.8C1840.1900000000003 1543.8 1840.8600000000004 1543.1399999999999 1840.8600000000004 1542.32V1540.6H1845.0100000000004ZM1839.84 1550.51H1822.1599999999999C1821.33 1550.51 1820.6599999999999 1551.18 1820.6599999999999 1551.99C1820.6599999999999 1552.81 1821.33 1553.47 1822.1599999999999 1553.47H1839.84C1840.6699999999998 1553.47 1841.34 1552.81 1841.34 1551.99C1841.34 1551.18 1840.6699999999998 1550.51 1839.84 1550.51ZM1839.84 1558.79H1822.1599999999999C1821.33 1558.79 1820.6599999999999 1559.45 1820.6599999999999 1560.26C1820.6599999999999 1561.08 1821.33 1561.74 1822.1599999999999 1561.74H1839.84C1840.6699999999998 1561.74 1841.34 1561.08 1841.34 1560.26C1841.34 1559.45 1840.6699999999998 1558.79 1839.84 1558.79ZM1839.84 1567.06H1822.1599999999999C1821.33 1567.06 1820.6599999999999 1567.72 1820.6599999999999 1568.53C1820.6599999999999 1569.35 1821.33 1570.01 1822.1599999999999 1570.01H1839.84C1840.6699999999998 1570.01 1841.34 1569.35 1841.34 1568.53C1841.34 1567.72 1840.6699999999998 1567.06 1839.84 1567.06Z " fill="url(#SvgjsLinearGradient1027)" transform="matrix(1,0,0,1,-1814,-1534)"></path></svg>