<svg id="SvgjsSvg1016" xmlns="http://www.w3.org/2000/svg" version="1.1" xmlns:xlink="http://www.w3.org/1999/xlink" xmlns:svgjs="http://svgjs.com/svgjs" width="50" height="50" viewBox="0 0 50 50"><title>Forma 1</title><desc>Created with Avocode.</desc><defs id="SvgjsDefs1017"><linearGradient id="SvgjsLinearGradient1020" gradientUnits="userSpaceOnUse" x1="1416.5" y1="1572.3092991217782" x2="1465.5" y2="1541.6907008782214"><stop id="SvgjsStop1021" stop-opacity="1" stop-color="#087e38" offset="0"></stop><stop id="SvgjsStop1022" stop-opacity="1" stop-color="#8ac53f" offset="1"></stop></linearGradient></defs><path id="SvgjsPath1018" d="M1447.45 1560.87C1447.45 1562.29 1446.29 1563.4499999999998 1444.8700000000001 1563.4499999999998C1443.45 1563.4499999999998 1442.2900000000002 1562.2899999999997 1442.2900000000002 1560.87C1442.2900000000002 1559.4399999999998 1443.4400000000003 1558.29 1444.8700000000001 1558.29C1446.2900000000002 1558.29 1447.45 1559.44 1447.45 1560.87ZM1434.55 1553.13C1434.55 1551.71 1435.71 1550.5500000000002 1437.1299999999999 1550.5500000000002C1438.56 1550.5500000000002 1439.7099999999998 1551.7100000000003 1439.7099999999998 1553.13C1439.7099999999998 1554.5600000000002 1438.5599999999997 1555.71 1437.1299999999999 1555.71C1435.7099999999998 1555.71 1434.55 1554.56 1434.55 1553.13ZM1447.45 1553.13C1447.45 1554.5600000000002 1446.29 1555.71 1444.8700000000001 1555.71C1443.44 1555.71 1442.2900000000002 1554.56 1442.2900000000002 1553.13C1442.2900000000002 1551.71 1443.4400000000003 1550.5500000000002 1444.8700000000001 1550.5500000000002C1446.2900000000002 1550.5500000000002 1447.45 1551.7100000000003 1447.45 1553.13ZM1447.45 1541.26H1434.55V1537.66H1447.45ZM1450.03 1553.13C1450.03 1551.71 1451.18 1550.5500000000002 1452.61 1550.5500000000002C1454.03 1550.5500000000002 1455.1799999999998 1551.7100000000003 1455.1799999999998 1553.13C1455.1799999999998 1554.5600000000002 1454.0299999999997 1555.71 1452.61 1555.71C1451.1799999999998 1555.71 1450.03 1554.56 1450.03 1553.13ZM1450.03 1560.87C1450.03 1559.4399999999998 1451.18 1558.29 1452.61 1558.29C1454.03 1558.29 1455.1799999999998 1559.44 1455.1799999999998 1560.87C1455.1799999999998 1562.29 1454.0299999999997 1563.4499999999998 1452.61 1563.4499999999998C1451.1799999999998 1563.4499999999998 1450.03 1562.2899999999997 1450.03 1560.87ZM1434.55 1560.87C1434.55 1559.4399999999998 1435.71 1558.29 1437.1299999999999 1558.29C1438.56 1558.29 1439.7099999999998 1559.44 1439.7099999999998 1560.87C1439.7099999999998 1562.29 1438.5599999999997 1563.4499999999998 1437.1299999999999 1563.4499999999998C1435.7099999999998 1563.4499999999998 1434.55 1562.2899999999997 1434.55 1560.87ZM1426.82 1568.61C1426.82 1567.1799999999998 1427.97 1566.03 1429.3899999999999 1566.03C1430.82 1566.03 1431.9699999999998 1567.18 1431.9699999999998 1568.61C1431.9699999999998 1570.03 1430.8199999999997 1571.1799999999998 1429.3899999999999 1571.1799999999998C1427.9699999999998 1571.1799999999998 1426.82 1570.0299999999997 1426.82 1568.61ZM1465.5 1542.82V1576.34C1465.5 1579.1899999999998 1463.19 1581.5 1460.34 1581.5H1421.6599999999999C1418.81 1581.5 1416.4999999999998 1579.19 1416.4999999999998 1576.34V1542.82C1416.4999999999998 1539.97 1418.8099999999997 1537.6599999999999 1421.6599999999999 1537.6599999999999H1424.2399999999998V1541.2599999999998H1420.0999999999997V1577.8999999999999H1461.8999999999996V1541.2599999999998H1457.7599999999995V1537.6599999999999H1460.3399999999995C1463.1899999999994 1537.6599999999999 1465.4999999999995 1539.9699999999998 1465.4999999999995 1542.82ZM1426.82 1560.87C1426.82 1559.4399999999998 1427.97 1558.29 1429.3899999999999 1558.29C1430.82 1558.29 1431.9699999999998 1559.44 1431.9699999999998 1560.87C1431.9699999999998 1562.29 1430.8199999999997 1563.4499999999998 1429.3899999999999 1563.4499999999998C1427.9699999999998 1563.4499999999998 1426.82 1562.2899999999997 1426.82 1560.87ZM1426.82 1553.13C1426.82 1551.71 1427.97 1550.5500000000002 1429.3899999999999 1550.5500000000002C1430.82 1550.5500000000002 1431.9699999999998 1551.7100000000003 1431.9699999999998 1553.13C1431.9699999999998 1554.5600000000002 1430.8199999999997 1555.71 1429.3899999999999 1555.71C1427.9699999999998 1555.71 1426.82 1554.56 1426.82 1553.13ZM1434.55 1568.61C1434.55 1567.1799999999998 1435.71 1566.03 1437.1299999999999 1566.03C1438.56 1566.03 1439.7099999999998 1567.18 1439.7099999999998 1568.61C1439.7099999999998 1570.03 1438.5599999999997 1571.1799999999998 1437.1299999999999 1571.1799999999998C1435.7099999999998 1571.1799999999998 1434.55 1570.0299999999997 1434.55 1568.61ZM1426.82 1540.24V1535.08C1426.82 1533.6499999999999 1427.97 1532.5 1429.3899999999999 1532.5C1430.82 1532.5 1431.9699999999998 1533.65 1431.9699999999998 1535.08V1540.24C1431.9699999999998 1541.66 1430.8199999999997 1542.82 1429.3899999999999 1542.82C1427.9699999999998 1542.82 1426.82 1541.6599999999999 1426.82 1540.24ZM1452.61 1542.82C1454.03 1542.82 1455.1799999999998 1541.6599999999999 1455.1799999999998 1540.24V1535.08C1455.1799999999998 1533.6499999999999 1454.0299999999997 1532.5 1452.61 1532.5C1451.1799999999998 1532.5 1450.03 1533.65 1450.03 1535.08V1540.24C1450.03 1541.66 1451.18 1542.82 1452.61 1542.82Z " fill="#000000" fill-opacity="1" transform="matrix(1,0,0,1,-1416,-1532)"></path><path id="SvgjsPath1019" d="M1447.45 1560.87C1447.45 1562.29 1446.29 1563.4499999999998 1444.8700000000001 1563.4499999999998C1443.45 1563.4499999999998 1442.2900000000002 1562.2899999999997 1442.2900000000002 1560.87C1442.2900000000002 1559.4399999999998 1443.4400000000003 1558.29 1444.8700000000001 1558.29C1446.2900000000002 1558.29 1447.45 1559.44 1447.45 1560.87ZM1434.55 1553.13C1434.55 1551.71 1435.71 1550.5500000000002 1437.1299999999999 1550.5500000000002C1438.56 1550.5500000000002 1439.7099999999998 1551.7100000000003 1439.7099999999998 1553.13C1439.7099999999998 1554.5600000000002 1438.5599999999997 1555.71 1437.1299999999999 1555.71C1435.7099999999998 1555.71 1434.55 1554.56 1434.55 1553.13ZM1447.45 1553.13C1447.45 1554.5600000000002 1446.29 1555.71 1444.8700000000001 1555.71C1443.44 1555.71 1442.2900000000002 1554.56 1442.2900000000002 1553.13C1442.2900000000002 1551.71 1443.4400000000003 1550.5500000000002 1444.8700000000001 1550.5500000000002C1446.2900000000002 1550.5500000000002 1447.45 1551.7100000000003 1447.45 1553.13ZM1447.45 1541.26H1434.55V1537.66H1447.45ZM1450.03 1553.13C1450.03 1551.71 1451.18 1550.5500000000002 1452.61 1550.5500000000002C1454.03 1550.5500000000002 1455.1799999999998 1551.7100000000003 1455.1799999999998 1553.13C1455.1799999999998 1554.5600000000002 1454.0299999999997 1555.71 1452.61 1555.71C1451.1799999999998 1555.71 1450.03 1554.56 1450.03 1553.13ZM1450.03 1560.87C1450.03 1559.4399999999998 1451.18 1558.29 1452.61 1558.29C1454.03 1558.29 1455.1799999999998 1559.44 1455.1799999999998 1560.87C1455.1799999999998 1562.29 1454.0299999999997 1563.4499999999998 1452.61 1563.4499999999998C1451.1799999999998 1563.4499999999998 1450.03 1562.2899999999997 1450.03 1560.87ZM1434.55 1560.87C1434.55 1559.4399999999998 1435.71 1558.29 1437.1299999999999 1558.29C1438.56 1558.29 1439.7099999999998 1559.44 1439.7099999999998 1560.87C1439.7099999999998 1562.29 1438.5599999999997 1563.4499999999998 1437.1299999999999 1563.4499999999998C1435.7099999999998 1563.4499999999998 1434.55 1562.2899999999997 1434.55 1560.87ZM1426.82 1568.61C1426.82 1567.1799999999998 1427.97 1566.03 1429.3899999999999 1566.03C1430.82 1566.03 1431.9699999999998 1567.18 1431.9699999999998 1568.61C1431.9699999999998 1570.03 1430.8199999999997 1571.1799999999998 1429.3899999999999 1571.1799999999998C1427.9699999999998 1571.1799999999998 1426.82 1570.0299999999997 1426.82 1568.61ZM1465.5 1542.82V1576.34C1465.5 1579.1899999999998 1463.19 1581.5 1460.34 1581.5H1421.6599999999999C1418.81 1581.5 1416.4999999999998 1579.19 1416.4999999999998 1576.34V1542.82C1416.4999999999998 1539.97 1418.8099999999997 1537.6599999999999 1421.6599999999999 1537.6599999999999H1424.2399999999998V1541.2599999999998H1420.0999999999997V1577.8999999999999H1461.8999999999996V1541.2599999999998H1457.7599999999995V1537.6599999999999H1460.3399999999995C1463.1899999999994 1537.6599999999999 1465.4999999999995 1539.9699999999998 1465.4999999999995 1542.82ZM1426.82 1560.87C1426.82 1559.4399999999998 1427.97 1558.29 1429.3899999999999 1558.29C1430.82 1558.29 1431.9699999999998 1559.44 1431.9699999999998 1560.87C1431.9699999999998 1562.29 1430.8199999999997 1563.4499999999998 1429.3899999999999 1563.4499999999998C1427.9699999999998 1563.4499999999998 1426.82 1562.2899999999997 1426.82 1560.87ZM1426.82 1553.13C1426.82 1551.71 1427.97 1550.5500000000002 1429.3899999999999 1550.5500000000002C1430.82 1550.5500000000002 1431.9699999999998 1551.7100000000003 1431.9699999999998 1553.13C1431.9699999999998 1554.5600000000002 1430.8199999999997 1555.71 1429.3899999999999 1555.71C1427.9699999999998 1555.71 1426.82 1554.56 1426.82 1553.13ZM1434.55 1568.61C1434.55 1567.1799999999998 1435.71 1566.03 1437.1299999999999 1566.03C1438.56 1566.03 1439.7099999999998 1567.18 1439.7099999999998 1568.61C1439.7099999999998 1570.03 1438.5599999999997 1571.1799999999998 1437.1299999999999 1571.1799999999998C1435.7099999999998 1571.1799999999998 1434.55 1570.0299999999997 1434.55 1568.61ZM1426.82 1540.24V1535.08C1426.82 1533.6499999999999 1427.97 1532.5 1429.3899999999999 1532.5C1430.82 1532.5 1431.9699999999998 1533.65 1431.9699999999998 1535.08V1540.24C1431.9699999999998 1541.66 1430.8199999999997 1542.82 1429.3899999999999 1542.82C1427.9699999999998 1542.82 1426.82 1541.6599999999999 1426.82 1540.24ZM1452.61 1542.82C1454.03 1542.82 1455.1799999999998 1541.6599999999999 1455.1799999999998 1540.24V1535.08C1455.1799999999998 1533.6499999999999 1454.0299999999997 1532.5 1452.61 1532.5C1451.1799999999998 1532.5 1450.03 1533.65 1450.03 1535.08V1540.24C1450.03 1541.66 1451.18 1542.82 1452.61 1542.82Z " fill="url(#SvgjsLinearGradient1020)" transform="matrix(1,0,0,1,-1416,-1532)"></path></svg>