<svg id="SvgjsSvg1009" xmlns="http://www.w3.org/2000/svg" version="1.1" xmlns:xlink="http://www.w3.org/1999/xlink" xmlns:svgjs="http://svgjs.com/svgjs" width="59" height="43" viewBox="0 0 59 43"><title>Forma 1</title><desc>Created with Avocode.</desc><defs id="SvgjsDefs1010"><linearGradient id="SvgjsLinearGradient1013" gradientUnits="userSpaceOnUse" x1="1017.5" y1="1575.8703532751886" x2="1075.5" y2="1539.6279308644478"><stop id="SvgjsStop1014" stop-opacity="1" stop-color="#087e38" offset="0"></stop><stop id="SvgjsStop1015" stop-opacity="1" stop-color="#8ac53f" offset="1"></stop></linearGradient></defs><path id="SvgjsPath1011" d="M1074.43 1541.85H1071.88V1539.4199999999998C1071.88 1538.8799999999999 1071.47 1538.4199999999998 1070.94 1538.36L1056.14 1536.62C1052.8200000000002 1536.2299999999998 1049.5 1536.78 1046.5 1538.2299999999998C1043.5 1536.7799999999997 1040.18 1536.2299999999998 1036.86 1536.62L1022.06 1538.36C1021.53 1538.4199999999998 1021.1199999999999 1538.8799999999999 1021.1199999999999 1539.4199999999998V1541.85H1018.5699999999999C1017.9799999999999 1541.85 1017.4999999999999 1542.33 1017.4999999999999 1542.9199999999998V1577.9299999999998C1017.4999999999999 1578.5199999999998 1017.9799999999999 1578.9999999999998 1018.5699999999999 1578.9999999999998H1074.4299999999998C1075.0199999999998 1578.9999999999998 1075.4999999999998 1578.5199999999998 1075.4999999999998 1577.9299999999998V1542.9199999999998C1075.4999999999998 1542.33 1075.0199999999998 1541.85 1074.4299999999998 1541.85ZM1055.89 1538.74L1069.75 1540.38V1572.2L1056.14 1570.5900000000001C1053.21 1570.2500000000002 1050.2800000000002 1570.64 1047.5700000000002 1571.7300000000002V1540.0900000000001C1050.17 1538.8700000000001 1053.0300000000002 1538.41 1055.89 1538.7400000000002ZM1037.11 1538.74C1039.9699999999998 1538.41 1042.83 1538.8700000000001 1045.4299999999998 1540.09V1571.73C1043.36 1570.9 1041.1599999999999 1570.47 1038.9199999999998 1570.47C1038.2399999999998 1570.47 1037.55 1570.51 1036.86 1570.59L1023.2499999999999 1572.1999999999998V1540.3799999999999ZM1019.63 1576.86V1543.99H1021.12V1573.4C1021.12 1573.71 1021.25 1574 1021.48 1574.2C1021.71 1574.4 1022.01 1574.5 1022.3100000000001 1574.46L1037.1100000000001 1572.72C1040.18 1572.3600000000001 1043.2600000000002 1572.92 1046.0100000000002 1574.3500000000001C1046.3200000000002 1574.5100000000002 1046.6800000000003 1574.5100000000002 1046.9900000000002 1574.3500000000001C1049.7400000000002 1572.92 1052.8200000000002 1572.3600000000001 1055.8900000000003 1572.72L1070.6900000000003 1574.46C1070.7300000000002 1574.47 1070.7700000000002 1574.47 1070.8100000000002 1574.47C1071.0700000000002 1574.47 1071.3200000000002 1574.3700000000001 1071.5200000000002 1574.2C1071.7500000000002 1574 1071.88 1573.71 1071.88 1573.4V1543.99H1073.3700000000001V1576.86ZM1050.02 1544.77C1051.94 1544.25 1053.9 1544.1 1055.87 1544.34L1066.9799999999998 1545.6399999999999C1067.0199999999998 1545.6499999999999 1067.0699999999997 1545.6499999999999 1067.11 1545.6499999999999C1067.6399999999999 1545.6499999999999 1068.1 1545.2499999999998 1068.1699999999998 1544.7099999999998C1068.2299999999998 1544.12 1067.82 1543.59 1067.2299999999998 1543.5199999999998L1056.12 1542.2099999999998C1053.8799999999999 1541.9499999999998 1051.6399999999999 1542.11 1049.4599999999998 1542.7099999999998C1048.8999999999999 1542.86 1048.5599999999997 1543.4499999999998 1048.7099999999998 1544.0199999999998C1048.87 1544.5899999999997 1049.4599999999998 1544.9299999999998 1050.0199999999998 1544.7699999999998ZM1025.85 1545.65C1025.8899999999999 1545.65 1025.9399999999998 1545.65 1025.98 1545.64L1037.09 1544.3400000000001C1039.05 1544.1100000000001 1041.04 1544.2600000000002 1042.9399999999998 1544.7700000000002C1043.4999999999998 1544.9300000000003 1044.09 1544.5900000000001 1044.2399999999998 1544.0200000000002C1044.3999999999999 1543.4500000000003 1044.0599999999997 1542.8600000000001 1043.4999999999998 1542.7100000000003C1041.3399999999997 1542.1200000000003 1039.0799999999997 1541.9500000000003 1036.8399999999997 1542.2100000000003L1025.7299999999998 1543.5200000000002C1025.1399999999999 1543.5900000000001 1024.7299999999998 1544.1200000000001 1024.7899999999997 1544.7100000000003C1024.8599999999997 1545.2500000000002 1025.3199999999997 1545.6500000000003 1025.8499999999997 1545.6500000000003ZM1050.02 1549.68C1051.94 1549.16 1053.9 1549.01 1055.87 1549.24L1066.9799999999998 1550.55C1067.0199999999998 1550.56 1067.0699999999997 1550.56 1067.11 1550.56C1067.6399999999999 1550.56 1068.1 1550.1599999999999 1068.1699999999998 1549.61C1068.2299999999998 1549.03 1067.82 1548.5 1067.2299999999998 1548.4299999999998L1056.12 1547.12C1053.8799999999999 1546.85 1051.6399999999999 1547.02 1049.4599999999998 1547.61C1048.8999999999999 1547.77 1048.5599999999997 1548.36 1048.7099999999998 1548.9299999999998C1048.87 1549.4999999999998 1049.4599999999998 1549.83 1050.0199999999998 1549.6799999999998ZM1025.85 1550.56C1025.8899999999999 1550.56 1025.9399999999998 1550.56 1025.98 1550.55L1037.09 1549.24C1039.05 1549.01 1041.04 1549.16 1042.9399999999998 1549.68C1043.4999999999998 1549.8400000000001 1044.09 1549.5 1044.2399999999998 1548.93C1044.3999999999999 1548.3600000000001 1044.0599999999997 1547.77 1043.4999999999998 1547.6200000000001C1041.3399999999997 1547.0300000000002 1039.0799999999997 1546.8600000000001 1036.8399999999997 1547.1200000000001L1025.7299999999998 1548.43C1025.1399999999999 1548.5 1024.7299999999998 1549.03 1024.7899999999997 1549.6100000000001C1024.8599999999997 1550.16 1025.3199999999997 1550.5600000000002 1025.8499999999997 1550.5600000000002ZM1050.02 1554.59C1051.94 1554.07 1053.9 1553.9199999999998 1055.87 1554.1499999999999L1066.9799999999998 1555.4599999999998C1067.0199999999998 1555.4599999999998 1067.0699999999997 1555.4699999999998 1067.11 1555.4699999999998C1067.6399999999999 1555.4699999999998 1068.1 1555.0699999999997 1068.1699999999998 1554.5199999999998C1068.2299999999998 1553.9299999999998 1067.82 1553.3999999999999 1067.2299999999998 1553.3299999999997L1056.12 1552.0299999999997C1053.8799999999999 1551.7599999999998 1051.6399999999999 1551.9299999999998 1049.4599999999998 1552.5199999999998C1048.8999999999999 1552.6799999999998 1048.5599999999997 1553.2699999999998 1048.7099999999998 1553.8399999999997C1048.87 1554.4099999999996 1049.4599999999998 1554.7399999999998 1050.0199999999998 1554.5899999999997ZM1025.85 1555.47C1025.8899999999999 1555.47 1025.9399999999998 1555.46 1025.98 1555.46L1037.09 1554.15C1039.05 1553.92 1041.04 1554.0700000000002 1042.9399999999998 1554.5900000000001C1043.4999999999998 1554.7400000000002 1044.09 1554.41 1044.2399999999998 1553.8400000000001C1044.3999999999999 1553.2700000000002 1044.0599999999997 1552.68 1043.4999999999998 1552.5200000000002C1041.3399999999997 1551.9400000000003 1039.0799999999997 1551.7600000000002 1036.8399999999997 1552.0300000000002L1025.7299999999998 1553.3300000000002C1025.1399999999999 1553.4 1024.7299999999998 1553.93 1024.7899999999997 1554.5200000000002C1024.8599999999997 1555.0700000000002 1025.3199999999997 1555.4700000000003 1025.8499999999997 1555.4700000000003ZM1050.02 1559.49C1051.94 1558.97 1053.9 1558.83 1055.87 1559.06L1066.9799999999998 1560.37C1067.0199999999998 1560.37 1067.0699999999997 1560.37 1067.11 1560.37C1067.6399999999999 1560.37 1068.1 1559.9699999999998 1068.1699999999998 1559.4299999999998C1068.2299999999998 1558.84 1067.82 1558.31 1067.2299999999998 1558.2399999999998L1056.12 1556.9299999999998C1053.8799999999999 1556.6699999999998 1051.6399999999999 1556.84 1049.4599999999998 1557.4299999999998C1048.8999999999999 1557.58 1048.5599999999997 1558.1699999999998 1048.7099999999998 1558.7399999999998C1048.87 1559.3099999999997 1049.4599999999998 1559.6499999999999 1050.0199999999998 1559.4899999999998ZM1025.85 1560.37C1025.8899999999999 1560.37 1025.9399999999998 1560.37 1025.98 1560.37L1037.09 1559.06C1039.05 1558.83 1041.04 1558.98 1042.9399999999998 1559.5C1043.4999999999998 1559.65 1044.09 1559.31 1044.2399999999998 1558.74C1044.3999999999999 1558.17 1044.0599999999997 1557.59 1043.4999999999998 1557.43C1041.3399999999997 1556.8400000000001 1039.0799999999997 1556.67 1036.8399999999997 1556.93L1025.7299999999998 1558.24C1025.1399999999999 1558.31 1024.7299999999998 1558.84 1024.7899999999997 1559.43C1024.8599999999997 1559.97 1025.3199999999997 1560.3700000000001 1025.8499999999997 1560.3700000000001ZM1067.23 1563.15L1056.1200000000001 1561.8400000000001C1053.88 1561.5800000000002 1051.64 1561.7400000000002 1049.47 1562.3400000000001C1048.9 1562.4900000000002 1048.56 1563.0800000000002 1048.72 1563.65C1048.8700000000001 1564.22 1049.46 1564.5600000000002 1050.02 1564.4C1051.94 1563.88 1053.9 1563.73 1055.87 1563.97L1066.9799999999998 1565.27C1067.0199999999998 1565.28 1067.0699999999997 1565.28 1067.11 1565.28C1067.6399999999999 1565.28 1068.1 1564.8799999999999 1068.1699999999998 1564.34C1068.2299999999998 1563.75 1067.82 1563.22 1067.2299999999998 1563.1499999999999ZM1025.85 1565.28C1025.8899999999999 1565.28 1025.9399999999998 1565.28 1025.98 1565.27L1037.09 1563.97C1039.05 1563.74 1041.04 1563.89 1042.9399999999998 1564.4C1043.4999999999998 1564.5600000000002 1044.09 1564.22 1044.2399999999998 1563.65C1044.3999999999999 1563.0800000000002 1044.0599999999997 1562.49 1043.4999999999998 1562.3400000000001C1041.3399999999997 1561.7500000000002 1039.0799999999997 1561.5800000000002 1036.8399999999997 1561.8400000000001L1025.7299999999998 1563.15C1025.1399999999999 1563.22 1024.7299999999998 1563.75 1024.7899999999997 1564.3400000000001C1024.8599999999997 1564.88 1025.3199999999997 1565.2800000000002 1025.8499999999997 1565.2800000000002Z " fill="#000000" fill-opacity="1" transform="matrix(1,0,0,1,-1017,-1536)"></path><path id="SvgjsPath1012" d="M1074.43 1541.85H1071.88V1539.4199999999998C1071.88 1538.8799999999999 1071.47 1538.4199999999998 1070.94 1538.36L1056.14 1536.62C1052.8200000000002 1536.2299999999998 1049.5 1536.78 1046.5 1538.2299999999998C1043.5 1536.7799999999997 1040.18 1536.2299999999998 1036.86 1536.62L1022.06 1538.36C1021.53 1538.4199999999998 1021.1199999999999 1538.8799999999999 1021.1199999999999 1539.4199999999998V1541.85H1018.5699999999999C1017.9799999999999 1541.85 1017.4999999999999 1542.33 1017.4999999999999 1542.9199999999998V1577.9299999999998C1017.4999999999999 1578.5199999999998 1017.9799999999999 1578.9999999999998 1018.5699999999999 1578.9999999999998H1074.4299999999998C1075.0199999999998 1578.9999999999998 1075.4999999999998 1578.5199999999998 1075.4999999999998 1577.9299999999998V1542.9199999999998C1075.4999999999998 1542.33 1075.0199999999998 1541.85 1074.4299999999998 1541.85ZM1055.89 1538.74L1069.75 1540.38V1572.2L1056.14 1570.5900000000001C1053.21 1570.2500000000002 1050.2800000000002 1570.64 1047.5700000000002 1571.7300000000002V1540.0900000000001C1050.17 1538.8700000000001 1053.0300000000002 1538.41 1055.89 1538.7400000000002ZM1037.11 1538.74C1039.9699999999998 1538.41 1042.83 1538.8700000000001 1045.4299999999998 1540.09V1571.73C1043.36 1570.9 1041.1599999999999 1570.47 1038.9199999999998 1570.47C1038.2399999999998 1570.47 1037.55 1570.51 1036.86 1570.59L1023.2499999999999 1572.1999999999998V1540.3799999999999ZM1019.63 1576.86V1543.99H1021.12V1573.4C1021.12 1573.71 1021.25 1574 1021.48 1574.2C1021.71 1574.4 1022.01 1574.5 1022.3100000000001 1574.46L1037.1100000000001 1572.72C1040.18 1572.3600000000001 1043.2600000000002 1572.92 1046.0100000000002 1574.3500000000001C1046.3200000000002 1574.5100000000002 1046.6800000000003 1574.5100000000002 1046.9900000000002 1574.3500000000001C1049.7400000000002 1572.92 1052.8200000000002 1572.3600000000001 1055.8900000000003 1572.72L1070.6900000000003 1574.46C1070.7300000000002 1574.47 1070.7700000000002 1574.47 1070.8100000000002 1574.47C1071.0700000000002 1574.47 1071.3200000000002 1574.3700000000001 1071.5200000000002 1574.2C1071.7500000000002 1574 1071.88 1573.71 1071.88 1573.4V1543.99H1073.3700000000001V1576.86ZM1050.02 1544.77C1051.94 1544.25 1053.9 1544.1 1055.87 1544.34L1066.9799999999998 1545.6399999999999C1067.0199999999998 1545.6499999999999 1067.0699999999997 1545.6499999999999 1067.11 1545.6499999999999C1067.6399999999999 1545.6499999999999 1068.1 1545.2499999999998 1068.1699999999998 1544.7099999999998C1068.2299999999998 1544.12 1067.82 1543.59 1067.2299999999998 1543.5199999999998L1056.12 1542.2099999999998C1053.8799999999999 1541.9499999999998 1051.6399999999999 1542.11 1049.4599999999998 1542.7099999999998C1048.8999999999999 1542.86 1048.5599999999997 1543.4499999999998 1048.7099999999998 1544.0199999999998C1048.87 1544.5899999999997 1049.4599999999998 1544.9299999999998 1050.0199999999998 1544.7699999999998ZM1025.85 1545.65C1025.8899999999999 1545.65 1025.9399999999998 1545.65 1025.98 1545.64L1037.09 1544.3400000000001C1039.05 1544.1100000000001 1041.04 1544.2600000000002 1042.9399999999998 1544.7700000000002C1043.4999999999998 1544.9300000000003 1044.09 1544.5900000000001 1044.2399999999998 1544.0200000000002C1044.3999999999999 1543.4500000000003 1044.0599999999997 1542.8600000000001 1043.4999999999998 1542.7100000000003C1041.3399999999997 1542.1200000000003 1039.0799999999997 1541.9500000000003 1036.8399999999997 1542.2100000000003L1025.7299999999998 1543.5200000000002C1025.1399999999999 1543.5900000000001 1024.7299999999998 1544.1200000000001 1024.7899999999997 1544.7100000000003C1024.8599999999997 1545.2500000000002 1025.3199999999997 1545.6500000000003 1025.8499999999997 1545.6500000000003ZM1050.02 1549.68C1051.94 1549.16 1053.9 1549.01 1055.87 1549.24L1066.9799999999998 1550.55C1067.0199999999998 1550.56 1067.0699999999997 1550.56 1067.11 1550.56C1067.6399999999999 1550.56 1068.1 1550.1599999999999 1068.1699999999998 1549.61C1068.2299999999998 1549.03 1067.82 1548.5 1067.2299999999998 1548.4299999999998L1056.12 1547.12C1053.8799999999999 1546.85 1051.6399999999999 1547.02 1049.4599999999998 1547.61C1048.8999999999999 1547.77 1048.5599999999997 1548.36 1048.7099999999998 1548.9299999999998C1048.87 1549.4999999999998 1049.4599999999998 1549.83 1050.0199999999998 1549.6799999999998ZM1025.85 1550.56C1025.8899999999999 1550.56 1025.9399999999998 1550.56 1025.98 1550.55L1037.09 1549.24C1039.05 1549.01 1041.04 1549.16 1042.9399999999998 1549.68C1043.4999999999998 1549.8400000000001 1044.09 1549.5 1044.2399999999998 1548.93C1044.3999999999999 1548.3600000000001 1044.0599999999997 1547.77 1043.4999999999998 1547.6200000000001C1041.3399999999997 1547.0300000000002 1039.0799999999997 1546.8600000000001 1036.8399999999997 1547.1200000000001L1025.7299999999998 1548.43C1025.1399999999999 1548.5 1024.7299999999998 1549.03 1024.7899999999997 1549.6100000000001C1024.8599999999997 1550.16 1025.3199999999997 1550.5600000000002 1025.8499999999997 1550.5600000000002ZM1050.02 1554.59C1051.94 1554.07 1053.9 1553.9199999999998 1055.87 1554.1499999999999L1066.9799999999998 1555.4599999999998C1067.0199999999998 1555.4599999999998 1067.0699999999997 1555.4699999999998 1067.11 1555.4699999999998C1067.6399999999999 1555.4699999999998 1068.1 1555.0699999999997 1068.1699999999998 1554.5199999999998C1068.2299999999998 1553.9299999999998 1067.82 1553.3999999999999 1067.2299999999998 1553.3299999999997L1056.12 1552.0299999999997C1053.8799999999999 1551.7599999999998 1051.6399999999999 1551.9299999999998 1049.4599999999998 1552.5199999999998C1048.8999999999999 1552.6799999999998 1048.5599999999997 1553.2699999999998 1048.7099999999998 1553.8399999999997C1048.87 1554.4099999999996 1049.4599999999998 1554.7399999999998 1050.0199999999998 1554.5899999999997ZM1025.85 1555.47C1025.8899999999999 1555.47 1025.9399999999998 1555.46 1025.98 1555.46L1037.09 1554.15C1039.05 1553.92 1041.04 1554.0700000000002 1042.9399999999998 1554.5900000000001C1043.4999999999998 1554.7400000000002 1044.09 1554.41 1044.2399999999998 1553.8400000000001C1044.3999999999999 1553.2700000000002 1044.0599999999997 1552.68 1043.4999999999998 1552.5200000000002C1041.3399999999997 1551.9400000000003 1039.0799999999997 1551.7600000000002 1036.8399999999997 1552.0300000000002L1025.7299999999998 1553.3300000000002C1025.1399999999999 1553.4 1024.7299999999998 1553.93 1024.7899999999997 1554.5200000000002C1024.8599999999997 1555.0700000000002 1025.3199999999997 1555.4700000000003 1025.8499999999997 1555.4700000000003ZM1050.02 1559.49C1051.94 1558.97 1053.9 1558.83 1055.87 1559.06L1066.9799999999998 1560.37C1067.0199999999998 1560.37 1067.0699999999997 1560.37 1067.11 1560.37C1067.6399999999999 1560.37 1068.1 1559.9699999999998 1068.1699999999998 1559.4299999999998C1068.2299999999998 1558.84 1067.82 1558.31 1067.2299999999998 1558.2399999999998L1056.12 1556.9299999999998C1053.8799999999999 1556.6699999999998 1051.6399999999999 1556.84 1049.4599999999998 1557.4299999999998C1048.8999999999999 1557.58 1048.5599999999997 1558.1699999999998 1048.7099999999998 1558.7399999999998C1048.87 1559.3099999999997 1049.4599999999998 1559.6499999999999 1050.0199999999998 1559.4899999999998ZM1025.85 1560.37C1025.8899999999999 1560.37 1025.9399999999998 1560.37 1025.98 1560.37L1037.09 1559.06C1039.05 1558.83 1041.04 1558.98 1042.9399999999998 1559.5C1043.4999999999998 1559.65 1044.09 1559.31 1044.2399999999998 1558.74C1044.3999999999999 1558.17 1044.0599999999997 1557.59 1043.4999999999998 1557.43C1041.3399999999997 1556.8400000000001 1039.0799999999997 1556.67 1036.8399999999997 1556.93L1025.7299999999998 1558.24C1025.1399999999999 1558.31 1024.7299999999998 1558.84 1024.7899999999997 1559.43C1024.8599999999997 1559.97 1025.3199999999997 1560.3700000000001 1025.8499999999997 1560.3700000000001ZM1067.23 1563.15L1056.1200000000001 1561.8400000000001C1053.88 1561.5800000000002 1051.64 1561.7400000000002 1049.47 1562.3400000000001C1048.9 1562.4900000000002 1048.56 1563.0800000000002 1048.72 1563.65C1048.8700000000001 1564.22 1049.46 1564.5600000000002 1050.02 1564.4C1051.94 1563.88 1053.9 1563.73 1055.87 1563.97L1066.9799999999998 1565.27C1067.0199999999998 1565.28 1067.0699999999997 1565.28 1067.11 1565.28C1067.6399999999999 1565.28 1068.1 1564.8799999999999 1068.1699999999998 1564.34C1068.2299999999998 1563.75 1067.82 1563.22 1067.2299999999998 1563.1499999999999ZM1025.85 1565.28C1025.8899999999999 1565.28 1025.9399999999998 1565.28 1025.98 1565.27L1037.09 1563.97C1039.05 1563.74 1041.04 1563.89 1042.9399999999998 1564.4C1043.4999999999998 1564.5600000000002 1044.09 1564.22 1044.2399999999998 1563.65C1044.3999999999999 1563.0800000000002 1044.0599999999997 1562.49 1043.4999999999998 1562.3400000000001C1041.3399999999997 1561.7500000000002 1039.0799999999997 1561.5800000000002 1036.8399999999997 1561.8400000000001L1025.7299999999998 1563.15C1025.1399999999999 1563.22 1024.7299999999998 1563.75 1024.7899999999997 1564.3400000000001C1024.8599999999997 1564.88 1025.3199999999997 1565.2800000000002 1025.8499999999997 1565.2800000000002Z " fill="url(#SvgjsLinearGradient1013)" transform="matrix(1,0,0,1,-1017,-1536)"></path></svg>