<?xml version="1.0" encoding="utf-8"?>
<!-- Generator: Adobe Illustrator 16.0.0, SVG Export Plug-In . SVG Version: 6.00 Build 0)  -->
<!DOCTYPE svg PUBLIC "-//W3C//DTD SVG 1.1//EN" "http://www.w3.org/Graphics/SVG/1.1/DTD/svg11.dtd">
<svg version="1.1" xmlns="http://www.w3.org/2000/svg" xmlns:xlink="http://www.w3.org/1999/xlink" x="0px" y="0px" width="234px"
	 height="234px" viewBox="0 0 234 234" enable-background="new 0 0 234 234" xml:space="preserve">
<g id="Слой_2">
	<circle fill="#FFFFFF" cx="117" cy="117" r="117"/>
</g>
<g id="Objects">
	<g>
		<defs>
			<circle id="SVGID_1_" cx="117" cy="117" r="117"/>
		</defs>
		<clipPath id="SVGID_2_">
			<use xlink:href="#SVGID_1_"  overflow="visible"/>
		</clipPath>
		<g clip-path="url(#SVGID_2_)">
			<g>
				<defs>
					<path id="SVGID_3_" d="M218.777,222.948c0,7.512-6.092,13.604-13.605,13.604H16.084c-7.514,0-13.604-6.092-13.604-13.604
						V41.283c0-7.513,6.09-13.604,13.604-13.604h189.088c7.514,0,13.605,6.091,13.605,13.604V222.948z"/>
				</defs>
				<clipPath id="SVGID_4_">
					<use xlink:href="#SVGID_3_"  overflow="visible"/>
				</clipPath>
				<g clip-path="url(#SVGID_4_)">
					<g>
						<rect x="35.945" y="-6.778" fill="#F8FDFF" width="148.848" height="148.568"/>
						<g>
							<rect x="48.461" y="126.594" fill="#D9D9D9" width="114.826" height="3.681"/>
						</g>
						<g>
							<path fill="#A71AEF" d="M49.057,115.976l-2.604-2.469c1.81-1.907,4.856-5.702,8.082-9.719
								c8.779-10.931,14.768-18.169,17.883-19.144l1.675-0.524l0.561,1.662c1.484,4.401,4.729,9.004,8.167,13.875l0.43,0.612
								c0.981-1.682,2.382-5.092,3.379-7.521c1.646-4.006,3.198-7.791,4.62-9.437l0.897-1.04l1.238,0.597
								c1.459,0.702,2.788,1.608,4.074,2.485c0.922,0.628,1.812,1.234,2.704,1.738c1.112-3.821,3.188-14.601,4.902-23.503
								c3.705-19.244,5.474-27.859,6.857-29.603l1.345-1.695l1.416,1.636c5.934,6.852,9.881,13.521,13.7,19.969
								c0.592,1,1.18,1.994,1.771,2.978c0.77,1.285,1.543,2.682,2.292,4.033c1.349,2.436,2.731,4.934,4.245,7.083
								c4.509-8.635,19.279-41.989,20.691-45.757c0.911-2.435,2.354-6.019,4.055-9.262c1.554-2.966,4.605-4.153,7.298-5.201
								c2.181-0.848,4.241-1.649,5.317-3.217l2.956,2.031c-1.702,2.479-4.502,3.568-6.973,4.53c-2.41,0.938-4.491,1.748-5.422,3.521
								c-1.613,3.081-2.996,6.516-3.872,8.856c-0.165,0.441-20.234,47.051-22.76,49.059l-1.353,1.074l-1.125-1.31
								c-2.377-2.769-4.319-6.277-6.198-9.669c-0.767-1.387-1.491-2.695-2.229-3.927c-0.595-0.99-1.186-1.989-1.781-2.996
								c-2.854-4.819-5.883-10.298-11.378-17.116c-1.367,5.073-3.606,16.702-5.331,25.661c-4.613,23.959-5.235,26.013-6.656,26.784
								l-0.744,0.404l-0.878-0.309c-1.768-0.715-3.346-1.79-4.871-2.83c-0.768-0.523-1.509-1.029-2.253-1.478
								c-0.965,1.736-2.157,4.64-3.237,7.271c-3.113,7.583-4.394,10.257-6.537,10.495c-0.886,0.102-1.708-0.299-2.261-1.088
								l-1.262-1.793c-3.079-4.366-6.013-8.524-7.827-12.708c-3.393,2.902-10.323,11.531-14.729,17.017
								C53.915,110.287,50.966,113.96,49.057,115.976z"/>
						</g>
						<g>
							<polygon fill="#FF9000" points="113.542,117.415 107.531,110.328 101.326,116.17 82.886,111.392 64.73,117.381 
								47.015,109.361 48.494,106.094 64.937,113.535 82.764,107.653 100.31,112.201 107.822,105.126 114.928,113.502 
								136.509,109.788 155.757,111.109 176.523,107.748 177.049,111.296 153.948,114.715 134.773,113.398 							"/>
						</g>
						<g>
							<rect x="46.621" y="6.58" fill="#D9D9D9" width="3.68" height="121.854"/>
						</g>
					</g>
					<g>
						<g>
							<g>
								<path fill="#FFBF96" d="M105.637,145.485c0,0,11.895-8.135,15.576,4.49c0,0,11.508-1.828,13.336,8.939
									c0,0,12.982,3.369,12.217,13.389c0,0-0.082,33.396-9.744,39.684l0.949,69.424c0,0-43.049,0.611-41.934-0.129
									c1.115-0.738-1.971-69.047-1.971-69.047s-11.449-22.734-11.518-33.406c-0.066-10.67,5.912-26.232,5.912-26.232
									L105.637,145.485z"/>
								<path fill="#FFBF96" d="M103.947,150.427c0.156,10.156,1.555,2.605-5.578,2.707l-2.758,0.041
									c-2.359,0.035-7.123,1.908-7.152-0.051l2.016-58.962c-0.031-1.957,1.719-5.574,6.039-5.481
									c4.318,0.092,5.23,3.355,5.26,5.314L103.947,150.427z"/>
								<path fill="#FBE2DB" d="M92.508,91.661c0,0,3.943-4.284,7.391,0.018c0,0,0.504,6.324-3.232,6.311
									C92.664,97.974,92.504,93.939,92.508,91.661z"/>
							</g>
							<polygon fill="#FFFFFF" points="92.201,213.413 139.971,213.526 139.824,274.726 92.049,277.241 							"/>
							<polygon fill="#0E55B7" points="88.285,218.97 143.668,219.103 146.494,291.472 88.113,291.333 							"/>
							<polygon opacity="0.1" points="127.877,219.063 127.707,291.429 146.494,291.472 143.668,219.103 							"/>
						</g>
						<circle fill="#FF9000" cx="136.662" cy="234.426" r="3.834"/>
						<circle fill="#FF9000" cx="137.203" cy="247.786" r="3.834"/>
					</g>
				</g>
			</g>
		</g>
	</g>
</g>
</svg>
