<?xml version="1.0" encoding="utf-8"?>
<!-- Generator: Adobe Illustrator 16.0.0, SVG Export Plug-In . SVG Version: 6.00 Build 0)  -->
<!DOCTYPE svg PUBLIC "-//W3C//DTD SVG 1.1//EN" "http://www.w3.org/Graphics/SVG/1.1/DTD/svg11.dtd">
<svg version="1.1" xmlns="http://www.w3.org/2000/svg" xmlns:xlink="http://www.w3.org/1999/xlink" x="0px" y="0px" width="234px"
	 height="234px" viewBox="0 0 234 234" enable-background="new 0 0 234 234" xml:space="preserve">
<g id="Слой_2__x28_копия_x29_">
	<circle fill="#FFFFFF" cx="117" cy="117.029" r="117"/>
</g>
<g id="Режим_изоляции">
</g>
<g id="Слой_2">
	<g>
		<defs>
			<circle id="SVGID_1_" cx="117" cy="117.029" r="117"/>
		</defs>
		<clipPath id="SVGID_2_">
			<use xlink:href="#SVGID_1_"  overflow="visible"/>
		</clipPath>
		<g clip-path="url(#SVGID_2_)">
			<g>
				<g>
					<path fill="#0E55B7" d="M105.91,118.615c0,0,0,0,0,0.004c-2.319-0.966-7.786-2.87-11.168-3.866
						c-0.29-0.091-0.335-0.104-0.335-1.304c0-0.994,0.408-1.992,0.803-2.837c0.438-0.921,0.946-2.467,1.126-3.853
						c0.518-0.595,1.213-1.772,1.662-4.012c0.396-1.977,0.213-2.692-0.05-3.368c-0.029-0.071-0.056-0.14-0.074-0.211
						c-0.098-0.461,0.035-2.87,0.371-4.735c0.239-1.279-0.056-4.002-1.819-6.255c-1.111-1.429-3.246-3.174-7.139-3.417l-2.131,0.003
						c-3.829,0.24-5.958,1.985-7.073,3.414c-1.763,2.253-2.055,4.976-1.823,6.255c0.34,1.865,0.476,4.274,0.378,4.728
						c-0.022,0.079-0.05,0.147-0.079,0.219c-0.262,0.676-0.446,1.392-0.052,3.368c0.449,2.239,1.151,3.417,1.662,4.012
						c0.185,1.386,0.696,2.932,1.127,3.853c0.318,0.67,0.464,1.584,0.464,2.878c0,1.201-0.045,1.217-0.314,1.303
						c-3.5,1.034-9.07,3.044-11.146,3.953c-0.018-0.018-0.03-0.036-0.047-0.053v8.787h35.658V118.615z"/>
					<path fill="#A71AEF" d="M94.742,114.753c-0.29-0.091-0.335-0.104-0.335-1.304c0-0.994,0.408-1.992,0.803-2.837
						c0.438-0.921,0.946-2.467,1.126-3.853c0.518-0.595,1.213-1.772,1.662-4.012c0.396-1.977,0.213-2.692-0.05-3.368
						c-0.029-0.071-0.056-0.14-0.074-0.211c-0.098-0.461,0.035-2.87,0.371-4.735c0.239-1.279-0.056-4.002-1.819-6.255
						c-1.111-1.429-3.246-3.174-7.139-3.417l-1.239,0.003v42.716h17.862v-8.865c0,0,0,0,0,0.004
						C103.591,117.653,98.124,115.749,94.742,114.753z"/>
				</g>
			</g>
			<g>
				<g>
					<path fill="#0E55B7" d="M173.748,118.615c0,0,0,0-0.002,0.004c-2.316-0.966-7.786-2.87-11.166-3.866
						c-0.29-0.091-0.337-0.104-0.337-1.304c0-0.994,0.408-1.992,0.806-2.837c0.434-0.921,0.946-2.467,1.127-3.853
						c0.514-0.595,1.213-1.772,1.658-4.012c0.399-1.977,0.214-2.692-0.048-3.368c-0.028-0.071-0.057-0.14-0.076-0.211
						c-0.097-0.461,0.035-2.87,0.374-4.735c0.237-1.279-0.06-4.002-1.819-6.255c-1.111-1.429-3.246-3.174-7.138-3.417l-2.135,0.003
						c-3.827,0.24-5.955,1.985-7.07,3.414c-1.763,2.253-2.055,4.976-1.822,6.255c0.34,1.865,0.472,4.274,0.378,4.728
						c-0.023,0.079-0.052,0.147-0.08,0.219c-0.262,0.676-0.447,1.392-0.052,3.368c0.449,2.239,1.148,3.417,1.662,4.012
						c0.185,1.386,0.696,2.932,1.127,3.853c0.318,0.67,0.464,1.584,0.464,2.878c0,1.201-0.044,1.217-0.317,1.303
						c-3.497,1.034-9.067,3.044-11.144,3.953c-0.019-0.018-0.03-0.036-0.048-0.053v8.787h35.658V118.615z"/>
					<path fill="#A71AEF" d="M162.58,114.753c-0.29-0.091-0.337-0.104-0.337-1.304c0-0.994,0.408-1.992,0.806-2.837
						c0.434-0.921,0.946-2.467,1.127-3.853c0.514-0.595,1.213-1.772,1.658-4.012c0.399-1.977,0.214-2.692-0.048-3.368
						c-0.028-0.071-0.057-0.14-0.076-0.211c-0.097-0.461,0.035-2.87,0.374-4.735c0.237-1.279-0.06-4.002-1.819-6.255
						c-1.111-1.429-3.246-3.174-7.138-3.417l-1.24,0.003v42.716h17.861v-8.865c0,0,0,0-0.002,0.004
						C171.43,117.653,165.96,115.749,162.58,114.753z"/>
				</g>
			</g>
			<g>
				<g>
					<path fill="#0E55B7" d="M146.759,130.905c0,0,0,0-0.005,0c-3.253-1.358-10.941-4.024-15.698-5.428
						c-0.408-0.131-0.469-0.151-0.469-1.841c0-1.394,0.569-2.798,1.13-3.987c0.611-1.289,1.33-3.463,1.584-5.41
						c0.723-0.838,1.707-2.492,2.333-5.641c0.56-2.776,0.298-3.784-0.064-4.735c-0.042-0.098-0.083-0.195-0.108-0.297
						c-0.142-0.649,0.049-4.031,0.524-6.654c0.329-1.801-0.083-5.63-2.563-8.794c-1.562-2.003-4.561-4.46-10.03-4.805l-3.001,0.003
						c-5.377,0.342-8.374,2.799-9.938,4.802c-2.479,3.164-2.89,6.993-2.562,8.794c0.476,2.623,0.664,6.005,0.528,6.642
						c-0.029,0.114-0.071,0.212-0.107,0.31c-0.368,0.951-0.63,1.959-0.074,4.735c0.634,3.148,1.615,4.803,2.338,5.641
						c0.259,1.947,0.978,4.121,1.584,5.41c0.445,0.946,0.651,2.23,0.651,4.05c0,1.688-0.063,1.71-0.442,1.831
						c-4.922,1.451-12.753,4.281-15.672,5.561c-0.021-0.027-0.042-0.055-0.062-0.081v12.356h50.124V130.905z"/>
					<path fill="#A71AEF" d="M131.056,125.478c-0.408-0.131-0.469-0.151-0.469-1.841c0-1.394,0.569-2.798,1.13-3.987
						c0.611-1.289,1.33-3.463,1.584-5.41c0.723-0.838,1.707-2.492,2.333-5.641c0.56-2.776,0.298-3.784-0.064-4.735
						c-0.042-0.098-0.083-0.195-0.108-0.297c-0.142-0.649,0.049-4.031,0.524-6.654c0.329-1.801-0.083-5.63-2.563-8.794
						c-1.562-2.003-4.561-4.46-10.03-4.805l-1.746,0.003v60.05h25.113v-12.461c0,0,0,0-0.005,0
						C143.501,129.547,135.812,126.881,131.056,125.478z"/>
				</g>
			</g>
		</g>
	</g>
</g>
</svg>
