<?xml version="1.0" encoding="utf-8"?>
<!-- Generator: Adobe Illustrator 16.0.0, SVG Export Plug-In . SVG Version: 6.00 Build 0)  -->
<!DOCTYPE svg PUBLIC "-//W3C//DTD SVG 1.1//EN" "http://www.w3.org/Graphics/SVG/1.1/DTD/svg11.dtd">
<svg version="1.1" xmlns="http://www.w3.org/2000/svg" xmlns:xlink="http://www.w3.org/1999/xlink" x="0px" y="0px"
	 width="236.007px" height="237px" viewBox="0 0 236.007 237" enable-background="new 0 0 236.007 237" xml:space="preserve">
<g id="Слой_2">
	<circle fill="#FFFFFF" cx="119.007" cy="120" r="117"/>
</g>
<g id="Objects">
	<g>
		<defs>
			<circle id="SVGID_1_" cx="119.007" cy="120" r="117"/>
		</defs>
		<clipPath id="SVGID_2_">
			<use xlink:href="#SVGID_1_"  overflow="visible"/>
		</clipPath>
		<g clip-path="url(#SVGID_2_)">
			<g>
				<g>
					<polygon fill="#FFC6A1" points="72.812,116.054 -4.939,106.965 -8.093,145.749 71.917,146.412 					"/>
					<path fill="#FFC6A1" d="M124.066,143.697c0,0,5.515-28.524-17.543-38.082c0,0-20.961-1.439-36.805,13.021
						c0,0-11.098,9.959-2.299,29.743l15.038,15.375c0,0,3.301,4.495,8.285,6.243c4.983,1.749,14.827,4.356,23.06,11.941
						c0,0,2.411,1.475,4.505-0.319c1.361-1.167,4.215-12.045-17.912-21.525c0,0-4.262-3.416,3.859-6.257
						C112.376,150.996,123.506,149.813,124.066,143.697z"/>
					<path fill="#FFC6A1" d="M104.987,116.43c-1.399,0.026-2.447-3.773-2.474-5.172l-0.03-1.636
						c-0.024-1.398,0.521-4.033,1.919-4.059l40.241,0.76c1.398-0.024,3.895,0.318,4.031,3.104c0.138,2.785-2.511,3.57-3.909,3.596
						L104.987,116.43z"/>
					<path fill="#FFC6A1" d="M119.387,125.999c-1.44,0.094-2.83-2.534-2.944-4.302l-0.134-2.066
						c-0.114-1.768,0.959-3.275,2.399-3.368l40.843-2.651c1.439-0.094,3.334-0.008,4.188,3.018c0.988,4.302-2.197,5.354-3.637,5.446
						L119.387,125.999z"/>
					<path fill="#FFC6A1" d="M122.837,137.456c-1.442,0.188-1.679-2.416-1.906-4.155l-0.265-2.03
						c-0.228-1.738-0.538-4.439,0.905-4.628l42.197-4.202c1.442-0.188,3.912,1.142,4.2,3.87s-1.67,4.265-3.112,4.454
						L122.837,137.456z"/>
					<path fill="#FFC6A1" d="M122.534,148.534c-6.826,1.36-1.563,1.37-2.515-3.426l-0.369-1.854
						c-0.315-1.585,0.349-4.323,1.665-4.586l37.473-6.177c1.315-0.261,3.97,0.471,4.439,3.394c0.473,2.922-1.613,3.938-2.93,4.202
						L122.534,148.534z"/>
					<polygon fill="#FFFFFF" points="54.629,110.733 52.489,150.146 -8.121,148.526 -7.442,104.573 					"/>
					<polygon fill="#0E54B7" points="49.014,107.195 48.198,152.005 -7.84,152.435 -9.867,98.987 					"/>
					<polygon opacity="0.1" points="48.478,136.646 -8.474,135.704 -7.84,152.435 48.198,152.005 					"/>
					<path opacity="0.1" d="M66.597,146.412c0,0-2.126-4.805-2.345-8.947l-11.055-0.343l-0.496,9.131L66.597,146.412z"/>
				</g>
				<circle fill="#FF9000" cx="23.859" cy="144.646" r="2.88"/>
				<circle fill="#FF9000" cx="34.1" cy="144.646" r="2.88"/>
				<g>
					<g>
						<path fill="#85BD70" d="M194.68,77.478c-23.824,2.153-47.993-2.277-72.27-0.115c-0.764,2.631-1.531,5.263-2.303,7.895
							c25.91-2.198,51.717,2.196,77.164,0.009C196.4,82.671,195.535,80.076,194.68,77.478z"/>
						<g>
							<path fill="#6D9C5C" d="M181.15,86.205L181.15,86.205c-7.383,0-14.923-0.322-22.214-0.634
								c-7.342-0.314-14.934-0.638-22.42-0.638c-6,0-11.358,0.207-16.382,0.633l-0.45,0.038l0.127-0.433
								c0.772-2.632,1.539-5.263,2.303-7.894l0.059-0.203l0.21-0.019c4.634-0.413,9.562-0.614,15.064-0.614
								c7.14,0,14.371,0.341,21.364,0.671c6.93,0.326,14.095,0.664,21.104,0.664c5.403,0,10.222-0.198,14.738-0.606l0.244-0.022
								l0.077,0.233c0.854,2.597,1.719,5.192,2.59,7.786l0.125,0.373l-0.391,0.033C192.361,85.999,187.079,86.205,181.15,86.205z
								 M136.516,84.314c7.5,0,15.099,0.324,22.447,0.639c7.283,0.312,14.817,0.634,22.187,0.634c5.755,0,10.896-0.195,15.702-0.595
								c-0.803-2.394-1.599-4.788-2.39-7.185c-4.462,0.396-9.223,0.587-14.547,0.588c-7.024,0-14.196-0.338-21.133-0.665
								c-6.986-0.33-14.21-0.67-21.335-0.67c-5.401,0-10.245,0.194-14.799,0.592c-0.704,2.42-1.409,4.841-2.118,7.26
								C125.441,84.51,130.677,84.314,136.516,84.314z"/>
						</g>
					</g>
					<g>
						<path fill="#85BD70" d="M194.68,76.568c-23.824,2.152-47.993-2.277-72.27-0.115c-0.764,2.631-1.531,5.262-2.303,7.895
							c25.91-2.198,51.717,2.196,77.164,0.009C196.4,81.761,195.535,79.166,194.68,76.568z"/>
						<g>
							<path fill="#6D9C5C" d="M181.153,85.295c-0.001,0-0.001,0-0.001,0c-7.383,0-14.923-0.322-22.213-0.634
								c-7.343-0.314-14.936-0.638-22.422-0.638c-6,0-11.358,0.207-16.383,0.633l-0.45,0.038l0.127-0.433
								c0.772-2.632,1.539-5.263,2.303-7.894l0.059-0.203l0.21-0.019c4.635-0.413,9.563-0.614,15.066-0.614
								c7.14,0,14.372,0.341,21.365,0.671c6.93,0.326,14.095,0.664,21.104,0.664c5.4,0,10.221-0.198,14.735-0.606l0.244-0.022
								l0.077,0.233c0.854,2.597,1.719,5.191,2.59,7.786l0.125,0.373l-0.391,0.033C192.361,85.088,187.081,85.295,181.153,85.295z
								 M136.516,83.404c7.5,0,15.1,0.325,22.448,0.639c7.285,0.312,14.817,0.634,22.187,0.634h0.001
								c5.754,0,10.894-0.195,15.699-0.595c-0.803-2.394-1.599-4.788-2.39-7.185c-4.462,0.396-9.223,0.587-14.544,0.587
								c-7.024,0-14.196-0.338-21.133-0.665c-6.986-0.329-14.21-0.669-21.336-0.669c-5.401,0-10.246,0.194-14.801,0.592
								c-0.704,2.42-1.409,4.84-2.118,7.26C125.442,83.6,130.677,83.404,136.516,83.404z"/>
						</g>
					</g>
					<g>
						<path fill="#85BD70" d="M194.68,75.656c-23.824,2.153-47.993-2.277-72.27-0.115c-0.764,2.631-1.531,5.263-2.303,7.896
							c25.91-2.199,51.717,2.196,77.164,0.009C196.4,80.85,195.535,78.254,194.68,75.656z"/>
						<g>
							<path fill="#6D9C5C" d="M181.157,84.384c-0.001,0-0.003,0-0.004,0c-7.382-0.001-14.921-0.323-22.211-0.635
								c-7.343-0.314-14.936-0.639-22.423-0.639c-6.001,0-11.36,0.207-16.385,0.633l-0.45,0.038l0.127-0.432
								c0.772-2.632,1.539-5.264,2.303-7.895l0.059-0.203l0.21-0.019c4.634-0.413,9.562-0.614,15.064-0.614
								c7.14,0,14.371,0.341,21.364,0.671c6.93,0.326,14.095,0.664,21.104,0.664c5.403,0,10.222-0.198,14.738-0.606l0.244-0.022
								l0.077,0.233c0.854,2.597,1.719,5.192,2.59,7.787l0.125,0.373l-0.391,0.034C192.363,84.178,187.082,84.384,181.157,84.384z
								 M136.519,82.493c7.5,0,15.1,0.325,22.449,0.639c7.285,0.311,14.817,0.634,22.186,0.634c0.001,0,0.003,0,0.004,0
								c5.751,0,10.891-0.195,15.695-0.595c-0.803-2.394-1.599-4.789-2.39-7.186c-4.462,0.396-9.223,0.587-14.547,0.588
								c-7.024,0-14.196-0.338-21.133-0.665c-6.986-0.33-14.21-0.67-21.335-0.67c-5.401,0-10.245,0.194-14.799,0.592
								c-0.704,2.42-1.409,4.841-2.118,7.261C125.442,82.688,130.679,82.493,136.519,82.493z"/>
						</g>
					</g>
					<g>
						<path fill="#85BD70" d="M194.68,74.746c-23.824,2.153-47.993-2.277-72.27-0.115c-0.764,2.631-1.531,5.263-2.303,7.895
							c25.91-2.198,51.717,2.196,77.164,0.009C196.4,79.938,195.535,77.342,194.68,74.746z"/>
						<g>
							<path fill="#6D9C5C" d="M181.157,83.473c-0.001,0-0.001,0-0.001,0c-7.383,0-14.923-0.323-22.214-0.634
								c-7.343-0.314-14.935-0.639-22.423-0.639c-6.001,0-11.361,0.208-16.385,0.634l-0.45,0.038l0.127-0.433
								c0.772-2.633,1.539-5.264,2.303-7.894l0.059-0.203l0.21-0.019c4.634-0.413,9.562-0.614,15.064-0.614
								c7.14,0,14.371,0.341,21.364,0.671c6.93,0.326,14.095,0.665,21.104,0.665c5.401,0,10.222-0.199,14.738-0.606l0.244-0.022
								l0.077,0.233c0.854,2.596,1.719,5.192,2.59,7.788l0.125,0.373l-0.391,0.033C192.363,83.267,187.083,83.473,181.157,83.473z
								 M136.519,81.582c7.501,0,15.1,0.326,22.449,0.64c7.285,0.312,14.817,0.633,22.188,0.633h0.001
								c5.752,0,10.891-0.194,15.695-0.595c-0.803-2.395-1.599-4.79-2.39-7.185c-4.462,0.395-9.223,0.587-14.547,0.588
								c-7.024,0-14.196-0.338-21.133-0.665c-6.986-0.33-14.21-0.67-21.335-0.67c-5.401,0-10.245,0.194-14.799,0.592
								c-0.704,2.42-1.409,4.84-2.118,7.26C125.442,81.778,130.679,81.582,136.519,81.582z"/>
						</g>
					</g>
					<g>
						<path fill="#85BD70" d="M194.68,73.834c-23.824,2.153-47.993-2.277-72.27-0.115c-0.764,2.631-1.531,5.262-2.303,7.895
							c25.91-2.198,51.717,2.196,77.164,0.009C196.4,79.027,195.535,76.432,194.68,73.834z"/>
						<g>
							<path fill="#6D9C5C" d="M181.15,82.562L181.15,82.562c-7.383,0-14.923-0.322-22.214-0.634
								c-7.342-0.313-14.934-0.638-22.42-0.638c-6,0-11.358,0.207-16.382,0.633l-0.45,0.038l0.127-0.433
								c0.772-2.632,1.539-5.263,2.303-7.894l0.059-0.203l0.21-0.019c4.635-0.413,9.563-0.614,15.066-0.614
								c7.14,0,14.372,0.341,21.365,0.671c6.93,0.326,14.095,0.664,21.104,0.664c5.4,0,10.221-0.198,14.735-0.606l0.244-0.022
								l0.077,0.233c0.854,2.597,1.719,5.192,2.59,7.786l0.125,0.373l-0.391,0.033C192.361,82.355,187.079,82.562,181.15,82.562z
								 M136.516,80.671c7.5,0,15.099,0.325,22.447,0.639c7.283,0.312,14.817,0.634,22.187,0.634c5.755,0,10.896-0.195,15.702-0.595
								c-0.803-2.394-1.599-4.788-2.39-7.184c-4.462,0.395-9.223,0.587-14.544,0.587c-7.024,0-14.196-0.338-21.133-0.665
								c-6.986-0.329-14.21-0.669-21.336-0.669c-5.401,0-10.246,0.194-14.801,0.592c-0.704,2.42-1.409,4.84-2.118,7.261
								C125.441,80.867,130.677,80.671,136.516,80.671z"/>
						</g>
					</g>
					<g>
						<path fill="#85BD70" d="M194.68,72.923c-23.824,2.153-47.993-2.277-72.27-0.115c-0.764,2.631-1.531,5.263-2.303,7.895
							c25.91-2.198,51.717,2.196,77.164,0.01C196.4,78.116,195.535,75.521,194.68,72.923z"/>
						<g>
							<path fill="#6D9C5C" d="M181.157,81.65c-0.001,0-0.001,0-0.001,0c-7.383,0-14.923-0.322-22.214-0.634
								c-7.343-0.314-14.935-0.639-22.423-0.639c-6.001,0-11.361,0.207-16.385,0.634l-0.45,0.038l0.127-0.433
								c0.772-2.631,1.539-5.263,2.303-7.894l0.059-0.203l0.21-0.019c4.634-0.413,9.561-0.613,15.063-0.613
								c7.139,0,14.372,0.34,21.366,0.67c6.929,0.326,14.094,0.664,21.103,0.664c5.4,0,10.222-0.198,14.738-0.606l0.244-0.022
								l0.077,0.233c0.854,2.597,1.719,5.192,2.59,7.787l0.125,0.373l-0.391,0.034C192.363,81.444,187.083,81.65,181.157,81.65z
								 M136.519,79.759c7.501,0,15.1,0.325,22.449,0.64c7.285,0.311,14.818,0.633,22.188,0.633h0.001
								c5.752,0,10.891-0.194,15.695-0.594c-0.803-2.394-1.599-4.789-2.39-7.186c-4.464,0.396-9.225,0.588-14.547,0.588
								c-7.022,0-14.196-0.338-21.132-0.665c-6.987-0.33-14.212-0.67-21.337-0.67c-5.4,0-10.244,0.194-14.798,0.592
								c-0.704,2.42-1.409,4.841-2.118,7.261C125.442,79.955,130.679,79.759,136.519,79.759z"/>
						</g>
					</g>
					<g>
						<path fill="#85BD70" d="M194.68,72.011c-23.824,2.154-47.993-2.275-72.27-0.115c-0.764,2.632-1.531,5.264-2.303,7.896
							c25.91-2.198,51.717,2.196,77.164,0.009C196.4,77.206,195.535,74.609,194.68,72.011z"/>
						<g>
							<path fill="#6D9C5C" d="M181.157,80.74c-0.001,0-0.003,0-0.004,0c-7.382,0-14.921-0.322-22.211-0.634
								c-7.343-0.314-14.936-0.639-22.423-0.639c-6.001,0-11.36,0.208-16.385,0.634l-0.45,0.038l0.127-0.433
								c0.772-2.632,1.539-5.264,2.303-7.896l0.059-0.203l0.21-0.019c4.632-0.413,9.558-0.613,15.059-0.613
								c7.14,0,14.371,0.341,21.365,0.671c6.93,0.326,14.095,0.665,21.105,0.665c5.403,0,10.225-0.199,14.741-0.607l0.244-0.022
								l0.077,0.233c0.854,2.597,1.719,5.193,2.59,7.788l0.125,0.373l-0.391,0.033C192.363,80.533,187.082,80.74,181.157,80.74z
								 M136.519,78.849c7.5,0,15.1,0.325,22.449,0.639c7.285,0.312,14.817,0.634,22.186,0.634c0.001,0,0.003,0,0.004,0
								c5.751,0,10.891-0.194,15.695-0.595c-0.803-2.394-1.599-4.789-2.39-7.185c-4.464,0.395-9.226,0.587-14.55,0.587
								c-7.025,0-14.198-0.338-21.135-0.665c-6.986-0.329-14.21-0.669-21.335-0.669c-5.398,0-10.24,0.194-14.793,0.591
								c-0.704,2.421-1.409,4.841-2.118,7.262C125.442,79.044,130.679,78.849,136.519,78.849z"/>
						</g>
					</g>
					<g>
						<path fill="#85BD70" d="M194.68,71.101c-23.824,2.153-47.993-2.277-72.27-0.115c-0.764,2.631-1.531,5.263-2.303,7.895
							c25.91-2.198,51.717,2.196,77.164,0.009C196.4,76.294,195.535,73.699,194.68,71.101z"/>
						<g>
							<path fill="#6D9C5C" d="M181.153,79.828c-0.001,0-0.001,0-0.001,0c-7.383,0-14.923-0.322-22.213-0.634
								c-7.343-0.313-14.936-0.638-22.422-0.638c-6,0-11.358,0.207-16.383,0.633l-0.45,0.038l0.127-0.433
								c0.772-2.631,1.539-5.263,2.303-7.894l0.059-0.203l0.21-0.019c4.634-0.413,9.562-0.614,15.064-0.614
								c7.14,0,14.371,0.341,21.364,0.671c6.93,0.326,14.095,0.664,21.104,0.664c5.401,0,10.222-0.198,14.738-0.606l0.244-0.022
								l0.077,0.233c0.854,2.597,1.719,5.192,2.59,7.786l0.125,0.373l-0.391,0.033C192.361,79.622,187.081,79.828,181.153,79.828z
								 M136.516,77.938c7.5,0,15.1,0.325,22.448,0.639c7.285,0.312,14.817,0.634,22.187,0.634h0.001
								c5.754,0,10.894-0.194,15.699-0.595c-0.803-2.394-1.599-4.788-2.39-7.184c-4.462,0.395-9.223,0.587-14.547,0.587
								c-7.024,0-14.196-0.338-21.133-0.665c-6.986-0.33-14.21-0.67-21.335-0.67c-5.401,0-10.245,0.194-14.799,0.592
								c-0.704,2.419-1.409,4.84-2.118,7.26C125.442,78.133,130.677,77.938,136.516,77.938z"/>
						</g>
					</g>
					<g>
						<path fill="#85BD70" d="M194.68,70.191c-23.824,2.152-47.993-2.278-72.27-0.115c-0.764,2.63-1.531,5.262-2.303,7.894
							c25.91-2.198,51.717,2.196,77.164,0.009C196.4,75.383,195.535,72.787,194.68,70.191z"/>
						<g>
							<path fill="#6D9C5C" d="M181.157,78.917c-0.001,0-0.001,0-0.001,0c-7.383,0-14.923-0.323-22.214-0.634
								c-7.343-0.314-14.935-0.639-22.423-0.639c-6.001,0-11.361,0.208-16.385,0.634l-0.45,0.038l0.127-0.433
								c0.772-2.632,1.539-5.264,2.303-7.894l0.059-0.203l0.21-0.019c4.636-0.413,9.565-0.614,15.07-0.614
								c7.139,0,14.371,0.341,21.364,0.67c6.929,0.327,14.095,0.665,21.104,0.665c5.399,0,10.219-0.199,14.733-0.605l0.244-0.022
								l0.077,0.233c0.854,2.595,1.719,5.191,2.59,7.787l0.125,0.372l-0.391,0.033C192.363,78.711,187.083,78.917,181.157,78.917z
								 M136.519,77.026c7.501,0,15.1,0.326,22.449,0.64c7.285,0.312,14.818,0.634,22.188,0.634h0.001
								c5.752,0,10.891-0.194,15.695-0.595c-0.803-2.395-1.599-4.79-2.39-7.184c-4.46,0.395-9.222,0.587-14.542,0.587
								c-7.024,0-14.197-0.338-21.134-0.665c-6.986-0.329-14.209-0.669-21.334-0.669c-5.403,0-10.248,0.194-14.804,0.592
								c-0.703,2.419-1.408,4.839-2.118,7.259C125.442,77.223,130.679,77.026,136.519,77.026z"/>
						</g>
					</g>
					<g>
						<path fill="#85BD70" d="M194.68,69.279c-23.824,2.153-47.993-2.277-72.27-0.115c-0.764,2.631-1.531,5.262-2.303,7.895
							c25.91-2.198,51.717,2.196,77.164,0.009C196.4,74.472,195.535,71.876,194.68,69.279z"/>
						<g>
							<path fill="#6D9C5C" d="M181.157,78.006c-0.001,0-0.003,0-0.004,0c-7.382,0-14.921-0.322-22.211-0.634
								c-7.343-0.314-14.936-0.639-22.423-0.639c-6.001,0-11.36,0.208-16.385,0.634l-0.45,0.038l0.127-0.433
								c0.772-2.632,1.539-5.263,2.303-7.894l0.059-0.203l0.21-0.019c4.635-0.413,9.562-0.614,15.066-0.614
								c7.139,0,14.371,0.341,21.364,0.671c6.93,0.326,14.095,0.664,21.104,0.664c5.401,0,10.222-0.198,14.736-0.606l0.244-0.022
								l0.077,0.233c0.854,2.596,1.719,5.192,2.59,7.786l0.125,0.373l-0.391,0.033C192.363,77.8,187.082,78.006,181.157,78.006z
								 M136.519,76.116c7.5,0,15.1,0.325,22.449,0.639c7.285,0.312,14.817,0.634,22.186,0.634c0.001,0,0.003,0,0.004,0
								c5.751,0,10.891-0.194,15.695-0.595c-0.803-2.394-1.599-4.789-2.39-7.184c-4.462,0.395-9.223,0.587-14.546,0.587
								c-7.024,0-14.196-0.338-21.133-0.665c-6.986-0.329-14.21-0.669-21.335-0.669c-5.401,0-10.246,0.194-14.801,0.592
								c-0.704,2.419-1.409,4.839-2.118,7.26C125.442,76.311,130.679,76.116,136.519,76.116z"/>
						</g>
					</g>
					<g>
						<path fill="#85BD70" d="M193.864,68.369c-23.564,2.152-47.468-2.278-71.481-0.115c-0.755,2.631-1.514,5.263-2.278,7.895
							c25.627-2.199,51.152,2.196,76.323,0.009C195.565,73.561,194.71,70.965,193.864,68.369z"/>
						<g>
							<path fill="#6D9C5C" d="M180.489,77.093c-0.001,0-0.001,0-0.003,0c-7.303,0-14.76-0.322-21.971-0.634
								c-7.262-0.314-14.772-0.639-22.177-0.639c-5.935,0-11.236,0.207-16.206,0.634l-0.447,0.038l0.125-0.429
								c0.763-2.632,1.523-5.264,2.277-7.894l0.058-0.202l0.21-0.02c4.584-0.413,9.461-0.614,14.905-0.614
								c7.062,0,14.214,0.341,21.131,0.671c6.853,0.326,13.941,0.665,20.873,0.665c5.342-0.001,10.107-0.198,14.571-0.606
								l0.244-0.022l0.076,0.233c0.849,2.597,1.702,5.192,2.565,7.787l0.123,0.369l-0.388,0.034
								C191.574,76.888,186.351,77.093,180.489,77.093z M136.337,75.206c7.418,0,14.935,0.325,22.204,0.639
								c7.204,0.311,14.654,0.634,21.944,0.634c0.001,0,0.003,0,0.003,0c5.689,0,10.771-0.195,15.525-0.595
								c-0.796-2.396-1.584-4.791-2.367-7.188c-4.412,0.395-9.119,0.587-14.382,0.587c-6.947,0-14.041-0.338-20.902-0.665
								c-6.91-0.329-14.055-0.67-21.102-0.67c-5.343,0-10.135,0.194-14.641,0.593c-0.694,2.42-1.393,4.842-2.095,7.263
								C125.384,75.401,130.562,75.206,136.337,75.206z"/>
						</g>
					</g>
					<path fill="#89C53E" d="M194.998,67.793c-24.048,2.153-48.444-2.277-72.95-0.115c-0.771,2.632-1.545,5.263-2.324,7.896
						c26.153-2.198,52.203,2.196,77.889,0.009C196.733,72.986,195.862,70.391,194.998,67.793z"/>
					<g>
						<path fill="#077D38" d="M196.049,75.104c-0.832-2.359-1.657-4.72-2.477-7.081c-22.767,1.957-45.864-2.071-69.065-0.104
							c-0.729,2.392-1.463,4.785-2.201,7.177C147.066,73.099,171.73,77.093,196.049,75.104z M194.107,74.814
							c-0.02,0.001-0.034,0.002-0.054,0.004c0.017-0.009,0.03-0.016,0.046-0.024C194.103,74.801,194.106,74.808,194.107,74.814z
							 M192.577,70.237c0.329,0.99,0.66,1.981,0.991,2.972c-0.729-0.201-1.721-0.297-2.775-0.24
							c-1.957,0.105-3.408,0.689-3.223,1.354c0.087,0.313,0.535,0.586,1.193,0.778c-19.641,0.742-39.337-1.608-58.959-0.868
							c0.658-0.238,1.096-0.538,1.17-0.856c0.156-0.668-1.328-1.164-3.332-1.057c-1.083,0.057-2.104,0.278-2.848,0.577
							c0.292-1.003,0.584-2.007,0.874-3.011c0.583,0.206,1.494,0.302,2.555,0.245c1.965-0.105,3.672-0.694,3.829-1.365
							c0.079-0.34-0.252-0.635-0.846-0.83c18.609-0.737,37.284,1.663,55.907,0.926c-0.578,0.244-0.896,0.56-0.801,0.897
							c0.18,0.662,1.895,1.154,3.813,1.048C191.159,70.75,192.03,70.532,192.577,70.237z M124.32,74.522
							c0.001-0.006,0.003-0.012,0.005-0.019c0.016,0.005,0.033,0.011,0.048,0.016C124.356,74.521,124.338,74.521,124.32,74.522z
							 M126.151,68.214c0.059-0.005,0.118-0.009,0.179-0.013c-0.069,0.025-0.134,0.052-0.198,0.079
							C126.139,68.258,126.145,68.236,126.151,68.214z M192.03,68.585c0.009,0.022,0.016,0.044,0.023,0.065
							c-0.064-0.019-0.128-0.036-0.194-0.053C191.916,68.595,191.975,68.59,192.03,68.585z"/>
					</g>
					<path fill="#077D38" d="M143.17,70.391c-0.069-0.402-1.436-0.733-3.053-0.739c-1.617-0.005-2.977,0.321-3.036,0.729
						c-0.061,0.408,1.306,0.739,3.053,0.739C141.879,71.12,143.239,70.794,143.17,70.391z"/>
					<path fill="#077D38" d="M180.339,70.391c-0.068-0.402-1.434-0.733-3.052-0.739c-1.618-0.005-2.979,0.321-3.039,0.729
						c-0.06,0.408,1.309,0.739,3.055,0.739C179.047,71.12,180.407,70.794,180.339,70.391z"/>
					<g>
						<path fill="#86BF71" d="M168.38,71.572c0.207,1.265-3.895,2.292-9.162,2.292c-5.269,0-9.391-1.041-9.212-2.324
							c0.181-1.284,4.283-2.311,9.163-2.293C164.051,69.264,168.173,70.306,168.38,71.572z"/>
						<g>
							<path fill="#077D38" d="M159.293,75.013c-3.867,0-8.494-0.568-9.882-2.162c-0.375-0.43-0.542-0.952-0.47-1.469
								c0.442-3.193,9.182-3.286,10.176-3.286l0.127,0.001c1.003,0.003,9.825,0.126,10.342,3.289c0.085,0.516-0.07,1.04-0.438,1.473
								C167.802,74.448,163.175,75.013,159.293,75.013z M151.517,71.596c0.974,0.486,3.618,1.118,7.777,1.118
								c4.086,0,6.705-0.605,7.7-1.078c-1.024-0.537-3.823-1.226-7.758-1.24h-0.119C155.089,70.396,152.466,71.084,151.517,71.596z"
								/>
						</g>
						<g>
							<path fill="#077D38" d="M159.087,74.092c-4.534,0-8.225-0.742-9.183-1.846c-0.203-0.233-0.287-0.482-0.25-0.739
								c0.229-1.617,4.947-2.49,9.271-2.49h0.123c4.378,0.016,9.172,0.904,9.431,2.519c0.042,0.252-0.037,0.498-0.233,0.728
								C167.314,73.358,163.634,74.092,159.087,74.092z M158.926,69.474c-5.022,0-8.68,1.105-8.819,2.098
								c-0.018,0.122,0.029,0.244,0.143,0.375c0.729,0.839,3.998,1.689,8.838,1.689c4.852,0,8.105-0.839,8.812-1.668
								c0.107-0.125,0.15-0.243,0.131-0.359c-0.161-0.995-3.889-2.116-8.982-2.135H158.926z"/>
						</g>
						<g>
							<path fill="#95D47D" d="M158.536,72.994l0-0.354c-1.013-0.004-2.059-0.068-2.668-0.156l0.427-0.235
								c0.624,0.084,1.527,0.153,2.503,0.154c1.235,0.001,2.064-0.141,2.057-0.34c-0.006-0.192-0.684-0.312-1.958-0.419
								c-1.751-0.143-2.825-0.307-2.813-0.61c0.013-0.292,1.018-0.51,2.57-0.558l-0.001-0.354l1.042,0.003l0.004,0.339
								c1.013,0.01,1.707,0.067,2.199,0.127l-0.412,0.229c-0.358-0.042-1.055-0.121-2.138-0.124
								c-1.304-0.003-1.795,0.157-1.799,0.296c-0.003,0.182,0.629,0.275,2.117,0.403c1.771,0.149,2.676,0.333,2.694,0.643
								c0.018,0.276-0.926,0.532-2.722,0.59l0.006,0.364L158.536,72.994z"/>
						</g>
					</g>
					<polygon fill="#D6D6D6" points="150.236,67.296 150.236,85.272 167.065,85.896 167.065,68.129 					"/>
					<polygon fill="#BDBDBD" points="150.236,75.302 167.065,75.985 167.065,85.896 150.236,85.272 					"/>
					<polygon fill="#FF9000" points="161.05,85.674 155.815,85.479 155.815,67.572 161.05,67.832 					"/>
				</g>
				<g>
					<g>
						<g>
							<g>
								<rect x="137.612" y="159.75" fill="#FAFDFF" width="57.806" height="43.25"/>
								<g>
									<rect x="139.758" y="197.099" fill="#D9D9D9" width="53.034" height="1.429"/>
								</g>
								<g>
									<path fill="#A71AEE" d="M141.412,194.1l-1.038-0.678c0.721-0.524,1.935-1.566,3.22-2.669
										c3.497-3.002,5.883-4.99,7.125-5.258l0.667-0.144l0.223,0.457c0.591,1.208,1.884,2.472,3.253,3.81l0.171,0.168
										c0.391-0.462,0.949-1.398,1.347-2.066c0.655-1.1,1.274-2.139,1.84-2.591l0.358-0.286l0.493,0.164
										c0.581,0.193,1.11,0.441,1.623,0.682c0.368,0.172,0.722,0.339,1.078,0.478c0.443-1.049,1.27-4.01,1.953-6.454
										c1.477-5.285,2.181-7.651,2.732-8.13l0.536-0.465l0.564,0.449c4.177,3.326,2.801,2.391,5.458,5.484
										c0.236,0.274,0.471,0.547,0.705,0.818c0.307,0.353,0.616,0.736,0.914,1.107c0.537,0.668,1.088,1.355,1.692,1.945
										c1.796-2.372,7.681-11.531,8.243-12.566c0.363-0.668,0.938-1.653,1.615-2.544c0.62-0.814,1.835-1.14,2.908-1.428
										c0.869-0.233,1.689-0.453,2.119-0.883l1.177,0.558c-0.678,0.68-1.793,0.98-2.778,1.244c-0.96,0.257-1.789,0.48-2.16,0.967
										c-0.643,0.846-1.194,1.79-1.542,2.432c-0.067,0.122-8.063,12.922-9.068,13.473l-0.539,0.295l-0.448-0.359
										c-0.947-0.761-1.722-1.724-2.47-2.656c-0.306-0.38-0.594-0.74-0.888-1.078c-0.237-0.272-0.472-0.546-0.709-0.823
										c-1.314-1.529-2.668-3.104-4.534-4.701c-0.544,1.394-1.437,4.587-2.124,7.047c-1.838,6.58-2.085,7.144-2.652,7.355
										l-0.296,0.111l-0.35-0.085c-0.704-0.196-1.333-0.491-1.941-0.777c-0.306-0.144-0.601-0.283-0.897-0.406
										c-0.385,0.477-0.859,1.274-1.29,1.997c-1.24,2.083-1.75,2.817-2.604,2.882c-0.354,0.028-0.681-0.082-0.901-0.299
										l-0.503-0.492c-1.226-1.199-2.395-2.341-3.118-3.49c-1.352,0.797-4.113,3.167-5.868,4.673
										C143.347,192.538,142.172,193.546,141.412,194.1z"/>
								</g>
								<g>
									<polygon fill="#FF9000" points="167.106,194.673 164.711,191.85 162.239,194.177 154.891,192.273 147.657,194.66 
										140.598,191.464 141.188,190.162 147.739,193.127 154.843,190.784 161.833,192.596 164.827,189.777 167.658,193.114 
										175.48,191.635 183.15,192.161 192.201,190.821 192.411,192.235 183.206,193.598 175.565,193.073 									"/>
								</g>
								<g>
									<rect x="139.758" y="163.5" fill="#D9D9D9" width="1.429" height="34.313"/>
								</g>
							</g>
						</g>
					</g>
				</g>
			</g>
		</g>
	</g>
</g>
</svg>
