<?xml version="1.0" encoding="utf-8"?>
<!-- Generator: Adobe Illustrator 16.0.0, SVG Export Plug-In . SVG Version: 6.00 Build 0)  -->
<!DOCTYPE svg PUBLIC "-//W3C//DTD SVG 1.1//EN" "http://www.w3.org/Graphics/SVG/1.1/DTD/svg11.dtd">
<svg version="1.1" xmlns="http://www.w3.org/2000/svg" xmlns:xlink="http://www.w3.org/1999/xlink" x="0px" y="0px"
	 width="234.25px" height="234.25px" viewBox="0 0 234.25 234.25" enable-background="new 0 0 234.25 234.25" xml:space="preserve">
<g id="Слой_2">
	<circle fill="#FFFFFF" cx="117.25" cy="117.25" r="117"/>
</g>
<g id="Режим_изоляции">
	<g>
		<defs>
			<circle id="SVGID_1_" cx="117.25" cy="117.25" r="117"/>
		</defs>
		<clipPath id="SVGID_2_">
			<use xlink:href="#SVGID_1_"  overflow="visible"/>
		</clipPath>
		<g clip-path="url(#SVGID_2_)">
			<g>
				<g>
					<g>
						<path fill="#8AC53F" d="M173.52,152.241c-27.511-22.879-67.427-11.365-94.937-34.245c4.923-13.649,9.847-27.296,14.77-40.944
							c27.51,22.88,67.427,11.366,94.936,34.245C183.365,124.945,178.441,138.595,173.52,152.241z"/>
						<g>
							<path fill="#087E38" d="M95.486,79.92c-4.478,12.41-8.953,24.819-13.43,37.229c26.199,21.232,63.682,11.191,89.882,32.424
								c4.476-12.41,8.952-24.82,13.43-37.231C159.167,91.111,121.686,101.151,95.486,79.92z M182.531,113.156
								c-0.006-0.048-0.014-0.096-0.021-0.144c0.019,0.015,0.039,0.029,0.059,0.043C182.557,113.09,182.544,113.124,182.531,113.156
								z M171.626,132.897c-2.269-1.451-5.196,0.395-6.451,3.869c-0.639,1.77-0.72,3.621-0.348,5.203
								c-22.71-12.697-51.327-9.02-74.036-21.718c1.196-0.707,2.265-2.047,2.902-3.814c1.257-3.482,0.363-7.276-1.906-8.728
								c-1.227-0.781-2.6-0.715-3.802,0.05c1.878-5.207,3.755-10.413,5.635-15.619c0.261,1.844,1.038,3.432,2.263,4.214
								c2.27,1.451,5.198-0.396,6.451-3.87c0.596-1.65,0.703-3.369,0.416-4.877c22.634,12.567,51.096,8.979,73.73,21.547
								c-1.1,0.737-2.07,2.011-2.665,3.658c-1.256,3.484-0.36,7.277,1.907,8.729c1.227,0.782,2.6,0.715,3.804-0.051
								c-1.88,5.206-3.757,10.415-5.636,15.62C173.63,135.267,172.853,133.679,171.626,132.897z M96.721,83.748
								c-0.032,0.02-0.064,0.038-0.096,0.059c0.014-0.034,0.024-0.068,0.037-0.101C96.682,83.72,96.701,83.733,96.721,83.748z
								 M84.979,116.095c0.023,0.164,0.049,0.329,0.08,0.489c-0.068-0.049-0.136-0.099-0.202-0.149
								C84.897,116.322,84.938,116.209,84.979,116.095z M170.559,145.638c0.109-0.059,0.218-0.125,0.326-0.193
								c-0.041,0.115-0.082,0.229-0.123,0.342C170.694,145.735,170.626,145.687,170.559,145.638z"/>
						</g>
						<circle fill="#087E38" cx="109.63" cy="110.18" r="4.075"/>
						<circle fill="#087E38" cx="157.194" cy="119.52" r="4.075"/>
						<g>
							
								<ellipse transform="matrix(0.9407 0.3393 -0.3393 0.9407 46.9838 -38.3461)" fill="#087E38" cx="133.141" cy="115.175" rx="12.295" ry="16.359"/>
							<g>
								<path fill="#087E38" d="M130.909,133.438c-1.377,0-2.724-0.234-4.002-0.695c-7.56-2.727-10.873-12.812-7.387-22.48
									c2.822-7.821,9.417-13.282,16.036-13.282c1.376,0,2.723,0.233,4.001,0.694c3.78,1.363,6.607,4.536,7.959,8.933
									c1.281,4.164,1.078,8.975-0.571,13.548C144.124,127.976,137.53,133.438,130.909,133.438z M135.557,101.544
									c-4.732,0-9.562,4.222-11.744,10.268c-2.633,7.301-0.55,14.766,4.644,16.639c0.78,0.281,1.605,0.424,2.453,0.424
									c4.733,0,9.562-4.222,11.743-10.267c1.315-3.649,1.494-7.435,0.503-10.658c-0.92-2.992-2.748-5.116-5.146-5.981
									C137.229,101.687,136.403,101.544,135.557,101.544z"/>
							</g>
							<g>
								<path fill="#A7D497" d="M130.657,131.521c-1.165,0-2.302-0.197-3.381-0.586c-3.227-1.164-5.652-3.918-6.831-7.752
									c-1.164-3.788-0.971-8.188,0.545-12.39c2.564-7.109,8.45-12.075,14.314-12.075c1.164,0,2.302,0.197,3.38,0.587
									c3.228,1.164,5.654,3.916,6.834,7.75c1.165,3.788,0.972,8.188-0.545,12.39C142.409,126.554,136.522,131.521,130.657,131.521
									z M135.305,99.625c-5.489,0-11.024,4.719-13.462,11.476c-1.449,4.019-1.638,8.215-0.531,11.815
									c1.094,3.556,3.321,6.101,6.272,7.165c0.979,0.354,2.014,0.533,3.073,0.533c5.49,0,11.026-4.721,13.464-11.478
									c1.45-4.018,1.639-8.214,0.53-11.815c-1.093-3.555-3.321-6.099-6.274-7.164C137.397,99.804,136.364,99.625,135.305,99.625z"
									/>
							</g>
							
								<text transform="matrix(0.8729 0.3149 -0.3393 0.9407 124.8623 120.8271)" fill="#AAE0AA" font-family="'MyriadPro-Regular'" font-size="24.7678">$</text>
						</g>
					</g>
					<g>
						<path fill="#CC9774" d="M200.879,152.198l3.291,3.406l-62.438,23.148l-8.048-9.115
							C133.684,169.638,187.537,144.526,200.879,152.198z"/>
						<path fill="#E3A882" d="M203.277,148.56l3.486,2.619l-61.793,25.734l-8.324-8.867
							C136.646,168.046,192.566,143.005,203.277,148.56z"/>
						<path fill="#FFBF96" d="M28.443,146.894c0,0,43.06-3.426,49.446-4.367s28.812-11.395,47.416,7.504l17.069,1.818
							c0,0,18.214-5.646,23.343,2.305c0,0,26.903-13.674,36.399-4.904c0,0-48.291,22.451-53.635,27.572
							c0,0-8.885,8.877-13.361,7.656c-4.477-1.217-45.019-13.229-61.591-13.078l-49.126,4.979L28.443,146.894z"/>
						<path fill="#E3A882" d="M165.718,154.153c0,0,6.205,12.172-41.015,11.086L112,161.708l11.885,5.572
							C123.885,167.28,171.589,169.743,165.718,154.153z"/>
						<path fill="#FCDBCA" d="M153.155,154.495c0,0-0.978,4.178,1.989,6.654c0,0,9.041-0.896,8.769-4.385
							C163.478,151.179,153.155,154.495,153.155,154.495z"/>
						<polygon fill="#FFFFFF" points="70.8,139.778 69.425,179.644 -0.87,183.042 -0.58,135.827 						"/>
						<polygon fill="#0E56B7" points="63.264,135.13 64.514,185.548 -8.189,191.374 -8.213,130.505 						"/>
						<polygon opacity="0.1" points="-8.195,175.155 64.187,172.347 64.514,185.548 -8.189,191.374 						"/>
					</g>
					<g>
						<circle fill="#E2E3E4" cx="120.872" cy="44.317" r="12.564"/>
						<g>
							<circle fill="#CCCED1" cx="120.872" cy="44.316" r="9.604"/>
							<path fill="#C4C6C8" d="M120.866,54.578c-2.341,0-4.633-0.812-6.455-2.288c-4.396-3.562-5.075-10.038-1.513-14.434
								c1.958-2.416,4.866-3.802,7.979-3.802c2.34,0,4.631,0.812,6.453,2.288c4.396,3.562,5.075,10.037,1.514,14.434
								C126.887,53.192,123.979,54.578,120.866,54.578z M120.878,35.369c-2.715,0-5.251,1.209-6.958,3.315
								c-3.105,3.832-2.514,9.478,1.319,12.584c1.588,1.286,3.587,1.995,5.627,1.995c2.714,0,5.25-1.208,6.957-3.314
								c3.105-3.834,2.513-9.479-1.32-12.585C124.915,36.078,122.917,35.369,120.878,35.369z"/>
						</g>
						
							<text transform="matrix(0.777 0.6296 -0.6296 0.777 112.4854 45.2734)" fill="#ACAEB0" font-family="'MyriadPro-Regular'" font-size="18.8759">€</text>
					</g>
					<g>
						<circle fill="#A71AF0" cx="146.84" cy="69.324" r="14.261"/>
						<g>
							<circle fill="#A71AF0" cx="146.84" cy="69.323" r="10.902"/>
							<path fill="#FFFFFF" d="M146.838,80.848c-4.906,0-9.281-3.116-10.886-7.755c-1.008-2.908-0.821-6.034,0.523-8.804
								c1.345-2.769,3.687-4.848,6.596-5.855c1.22-0.422,2.487-0.636,3.767-0.636c4.908,0,9.284,3.117,10.89,7.757
								c1.007,2.907,0.821,6.033-0.523,8.802s-3.688,4.848-6.596,5.854C149.387,80.634,148.119,80.848,146.838,80.848z
								 M146.838,59.038c-1.141,0-2.271,0.19-3.361,0.567c-2.596,0.899-4.686,2.755-5.886,5.226s-1.366,5.261-0.467,7.855
								c1.433,4.141,5.336,6.922,9.714,6.922c1.143,0,2.274-0.191,3.364-0.569c2.596-0.898,4.687-2.754,5.887-5.225
								c1.199-2.47,1.365-5.26,0.467-7.854C155.123,61.819,151.218,59.038,146.838,59.038z"/>
						</g>
						
							<text transform="matrix(0.945 -0.3271 0.3271 0.945 144.1787 76.9746)" fill="#FFFFFF" font-family="'MyriadPro-Regular'" font-size="19.8566">$</text>
					</g>
				</g>
			</g>
		</g>
	</g>
</g>
</svg>
