<svg id="SvgjsSvg1000" xmlns="http://www.w3.org/2000/svg" version="1.1" xmlns:xlink="http://www.w3.org/1999/xlink" xmlns:svgjs="http://svgjs.com/svgjs" width="17" height="12" viewBox="0 0 17 12"><title>Forma 1</title><desc>Created with Avocode.</desc><defs id="SvgjsDefs1001"></defs><path id="SvgjsPath1007" d="M1390.1 902.672C1389.8799999999999 902.442 1389.5 902.442 1389.27 902.672C1389.05 902.895 1389.05 903.2660000000001 1389.27 903.488L1393.48 907.663H1379.58C1379.26 907.663 1379 907.919 1379 908.24C1379 908.561 1379.26 908.824 1379.58 908.824H1393.48L1389.27 912.992C1389.05 913.222 1389.05 913.593 1389.27 913.8149999999999C1389.5 914.045 1389.8799999999999 914.045 1390.1 913.8149999999999L1395.31 908.6519999999999C1395.55 908.429 1395.55 908.059 1395.31 907.8369999999999Z " fill="#73cb5d" fill-opacity="1" transform="matrix(1,0,0,1,-1379,-902)"></path></svg>