<svg id="SvgjsSvg1008" xmlns="http://www.w3.org/2000/svg" version="1.1" xmlns:xlink="http://www.w3.org/1999/xlink" xmlns:svgjs="http://svgjs.com/svgjs" width="17" height="13" viewBox="0 0 17 13"><title>Forma 1 копия</title><desc>Created with Avocode.</desc><defs id="SvgjsDefs1009"></defs><path id="SvgjsPath1010" d="M493.397 913.827C493.622 914.058 493.996 914.058 494.228 913.827C494.45300000000003 913.605 494.45300000000003 913.234 494.228 913.012L490.015 908.837H503.918C504.242 908.837 504.5 908.582 504.5 908.26C504.5 907.939 504.242 907.676 503.918 907.676H490.015L494.228 903.508C494.45300000000003 903.278 494.45300000000003 902.907 494.228 902.6850000000001C493.996 902.455 493.621 902.455 493.397 902.6850000000001L488.187 907.8480000000001C487.954 908.071 487.954 908.441 488.187 908.6640000000001Z " fill="#3cbd0d" fill-opacity="1" transform="matrix(1,0,0,1,-488,-902)"></path></svg>