<?xml version="1.0" encoding="utf-8"?>
<!-- Generator: Adobe Illustrator 19.2.0, SVG Export Plug-In . SVG Version: 6.00 Build 0)  -->
<svg version="1.1" id="Layer_1" xmlns="http://www.w3.org/2000/svg" xmlns:xlink="http://www.w3.org/1999/xlink" x="0px" y="0px"
	 viewBox="0 0 166.5 166.9" style="enable-background:new 0 0 166.5 166.9;" xml:space="preserve">
<style type="text/css">
	.st0{fill:#FFD05B;}
	.st1{fill:#F9B54C;}
	.st2{fill:#FFFFFF;}
	.st3{fill:#324A5E;}
	.st4{fill:#2B3B4E;}
	.st5{fill:#E6E9EE;}
	.st6{fill:#F1543F;}
	.st7{fill:#FF7058;}
	.st8{fill:#CED5E0;}
	.st9{fill:#3CBD0D;}
</style>
<path class="st0" d="M119.8,86.5c0,1.6-0.2,2.5-0.2,2.5c-0.5,0.5-1.4,1.8-1.4,1.8c-2,1.6-0.9,2.7-0.9,2.7v1.1
	c-0.5,0.5-0.2,1.6-0.2,1.6c0.9,2,1.8,0.2,1.8,0.2c1.1,1.4,1.8-0.5,1.8-0.5c1.4,0.7,1.6-0.7,1.6-0.7s2.3,0.2,1.8-5
	c-0.2-1.1,0-2.7,0-4.1h-4.3V86.5z"/>
<g>
	<path class="st1" d="M121.9,91.7c0-0.2-0.2-0.9-0.2-0.9c0.2,1.1-0.9,1.8-0.9,1.8c0.2,0,0.2-0.7,0.2-0.7c-0.2,0.9-1.8,1.6-1.8,1.6
		c-0.2-0.7-0.7-0.9-0.7-0.9c0.5,0.5,0.5,0.9,0.5,0.9c-0.2,0-0.5,0.2-0.5,0.2c0.5-0.2,0.7,0,0.7,0c-0.7,0.2-0.5,0.9-0.5,0.9
		c0-0.7,0.5-0.7,0.5-0.7c-0.5,0.2-0.2,0.7-0.2,0.7c0-0.7,0.7-0.7,0.7-0.7c-0.2-0.5,0-0.5,0-0.5c0.7-0.9,0.9,0,0.9,0.5h0.2
		c-0.5-0.9,0-1.1,0-1.1c0.7-0.5,0.7,0.2,0.7,0.2c0,1.4,0.9,2,0.9,2h0.2c-0.7-0.2-0.9-1.1-0.9-1.1c-0.5-1.4,0.2-1.6,0.2-1.6
		c1.1,0,0.9,0.9,0.9,0.9c0.5,0.2,1.1,0,1.1,0c-0.2,0-0.5-0.2-0.5-0.2c-0.5-0.5,0.2-1.1,0.2-1.1c-0.5,0.7-1.8,0.7-1.8,0.7
		C121.2,92.6,121.9,91.9,121.9,91.7l0.2,0.2c0-0.2,0.5-1.1,0.5-1.1C122.3,91,122.1,91.5,121.9,91.7z"/>
	<path class="st1" d="M117.3,93.7c0,0,0.2,0.2,0.7,1.1c0,0,0,0.2,0.2,0.5c0,0.2,0.5,0.5,0.7,0.2c0.5-0.2,0.9-0.2,1.4-0.2
		c0,0,0.5,0,0.7,0c0.2,0,0.5-0.2,0.2-0.5c0-0.5-0.5-0.7-1.1-0.9c0,0-0.7-0.2-0.9,0c0,0,1.1-0.5,1.8,0.2c0,0,0.7,0.7,0.2,0.9
		c0,0-1.8,0-1.8,0.2c0,0-0.7,0.5-1.1-0.2c0,0-0.2-0.7-0.9-0.7c0,0,0.2-0.2,0.5-0.2C117.8,94.7,117.6,94.2,117.3,93.7z"/>
	<path class="st1" d="M118.9,95.6c0,0.2-0.2,1.4-0.2,1.4c0.2-0.2,0.2-0.2,0.2-0.2l0.2,0.2C118.9,96.2,119.1,95.6,118.9,95.6
		L118.9,95.6z"/>
</g>
<path class="st0" d="M120.5,96.2L120.5,96.2C120.7,96.2,120.7,96.2,120.5,96.2c0-0.5,0-0.9,0-0.9h-0.2
	C120.3,95.8,120.5,96.2,120.5,96.2z"/>
<rect x="119.1" y="83.8" class="st2" width="5.7" height="3.9"/>
<g>
	<path class="st3" d="M136.4,152.6c0,0,3.4,2.9,0.9,6.6c0,0-1.8,2.3-1.8,3.6c0,0,0.2,3.9-3.9,2.9c0,0-4.1-2.9-6.8-0.5
		c0,0-2-0.2-1.1-2.9c0,0,2.3-2.9,3.6-5.4c0,0,0.9-0.7,0.5-2.5L136.4,152.6z"/>
	<path class="st3" d="M146.8,152.6c0,0-3.4,2.9-0.9,6.6c0,0,1.8,2.3,1.8,3.6c0,0-0.2,3.9,3.9,2.9c0,0,4.1-2.9,6.8-0.5
		c0,0,2-0.2,1.1-2.9c0,0-2.3-2.9-3.6-5.4c0,0-0.9-0.7-0.5-2.5L146.8,152.6z"/>
</g>
<path class="st4" d="M156.3,108c0,0-2.5,37.6-0.2,45.8c0,0-4.5,7.9-12.2,0c0,0-0.2-61.6-2.3-64.3c-2,2.7-2.3,64.3-2.3,64.3
	c-7.9,7.9-12.2,0-12.2,0c2.3-8.2-0.2-45.8-0.2-45.8c-2.7-16.3-1.1-30.4,0.2-38.1h28.8C157.4,77.7,159,91.7,156.3,108z"/>
<polygon class="st5" points="133.4,27.8 141.1,57.7 148.8,27.8 "/>
<g>
	<path class="st6" d="M141.6,27.8L141.6,27.8L141.6,27.8L141.6,27.8z"/>
	<path class="st6" d="M144.1,29.2l-0.7,1.8h-3.6l-0.7-1.8l0,0c1.4-1.1,2.5-1.4,2.5-1.4S142.7,28.1,144.1,29.2z"/>
</g>
<path class="st7" d="M145.2,41c-1.4,6.3-2.9,12.9-3.6,16.1c-0.7-3.2-2.3-9.5-3.4-16.1l1.8-10.2h3.6L145.2,41z"/>
<path id="SVGCleanerId_0" class="st3" d="M125.7,86h-1.1c-0.5-6.1,0.7-12.7,0.7-12.7c0.2-0.9,0.2-1.6,0.5-2.5
	C125.7,77.9,125.7,86,125.7,86z"/>
<path class="st3" d="M142,59.1l-4.3-11.6l-3.6-21.3l-13.6,5c0,0-4.1,10.2-2.7,54.8h6.8c0,0.9,0.2,1.6,0.2,2.5c0,0,9.5,6.8,13.1,0.5
	C137.9,89.2,142.9,74,142,59.1z M125.5,70.9c0-4.1-0.2-7.7-0.7-9.1c0,0-0.2-4.1,0.7-7.2C126.2,60,126.4,65.9,125.5,70.9z"/>
<g>
	<path id="SVGCleanerId_0_1_" class="st3" d="M125.7,86h-1.1c-0.5-6.1,0.7-12.7,0.7-12.7c0.2-0.9,0.2-1.6,0.5-2.5
		C125.7,77.9,125.7,86,125.7,86z"/>
</g>
<path class="st0" d="M163.5,86.5c0,1.6,0.2,2.5,0.2,2.5c0.5,0.5,1.4,1.8,1.4,1.8c2,1.6,0.9,2.7,0.9,2.7v1.1c0.5,0.5,0.2,1.6,0.2,1.6
	c-0.9,2-1.8,0.2-1.8,0.2c-1.1,1.4-1.8-0.5-1.8-0.5c-1.4,0.7-1.6-0.7-1.6-0.7s-2.3,0.2-1.8-5c0.2-1.1,0-2.7,0-4.1h4.3V86.5z"/>
<rect x="158.5" y="83.8" class="st2" width="5.7" height="3.9"/>
<g>
	<path class="st3" d="M137.5,157.8c0,0,0.9,3.4-0.5,4.5c0,0-1.4,0.5-1.1,2.3c0,0,0,2.3-2.9,2c0,0-7.7,0.9-8.8-0.9
		c0,0-0.9-0.9-0.2-2.5l8.8-3.4L137.5,157.8z"/>
	<path class="st3" d="M145.6,157.8c0,0-0.9,3.4,0.5,4.5c0,0,1.4,0.5,1.1,2.3c0,0,0,2.3,2.9,2c0,0,7.7,0.9,8.8-0.9
		c0,0,0.9-0.9,0.2-2.5l-8.8-3.4L145.6,157.8z"/>
</g>
<polygon class="st8" points="147.7,23.5 135.4,23.5 133.6,27.8 148.6,27.8 "/>
<path class="st4" d="M135.4,23.5l-6.6,7l2.5,1.1l-2,2c0,0,6.1,19,12.7,25.6C142,59.1,135,29.6,135.4,23.5z"/>
<path class="st3" d="M162.6,31.2l-13.6-5l-3.6,21.3l-4.3,11.6c-0.9,14.7,4.1,30.1,4.1,30.1c3.6,6.3,13.1-0.5,13.1-0.5
	c0.2-0.9,0.2-1.6,0.2-2.5h6.8C166.7,41.4,162.6,31.2,162.6,31.2z M157.6,54.6c0.9,3.2,0.7,7.2,0.7,7.2c-0.5,1.4-0.7,5.2-0.7,9.3
	C156.7,65.9,157,60.2,157.6,54.6z"/>
<path id="SVGCleanerId_1" class="st3" d="M158.5,86h-1.1c0,0,0-8.2,0.2-14.9c0.2,0.7,0.2,1.6,0.5,2.3C157.9,73.4,159,80.2,158.5,86z
	"/>
<g>
	<path class="st4" d="M147.7,23.5l6.6,7l-2.5,1.1l1.8,1.8c0,0-6.1,19-12.7,25.6C141.1,59.1,148.1,29.6,147.7,23.5z"/>
	<circle class="st4" cx="143.4" cy="60.4" r="1.4"/>
</g>
<polygon class="st2" points="149.9,49.4 152.2,45.5 155.8,48.2 "/>
<rect x="149" y="48.2" transform="matrix(0.9789 -0.2042 0.2042 0.9789 -6.8074 32.2567)" class="st4" width="7.7" height="1.8"/>
<g>
	<path class="st1" d="M161.5,91.7c0-0.2,0.2-0.9,0.2-0.9c-0.2,1.1,0.9,1.8,0.9,1.8c-0.2,0-0.2-0.7-0.2-0.7c0.2,0.9,1.8,1.6,1.8,1.6
		c0.2-0.7,0.7-0.9,0.7-0.9c-0.7,0.2-0.7,0.7-0.7,0.7c0.2,0,0.5,0.2,0.5,0.2c-0.5-0.2-0.7,0-0.7,0c0.7,0.2,0.5,0.9,0.5,0.9
		c0-0.7-0.5-0.7-0.5-0.7c0.5,0.2,0.2,0.7,0.2,0.7c0-0.7-0.7-0.7-0.7-0.7c0.2-0.5,0-0.5,0-0.5c-0.7-0.9-0.9,0-0.9,0.5h-0.2
		c0.5-0.9,0-1.1,0-1.1c-0.5,0-0.5,0.9-0.5,0.9c0,1.4-0.9,2-0.9,2h-0.2c0.7-0.2,0.9-1.1,0.9-1.1c0.5-1.4-0.2-1.6-0.2-1.6
		c-1.1,0-0.9,0.9-0.9,0.9c-0.5,0.2-1.1,0-1.1,0c0.2,0,0.5-0.2,0.5-0.2c0.5-0.5-0.2-1.1-0.2-1.1c0.2,0.2,1.6,0.2,1.6,0.2
		C161.9,92.6,161.5,91.9,161.5,91.7l-0.2,0.2c0-0.2-0.5-1.1-0.5-1.1C161,91,161.3,91.5,161.5,91.7z"/>
	<path class="st1" d="M166,93.7c0,0-0.2,0.2-0.7,1.1c0,0,0,0.2-0.2,0.5c0,0.2-0.5,0.5-0.7,0.2c-0.5-0.2-0.9-0.2-1.4-0.2
		c0,0-0.5,0-0.7,0c-0.2,0-0.5-0.2-0.2-0.5c0-0.5,0.5-0.7,1.1-0.9c0,0,0.7-0.2,0.9,0c0,0-1.1-0.5-1.8,0.2c0,0-0.7,0.7-0.2,0.9
		c0,0,1.8,0,1.8,0.2c0,0,0.7,0.5,1.1-0.2c0,0,0.2-0.7,0.9-0.7c0,0-0.2-0.2-0.5-0.2C165.6,94.7,165.6,94.2,166,93.7z"/>
</g>
<path class="st0" d="M162.9,96.2C162.6,96.2,162.6,96.2,162.9,96.2C162.6,96.2,162.6,96.2,162.9,96.2c0-0.5,0-0.9,0-0.9h0.2
	C163.1,95.8,162.9,96.2,162.9,96.2z"/>
<g>
	<path id="SVGCleanerId_1_1_" class="st3" d="M158.5,86h-1.1c0,0,0-8.2,0.2-14.9c0.2,0.7,0.2,1.6,0.5,2.3
		C157.9,73.4,159,80.2,158.5,86z"/>
</g>
<path class="st1" d="M146.8,21.9c0,1.6-0.7,4.5-5,5.9h-0.2c-4.8-1.6-5.2-5-5-6.1c1.4,1.6,3.2,2.7,5.2,2.7
	C143.6,24.4,145.2,23.3,146.8,21.9z"/>
<g>
	<path class="st2" d="M146.5,21c0,0,0.9,5-5,6.8c0,0,3.4,0.7,5,5C146.5,32.8,150.6,26.2,146.5,21z"/>
	<path class="st2" d="M136.6,21c-3.9,5.2,0.2,11.8,0.2,11.8c1.6-4.1,5-5,5-5C135.4,26,136.6,21,136.6,21z"/>
</g>
<path class="st0" d="M148.8,16.7c-0.7,2-0.9,3.4-1.1,3.6l0,0c-1.6,2.3-3.9,3.9-6.1,3.9s-4.3-1.4-5.9-3.4c-3.2-4.1-0.9-12-0.9-12
	c1.8,2,7.2,2,7.2,2c-2.3-0.5-2.7-2-2.9-2.3c0.5,1.1,5.9,1.8,5.9,1.8C150.8,11.3,148.8,16.7,148.8,16.7z"/>
<path class="st3" d="M138.4,0.7c0,0,7.7-2.9,11.6,3.9c4.1,7.5-1.1,15.4-2,16.1c0,0,0.2-1.4,1.1-3.6c0,0,1.8-5.4-3.9-6.3
	c0,0-5.4-0.7-5.9-1.8c0,0,0.5,2,2.9,2.3c0,0-5.7-0.2-7.2-2c0,0-2.5,7.9,1.1,12.2c0,0-5.9-4.8-5.2-12.2
	C130.7,8.8,130.2-1.4,138.4,0.7z"/>
<g>
	<polygon class="st4" points="76.8,144.9 54.8,110.7 54.8,122.3 69.3,144.9 	"/>
	<polygon class="st4" points="40.3,144.9 54.8,122.3 54.8,110.7 33.1,144.9 	"/>
</g>
<rect x="51.6" y="98" class="st3" width="6.3" height="54.8"/>
<path class="st2" d="M104.6,103.5H5.2c-2.9,0-5.2-2.3-5.2-5.2v-72C0,23.3,2.3,21,5.2,21h99.4c2.9,0,5.2,2.3,5.2,5.2v72
	C109.9,101.2,107.6,103.5,104.6,103.5z"/>
<g>
	<g>
		<rect x="33.3" y="62" class="st9" width="7.9" height="27.2"/>
		<rect x="50.5" y="43.5" class="st9" width="7.9" height="45.5"/>
		<rect x="67.7" y="70.9" class="st9" width="7.9" height="18.3"/>
		<rect x="84.9" y="52.3" class="st9" width="7.9" height="36.7"/>
		<rect x="16.1" y="52.3" class="st9" width="7.9" height="36.7"/>
	</g>
</g>
</svg>
