<?xml version="1.0" encoding="utf-8"?>
<!-- Generator: Adobe Illustrator 19.2.0, SVG Export Plug-In . SVG Version: 6.00 Build 0)  -->
<svg version="1.1" id="Layer_1" xmlns="http://www.w3.org/2000/svg" xmlns:xlink="http://www.w3.org/1999/xlink" x="0px" y="0px"
	 viewBox="0 0 234.5 172" style="enable-background:new 0 0 234.5 172;" xml:space="preserve">
<style type="text/css">
	.st0{fill:#FFFFFF;}
	.st1{fill:#038726;}
	.st2{fill:#3CBD0D;}
	.st3{fill:#45464F;}
	.st4{fill:#ACB3BA;}
	.st5{fill:#EF7F1A;}
</style>
<path class="st0" d="M0,33.3v136.8c0,1.1,0.9,1.9,1.9,1.9h230.6c1.1,0,1.9-0.9,1.9-1.9V33.3H0z"/>
<path class="st1" d="M234.5,35.2V12c0-6.6-5.4-12-12-12H12C5.4,0,0,5.4,0,12v23.2H234.5z"/>
<path class="st0" d="M139.1,26.1h-115c-4.7,0-8.5-3.8-8.5-8.5l0,0c0-4.7,3.8-8.5,8.5-8.5h115c4.7,0,8.5,3.8,8.5,8.5l0,0
	C147.6,22.3,143.8,26.1,139.1,26.1z"/>
<g>
	<circle class="st2" cx="210.1" cy="17.7" r="8.7"/>
	<circle class="st2" cx="185.2" cy="17.7" r="8.7"/>
</g>
<g>
	<path class="st3" d="M24.7,20.7H23l-2-5.9h1.7l1.2,3.6l1.2-3.6h1.6l1.2,3.6l1.2-3.6h1.7l-2,5.9h-1.7l-1.1-3.3L24.7,20.7z"/>
	<path class="st3" d="M34.7,20.7H33l-2-5.9h1.7l1.2,3.6l1.2-3.6h1.6l1.2,3.6l1.2-3.6h1.7l-2,5.9h-1.7l-1.1-3.3L34.7,20.7z"/>
	<path class="st3" d="M44.6,20.7h-1.7l-2-5.9h1.7l1.2,3.6l1.2-3.6h1.6l1.2,3.6l1.2-3.6h1.7l-2,5.9h-1.7l-1.1-3.3L44.6,20.7z"/>
</g>
<g>
	<path class="st4" d="M34.6,79.7h-6.2l-7.3-21.5h6.2l4.2,13l4.2-13h5.8l4.2,13l4.2-13h6.2l-7.3,21.6h-6.2L38.7,68L34.6,79.7z"/>
	<path class="st4" d="M70.8,79.7h-6.2l-7.3-21.5h6.2l4.2,13l4.2-13h5.8l4.2,13l4.2-13h6.2L85,79.7h-6.2L74.8,68L70.8,79.7z"/>
	<path class="st4" d="M107,79.7h-6.2l-7.3-21.5h6.2l4.2,13l4.2-13h5.8l4.2,13l4.2-13h6.2l-7.3,21.6H115L111.1,68L107,79.7z"/>
</g>
<polygon class="st5" points="197.7,148.5 210.1,136.1 189.8,115.7 208.4,102.1 150.9,89.3 163.7,146.8 177.3,128.1 "/>
</svg>
