<?xml version="1.0" encoding="utf-8"?>
<!-- Generator: Adobe Illustrator 19.2.0, SVG Export Plug-In . SVG Version: 6.00 Build 0)  -->
<svg version="1.1" id="Layer_1" xmlns="http://www.w3.org/2000/svg" xmlns:xlink="http://www.w3.org/1999/xlink" x="0px" y="0px"
	 viewBox="0 0 340.8 410.9" style="enable-background:new 0 0 340.8 410.9;" xml:space="preserve">
<style type="text/css">
	.st0{fill:#C6CBCB;}
	.st1{clip-path:url(#SVGID_2_);fill:#C6CBCB;}
	.st2{fill:#FFD05B;}
	.st3{fill:#D89932;}
	.st4{fill:#F2B643;}
	.st5{fill:#F3BE54;}
	.st6{fill:#FECC00;}
	.st7{fill:#0A6F8E;}
	.st8{fill:#0094DE;}
	.st9{fill:#D1D5D5;}
	.st10{fill:#3CBD0D;}
	.st11{fill:#038726;}
	.st12{clip-path:url(#SVGID_4_);fill:#E2E5E7;}
	.st13{clip-path:url(#SVGID_4_);fill:#038726;}
	.st14{clip-path:url(#SVGID_4_);fill:#3CBD0D;}
	.st15{fill:#9ED110;}
</style>
<g>
	<path class="st0" d="M74.2,324.8L5.3,346.7l1.5,4.9l68.8-21.9L74.2,324.8z M74.2,324.8"/>
	<path class="st0" d="M77.3,335L8.4,356.8l1.6,5.4l68.8-21.9L77.3,335z M77.3,335"/>
	<path class="st0" d="M70.9,314L2,335.8l1.8,5.8l68.8-21.9L70.9,314z M70.9,314"/>
	<g>
		<defs>
			<rect id="SVGID_1_" width="340.8" height="410.9"/>
		</defs>
		<clipPath id="SVGID_2_">
			<use xlink:href="#SVGID_1_"  style="overflow:visible;"/>
		</clipPath>
		<path class="st1" d="M50.7,298.2l-41,12c-4.6,1.3-8.1,4.6-9.3,8.4l61.5-18.8C59.1,297.7,54.9,297,50.7,298.2L50.7,298.2z
			 M50.7,298.2"/>
		<path class="st1" d="M65.6,304.4L0.4,325.1c-0.5,1.8-0.6,3.6-0.1,5.4l0.1,0.4l68.8-21.9C68.6,307.1,67.3,305.5,65.6,304.4
			L65.6,304.4z M65.6,304.4"/>
	</g>
	<path class="st0" d="M27.7,408.6c3,1.4,6.9,1.8,10.7,0.6L81.8,396c4.3-1.3,7.6-4.1,9.1-7.4L27.7,408.6z M27.7,408.6"/>
	<path class="st0" d="M80.5,345.6l-68.8,21.9l1.7,5.5l68.8-21.9L80.5,345.6z M80.5,345.6"/>
	<path class="st0" d="M86.9,366.7l-68.8,21.9l1.6,5.3l68.8-21.9L86.9,366.7z M86.9,366.7"/>
	<path class="st0" d="M91.5,381.8l-1.4-4.4l-68.8,21.9l1.1,3.6c0.1,0.4,0.3,0.8,0.5,1.2l68.7-21.8C91.6,382.1,91.6,382,91.5,381.8
		L91.5,381.8z M91.5,381.8"/>
	<path class="st0" d="M83.7,356l-68.8,21.9l1.6,5.3l68.9-21.9L83.7,356z M83.7,356"/>
	<path class="st2" d="M153.9,273.2l39,57.6c0,0-7.9,16.5-28.6,25.2c-20.6,8.7-32.7,11.1-41.1,11.9c-8.3,0.8-15.9,0.3-20,2.1
		c-4.1,1.8-13.7,5.3-13.7,5.3l-18.9-61.5c0,0,7.5-3,15-18.3c7.5-15.3,11.8-20.3,11.8-20.3s19.7-8.3,32.2-11.1
		c12.5-2.9,17.1-4.8,19.5-1C151.6,267,153.9,273.2,153.9,273.2L153.9,273.2z M153.9,273.2"/>
	<path class="st3" d="M89.4,375.9l-0.1-0.4l-19-61.8l0.4-0.1c0.1,0,7.4-3.2,14.8-18.1c7.5-15.2,11.7-20.2,11.8-20.4l0.1-0.1l0.1,0
		c0.2-0.1,19.9-8.3,32.2-11.2c1.9-0.4,3.7-0.9,5.3-1.2c5.3-1.3,8.9-2.1,11.3-1.8c1.6,0.2,2.7,1,3.5,2.3c2.3,3.7,4.5,9.5,4.7,10.1
		l39.1,57.8l-0.1,0.2c-0.1,0.2-8.2,16.8-28.8,25.4c-21.7,9.2-33.9,11.2-41.2,11.9c-2.9,0.3-5.9,0.4-8.4,0.5
		c-4.8,0.2-8.8,0.4-11.4,1.5c-4,1.7-13.6,5.3-13.7,5.3L89.4,375.9z M71.3,314.1l18.6,60.7c1.9-0.7,9.7-3.6,13.2-5.2
		c2.7-1.2,6.9-1.4,11.7-1.6c2.7-0.1,5.4-0.2,8.4-0.5c7.2-0.7,19.3-2.7,40.9-11.8c19-8,27.2-22.8,28.2-24.8l-38.9-57.4l0-0.1
		c0-0.1-2.3-6.2-4.6-10c-0.7-1.1-1.6-1.7-2.9-1.9c-2.2-0.3-5.7,0.5-10.9,1.8c-1.6,0.4-3.3,0.8-5.3,1.3c-11.8,2.7-30.5,10.4-32,11.1
		c-0.6,0.7-4.7,6-11.7,20.1C79.5,309.3,72.9,313.3,71.3,314.1L71.3,314.1z M71.3,314.1"/>
	<path class="st4" d="M192,323.7c0,0-1.3-7.2-7.9-5.8c-7.3,1.5-24.9,7.4-33.8,11.7c-7.8,3.8-9.1,5.8-8.1,11.4c0.9,5.6,7.3,7,10,6.2
		c2.6-0.8,1.8,0,35.7-11.2c0,0,6.3-2.7,5.3-7.2C192.2,324.3,192,323.7,192,323.7L192,323.7z M192,323.7"/>
	<path class="st3" d="M149.1,347.8c-3.1-0.5-6.7-2.4-7.4-6.6c-1-5.9,0.6-8.1,8.4-11.9c8.9-4.3,26.6-10.3,33.9-11.8
		c1-0.2,1.9-0.2,2.7-0.1c4.7,0.7,5.7,6,5.8,6.3l1.1,5.1c1,4.7-5.3,7.5-5.6,7.7c-27.2,9-32,10.3-34.3,10.9c-0.5,0.1-0.9,0.2-1.4,0.4
		C151.4,347.9,150.3,347.9,149.1,347.8L149.1,347.8z M186.6,318.2c-0.7-0.1-1.5-0.1-2.4,0.1c-7.2,1.5-24.8,7.4-33.7,11.7
		c-7.9,3.8-8.8,5.8-7.9,11c0.6,3.7,3.8,5.5,6.6,5.9c1,0.2,2.1,0.1,2.8-0.1c0.5-0.2,0.9-0.3,1.5-0.4c2.3-0.6,7-1.8,34.2-10.8
		c0,0,5.9-2.6,5-6.7l-1.1-5.1C191.6,323.7,190.6,318.8,186.6,318.2L186.6,318.2z M186.6,318.2"/>
	<path class="st4" d="M188.6,307.3c0,0-1.2-6.5-7.9-5.8c-6.8,0.6-28.9,8.7-36.3,13.1c-7.4,4.4-11.8,6.3-10.8,11.9
		c0.9,5.6,7.4,7,10,6.2c2.6-0.8,40.9-13.1,40.9-13.1s6.2-2.7,5.3-7.2C188.7,308,188.6,307.3,188.6,307.3L188.6,307.3z M188.6,307.3"
		/>
	<path class="st3" d="M140.4,333.3c-3.1-0.5-6.7-2.4-7.4-6.6c-0.9-5.4,2.9-7.6,9.1-11.2c0.6-0.4,1.3-0.8,2-1.2
		c7.7-4.5,29.9-12.5,36.5-13.2c0.8-0.1,1.5-0.1,2.2,0c5.1,0.8,6.2,6.1,6.2,6.1l1.1,5.1c1,4.7-5.3,7.5-5.6,7.7
		c-0.4,0.1-38.3,12.3-40.9,13.1C142.7,333.4,141.6,333.4,140.4,333.3L140.4,333.3z M182.7,302c-0.6-0.1-1.3-0.1-2,0
		c-6.6,0.6-28.5,8.5-36.1,13c-0.7,0.4-1.4,0.8-2,1.2c-6.1,3.5-9.4,5.5-8.6,10.3c0.6,3.7,3.9,5.5,6.7,5.9c1.1,0.2,2.1,0.1,2.8-0.1
		c2.6-0.8,40.5-13,40.9-13.1c0,0,5.9-2.6,5-6.7l-1.1-5.1C188.1,307.2,187.2,302.7,182.7,302L182.7,302z M182.7,302"/>
	<path class="st4" d="M183.4,291.1c0,0-1.3-6.4-8-5.7c-6.8,0.7-24.3,8.3-31.6,12.8c-7.4,4.5-14.6,8.4-13.6,14.1
		c1,5.6,5.8,5.6,8.4,4.8c2.6-0.9,40.7-13.6,40.7-13.6s6.2-2.8,5.2-7.2C183.6,291.7,183.4,291.1,183.4,291.1L183.4,291.1z
		 M183.4,291.1"/>
	<path class="st3" d="M134.9,317.7c-2-0.3-4.4-1.5-5.1-5.5c-1-5.6,5.6-9.6,12.6-13.8l1.2-0.7c7.3-4.4,24.8-12.1,31.8-12.8
		c0.8-0.1,1.6-0.1,2.3,0c5.1,0.7,6.1,6,6.2,6l1.1,5c1.1,4.7-5.2,7.6-5.5,7.7c-0.4,0.1-38.2,12.8-40.8,13.6
		C138,317.6,136.6,318,134.9,317.7L134.9,317.7z M177.6,285.8c-0.7-0.1-1.4-0.1-2.1,0c-6.8,0.7-24.4,8.4-31.5,12.7l-1.2,0.7
		c-6.7,4-13.1,7.9-12.2,12.9c0.6,3.5,2.7,4.5,4.4,4.8c1.1,0.2,2.3,0,3.4-0.3c2.6-0.8,40.3-13.5,40.7-13.6c0,0,5.8-2.7,4.9-6.7
		l-1.1-5.1C183,291,182,286.5,177.6,285.8L177.6,285.8z M177.6,285.8"/>
	<path class="st4" d="M177.3,272.4c0,0-1.9-6.3-8.5-4.9c-6.7,1.4-24,9.7-30.9,14.8c-6.9,5.1-13,10.7-11.5,16.2
		c1.5,5.5,6.3,5,8.8,3.9c2.5-1.1,39.2-17.4,39.2-17.4s5.9-3.4,4.5-7.7C177.6,273,177.3,272.4,177.3,272.4L177.3,272.4z M177.3,272.4
		"/>
	<path class="st3" d="M131,303.5c-1.7-0.3-4-1.3-5-4.9c-1.6-5.8,4.6-11.5,11.6-16.7c6.9-5.2,24.4-13.5,31.1-14.9
		c1.1-0.2,2.1-0.3,3-0.1c4.6,0.7,5.9,5.2,6,5.3l1.6,4.9c1.5,4.6-4.4,8.1-4.7,8.2c-0.4,0.2-36.8,16.4-39.3,17.5
		C134.7,303.2,133,303.8,131,303.5L131,303.5z M171.7,267.8c-0.8-0.1-1.8-0.1-2.7,0.1c-6.6,1.4-23.9,9.6-30.8,14.8
		c-6.4,4.8-12.8,10.4-11.3,15.8c0.7,2.5,2.1,3.9,4.3,4.2c1.7,0.3,3.3-0.3,3.9-0.6c2.5-1.1,38.9-17.3,39.2-17.4c0,0,5.6-3.2,4.3-7.2
		l-1.6-4.9C176.9,272.3,175.6,268.4,171.7,267.8L171.7,267.8z M171.7,267.8"/>
	<path class="st4" d="M73.4,312.2l-2.6,1.7C70.8,313.8,71.8,313.4,73.4,312.2L73.4,312.2z M73.4,312.2"/>
	<path class="st2" d="M161.6,287.6c-3.5-4.9-7.4-13.9-7.4-13.9s-2.7-6.7-5-10.6c-2.4-3.9-7.1-1.9-19.5,1
		c-12.5,2.9-32.2,11.1-32.2,11.1s-4.3,5-11.8,20.3c-4.8,9.7-9.5,14.5-12.4,16.7l37.2-23.5c21.2,6.9,27.7-4.3,27.7-4.3
		c1.9,6.7,5.7,12.3,10.5,15.4c4.8,3.1,15.1,3.5,17.6,1.3C169,298.8,165.1,292.5,161.6,287.6L161.6,287.6z M161.6,287.6"/>
	<path class="st3" d="M70.9,314.3l-0.3-0.8c0.1,0,7.4-3.2,14.8-18.1c7.5-15.2,11.7-20.2,11.8-20.4l0.1-0.1l0.1,0
		c0.2-0.1,19.9-8.3,32.2-11.2c1.9-0.4,3.7-0.9,5.3-1.3c8.6-2.1,12.6-3,14.7,0.5c2.4,3.9,5,10.6,5.1,10.7c0,0.1,3.9,9,7.3,13.8
		c3.7,5.2,7.6,11.6,4.8,14.1c-2.9,2.6-13.4,1.9-18.2-1.2c-4.7-3-8.4-8.4-10.4-14.8c-2,2.4-9.6,9.6-27.7,3.8l0.3-0.8
		c20.7,6.7,27.1-4,27.2-4.1l0.5-0.9l0.3,1c1.9,6.6,5.6,12.1,10.3,15.2c4.7,3,14.8,3.4,17.1,1.3c2.6-2.3-3.1-10.3-4.9-12.9
		c-3.4-4.9-7.4-13.9-7.4-14c0-0.1-2.7-6.7-5-10.5c-1.8-3-5.3-2.2-13.8-0.1c-1.6,0.4-3.3,0.8-5.3,1.3c-11.8,2.7-30.5,10.4-32,11.1
		c-0.6,0.7-4.7,6-11.7,20.1C78.6,311,71.2,314.1,70.9,314.3L70.9,314.3z M70.9,314.3"/>
	<path class="st5" d="M170.3,286.4c2.6-1.2,4.1-1.8,4.1-1.8s5.5-3.1,4.2-7.4c-1.1-4-1.9-5.4-1.9-5.4s-2.1-5.3-7.8-4
		c-1.2,0.3-2.8,0.8-4.6,1.5c0,0,2.2,0.5,3.4,2.4c1.3,1.9,3.9,8.7,3.7,11.1C171.1,285.2,170.3,286.4,170.3,286.4L170.3,286.4z
		 M170.3,286.4"/>
	<path class="st2" d="M175.9,304.1c2.6-0.9,4.1-1.5,4.1-1.5s5.3-2.6,4.3-7.1c-1-4.5-2-6.1-2-6.1s-1.6-4.9-7.4-3.8
		c-1.2,0.2-2.6,0.7-4.7,1.7c0,0,2.4,0.2,3.6,2.2c1.2,2,3.6,8.8,3.3,11.2C176.8,303.2,175.9,304.1,175.9,304.1L175.9,304.1z
		 M175.9,304.1"/>
	<path class="st2" d="M181.4,320.1c3-0.7,4.5-1.9,4.5-1.9s4.2-1.7,3.2-6.7c-0.9-4.3-1.4-5.6-1.4-5.6s-1.9-4-5.3-4
		c-1.7,1.5-3.5,2.1-6.2,2.9c0,0,2.3,0.5,3.5,2.5c1.2,2,3.2,7.6,2.8,9.9C182.2,319.7,181.4,320.1,181.4,320.1L181.4,320.1z
		 M181.4,320.1"/>
	<path class="st2" d="M186.3,336c3.3-0.9,7.4-3.7,6.4-8c-1-4.2-1.6-5.8-1.6-5.8s-0.6-2.6-3.7-3.9c-1.7,1.4-3.6,2-6.1,2.8
		c0,0,2.2,0.6,3.4,2.5c1.2,2,3,7.4,2.7,9.7C186.9,335.6,186.3,336,186.3,336L186.3,336z M186.3,336"/>
	<path class="st6" d="M29.4,189l-16.5,4.2c0,0-5.1,16.5,5.3,27.3l15.7-3L29.4,189z M29.4,189"/>
	<path class="st3" d="M32.7,210.2l1.1,7.3l-15.7,3c-10.3-10.8-5.3-27.3-5.3-27.3s-0.1,15,6.1,19.5L32.7,210.2z M32.7,210.2"/>
	<path class="st7" d="M156.5,236.6l2.3,11L103,257.8l-2.4-9.6L156.5,236.6z M156.5,236.6"/>
	<path class="st8" d="M155.8,253.9c0,0,11.1,54.4,34.1,98.9l-44.1,15.8c0,0-22.2-45-36.6-105.3L155.8,253.9z M155.8,253.9"/>
	<path class="st7" d="M191.9,351.3l-48.7,17.6l3.5,10.9L196,361L191.9,351.3z M191.9,351.3"/>
	<path class="st9" d="M278.5,1.1c0,0-66.3,87.6-105.1,109.8c-38.9,22.1-74,19-74,19L119,246c0,0,35.4-12.7,61.1-9.9
		c25.8,2.8,61.1,11.9,153.7,73.2L278.5,1.1z M278.5,1.1"/>
	<path class="st10" d="M99.4,129.8c0,0-79.4-1.7-71.8,68C35.2,267.5,119,246,119,246L99.4,129.8z M99.4,129.8"/>
	<path class="st0" d="M113.5,212.7L119,246c0,0,35.4-12.7,61.1-9.9c25.8,2.8,61.1,11.9,153.7,73.2l-7.9-43.7l-55.6-31.2
		c0,0-48.4-24.9-82-29.3C154.8,200.6,113.5,212.7,113.5,212.7L113.5,212.7z M113.5,212.7"/>
	<path class="st11" d="M38.3,154.2c-8,9.9-12.8,23.9-10.7,43.6C35.2,267.5,119,246,119,246l-5.5-33.2c0,0-14.7,3.1-37.1-3.9
		C41,197.8,38.3,154.2,38.3,154.2L38.3,154.2z M38.3,154.2"/>
	<g>
		<defs>
			<rect id="SVGID_3_" width="340.8" height="410.9"/>
		</defs>
		<clipPath id="SVGID_4_">
			<use xlink:href="#SVGID_3_"  style="overflow:visible;"/>
		</clipPath>
		<path class="st12" d="M100.8,138.5l-1.4-8.6c0,0,35.1,3.2,74-19C212.2,88.8,278.5,1.1,278.5,1.1l2.4,13.6c0,0-40.4,49-50.7,61.8
			c-11.5,14.2-32.1,35.8-59.4,48.5C160.3,129.9,133.5,138.2,100.8,138.5L100.8,138.5z M100.8,138.5"/>
		<path class="st13" d="M326.6,151.4c14.8,85.3,18.1,155.9,7.4,157.8c-10.7,1.9-31.3-65.8-46.1-151.1
			C273.1,72.9,269.8,2.2,280.5,0.4C291.2-1.5,311.9,66.1,326.6,151.4L326.6,151.4z M326.6,151.4"/>
		<path class="st14" d="M338.6,242.6c3.2,39.3,1.8,65.5-4.6,66.6c-10.7,1.9-31.3-65.8-46.1-151.1C273.1,72.9,269.8,2.2,280.5,0.4
			c4.4-0.8,10.4,10,17,28.9c0,0-7.3-14-13.1-11.9c-5.8,2.1,5.9,112.1,12.6,141.4c6.6,29.3,24,127.9,33.4,130.8
			C339.8,292.4,338.6,242.6,338.6,242.6L338.6,242.6z M338.6,242.6"/>
	</g>
	<path class="st6" d="M304.8,197.2c0,0,35.2-10.7,28.3-45c-6.9-34.3-42.3-31.3-42.3-31.3S296.2,158.6,304.8,197.2L304.8,197.2z
		 M304.8,197.2"/>
	<path class="st15" d="M100.9,138.4l-1.5-8.6c0,0-46.5-1-64.9,29.8C34.5,159.6,51.7,133.9,100.9,138.4L100.9,138.4z M100.9,138.4"/>
	<path class="st3" d="M315.6,192c-5.8,3.7-10.8,5.2-10.8,5.2c-8.6-38.6-14-76.2-14-76.2s1.6-0.1,4.1,0c0,0,4.3,40.1,9.7,54.1
		C310.1,188.9,315.6,192,315.6,192L315.6,192z M315.6,192"/>
</g>
</svg>
