<?xml version="1.0" encoding="utf-8"?>
<!-- Generator: Adobe Illustrator 19.2.0, SVG Export Plug-In . SVG Version: 6.00 Build 0)  -->
<svg version="1.1" id="Режим_изоляции"
	 xmlns="http://www.w3.org/2000/svg" xmlns:xlink="http://www.w3.org/1999/xlink" x="0px" y="0px" viewBox="0 0 449 449"
	 style="enable-background:new 0 0 449 449;" xml:space="preserve">
<style type="text/css">
	.st0{fill:#FFFFFF;}
	.st1{fill:none;}
	.st2{fill:#FDCF9D;}
	.st3{fill:#2F4962;}
	.st4{fill:#103754;}
	.st5{display:none;}
	.st6{display:inline;fill:#1F3656;}
	.st7{display:inline;fill:#40BFC6;}
	.st8{display:inline;fill:#FFFFFF;}
	.st9{fill:#EF7F1A;}
	.st10{display:none;fill-rule:evenodd;clip-rule:evenodd;fill:#FFFFFF;}
	.st11{display:inline;fill:#2C5871;}
	.st12{display:inline;fill:#15B0BF;}
	.st13{display:inline;}
	.st14{fill:#0E303F;}
	.st15{fill:#2C5871;}
	.st16{display:inline;fill:#1C75BC;}
	.st17{fill:#15B0BF;}
	.st18{display:inline;fill:#D1ECFB;}
	.st19{fill:#FEC00F;}
	.st20{fill:#F99B1C;}
	.st21{fill:#A6DAE9;}
	.st22{fill:#2C5066;}
	.st23{display:none;fill:#15B0BF;}
</style>
<g id="Слой_2">
	<circle class="st0" cx="224.5" cy="224.5" r="224.5"/>
</g>
<g id="Слой_2__x28_копия_x29_">
	<g>
		<path class="st1" d="M304.4,375.1l0.8-1.3l-5.9-3.5l2.7-4.6l-11.1-6.5c-1.5,1.5-3.3,2.6-5.3,3.2l0.3,0.2l-20.9,5.4l-9.7-5.7
			c0,0,0,0,0,0l-7.3-4.3c0-0.1,0.1-0.2,0.1-0.3l1.1-2c1.9-3.2,6.1-4.3,9.3-2.4l7.9,4.7l2.9-0.8l-9.9-5.8c-0.2-0.1-0.3-0.2-0.5-0.3
			L233,335.8c-2.2-1.3-2.9-4.1-1.6-6.3c1.3-2.2,4.1-2.9,6.3-1.6l16.4,9.6c0.2-0.7,0.5-1.4,0.9-2.1l-6.4-3.7
			c-2.2-1.3-2.9-4.1-1.6-6.3c1.3-2.2,4.1-2.9,6.3-1.6l6.3,3.7l1.1-1.9l-6.3-3.7c-2.2-1.3-2.9-4.1-1.6-6.3c1.3-2.2,4.1-2.9,6.3-1.6
			l6.4,3.7c0.4-0.6,0.8-1.1,1.3-1.6l-3.3-2c-2.2-1.3-2.9-4.1-1.6-6.3c1.3-2.2,4.1-2.9,6.3-1.6l14.8,8.7l15.2,9c3.4,2,5.4,5.4,5.8,9
			l12.9,7.6l2.7-4.6l5.9,3.5l0.8-1.3l64.4,37.5c36.3-39.9,58.4-92.9,58.4-151.1C449,100.5,348.5,0,224.5,0S0,100.5,0,224.5
			S100.5,449,224.5,449c49.5,0,95.3-16.1,132.5-43.2L304.4,375.1z"/>
		<path class="st2" d="M258.8,359.9l7.6-2l-7.9-4.7c-3.2-1.9-7.4-0.8-9.3,2.4l-1.1,2c0,0.1-0.1,0.2-0.1,0.3l7.3,4.3
			C256.1,361.1,257.3,360.3,258.8,359.9z"/>
		<path class="st2" d="M276.1,361.2l-6.9-4l-2.9,0.8l-7.6,2c-1.5,0.4-2.7,1.2-3.6,2.3c0,0,0,0,0,0l9.7,5.7l20.9-5.4l-0.3-0.2
			C282.5,363.2,279.1,362.9,276.1,361.2z"/>
		<path class="st2" d="M259.5,327.5l-6.3-3.7c-2.2-1.3-5-0.6-6.3,1.6c-1.3,2.2-0.6,5,1.6,6.3l6.4,3.7c0.1-0.2,0.1-0.3,0.2-0.5
			L259.5,327.5z"/>
		<path class="st2" d="M274.8,340.4l2.9-4.9l-17-10l-1.1,1.9l-4.4,7.5c-0.1,0.1-0.2,0.3-0.2,0.5c-0.4,0.7-0.6,1.4-0.9,2.1l10.8,6.4
			c2.2,1.3,2.9,4.1,1.6,6.3c-1.3,2.2-4.1,2.9-6.3,1.6l-1.3-0.7c0.2,0.1,0.3,0.2,0.5,0.3l9.9,5.8l6.9,4c2.9,1.7,6.3,2,9.4,1.2
			c2-0.6,3.8-1.6,5.3-3.2l-13.1-7.7C273.8,349.2,272.5,344.3,274.8,340.4z"/>
		<path class="st2" d="M292.5,326.2l11.4,6.7c-0.4-3.6-2.4-7-5.8-9l-15.2-9l3.9,2.3c2.2,1.3,2.9,4.1,1.6,6.3
			c-1.3,2.2-4.1,2.9-6.3,1.6l-15.4-9c-0.5,0.5-0.9,1-1.3,1.6l17.1,10C285,324.9,289.2,324.2,292.5,326.2z"/>
		<path class="st2" d="M288.3,323.5c1.3-2.2,0.6-5-1.6-6.3l-3.9-2.3l-14.8-8.7c-2.2-1.3-5-0.6-6.3,1.6c-1.3,2.2-0.6,5,1.6,6.3l3.3,2
			l15.4,9C284.2,326.4,287.1,325.6,288.3,323.5z"/>
		<path class="st2" d="M281.4,329.1c0.3-0.5,0.6-0.9,1-1.3l-17.1-10l-6.4-3.7c-2.2-1.3-5-0.6-6.3,1.6c-1.3,2.2-0.6,5,1.6,6.3
			l6.3,3.7l17,10L281.4,329.1z"/>
		<path class="st2" d="M266.5,350.2c1.3-2.2,0.6-5-1.6-6.3l-10.8-6.4l-16.4-9.6c-2.2-1.3-5-0.6-6.3,1.6c-1.3,2.2-0.5,5,1.6,6.3
			l25.9,15.2l1.3,0.7C262.4,353.1,265.2,352.4,266.5,350.2z"/>
		<path class="st2" d="M303.9,332.8l-11.4-6.7c-3.4-2-7.6-1.2-10.1,1.5c-0.4,0.4-0.7,0.9-1,1.3l-3.8,6.5l-2.9,4.9
			c-2.3,3.9-1,8.8,2.9,11.1l13.1,7.7l11.1,6.5l14.9-25.3L303.9,332.8z"/>
		<polygon class="st0" points="325.4,339.3 319.4,335.8 316.8,340.4 301.9,365.7 299.2,370.3 305.1,373.8 		"/>
		<path class="st3" d="M325.4,339.3l-20.3,34.5l-0.8,1.3l52.6,30.7c12.2-8.9,23.5-19,33.6-30.2L326.1,338L325.4,339.3z M328.3,347
			c0.6-1,1.8-1.3,2.8-0.7c1,0.6,1.3,1.8,0.7,2.8c-0.6,1-1.8,1.3-2.8,0.7C328,349.2,327.7,348,328.3,347z"/>
		<ellipse transform="matrix(0.5065 -0.8622 0.8622 0.5065 -137.2147 456.3457)" class="st4" cx="330.1" cy="348" rx="2" ry="2"/>
	</g>
</g>
<g id="green_yellow">
	<g class="st5">
		<path class="st6" d="M253.1,393.2c0,0.9-0.8,1.7-1.7,1.7H217c-0.9,0-1.7-0.8-1.7-1.7v-65c0-0.9,0.8-1.7,1.7-1.7h34.3
			c0.9,0,1.7,0.8,1.7,1.7V393.2z"/>
		<rect x="218" y="333.7" class="st7" width="32.4" height="53.7"/>
		<circle class="st8" cx="234.2" cy="390.9" r="2.2"/>
		<circle class="st8" cx="234.2" cy="330.1" r="1"/>
	</g>
	<path class="st9" d="M351.5,139.5c-0.2,0-0.3,0-0.5,0c-3.7-29.3-28.7-52-59.1-52c-5.8,0-11.4,0.8-16.8,2.4
		C263,76.6,245.4,68.3,226,68.3c-22.7,0-42.7,11.3-54.8,28.5c-3.9-1.1-8-1.7-12.2-1.7c-20.4,0-37.5,13.7-42.8,32.4
		c-35.3,6-62.2,36.8-62.2,73.8c0,40.5,32.1,73.4,72.2,74.9c10.6,13.3,26.9,21.9,45.2,21.9c12.4,0,23.8-3.9,33.2-10.5
		c3.6,3,7.9,5.1,12.6,6.2c2.3,7,6.6,16.9,13.5,22.7c0.7-10.4,3.1-18.6,5.6-24.5c4.9-2.2,9.2-5.6,12.3-9.8c10.9,5.3,23.1,8.2,36,8.2
		c23.5,0,44.8-9.8,59.8-25.6c2.3,0.3,4.7,0.4,7.2,0.4c34.7,0,62.9-28.1,62.9-62.9C414.4,167.6,386.2,139.5,351.5,139.5z"/>
	<path class="st10" d="M383.1,153.3c-10.6,0-21.3,0-32,0c-1.4,0-1.9-0.4-2.2-1.7c-0.6-2.2-1.1-4.4-1.7-6.6c-0.3-1.2-0.6-1.5-1.9-1.5
		c-2.7,0-5.5,0-8.2,0c-1.5,0-1.2,3.4,0.3,3.4c2.2,0,4.5,0,6.7,0c1.3,0,1.4,0.2,1.7,1.5c2.4,9.6,4.4,18.1,7,27.7
		c0.4,1.6,0.2,2-0.7,2.9c-0.9,0.9-1.5,2.2-1.5,3.6c0,2.8,2.2,5,5,5c1.8,0,3.4-1,4.3-2.5c0.6-1,1.1-1.4,2.1-1.4c2.8,0,5.5,0,8.3,0
		c1.2,0,1.6,0.4,2.2,1.3c0.9,1.5,2.5,2.5,4.3,2.5c2.8,0,5-2.2,5-5c0-2.7-2.2-5-5-5c-1.7,0-3.2,0.8-4.1,2.1c-0.9,1.3-1.5,1.7-2.3,1.7
		c-2.8,0-5.5,0-8.3,0c-1.1,0-1.5-0.4-2.3-1.7c-0.6-1-1.6-1.7-2.7-2c-1.2-0.4-1.7-0.6-1.9-1.7c-0.1-0.5-0.3-1-0.4-1.5
		c-0.3-1.2-0.1-1.5,1.3-1.5c7.2,0,14.4,0,21.6,0c1.9,0,2.5-0.3,2.8-1.4c0.5-1.7,0.3-1.9-1.3-1.9h-23.1c-0.9,0-1-1.4,0-1.4
		c7.9,0,15.8,0,23.6,0c1.5,0,1.6-0.1,1.9-1.2c0.3-1.2,0.1-1.3-1.3-1.3h-25.3c-0.9,0-1-1.4,0-1.4c8.6,0,17.1,0,25.7,0
		c1.4,0,1.7-0.1,1.9-1.2c0.3-1.1,0.1-1.2-1.4-1.2h-27.1c-1,0-1-1.5,0-1.5c9.2,0,18.4,0,27.6,0c1.4,0,1.6-0.1,1.9-1.3
		c0.3-1,0.2-1.3-1.4-1.3h-29.2c-1,0-1-1.5,0-1.5c9.9,0,19.7,0,29.6,0c1.5,0,1.8-0.1,2-1.4C385,153.6,384.6,153.3,383.1,153.3
		L383.1,153.3z M376.8,180.3c-1.2,0-2.2,1-2.2,2.2c0,1.2,1,2.2,2.2,2.2c1.2,0,2.2-1,2.2-2.2C379,181.3,378.1,180.3,376.8,180.3
		L376.8,180.3z M355.6,180.3c-1.2,0-2.2,1-2.2,2.2c0,1.2,1,2.2,2.2,2.2c1.2,0,2.2-1,2.2-2.2C357.8,181.3,356.8,180.3,355.6,180.3
		L355.6,180.3z"/>
	<g class="st5">
		<path class="st11" d="M341.9,190.9c0,1-0.8,1.8-1.7,1.8h-3.3v6.9l-8.2-6.9h-21.3c-1,0-1.7-0.8-1.7-1.8V170c0-1,0.8-1.8,1.7-1.8
			h32.8c0.9,0,1.7,0.8,1.7,1.8V190.9z"/>
		<path class="st8" d="M291.2,184.3c0,1,0.8,1.8,1.7,1.8h3.3v6.9l8.2-6.9h21.3c1,0,1.7-0.8,1.7-1.8v-20.9c0-1-0.8-1.8-1.7-1.8h-32.8
			c-1,0-1.7,0.8-1.7,1.8V184.3z"/>
		<rect x="296.6" y="168.3" class="st12" width="25.4" height="1.6"/>
		<rect x="296.6" y="173.3" class="st12" width="25.4" height="1.6"/>
		<rect x="296.6" y="178.3" class="st12" width="19.7" height="1.6"/>
	</g>
	<g class="st5">
		<g class="st13">
			<rect x="122.1" y="159.1" class="st14" width="6.5" height="7"/>
			<g>
				<path class="st15" d="M147.4,145c-0.7,0.8-1.4,1.6-2.2,2.4c-11,11-28.8,11-39.8,0c-11-11-11-28.8,0-39.8
					c0.8-0.8,1.6-1.5,2.4-2.2l-2.8-2.8c-0.8,0.7-1.6,1.4-2.4,2.2c-12.5,12.5-12.5,32.9,0,45.4c12.5,12.5,32.9,12.5,45.4,0
					c0.8-0.8,1.5-1.6,2.2-2.4L147.4,145z"/>
			</g>
			
				<rect x="104.9" y="100.3" transform="matrix(0.7073 -0.7069 0.7069 0.7073 -43.5453 106.0255)" class="st14" width="2.7" height="10.6"/>
			<circle class="st14" cx="102.3" cy="101.8" r="2.5"/>
			<path class="st15" d="M141.3,170.5c-0.1-2.5-2.1-4.4-4.6-4.4h-22.4c-2.5,0-4.5,2-4.6,4.4H141.3z"/>
			
				<rect x="145.8" y="141.3" transform="matrix(0.7078 -0.7064 0.7064 0.7078 -60.5631 146.7716)" class="st14" width="2.7" height="10.6"/>
			<circle class="st14" cx="151.1" cy="150.4" r="2.5"/>
		</g>
		<path class="st16" d="M108.4,110.4c-9.4,9.4-9.4,24.7,0,34.1c9.4,9.4,24.7,9.4,34.1,0c9.4-9.4,9.4-24.7,0-34.1
			C133.1,101,117.8,101,108.4,110.4z"/>
		<g class="st13">
			<g>
				<path class="st17" d="M147,116.8c0,0,0,0.1,0,0.2c0,0,0.1,0.2,0.1,0.2c0,0,0.4,0.8,0.8,1.8c0.4,0.9,1,3.5,1,3.6
					c0,0.1-0.1,0.5-0.2,0.7c-0.1,0.2-0.4,0.7-0.5,0.7c-0.1,0-0.5,0-0.7-0.3c0,0,0,0-0.3-0.3c-0.2-0.1-0.2-0.1-0.2-0.1
					c-0.2,0-0.5-0.2-0.7-0.4c-0.2-0.2-0.7-0.7-0.6-0.8c0.1-0.1,0-0.7-0.2-1.1c0,0,0,0,0-0.3c0-0.2,0-0.2,0-0.2c0.2,0,0.2,0,0.1-0.1
					c-0.1-0.1-0.1-0.4,0-0.6c0-0.1,0.3-0.3,0.3-0.5c-0.1-0.2-0.2-0.7-0.2-0.8c0.1-0.1,0.2-0.6,0.1-0.7c-0.1-0.1,0.1-0.5,0.3-0.7
					C146.3,116.9,147,116.8,147,116.8z"/>
			</g>
			<g>
				<path class="st17" d="M102.3,133.7c-0.5-2.2-0.8-4-0.8-4c0.1,0,0.2-0.2,0.1-0.3c0-0.2,0.4-0.5,0.4-0.4c0.1,0.1,0.2-0.1,0.1-0.3
					c-0.1-0.2-0.5-0.4-0.6-0.4c0-0.1-0.1-0.3,0-0.3c0.1,0,0.5-0.2,0.7-0.2c0.2,0.1,0.7,0.1,0.7,0.3c0,0.1,0.3,0.1,0.3,0
					c0-0.1-0.2-0.5-0.3-0.4c-0.1,0-0.5-0.1-0.8-0.4c-0.3-0.3-0.4-1.1-0.2-1.1c0.1,0,0.5,0,0.5-0.2c0.1-0.2,0.5-0.1,0.6-0.2
					c0.1-0.1,0.5-0.4,0.6-0.5c0.1,0,0.4,0.1,0.5,0c0.1-0.1,0.4-0.3,0.6-0.3c0.1,0,0.5,0.2,0.4,0.3c0,0.1,0.2,0.3,0.3,0.2
					c0.1,0,0.5-0.2,0.6-0.1c0.1,0.1,0.3,0,0.3,0.1c0,0.1,0.3,0.4,0.2,0.5c0,0.1,0,0.3-0.1,0.3c-0.1,0-0.4,0.2-0.3,0.2
					c0.1,0,0.4,0.3,0.5,0.5c0.1,0.2,0.3,0.5,0,0.6c-0.3,0-1.2,0.3-1.3,0.5c-0.1,0.1-0.3-0.3-0.1-0.8c0,0,0,0-0.4-0.5
					c-0.3-0.3-0.3-0.3-0.3-0.3c-0.2,0-0.6,0.1-0.7,0.2c-0.2,0-0.3,0.4-0.4,0.4c-0.1,0-0.4,0.3-0.3,0.3c0.1,0,0.4,0.1,0.5,0.2
					c0.1,0.1,0.4,0.6,0.3,0.8c-0.1,0.2-0.4,0.8-0.3,0.8c0.1,0,0.2,0.3,0.2,0.5c0,0.2,0.1,0.8,0.1,1c0,0.2,0,0.7,0.1,0.7
					c0.1,0.1,0.1,0.2,0.2,0.1c0.1,0,0.6,0.3,0.8,0.3c0.2-0.1,0.7-0.1,0.8-0.2c0-0.1,0.3-0.1,0.2-0.2c0-0.1,0.4,0,0.6,0.1
					c0.2,0.1,0.5,0.2,0.4,0c-0.2-0.2-0.3-0.7-0.3-0.6c0,0.1-0.2-0.1-0.2-0.1c0.1-0.1,0-0.5-0.2-0.7c-0.2-0.3-1.1-1.1-1.1-1.2
					c0-0.1,0.3-0.2,0.4-0.2c0.1,0,0.3-0.2,0.4-0.2c0.2,0,0.5-0.3,0.6-0.2c0.1,0.1,0.5,0.4,0.6,0.3c0.1-0.1,0.3-0.3,0.2-0.3
					c-0.1-0.1,0-0.2,0.2-0.1c0.2,0.1,0.8,0.1,0.8,0.2c0.1,0.1,0.2,0.2,0.4,0.2c0.2,0,0.6,0.3,0.6,0.2c0-0.1,0.4,0,0.5,0.1
					c0.1,0.1,0.7,0.7,0.9,0.8c0.1,0.1,0.6,0,0.6,0.1c0.1,0.1,0.2,0.3,0.1,0.4c-0.1,0.1-0.2,0.3-0.3,0.3c-0.1,0-0.2-0.1-0.3,0
					c0,0.1-0.4,0.1-0.4-0.1c-0.1-0.3-0.3-0.8-0.4-0.5c0,0.3-0.5,0.6-0.4,0.6c0.1,0,0.2,0.3,0.1,0.4c-0.1,0.1,0.1,0.4,0.3,0.4
					c0.1,0,0.5,0.1,0.4,0.3c0,0.2-0.2,0.6-0.1,0.6c0-0.1-0.3-0.1-0.4,0.1c-0.1,0.2-0.1,0.8,0,0.8c0.1,0,0.3,0.4,0.2,0.5
					c-0.1,0.2-0.2,0.7-0.1,0.9c0,0.2,0.5,0.6,0.5,0.7c0,0.1-0.1,0.3-0.1,0.3c0.1,0,0.2,0.5,0.1,0.8c-0.1,0.3,0.3,1.1,0.4,1.1
					c0.1,0,0.4,0.2,0.5,0.3c0.1,0.1,0.4,0.5,0.2,0.6c-0.2,0.1-0.8-0.3-1-0.2c-0.2,0.1-0.6,0.4-0.6,0.5c0,0,0,0.2-0.2,0.2
					c-0.2,0-0.6,0.5-0.6,0.7c0,0.1,0.1,1,0.5,1.5c0.4,0.6,1.4,0.1,1.3-0.1c-0.1-0.1-0.1-0.6,0-0.6c0.1-0.1,0.5-0.3,0.6-0.1
					c0.1,0.2,0.6,0.6,0.8,0.4c0.2-0.1,0.8,0.1,0.9,0.3c0.2,0.2,0.8,0.5,0.8,0.4c0-0.1,0.2-0.5,0.3-0.5c0.1,0,0.4,0,0.4-0.2
					c0-0.2-0.1-0.8-0.1-0.9c0-0.1,0.1-0.3,0.2-0.3c0.1,0,0.3-0.1,0.3-0.2c-0.1-0.1,0.3-0.3,0.4-0.3c0.2,0,0.6,0.1,0.6,0
					c0-0.1,0.2-0.2,0.4-0.3c0.2-0.1,0.9-0.2,1.1-0.1c0.2,0.1,0.9,0,1.3,0c0.4-0.1,0.9,0.3,1,0.3c0.1,0,0.4-0.2,0.6-0.3
					c0.2-0.1,0.6-0.1,0.7-0.2c0.1-0.1,0.4-0.3,0.6-0.4c0.2-0.1,0.6-0.1,0.6-0.2c0-0.1,0.4-0.1,0.7,0.1c0,0,0,0,0.2,0.3
					c0.2,0.2,0.2,0.2,0.2,0.2c0.1,0.2,0.2,0.4,0.3,0.4c0.1,0.1,0.1,0.5,0.1,0.7c0,0.1,0.2,0.5,0.2,0.5c0,0,0,0.2,0,0.3
					c0.1,0.1,0.3,0.5,0.5,0.8c0.2,0.3,0.7,1,0.7,1.1c0,0.1-0.2,0.6-0.2,0.8c0,0.1,0.1,0.5,0.2,0.6c0.1,0.1,0.3,0.5,0.3,0.6
					c0,0.2,0.4,0.8,0.3,0.9c0,0.1,0.1,0.4,0.1,0.4c0,0-0.1,0.2-0.1,0.3c-0.1,0.1-0.2,0.4-0.1,0.4c0.1,0.1,0.5,0.6,0.5,0.8
					c0,0.2-0.2,0.7-0.1,0.9c0.1,0.2,0,0.7,0.2,0.9c0.2,0.2,0.6,0.6,0.7,0.6c0.1,0,0.4,0.3,0.5,0.4c0,0.1,0,0.4,0,0.6
					c0,0.1,0.4,0.5,0.5,0.5c0.1,0,0.4,0.2,0.5,0.2c0.1,0,0.3,0,0.2,0.2c-0.1,0.1-0.4,0.5-0.5,0.5c-0.1,0-0.3,0.1-0.3,0.1
					c0,0-0.1,0-0.1,0c-0.1,0-0.4-0.2-0.6-0.3c-0.2-0.1-0.8-0.3-1-0.4c-0.2-0.2-0.9-0.7-1.1-0.8c-0.1-0.1-0.3-0.4-0.4-0.4
					c-0.1,0-0.2-0.3-0.2-0.5c0-0.1-0.3-0.4-0.3-0.4c0,0.1-0.6-0.2-0.9-0.5c-0.3-0.3-0.7-1.2-1-1.4c-0.2-0.2-0.7-0.8-0.7-0.9
					c-0.1-0.1-0.3-0.1-0.3-0.2c-0.1-0.1-0.3-0.4-0.5-0.5c-0.2-0.1-1-0.4-1.2-0.4c-0.2,0-0.8,0-0.9-0.1c0-0.1-0.4-0.2-0.7-0.2
					c-0.2,0.1-0.9-0.5-0.8-0.6c0.1-0.1,0-0.2-0.2-0.2c-0.1,0-0.6,0-0.7-0.1c-0.2-0.1-0.7-0.9-0.7-1c0-0.2-0.4-0.7-0.4-0.7
					c0-0.1-0.3-0.3-0.4-0.4c-0.1-0.1-0.5-0.3-0.5-0.2c0,0.1-0.1,0.3-0.3,0.3c-0.2,0-0.8,0.2-0.8,0.2c0,0-0.2-0.1-0.3-0.1
					c-0.1,0-0.5-0.1-0.6,0c-0.1,0-0.4,0.3-0.6,0.3c-0.1,0-0.7,0-1,0.2c-0.3,0.2-1.3,0.6-1.5,0.5c-0.2-0.1-1-0.7-1.2-0.7
					c-0.2,0-0.7-0.1-0.8-0.1c-0.1-0.1-0.1,0.1,0,0.1c0.1,0.1,0.4,0.4,0.4,0.4c-0.1,0-0.4,0.2-0.6,0.1c-0.2-0.1-0.7-0.1-0.8-0.2
					c-0.1-0.1-0.2-0.3-0.5-0.4c-0.2-0.1-0.9-0.3-0.9-0.3C105.7,141.2,102.7,135.9,102.3,133.7z"/>
			</g>
			<g>
				<path class="st17" d="M101.5,125.4c-0.1,0.1-0.1-0.7,0.1-1.6c0.1-1,0.8-3.5,0.9-3.5c0.1,0,0.1,0.2,0.1,0.4
					c-0.1,0.2-0.2,0.7-0.1,0.7c0.1,0,0.2,0.4,0.1,0.5c-0.1,0.1,0,0.6-0.1,0.8c0,0.2-0.3,0.8-0.3,1c0,0.2,0.3,0.8,0.3,0.8
					c-0.1,0.1-0.2,0.2-0.2,0.1c0.1-0.1,0.3,0.1,0.3,0.2c0,0.1-0.2,0.5-0.4,0.7c-0.2,0.2-0.7,0.9-0.7,0.9c0,0-0.1-0.1-0.1-0.2
					c0-0.1,0.1-0.3,0.2-0.4C101.7,125.7,101.6,125.3,101.5,125.4z"/>
			</g>
			<g>
				<path class="st17" d="M130.1,103.9c1.4,0.3,2.5,0.6,2.5,0.7c0,0.1,0.2,0.3,0.3,0.3c0.1,0,0.4-0.2,0.6-0.2c0.2,0.1,0.8,0.4,1,0.5
					c0.2,0.2,0.8,0.9,0.8,1.2c0.1,0.2,0.3,1,0.2,1.1c-0.1,0.1,0.2,0.7,0.6,1c0.4,0.3,0.5,1.2,0.4,1.3c-0.1,0-0.7-0.3-0.8-0.3
					c-0.1,0-0.5-0.1-0.4,0c0.1,0.1,0.1,0.4,0.2,0.5c0,0.1-0.1,0.3,0,0.3c0,0.1,0.3,0.3,0.4,0.3c0.1,0,0.5,0.1,0.6,0.2
					c0.1,0.1,0.5,0.3,0.7,0.5c0.2,0.2,0.5,0.8,0.5,0.8c0,0,0,0.4,0.1,0.7c0.1,0.3,0.2,1.1,0,1.3c-0.2,0.2,0,0.6,0,0.5
					c0.1,0,0.3,0,0.3,0.1c0.1,0.1,0.3,0.7,0.7,1.1c0.4,0.4,0.1,1.3,0.1,1.3c-0.1-0.1-0.4-0.1-0.5-0.1c-0.2,0-0.5,0.1-0.5,0.2
					c0.1,0.1,0.5,0.5,0.6,0.5c0.2,0,0.8,0.1,1,0.1c0.2,0.1,0.6,0.6,0.3,0.6c-0.3,0-1.2,0-1.3-0.1c-0.1-0.1-0.5-0.4-0.5-0.5
					c0-0.1-0.3-0.3-0.4-0.4c-0.1-0.1-0.5-0.1-0.6-0.1c-0.1-0.1-0.3-0.2-0.4-0.1c-0.1,0.1-0.5,0.1-0.6,0c0-0.1-0.4-0.3-0.5-0.4
					c-0.2-0.1-0.7,0-0.7,0.1c-0.1,0.1-0.1,0.6-0.2,0.8c0,0.1,0.3,0.6,0.4,0.7c0,0.1-0.2,0.3-0.1,0.4c0,0,0.1,0.2,0.1,0.3
					c0,0,0,0.4,0.2,0.6c0.2,0.3,0.6,1.1,0.5,1.2c-0.1,0.1-0.4,0.1-0.4,0c-0.1-0.1-0.4-0.3-0.5-0.4c-0.1,0-0.7-0.2-0.9-0.3
					c-0.2-0.1-0.9-0.3-1-0.4c-0.1,0-0.4-0.3-0.5-0.2c-0.1,0.1-0.4,0-0.4,0c0,0-0.3-0.2-0.7-0.2c0,0,0,0-0.3,0.5
					c-0.1,0.1-0.1,0.1-0.1,0.1c-0.1-0.1-0.2,0-0.2,0.2c0,0.1-0.4,0.5-0.5,0.5c-0.1,0-0.6-0.2-0.9-0.2c-0.3,0-1.1,0.1-1.1,0.1
					c0,0.1,0,0.3,0.1,0.3c0.1,0,0.5-0.1,0.7,0c0.2,0.1,0.6,0.2,0.6,0.1c0-0.1,0.4-0.3,0.6-0.3c0.2,0,0.7,0.3,0.7,0.5
					c0,0.1,0.3,0.6,0.3,0.8c0,0.2-0.2,0.7-0.1,0.7c0.1,0.1,0,0.5-0.1,0.8c-0.1,0.3-0.6,1-0.9,0.9c-0.3-0.1-1.1-0.4-1.4-0.5
					c-0.3-0.1-1.2-0.3-1.3-0.4c-0.2-0.1-0.5-0.1-0.3,0c0.1,0.1,0.5,0.4,0.6,0.4c0.1,0,0.7,0.1,0.8,0.1c0.2,0,0.9,0.5,1.2,0.5
					c0.2,0,1,0.3,1.1,0.2c0.1-0.1,0.3-0.4,0.3-0.6c0-0.1,0.4-0.3,0.6-0.2c0.2,0.1,0.6,0.8,0.7,1.2c0.1,0.4,0.4,1.6,0.4,1.7
					c0,0.1,0,0.7,0.2,0.9c0.1,0.2,0.7,1,1.1,1.4c0.4,0.3,1.2,1.6,1.2,2c0,0.4,0.8,1.6,0.7,1.6c0,0.1-0.1,0.4,0,0.5
					c0.1,0.1,0.4,0.6,0.4,0.9c0,0.2,0.2,1.2,0.1,1.5c-0.1,0.3-0.9,1.1-1.3,0.9c-0.3-0.2-1.3-0.5-1.4-0.7c-0.1-0.1-0.6-0.5-0.9-0.7
					c-0.3-0.1-1.2-0.5-1.4-0.7c-0.2-0.3-0.7-1-0.9-1.2c-0.2-0.2-1-0.5-1.2-0.7c-0.2-0.2-1.1-0.6-1.2-0.9c-0.1-0.2-0.9-0.8-0.9-0.7
					c0,0.1-0.2,0.4-0.4,0.4c-0.1,0-0.6,0.3-0.7,0.1c0,0,0,0-0.1,0.1c-0.3,0.2-0.3,0.2-0.3,0.2c0.1,0.3,0.1,0.6,0,0.8
					c-0.2,0.2-0.7,0.6-0.9,0.7c-0.2,0-1.1,0.1-1.3,0c-0.3-0.1-1.2-0.5-1.5-0.9c-0.3-0.3-1.2-1.3-1.3-1.5c-0.1-0.2-0.4-1.1-0.4-1.6
					c0,0,0,0-0.1-0.3c-0.1-0.4-0.1-0.4-0.1-0.4c-0.3-0.5-0.6-0.9-0.5-1.1c0-0.1,0-0.6,0.1-0.7c0.1-0.1,0.4-0.2,0.5-0.5
					c0.1-0.3,0.7-1.1,0.8-1.2c0.1-0.2,0.6-0.7,0.7-0.6c0.1,0,0.1,0.2,0.2,0.2c0.1,0,0.6,0.2,0.9,0.1c0.3-0.1,1.1-0.3,1-0.4
					c-0.1-0.1,0.3-0.7,0.6-0.9c0.3-0.3,1.1-0.9,1-1c-0.1-0.2-0.2-0.6-0.3-0.7c-0.1-0.1-0.2-0.2-0.1,0c0.1,0.1-0.2,0.3-0.2,0.3
					c-0.1-0.1-0.5,0.2-0.7,0.6c0,0,0,0-0.4,0c-0.2,0-0.2,0-0.2,0c-0.1-0.1-0.3-0.2-0.4-0.2c-0.1-0.1-0.4-0.4-0.4-0.4
					c0,0,0,0.2,0.2,0.4c0.2,0.1,0.5,0.5,0.6,0.4c0.1-0.1,0.3,0.2,0.2,0.3c-0.1,0.1-0.4,0-0.3,0c0,0-0.1,0-0.2,0.1
					c-0.1,0.1-0.4,0.1-0.4,0c-0.1-0.1-0.4-0.3-0.5-0.4c0,0,0,0-0.1,0c-0.1,0-0.3-0.1-0.4-0.1c-0.5-0.1-0.5-0.1-0.5-0.1
					c-0.5,0-0.7,0.1-0.4,0.1c0.3,0,1,0.2,0.9,0.2c-0.1,0,0,0.3,0,0.3c0.1,0,0.2,0.2,0.1,0.4c0,0.1,0.2,0.6,0.1,0.6
					c-0.1,0.1-0.4-0.2-0.3-0.3c0.1-0.1-0.1-0.3-0.3-0.4c-0.2,0-0.7,0.2-0.8,0.1c-0.1-0.1-0.1,0.1,0.2,0.3c0.2,0.1-0.1,0.5-0.3,0.4
					c-0.2-0.2-0.6-0.6-0.6-0.4c0,0.2-0.4,0.5-0.4,0.7c0.1,0.2,0,0.9,0.2,1.1c0.1,0.2,0.3,0.8,0.2,0.9c-0.1,0-0.4,0.4-0.5,0.4
					c-0.1,0-0.5,0.3-0.7,0.2c-0.1-0.1-0.6-0.5-0.7-0.6c-0.1-0.2-0.3-0.7-0.2-0.9c0.1-0.2,0.6-0.5,0.6-0.6c0-0.1-0.2-0.3-0.3-0.3
					c-0.1,0-0.6-0.2-0.7-0.1c-0.1,0.1-0.3,0.1-0.4,0c0-0.1,0-0.5,0-0.6c0-0.1,0.2-0.5,0.2-0.5c0,0-0.2,0-0.4,0.2
					c-0.2,0.2-0.5,0.6-0.5,0.5c0-0.1,0-0.4-0.2-0.4c-0.1,0-0.4-0.5-0.3-0.6c0.1-0.1-0.2-0.4-0.2-0.3c0,0-0.4,0-0.5-0.2
					c-0.1-0.2-0.6-0.7-0.6-0.8c0-0.1,0.3-0.3,0.3-0.2c0,0.1,0.1,0.3,0.2,0.3c0.1,0,0.4,0,0.6,0.1c0.2,0,0.7,0.5,0.8,0.5
					c0.1,0,0.3,0.1,0.4,0.3c0.1,0.2,0.3,0.5,0.2,0.4c-0.1-0.1,0.2-0.5,0.1-0.6c-0.1-0.1-0.1-0.4-0.1-0.6c0-0.1,0.2-0.5,0.2-0.5
					c-0.1-0.1-0.2,0-0.3-0.2c0-0.1-0.3-0.4-0.4-0.3c-0.1,0.1-0.6-0.1-0.7-0.2c-0.2-0.2-0.7-0.5-0.8-0.8c-0.2-0.2,0-0.9,0-0.9
					c0,0-0.1-0.2-0.1-0.3c0,0,0.1-0.2,0.1-0.4c0-0.2-0.3-0.9-0.3-1.2c0-0.2,0-1,0-1c0-0.1,0.2-0.2,0.2-0.3c0-0.2,0.1-0.6,0.2-0.7
					c0.1-0.1,0.4-0.3,0.6-0.3c0.1,0,0.6,0,0.7,0c0.1-0.1,0.7-0.2,1-0.4c0.3-0.2,0.8,0.1,0.8,0c0-0.2-0.3-0.7-0.2-0.7
					c0.1,0,0.3-0.2,0.4-0.1c0.1,0.1,0.3,0.1,0.3-0.1c0-0.2,0.3-0.9,0.5-1.1c0.2-0.2,0.5-0.5,0.4-0.4c-0.1,0.1-0.3-0.3-0.2-0.4
					c0.1-0.1,0.6-0.7,0.6-0.9c0-0.2-0.1-0.9,0.1-0.9c0.1,0,0.4-0.1,0.3-0.2c0-0.1,0.3-0.3,0.4-0.2c0.1,0.1,0.3,0.1,0.2,0
					c0-0.1-0.1-0.4,0-0.4c0.2,0,0.5-0.2,0.3-0.2c-0.1,0-0.4-0.3-0.4-0.3c0-0.1,0.1-0.4,0.1-0.5c0-0.1-0.1-0.4,0-0.5
					c0-0.1,0.2-0.5,0.3-0.7c0.1-0.2,0.3-0.6,0.3-0.6c0.1,0,0.2-0.2,0.2-0.3c-0.1-0.1,0.2-0.5,0.1-0.6s0-0.4,0.1-0.4
					c0.1,0,0.5-0.2,0.7-0.3c0.1-0.1,0.5-0.5,0.6-0.5c0.1,0,0.6,0.2,0.6,0.3c0,0.1,0.4,0.2,0.7,0.1c0,0,0,0,0.2-0.1
					c0.1-0.1,0.1-0.2,0.2-0.2c0.2-0.1,0.2-0.1,0.2-0.1C125,103.5,128.8,103.6,130.1,103.9z"/>
			</g>
			<g>
				<path class="st17" d="M136.6,106.1c0.2,0.1,0.3,0.2,0.3,0.2c0,0,0,0-0.1,0c-0.1,0-0.2,0.1-0.2,0.3c0,0.1-0.3,0.1-0.4,0
					c-0.1-0.1-0.5-0.6-0.4-0.6C135.8,105.9,136.4,106.1,136.6,106.1z"/>
			</g>
			<g>
				<path class="st17" d="M140.9,114.2c0,0.1-0.1,0-0.1-0.1c0-0.1,0.1-0.4,0-0.5c-0.1-0.1-0.1-0.4,0-0.4c0.1,0,0.5,0.1,0.6,0
					c0.1-0.1,0.4,0.3,0.3,0.5c-0.1,0.1-0.1,0.5-0.2,0.5C141.4,114.2,140.9,114.2,140.9,114.2z"/>
			</g>
			<g>
				<path class="st17" d="M143.4,116.8c0.2,0,0.2,0.1,0.1,0.1c-0.1,0-0.4,0.1-0.4,0.2c0,0.1,0,0.2-0.4,0c-0.3-0.2-0.5-1-0.3-1.1
					c0.2-0.1,0.6,0.2,0.5,0.3C143,116.4,143.3,116.8,143.4,116.8z"/>
			</g>
			<g>
				<path class="st17" d="M142.1,116.6c0.1,0.1,0.3,0.4,0.4,0.5c0.1,0.2,0.1,0.6,0.2,0.6c0,0,0.1,0,0,0.1c0,0.1,0,0.3-0.2,0.3
					c-0.2,0-0.7,0.4-0.9,0.4c-0.2,0-0.6-0.6-0.5-1c0.1-0.4-0.4-1.5-0.2-1.5c0.1-0.1,0.6-0.1,0.6,0
					C141.6,116.1,142,116.5,142.1,116.6z"/>
			</g>
			<g>
				<path class="st17" d="M143.3,118.8c0.1,0-0.1,0.1-0.4,0.3c-0.3,0.2-1.2,0.8-1.2,0.7c-0.1-0.1,0-0.4,0.3-0.5
					C142.3,119.2,143.2,118.9,143.3,118.8z"/>
			</g>
			<g>
				<path class="st17" d="M138.3,112.6c0,0.2,0,0.2-0.1,0.2c-0.1-0.1-0.4-0.3-0.4-0.4C137.7,112.2,138.3,112.5,138.3,112.6z"/>
			</g>
			<g>
				<path class="st17" d="M139.2,113c0.2-0.1,0.4-0.1,0.5,0.1c0.1,0.2,0.1,0.6,0,0.6C139.5,113.6,139,113.2,139.2,113z"/>
			</g>
			<g>
				<path class="st17" d="M144.1,114.6c0.3,0.3-0.1,0.8-0.4,0.8C143.4,115.2,143.8,114.7,144.1,114.6z"/>
			</g>
			<g>
				<path class="st17" d="M138.2,108.6c-0.1,0.2-0.2,0.4-0.2,0.4c0,0-0.2,0.2-0.2,0.4c0,0.1,0.1,0.6,0,0.6c-0.1,0-0.4-0.3-0.3-0.3
					c0.1-0.1,0.2-0.1,0.1,0c-0.1,0.1-0.3-0.2-0.2-0.4c0-0.2,0.1-0.8,0.1-0.9c0-0.2,0.1-0.6,0.1-0.7c0,0-0.1-0.2-0.3-0.4
					c-0.1-0.1-0.6-0.5-0.5-0.6c0,0,0.4,0,0.6,0.2C137.5,107.1,138.2,108.4,138.2,108.6z"/>
			</g>
			<g>
				<path class="st17" d="M134.8,105.3c0.3,0.1,0.6,0.3,0.9,0.4C135.4,105.8,135.1,105.6,134.8,105.3z"/>
			</g>
			<g>
				<path class="st17" d="M138.8,118.9c-0.4,0.1-0.6,0.1-0.4,0.1c0.1,0,0-0.3,0.1-0.3c0.1,0,0.4-0.1,0.7,0c0,0,0,0,0.2,0.1
					c0.2,0.1,0.2,0.1,0.2,0.1c0.4,0,0.9,0,1.1,0.1c0.2,0.1,0.4,0.6,0.2,0.6C140.8,119.6,139.2,118.9,138.8,118.9z"/>
			</g>
			<g>
				<path class="st17" d="M135.5,120.5c-0.1-0.2,0-0.3,0.1-0.3c0.1,0,0.5,0.2,0.6,0.3C136.2,120.6,135.6,120.7,135.5,120.5z"/>
			</g>
			<g>
				<path class="st17" d="M136.3,129.4c0.1,0.2,0.2,0.4,0.2,0.4c0,0,0.1,0.2,0.2,0.3c0.1,0.1,0.3,0.3,0.4,0.5
					c0.1,0.1,0.3,0.8,0.2,0.9c0,0.1-0.4,0.2-0.6,0.1c-0.2-0.1-0.7-0.5-0.8-0.6c0-0.1-0.2-0.4-0.3-0.5c-0.1,0-0.4-0.5-0.4-0.7
					c0-0.2,0-0.8-0.1-0.9c-0.1-0.2-0.2-0.5,0-0.4C135.3,128.7,136.2,129.2,136.3,129.4z"/>
			</g>
			<g>
				<path class="st17" d="M129.8,148.7c-0.2-0.2,0-0.5,0.2-0.2C129.9,148.5,129.9,148.6,129.8,148.7z"/>
			</g>
			<g>
				<path class="st17" d="M110.1,124.4c0.1,0.2,0.1,0.5,0.1,0.6c0,0.1,0,0.3-0.1,0.3c-0.1,0-0.4,0.1-0.5,0.2c-0.1,0.1-0.5,0-0.9-0.3
					c-0.3-0.3-1.3-0.6-1.3-0.8c0-0.1-0.2-0.3-0.2-0.4c0-0.1-0.1-0.4-0.3-0.3c-0.2,0.1-0.6-0.2-0.5-0.3c0.1-0.1-0.1-0.3-0.1-0.2
					c0,0.1-0.4,0.2-0.5,0.1c-0.1-0.1-0.4-0.4-0.5-0.4c-0.1,0-0.6-0.3-0.8-0.2c-0.2,0.1-0.6,0.3-0.6,0.4c0,0.1-0.3,0.3-0.5,0.4
					c-0.2,0.1-0.5-0.2-0.3-0.3c0.1-0.1,0.4-0.5,0.3-0.5c-0.1,0-0.4,0.3-0.5,0.3c-0.1,0-0.1,0.2-0.2,0.2c-0.1,0-0.3,0.1-0.3-0.1
					c0-0.1,0.3-0.5,0.4-0.6c0.1-0.2,0.1-0.6,0-0.5c-0.1,0.1-0.3-0.5-0.2-0.8c0.1-0.4,0.8-1.5,1-1.7c0.2-0.2,0.7-0.7,0.6-0.8
					c-0.1-0.1-0.3-0.4-0.2-0.6c0.1-0.2,0.6-0.7,0.8-0.9c0.2-0.2,0.5-0.8,0.6-0.9c0.1-0.1,0.3-0.1,0.4-0.3c0.1-0.1,0.5-0.4,0.7-0.6
					c0.2-0.2,0.5-0.1,0.4,0.1c-0.1,0.2,0.1,0.6,0.2,0.4c0.1-0.2,0.5-0.5,0.6-0.5c0.1,0,0.4-0.2,0.5-0.3c0.1-0.1,0.3,0.2,0.2,0.3
					c-0.1,0.1-0.2,0.5-0.2,0.6c0,0.1-0.1,0.4,0,0.4c0.1,0,0.3,0.4,0.3,0.5c0,0.1-0.1,0.2,0.1,0.1c0.2-0.1,0.5,0.2,0.4,0.3
					c-0.1,0.1,0,0.6,0.4,0.8c0.3,0.2,0.3,0.9,0.4,0.9c0.1,0,0.3,0.3,0.2,0.3c-0.1,0-0.1,0.1,0,0c0.2,0,0.1,0.4-0.1,0.4
					c-0.2,0.1-0.6,0.3-0.6,0.4c0,0.1,0.1,0.2,0.2,0.2c0.2,0,0.3-0.2,0.3,0c0,0.2,0.2,0.7,0.2,0.9c0,0.2-0.2,0.8-0.3,0.9
					c0,0.1,0,0.5-0.1,0.6c0,0.1-0.4,0.3-0.3,0.4C109.6,123.3,110.1,124.2,110.1,124.4z"/>
			</g>
			<g>
				<path class="st17" d="M111.3,113.5c0.1-0.1,0.2-0.1,0.4-0.1c0.1,0,0.3-0.2,0.5-0.3c0.2-0.1,0.7,0.5,0.5,0.6
					c-0.2,0.1-0.6,0.3-0.5,0.4c0.1,0.2,0.3,0.7,0.2,0.8c-0.1,0.1-0.4,0-0.5,0.1c-0.1,0.1-0.4,0-0.4-0.2c0-0.2-0.3-0.5-0.3-0.3
					c0,0.1-0.3,0.5-0.3,0.4c0,0-0.3-0.2-0.4-0.2c-0.1,0-0.4-0.3-0.3-0.5c0.1-0.2,0.5-0.3,0.4-0.3c-0.1,0,0-0.4,0.1-0.5
					C110.8,113.3,111.2,113.5,111.3,113.5z"/>
			</g>
			<g>
				<path class="st17" d="M110.9,112.9c-0.1-0.1,0.1-0.3,0.4-0.6c0.3-0.3,1.1-0.8,1.1-0.7c0,0.1,0,0.6-0.3,0.8
					C111.8,112.7,110.9,113,110.9,112.9z"/>
			</g>
			<g>
				<path class="st17" d="M115.2,123.2c0.1,0.1,0.1,0.2,0,0.3c-0.1,0.1-0.3,0.3-0.4,0.2c-0.1-0.1-0.3-0.4-0.2-0.4
					c0.1,0-0.1-0.4,0-0.5C114.7,122.9,115.2,123.2,115.2,123.2z"/>
			</g>
			<g>
				<path class="st17" d="M112.6,121c-0.1,0.1-0.3,0.2-0.4,0.1c-0.1-0.1-0.5,0.2-0.5,0.1c0-0.1-0.2-0.3-0.2-0.3c0,0.1-0.2,0.1-0.1,0
					c0-0.1-0.2-0.5-0.1-0.5c0.1,0,0.5-0.2,0.6-0.2c0.1-0.1,0.4-0.5,0.6-0.4c0.1,0,0.5,0.5,0.4,0.6
					C112.8,120.6,112.7,120.9,112.6,121z"/>
			</g>
			<g>
				<path class="st17" d="M117,110.8c0-0.2,0.1-0.5,0.1-0.8c0.1-0.3,0.5-1,0.5-1c0,0,0-0.2,0-0.2c0.1-0.1,0.3,0,0.3,0.2
					c0.1,0.2-0.2,0.9-0.2,1.1c0,0.3-0.2,1,0,1.1c0.2,0.1,0.7,0.4,0.7,0.5c0,0.1-0.1,0.2-0.3,0.3c-0.2,0-0.7,0-0.7-0.1
					C117.5,111.7,117,110.9,117,110.8z"/>
			</g>
			<g>
				<path class="st17" d="M115.5,109c-0.4-0.3,0-1,0.4-0.6C115.7,108.6,115.9,109,115.5,109z"/>
			</g>
			<g>
				<path class="st17" d="M119.3,105.4c-0.1-0.1,0-0.4,0.3-0.6c0.2-0.2,0.7-0.2,0.5,0C120,105,119.4,105.4,119.3,105.4z"/>
			</g>
			<g>
				<path class="st17" d="M105,128.6c0.1,0-0.1,0.1-0.3,0.1c-0.2,0,0,0.7-0.1,0.8c-0.1,0.1-0.5-0.1-0.4-0.3c0-0.1,0-0.4,0.1-0.4
					C104.3,128.8,104.9,128.6,105,128.6z"/>
			</g>
			<g>
				<path class="st17" d="M115.3,137.2c0.1-0.1,0.1,0,0.2,0.1c0,0.1-0.2,0.4-0.2,0.3C115.2,137.5,115.3,137.2,115.3,137.2z"/>
			</g>
			<g>
				<path class="st17" d="M113.8,138.2c-0.1,0.1-0.3,0.2-0.5,0.2c-0.2,0-0.6,0.3-0.7,0.4c0,0.1-0.3,0.4-0.4,0.3c0-0.1,0-0.4,0.1-0.6
					c0.2-0.2,0.7-0.6,0.8-0.6c0.1,0,0.5-0.1,0.5-0.1c0.1,0,0.4,0,0.6-0.2c0.2-0.2,0.7,0.1,0.6,0.2c-0.1,0.1-0.1,0.4-0.2,0.4
					c-0.1,0-0.4,0.2-0.5,0.2C114,138.3,113.9,138.1,113.8,138.2z"/>
			</g>
			<g>
				<path class="st17" d="M114,138.7C114.1,138.7,114.1,138.8,114,138.7c0,0.1-0.2,0.4-0.2,0.4C113.7,139.1,113.8,138.7,114,138.7z"
					/>
			</g>
			<g>
				<path class="st17" d="M112.8,137.9c0,0-0.1,0-0.2,0c0-0.1-0.1-0.2,0-0.2C112.7,137.6,112.8,137.8,112.8,137.9z"/>
			</g>
			<g>
				<path class="st17" d="M113,137.4c-0.1-0.1-0.2-0.2-0.1-0.2c0,0,0.2-0.1,0.2-0.1C113.2,137.2,113.1,137.5,113,137.4z"/>
			</g>
			<g>
				<path class="st17" d="M113.8,137.5c0,0.1-0.1,0-0.2,0c-0.1-0.1-0.1-0.2-0.1-0.3c0.1,0,0.4,0,0.4,0c0.1-0.1,0.2,0.1,0.1,0.2
					C114,137.5,113.8,137.4,113.8,137.5z"/>
			</g>
			<g>
				<path class="st17" d="M146.1,115.2c0.2,0.3,0.2,0.4,0.2,0.4c-0.1-0.1-0.5-0.2-0.7-0.2c-0.3,0-1,0.2-1,0.3c0,0.1-0.2,0-0.2-0.1
					c0-0.1-0.1-0.3,0-0.3c0.1,0,0.3-0.2,0.3-0.3c0-0.1,0.1-0.3,0.1-0.4c0.1-0.1,0.3-0.3,0.4-0.3
					C145.2,114.2,145.9,114.9,146.1,115.2z"/>
			</g>
		</g>
		<path class="st18" d="M102.2,125.1c0,0-0.1,0.1,0,0.1C102.2,125.2,102.2,125.1,102.2,125.1z"/>
		<path class="st18" d="M109.7,128.8c0,0-0.1,0.1,0,0.1C109.7,128.9,109.7,128.8,109.7,128.8z"/>
	</g>
	<g>
		<g>
			<g>
				<path class="st19" d="M312.2,200.3C312.2,200.3,312.2,200.3,312.2,200.3c-1.4-0.6-4.6-1.7-6.6-2.3c-0.2-0.1-0.2-0.1-0.2-0.8
					c0-0.6,0.2-1.2,0.5-1.7c0.3-0.5,0.6-1.5,0.7-2.3c0.3-0.4,0.7-1,1-2.4c0.2-1.2,0.1-1.6,0-2c0,0,0-0.1,0-0.1
					c-0.1-0.3,0-1.7,0.2-2.8c0.1-0.8,0-2.4-1.1-3.7c-0.7-0.8-1.9-1.9-4.2-2l-1.3,0c-2.3,0.1-3.5,1.2-4.2,2c-1,1.3-1.2,2.9-1.1,3.7
					c0.2,1.1,0.3,2.5,0.2,2.8c0,0,0,0.1,0,0.1c-0.2,0.4-0.3,0.8,0,2c0.3,1.3,0.7,2,1,2.4c0.1,0.8,0.4,1.7,0.7,2.3
					c0.2,0.4,0.3,0.9,0.3,1.7c0,0.7,0,0.7-0.2,0.8c-2.1,0.6-5.3,1.8-6.6,2.3c0,0,0,0,0,0v5.2h21V200.3z"/>
				<path class="st20" d="M305.6,198.1c-0.2-0.1-0.2-0.1-0.2-0.8c0-0.6,0.2-1.2,0.5-1.7c0.3-0.5,0.6-1.5,0.7-2.3
					c0.3-0.4,0.7-1,1-2.4c0.2-1.2,0.1-1.6,0-2c0,0,0-0.1,0-0.1c-0.1-0.3,0-1.7,0.2-2.8c0.1-0.8,0-2.4-1.1-3.7
					c-0.7-0.8-1.9-1.9-4.2-2l-0.7,0v25.2h10.5v-5.2c0,0,0,0,0,0C310.8,199.8,307.6,198.6,305.6,198.1z"/>
			</g>
		</g>
		<g>
			<g>
				<path class="st19" d="M352.2,200.3C352.2,200.3,352.2,200.3,352.2,200.3c-1.4-0.6-4.6-1.7-6.6-2.3c-0.2-0.1-0.2-0.1-0.2-0.8
					c0-0.6,0.2-1.2,0.5-1.7c0.3-0.5,0.6-1.5,0.7-2.3c0.3-0.4,0.7-1,1-2.4c0.2-1.2,0.1-1.6,0-2c0,0,0-0.1,0-0.1
					c-0.1-0.3,0-1.7,0.2-2.8c0.1-0.8,0-2.4-1.1-3.7c-0.7-0.8-1.9-1.9-4.2-2l-1.3,0c-2.3,0.1-3.5,1.2-4.2,2c-1,1.3-1.2,2.9-1.1,3.7
					c0.2,1.1,0.3,2.5,0.2,2.8c0,0,0,0.1,0,0.1c-0.2,0.4-0.3,0.8,0,2c0.3,1.3,0.7,2,1,2.4c0.1,0.8,0.4,1.7,0.7,2.3
					c0.2,0.4,0.3,0.9,0.3,1.7c0,0.7,0,0.7-0.2,0.8c-2.1,0.6-5.3,1.8-6.6,2.3c0,0,0,0,0,0v5.2h21V200.3z"/>
				<path class="st20" d="M345.6,198.1c-0.2-0.1-0.2-0.1-0.2-0.8c0-0.6,0.2-1.2,0.5-1.7c0.3-0.5,0.6-1.5,0.7-2.3
					c0.3-0.4,0.7-1,1-2.4c0.2-1.2,0.1-1.6,0-2c0,0,0-0.1,0-0.1c-0.1-0.3,0-1.7,0.2-2.8c0.1-0.8,0-2.4-1.1-3.7
					c-0.7-0.8-1.9-1.9-4.2-2l-0.7,0v25.2h10.5v-5.2c0,0,0,0,0,0C350.8,199.8,347.6,198.6,345.6,198.1z"/>
			</g>
		</g>
		<g>
			<g>
				<path class="st19" d="M336.3,207.6C336.3,207.6,336.3,207.6,336.3,207.6c-1.9-0.8-6.5-2.4-9.3-3.2c-0.2-0.1-0.3-0.1-0.3-1.1
					c0-0.8,0.3-1.6,0.7-2.3c0.4-0.8,0.8-2,0.9-3.2c0.4-0.5,1-1.5,1.4-3.3c0.3-1.6,0.2-2.2,0-2.8c0-0.1,0-0.1-0.1-0.2
					c-0.1-0.4,0-2.4,0.3-3.9c0.2-1.1,0-3.3-1.5-5.2c-0.9-1.2-2.7-2.6-5.9-2.8l-1.8,0c-3.2,0.2-4.9,1.6-5.9,2.8
					c-1.5,1.9-1.7,4.1-1.5,5.2c0.3,1.5,0.4,3.5,0.3,3.9c0,0.1,0,0.1-0.1,0.2c-0.2,0.6-0.4,1.2,0,2.8c0.4,1.9,1,2.8,1.4,3.3
					c0.2,1.1,0.6,2.4,0.9,3.2c0.3,0.6,0.4,1.3,0.4,2.4c0,1,0,1-0.3,1.1c-2.9,0.9-7.5,2.5-9.2,3.3c0,0,0,0,0,0v7.3h29.5V207.6z"/>
				<path class="st20" d="M327,204.4c-0.2-0.1-0.3-0.1-0.3-1.1c0-0.8,0.3-1.6,0.7-2.3c0.4-0.8,0.8-2,0.9-3.2c0.4-0.5,1-1.5,1.4-3.3
					c0.3-1.6,0.2-2.2,0-2.8c0-0.1,0-0.1-0.1-0.2c-0.1-0.4,0-2.4,0.3-3.9c0.2-1.1,0-3.3-1.5-5.2c-0.9-1.2-2.7-2.6-5.9-2.8l-1,0v35.4
					h14.8v-7.3c0,0,0,0,0,0C334.4,206.8,329.8,205.2,327,204.4z"/>
			</g>
		</g>
	</g>
	<g class="st5">
		<path class="st11" d="M225.8,161.5h-17.4c-0.8,0-1.4-0.6-1.4-1.4c0-0.8,0.6-1.4,1.4-1.4h17.4c0.8,0,1.4,0.6,1.4,1.4
			C227.2,160.9,226.6,161.5,225.8,161.5L225.8,161.5z"/>
		<g class="st13">
			<g>
				<path class="st21" d="M195.4,116.7c0-12,9.7-21.7,21.7-21.7c12,0,21.7,9.7,21.7,21.7c0,0.7-0.5,10.7-8.7,21.3
					c-2.4,3.2-2,9.6-2,9.6c-3.4,0-6.1,0-9.5,0c-1,0-2.1,0-3.1,0c-3.4,0-6.2,0-9.5,0c0,0,0.5-6.4-1.9-9.6
					C195.9,127.4,195.4,117.4,195.4,116.7z"/>
				<path class="st0" d="M217.1,147.5c-3.4,0-7.7,0-11.1,0c0,0,0.5-6.4-1.9-9.6c-8.2-10.5-8.7-20.6-8.7-21.3
					c0-12,9.7-21.7,21.7-21.7"/>
				<g>
					<path class="st0" d="M234.2,116.7h-1.9c0-8.4-6.8-15.2-15.2-15.2v-1.9C226.5,99.6,234.2,107.3,234.2,116.7L234.2,116.7z"/>
				</g>
				<g>
					<g>
						<g>
							<polygon class="st14" points="221.8,149.2 220,148.9 223.7,126.5 225.5,126.8 221.8,149.2 							"/>
						</g>
						<g>
							<polygon class="st14" points="212.3,149.2 208.6,126.8 210.5,126.5 214.2,148.9 212.3,149.2 							"/>
						</g>
					</g>
					<g>
						<path class="st14" d="M224.5,129.6c-0.8,0-1.1-0.8-1.4-1.3c-0.1-0.2-0.3-0.7-0.4-0.7c-0.1,0-0.3,0.5-0.4,0.7
							c-0.2,0.6-0.6,1.3-1.4,1.3c-0.8,0-1.1-0.8-1.4-1.3c-0.1-0.2-0.3-0.7-0.4-0.7c-0.1,0-0.3,0.5-0.4,0.7c-0.2,0.6-0.6,1.3-1.4,1.3
							c-0.8,0-1.1-0.8-1.4-1.3c-0.1-0.2-0.3-0.7-0.4-0.7c-0.1,0-0.3,0.5-0.4,0.7c-0.2,0.6-0.6,1.3-1.4,1.3c-0.8,0-1.1-0.8-1.4-1.3
							c-0.1-0.2-0.3-0.7-0.4-0.7c-0.1,0-0.3,0.5-0.4,0.7c-0.2,0.6-0.6,1.3-1.4,1.3v-1c0.1,0,0.3-0.5,0.4-0.7
							c0.2-0.6,0.6-1.3,1.4-1.3c0.8,0,1.1,0.8,1.4,1.3c0.1,0.2,0.3,0.7,0.4,0.7c0.1,0,0.3-0.5,0.4-0.7c0.2-0.6,0.6-1.3,1.4-1.3
							c0.8,0,1.1,0.8,1.4,1.3c0.1,0.2,0.3,0.7,0.4,0.7c0.1,0,0.3-0.5,0.4-0.7c0.2-0.6,0.6-1.3,1.4-1.3c0.8,0,1.1,0.8,1.4,1.3
							c0.1,0.2,0.3,0.7,0.4,0.7c0.1,0,0.3-0.5,0.4-0.7c0.2-0.6,0.6-1.3,1.4-1.3c0.8,0,1.1,0.8,1.4,1.3c0.1,0.2,0.3,0.7,0.4,0.7
							V129.6L224.5,129.6z"/>
					</g>
				</g>
				<path class="st14" d="M228.1,147.5v11.4c0,0.8-0.6,1.4-1.4,1.4h-19.3c-0.8,0-1.4-0.6-1.4-1.4v-11.4H228.1z"/>
				<g>
					<g>
						<line class="st14" x1="228.6" y1="148.6" x2="205.6" y2="148.6"/>
						<path class="st15" d="M228.6,149.7h-23c-0.6,0-1.1-0.5-1.1-1.1c0-0.6,0.5-1.1,1.1-1.1h23c0.6,0,1.1,0.5,1.1,1.1
							C229.7,149.3,229.2,149.7,228.6,149.7L228.6,149.7z"/>
					</g>
					<g>
						<line class="st14" x1="228.6" y1="152.3" x2="205.6" y2="152.3"/>
						<path class="st15" d="M228.6,153.5h-23c-0.6,0-1.1-0.5-1.1-1.1c0-0.6,0.5-1.1,1.1-1.1h23c0.6,0,1.1,0.5,1.1,1.1
							C229.7,153,229.2,153.5,228.6,153.5L228.6,153.5z"/>
					</g>
					<g>
						<line class="st14" x1="228.6" y1="156.1" x2="205.6" y2="156.1"/>
						<path class="st15" d="M228.6,157.2h-23c-0.6,0-1.1-0.5-1.1-1.1c0-0.6,0.5-1.1,1.1-1.1h23c0.6,0,1.1,0.5,1.1,1.1
							C229.7,156.7,229.2,157.2,228.6,157.2L228.6,157.2z"/>
					</g>
				</g>
			</g>
			<g>
				<g>
					<path class="st21" d="M217.1,87.9c-0.3,0-0.6-0.3-0.6-0.6V75.4c0-0.3,0.3-0.6,0.6-0.6c0.3,0,0.6,0.3,0.6,0.6v11.9
						C217.6,87.6,217.4,87.9,217.1,87.9L217.1,87.9z"/>
				</g>
				<g>
					<path class="st21" d="M201.9,92c-0.2,0-0.4-0.1-0.5-0.3l-6-10.3c-0.2-0.3-0.1-0.6,0.2-0.8c0.3-0.2,0.6-0.1,0.8,0.2l6,10.3
						c0.2,0.3,0.1,0.6-0.2,0.8C202.1,91.9,202,92,201.9,92L201.9,92z"/>
				</g>
				<g>
					<path class="st21" d="M190.8,103.1c-0.1,0-0.2,0-0.3-0.1l-10.3-6c-0.3-0.2-0.4-0.5-0.2-0.8c0.2-0.3,0.5-0.4,0.8-0.2l10.3,6
						c0.3,0.2,0.4,0.5,0.2,0.8C191.1,103,190.9,103.1,190.8,103.1L190.8,103.1z"/>
				</g>
				<g>
					<path class="st21" d="M186.7,118.3h-11.9c-0.3,0-0.6-0.3-0.6-0.6c0-0.3,0.3-0.6,0.6-0.6h11.9c0.3,0,0.6,0.3,0.6,0.6
						C187.2,118.1,187,118.3,186.7,118.3L186.7,118.3z"/>
				</g>
				<g>
					<path class="st21" d="M180.4,139.5c-0.2,0-0.4-0.1-0.5-0.3c-0.2-0.3-0.1-0.6,0.2-0.8l10.3-6c0.3-0.2,0.6-0.1,0.8,0.2
						c0.2,0.3,0.1,0.6-0.2,0.8l-10.3,6C180.6,139.5,180.5,139.5,180.4,139.5L180.4,139.5z"/>
				</g>
				<g>
					<path class="st21" d="M195.9,155c-0.1,0-0.2,0-0.3-0.1c-0.3-0.2-0.4-0.5-0.2-0.8l6-10.3c0.2-0.3,0.5-0.4,0.8-0.2
						c0.3,0.2,0.4,0.5,0.2,0.8l-6,10.3C196.3,154.9,196.1,155,195.9,155L195.9,155z"/>
				</g>
				<g>
					<path class="st21" d="M238.3,155c-0.2,0-0.4-0.1-0.5-0.3l-6-10.3c-0.2-0.3-0.1-0.6,0.2-0.8c0.3-0.2,0.6-0.1,0.8,0.2l6,10.3
						c0.2,0.3,0.1,0.6-0.2,0.8C238.5,154.9,238.4,155,238.3,155L238.3,155z"/>
				</g>
				<g>
					<path class="st21" d="M253.8,139.5c-0.1,0-0.2,0-0.3-0.1l-10.3-6c-0.3-0.2-0.4-0.5-0.2-0.8c0.2-0.3,0.5-0.4,0.8-0.2l10.3,6
						c0.3,0.2,0.4,0.5,0.2,0.8C254.1,139.4,254,139.5,253.8,139.5L253.8,139.5z"/>
				</g>
				<g>
					<path class="st21" d="M259.4,118.3h-11.9c-0.3,0-0.6-0.3-0.6-0.6s0.3-0.6,0.6-0.6h11.9c0.3,0,0.6,0.3,0.6,0.6
						S259.7,118.3,259.4,118.3L259.4,118.3z"/>
				</g>
				<g>
					<path class="st21" d="M243.4,103.1c-0.2,0-0.4-0.1-0.5-0.3c-0.2-0.3-0.1-0.6,0.2-0.8l10.3-6c0.3-0.2,0.6-0.1,0.8,0.2
						c0.2,0.3,0.1,0.6-0.2,0.8l-10.3,6C243.6,103.1,243.5,103.1,243.4,103.1L243.4,103.1z"/>
				</g>
				<g>
					<path class="st21" d="M232.3,92c-0.1,0-0.2,0-0.3-0.1c-0.3-0.2-0.4-0.5-0.2-0.8l6-10.3c0.2-0.3,0.5-0.4,0.8-0.2
						c0.3,0.2,0.4,0.5,0.2,0.8l-6,10.3C232.7,91.9,232.5,92,232.3,92L232.3,92z"/>
				</g>
				<g>
					<path class="st21" d="M217.1,87.9c-0.3,0-0.6-0.3-0.6-0.6V75.4c0-0.3,0.3-0.6,0.6-0.6c0.3,0,0.6,0.3,0.6,0.6v11.9
						C217.6,87.6,217.4,87.9,217.1,87.9L217.1,87.9z"/>
				</g>
			</g>
		</g>
	</g>
	<g>
		<g>
			<g>
				<g>
					<g>
						<g>
							<path class="st14" d="M150.7,243.2c0.5,2.8-1.4,5.4-4.2,5.9l-13.4,2.4c-2.8,0.5-5.4-1.4-5.9-4.1l-6.1-34.4
								c-0.5-2.8,1.4-5.4,4.1-5.9l13.4-2.4c2.8-0.5,5.4,1.4,5.9,4.1L150.7,243.2z"/>
							<g>
								<path class="st22" d="M221.7,180.7c-3.8-3.8-9.9-3.8-13.6,0c-3.8,3.8-3.8,9.9,0,13.6l0,0l0,0c3.8,3.8,9.9,3.8,13.6,0
									C225.4,190.6,225.4,184.5,221.7,180.7L221.7,180.7L221.7,180.7z"/>
							</g>
							<path class="st0" d="M153.2,160.2v40.1l53.5,0v-62c-9.4,10.7-21.7,18.4-35.7,21.2C165,160.7,159,160.9,153.2,160.2z"/>
							<path class="st22" d="M154.5,160.1l-29.4,0c-11.3,0-20.4,9.2-20.5,20.5v14.1c0,11.3,9.2,20.5,20.5,20.5l29.4,0L154.5,160.1z"
								/>
							<path class="st19" d="M209.4,239.9c-2.6,0-4.6-2.4-4.6-5.3v-94.2c0-2.9,2.1-5.3,4.6-5.3l4.6,0c2.6,0,4.6,2.4,4.6,5.3v94.2
								c0,2.9-2.1,5.3-4.6,5.3H209.4z"/>
							<path class="st21" d="M206.7,236.6v-49.4h-53.5v27.5c5.8-0.7,11.8-0.5,17.9,0.7C185,218.2,197.4,225.9,206.7,236.6z"/>
							<path class="st14" d="M154.5,187.2l-49.8,0v7.3c0,11.3,9.2,20.5,20.5,20.5l29.4,0V187.2z"/>
							<path class="st20" d="M218.7,234.6l0-47.4l-13.9,0v47.4c0,2.9,2.1,5.3,4.6,5.3h4.6C216.6,239.9,218.7,237.6,218.7,234.6z"/>
							<path class="st22" d="M131.9,219.3c-0.3-1.8-2.1-3-3.8-2.6l0,0c-1.8,0.3-3,2.1-2.6,3.8l4.7,25.6c0.3,1.8,2.1,3,3.8,2.6l0,0
								c1.8-0.3,3-2.1,2.6-3.8L131.9,219.3z"/>
						</g>
						<g>
							<g>
								<path class="st0" d="M231.6,188.5c-0.2-0.2-0.3-0.5-0.3-0.8c0-0.6,0.5-1.1,1.1-1.1h39.7c0.6,0,1.1,0.5,1.1,1.1
									c0,0.6-0.5,1.1-1.1,1.1h-39.7C232.1,188.9,231.8,188.7,231.6,188.5L231.6,188.5z"/>
							</g>
							<g>
								<g>
									<path class="st0" d="M230.9,180c-0.1-0.1-0.1-0.2-0.2-0.3c-0.3-0.5,0-1.2,0.5-1.4l35.6-17.5c0.5-0.3,1.2-0.1,1.4,0.5
										c0.3,0.5,0,1.2-0.5,1.4l-35.6,17.5C231.7,180.4,231.2,180.3,230.9,180L230.9,180z"/>
								</g>
								<g>
									<path class="st0" d="M230.9,197.1c-0.3-0.3-0.4-0.8-0.2-1.2c0.3-0.5,0.9-0.8,1.4-0.5l35.6,17.5c0.6,0.3,0.8,0.9,0.5,1.4
										c-0.3,0.5-0.9,0.8-1.4,0.5l-35.6-17.5C231.1,197.3,231,197.2,230.9,197.1L230.9,197.1z"/>
								</g>
							</g>
						</g>
					</g>
				</g>
			</g>
		</g>
	</g>
	<path class="st23" d="M413.3,206.4c-0.3-2.7-1.3-5.2-2.9-7.4c-2.6-3.6-6.1-5.7-10.4-6.5c-0.9-0.1-1.8-0.2-2.6-0.3h-0.2
		c-0.8,0.1-1.6,0.1-2.5,0.3c-8.4,1.3-14.4,9.2-13.4,17.6c0.5,4,2.1,7.4,5.1,10.2c3.5,3.2,7.8,4.6,12.6,4.2c3.7-0.3,6.9-1.8,9.5-4.4
		C412.3,216.3,413.9,211.7,413.3,206.4 M409.9,214.6c-0.4-0.7-0.9-1.7-1.2-2.6c-0.3-1.2-1.1,0-1.2,0.8c-0.1,0.8-0.6,1.4-1.7,0.2
		c-1.1-1.2-1.3-0.9-1.6-0.9c-0.3,0-0.9,0.8-0.8,4.6c0.1,2.7,1.2,3.1,1.8,3.3c-1.3,0.9-2.8,1.6-4.4,2c-6.3,1.6-12.8-1.3-15.8-7.1
		c-2.8-5.4-1.4-11.5,1.4-14.8c0.1,0.6,0.2,1.1,0.2,1.7c0.2,1.5,0,3-0.3,4.4c-0.1,0.3,0,0.7,0,1c0,0.2,0.3,0.4,0.5,0.4
		c0.1,0,0.4-0.2,0.4-0.4c0.1-0.3,0.1-0.6,0.1-0.9c0-0.2,0-0.4,0-0.8c0.2,0.2,0.4,0.3,0.5,0.4c0.4,0.4,0.7,0.7,1,1.1
		c0.1,0.2,0.3,0.4,0.3,0.6c0,0.4,0.2,0.7,0.4,1.1c0.3,0.4,0.4,0.9,0.5,1.3c0.1,0.2,0.1,0.4,0.2,0.6c0.2,0.4,0.4,0.6,0.9,0.7
		c0.5,0,0.7,0.2,0.7,0.7c-0.1,0-0.2,0-0.4,0c-0.6,0.1-0.9,0.3-0.9,0.9c0,1.2,0.5,2.2,1.3,3c0.2,0.2,0.5,0.4,0.7,0.7
		c0.5,0.5,0.7,1.2,0.5,1.9c-0.1,0.3-0.3,0.7-0.3,1.1c-0.1,0.4-0.1,0.8,0,1.1c0.1,0.4,0,1.2,0.4,1.1c0.7-0.1,1.1,0,1.1-0.7
		c0-0.1,0-0.2,0-0.3c-0.2-0.7,0.7-2.7,1.3-3.1c0.5-0.3,0.9-0.6,1.4-1c0.6-0.5,0.9-1.2,0.6-2c-0.2-0.8,0-1.3,0.6-1.8
		c0.5-0.5,0.9-1.1,0.9-1.8c0-0.8-0.5-1.3-1.2-1.2c-0.3,0-0.6,0.2-0.9,0.3c-0.5,0.2-0.9,0.4-1.4,0.5c-0.7,0.1-1.1-0.3-1.4-0.8
		c-0.2-0.4-0.3-0.5-0.7-0.2c-0.3,0.2-0.7,0.4-1,0.6c-0.4,0.2-0.6,0.1-0.9-0.2c-0.2-0.2-0.4-0.3-0.6-0.4c-0.2-0.1-0.4-0.1-0.5-0.2
		c-0.2-0.2-0.4-0.4-0.4-0.6c0-0.2,0.3-0.5,0.5-0.5c0.4-0.1,0.8-0.2,1.2-0.3c0.2,0,0.4-0.1,0.6-0.2c0.3-0.1,0.3-0.3,0-0.4
		c-0.1-0.1-0.2-0.1-0.3-0.2c-0.6-0.2-1.2-0.5-1.8-0.7c-0.1-0.1-0.3-0.1-0.4-0.2c-0.4-0.2-0.4-0.5-0.1-0.8c1.3-1.2,2.9-1.5,4.2,0
		c0.4,0.5,0.7,1.1,1.1,1.6c0.3,0.4,0.7,0.8,1.1,1.1c0.2,0.1,0.5,0.1,0.7,0c0.3-0.1,0.3-0.5,0.1-0.8c-0.1-0.2-0.3-0.5-0.4-0.7
		c-0.8-1-0.7-3,0.8-3.8c0.5-0.3,1-0.6,1.3-1.3c-0.3,0.1-0.5,0.1-0.7,0.2c-1.2,0.4-0.4-0.5,0.2-0.7c0.3-0.1-0.3-0.3-0.3-0.3
		c0,0,0.4-0.1,0.8-0.3c0.3-0.1,0.6-0.3,0.9-0.5c0.2-0.1,0.2-0.4,0.3-0.6c0,0-0.1-0.1-0.1-0.1c-0.3,0-0.6,0.1-0.9,0.1
		c-0.5,0.1-0.6,0-0.7-0.6c0-0.4-0.4-0.6-0.7-0.4c-0.2,0.1-0.4,0.3-0.7,0.5c-0.5,0.3-0.9,0.2-1.1-0.4c-0.1-0.3-0.3-0.4-0.6-0.2
		c-0.2,0.1-0.3,0.2-0.4,0.3c-0.3,0.1-0.5,0.3-0.8,0.4c-0.3,0.1-0.6,0.2-0.8-0.1c-0.2-0.3,0-0.6,0.2-0.8c0.3-0.3,0.7-0.4,1-0.6
		c0.5-0.3,1-0.5,1.5-0.8c0.4-0.2,0.5-0.6,0.4-1c-0.1-0.4-0.3-0.5-0.7-0.3c-0.3,0.1-0.5,0.4-0.8,0.5c-0.2,0.1-0.5,0.1-0.7,0
		c-0.1,0-0.2-0.2-0.2-0.4c0-0.1,0.2-0.2,0.3-0.2c0.7-0.1,1.4-0.2,2.1-0.3c0.1,0,0.2,0,0.3,0.1c0.5,0.6,1.1,0.9,1.8,1.1
		c0.6,0.2,0.7,0.1,0.7-0.5c0.7-0.2,1.5-0.5,2.2,0c0.4,0.3,0.8,0.6,1.1,0.9c0.1,0.1,0,0.3,0,0.5c-0.1,0.2-0.2,0.4-0.2,0.7
		c-0.1,0.4,0.2,0.8,0.6,0.8c0.1,0,0.3,0,0.4,0c0.4,0,0.6,0.1,0.5,0.6c-0.1,0.6,0,0.7,0.7,0.6c0.2,0,0.4,0,0.6,0.1
		c0.1,0,0.2,0.1,0.3,0.2c0.6,0.4,1,0.3,1.2-0.4c0-0.1,0-0.2,0-0.2c0.1-0.3,0.2-0.4,0.5-0.2c0.5,0.5,0.9,1,1.3,1.5
		c-0.5,0.5-0.5,1-0.4,1.5c0.1,0.6,0,1.1-0.3,1.6c-0.2,0.5-0.5,1-0.6,1.5c-0.2,0.8,0,1.2,0.8,1.3c0.8,0.2,0.9,0.3,0.9,1.1
		c0,1,0.6,1.7,1.5,2.2c0.2,0.1,0.4,0.2,0.6,0.3C411.1,211.4,410.7,213.1,409.9,214.6"/>
</g>
<g id="Слой_3">
	<g id="Слой_4">
		<g id="Слой_5">
		</g>
	</g>
</g>
</svg>
