<svg xmlns="http://www.w3.org/2000/svg" width="227" height="144.815" viewBox="0 0 227 144.815"><path d="M22.798 129.099h11.788v15.717H22.798zm23.576-14.147h11.787v29.863H46.374zm23.577-10.841h11.786v40.704H69.951zm23.574 9.804h11.789v30.9H93.525zm23.576-35.111h11.788v66.012h-11.788zm23.577 11.788h11.788v54.224h-11.788zm23.575-24.361h11.789v78.584h-11.789zm23.576-22.005h11.79v100.59h-11.79zm23.577-22.792h11.788v123.382h-11.788z" fill="#087E38"/><path fill="#FDCC00" d="M11.412 18.393h48.092v4.581H11.412z"/><path fill="#8AC53F" d="M11.412 30.037H98.33v2.819H11.412zm0 8.651H85.28v2.817H11.412zm0 8.651h81.856v2.819H11.412zm0 8.652h63.706v2.819H11.412z"/><path fill="#FDCC00" d="M11.412 66.962v8.231h28.135v-8.231H11.412zm23.417 5.522H16.13v-2.815h18.699v2.815z"/><path fill="#8AC53F" d="M10.364 127.957a1.267 1.267 0 0 1-.69-2.331l67.182-43.521c.395-.256.902-.27 1.309-.043L98.248 93.31l24.709-38.709c.19-.3.498-.506.849-.567.347-.063.71.026.991.245l21.152 16.27 69.652-60.081a1.266 1.266 0 0 1 1.787.133 1.266 1.266 0 0 1-.132 1.787l-70.435 60.756a1.266 1.266 0 0 1-1.599.044L124.348 57.13 99.74 95.681a1.266 1.266 0 0 1-1.687.425L77.592 84.648l-66.539 43.104a1.25 1.25 0 0 1-.689.205z"/><circle fill="#FDCC00" cx="12.14" cy="126.144" r="4.946"/><circle fill="#FDCC00" cx="76.787" cy="83.68" r="4.946"/><circle fill="#FDCC00" cx="98.547" cy="94.665" r="4.946"/><circle fill="#FDCC00" cx="124.321" cy="55.58" r="4.947"/><circle fill="#FDCC00" cx="146.925" cy="72.694" r="4.947"/><circle fill="#FDCC00" cx="216.429" cy="11.428" r="4.948"/></svg>