<svg id="Objects" xmlns="http://www.w3.org/2000/svg" viewBox="0 0 323.8 328.3"><style>.st0{opacity:.4;fill:#fff}.st1{fill:#e2604a}.st2{fill:#fff}.st3{fill:#d4d2cf}.st4{fill:#f98663}.st5{fill:#e0dedc}.st6{fill:#1f3656}.st7{stroke:#27aae1;stroke-width:.4472;stroke-miterlimit:10}.st7,.st8{fill:none}.st9{font-family:&apos;TeXGyreAdventor-Bold&apos;}.st10{font-size:8.508px}.st11{font-size:5.672px}.st12,.st13{stroke-miterlimit:10}.st12{stroke-linecap:round;stroke-linejoin:round;fill:#fff;stroke:#231f20;stroke-width:1.3108}.st13{fill:none;stroke:#ed1c24;stroke-width:.3277}.st14{fill:#040404}.st15{fill:#c4f0f1}.st16,.st17{fill-rule:evenodd;clip-rule:evenodd;fill:#ec9e06}.st17{fill:#e2604a}.st18{fill:#103754}.st19{fill:#030502}.st20{fill:#fd6120}.st21{fill:#d1ecfb}.st22{fill:#f1f2f2}.st23{fill:#2c465f}.st24{fill:#f07549}.st25{fill:#d1d3d4}.st26{fill:#fdcf9d}.st27{fill:#ffae00}.st28{fill:#ffcd61}.st29{fill:#174f78}.st30{fill:#b1b6b2}.st31{fill:#0d2f44}.st32{opacity:.1}.st33{fill:#a6dae9}.st34{fill:#f8fdff}.st35,.st36{opacity:.1;fill:#fff}.st36{opacity:.6}.st37{fill:#0e303f}.st38{fill:#2c5871}.st39{fill:#164866}</style><g id="light_blue_block"><circle class="st0" cx="168.9" cy="173.4" r="154.9"/><path class="st1" d="M6.9 71.5c-1.2 0-2.3 1-2.3 2.3v88.6c0 1.2 1 2.3 2.3 2.3h61.3c1.2 0 2.3-1 2.3-2.3V73.8c0-1.2-1-2.3-2.3-2.3H6.9z"/><path class="st2" d="M8.4 76.8h58.4v82.5H8.4z"/><path class="st3" d="M15.8 141.6h43.5v1.3H15.8zm0 3.2h43.5v1.3H15.8zm0 3.2h21.8v1.3H15.8zm0-16.2h43.5v1.3H15.8zm0 3.3h43.5v1.3H15.8zm0 3.2h43.3v1.3H15.8zm11.7-46.7h31.7V93H27.5zm0 9.6h31.7v1.4H27.5zm0 9.6h31.7v1.4H27.5zm0 9.5h31.7v1.4H27.5zm-7.6-24.1c-2.1 0-3.9-1.7-3.9-3.9 0-2.1 1.7-3.9 3.9-3.9 2.1 0 3.9 1.7 3.9 3.9-.1 2.2-1.8 3.9-3.9 3.9zm0-6.9c-1.7 0-3.1 1.4-3.1 3.1 0 1.7 1.4 3.1 3.1 3.1 1.7 0 3.1-1.4 3.1-3.1-.1-1.8-1.4-3.1-3.1-3.1zm0 16.5c-2.1 0-3.9-1.7-3.9-3.9 0-2.1 1.7-3.9 3.9-3.9 2.1 0 3.9 1.7 3.9 3.9-.1 2.1-1.8 3.9-3.9 3.9zm0-7c-1.7 0-3.1 1.4-3.1 3.1 0 1.7 1.4 3.1 3.1 3.1 1.7 0 3.1-1.4 3.1-3.1-.1-1.7-1.4-3.1-3.1-3.1zm0 16.5c-2.1 0-3.9-1.7-3.9-3.9s1.7-3.9 3.9-3.9c2.1 0 3.9 1.7 3.9 3.9s-1.8 3.9-3.9 3.9zm0-6.9c-1.7 0-3.1 1.4-3.1 3.1 0 1.7 1.4 3.1 3.1 3.1 1.7 0 3.1-1.4 3.1-3.1-.1-1.7-1.4-3.1-3.1-3.1zm0 16.5c-2.1 0-3.9-1.7-3.9-3.9 0-2.1 1.7-3.9 3.9-3.9 2.1 0 3.9 1.7 3.9 3.9-.1 2.2-1.8 3.9-3.9 3.9zm0-7c-1.7 0-3.1 1.4-3.1 3.1 0 1.7 1.4 3.1 3.1 3.1 1.7 0 3.1-1.4 3.1-3.1-.1-1.7-1.4-3.1-3.1-3.1z"/><path class="st4" d="M17.4 101.2l.7-.6 1.8 1.8 3.8-3.8.7.7-4.5 4.4z"/><path class="st5" d="M42.6 71.7c0-2.8-2.2-5-5-5s-5 2.2-5 5h-6.3V82H49V71.7h-6.4zm-5-1.7c.9 0 1.7.8 1.7 1.7 0 .9-.8 1.7-1.7 1.7-.9 0-1.7-.8-1.7-1.7 0-1 .8-1.7 1.7-1.7z"/><path class="st3" d="M42.6 71.7c0-2.8-2.2-5-5-5s-5 2.2-5 5h-6.3v5.1H49v-5.1h-6.4zm-5-1.7c.9 0 1.7.8 1.7 1.7 0 .9-.8 1.7-1.7 1.7-.9 0-1.7-.8-1.7-1.7 0-1 .8-1.7 1.7-1.7z"/><path class="st2" d="M26.3 75.7H49v1.1H26.3z"/><path class="st3" d="M26.3 76.8H49v1.1H26.3z"/><circle class="st6" cx="37.6" cy="220.6" r="37.6"/><circle class="st2" cx="37.6" cy="220.6" r="34.5"/><circle class="st7" cx="37.6" cy="220.6" r="33.2"/><circle class="st8" cx="37.6" cy="220.1" r="29.7"/><text transform="translate(33.188 196.452)" class="st9 st10">12</text><text transform="translate(50.928 198.027)" class="st9 st11">1</text><text transform="translate(61.096 209.197)" class="st9 st11">2</text><text transform="translate(63.592 223.448)" class="st9 st10">3</text><text transform="translate(61.096 234.619)" class="st9 st11">4</text><text transform="translate(50.928 245.289)" class="st9 st11">5</text><text transform="translate(35.37 249.155)" class="st9 st10">6</text><text transform="translate(22.779 245.717)" class="st9 st11">7</text><text transform="translate(12.716 234.977)" class="st9 st11">8</text><text transform="translate(7.835 223.233)" class="st9 st10">9</text><text transform="translate(11.024 209.197)" class="st9 st11">10</text><text transform="translate(21.753 197.382)" class="st9 st11">11</text><path class="st12" d="M38.1 220H23.9m14.2 0v-15.4"/><path class="st13" d="M38.1 220l-6.9 8.2"/><circle class="st14" cx="38.1" cy="220" r="1.5"/><path class="st6" d="M306.1 245.7c0 .9-.8 1.7-1.7 1.7h-34.3c-.9 0-1.7-.8-1.7-1.7v-65c0-.9.8-1.7 1.7-1.7h34.3c.9 0 1.7.8 1.7 1.7v65z"/><path class="st2" d="M271.1 186.2h32.4v53.7h-32.4z"/><circle class="st2" cx="287.3" cy="243.4" r="2.2"/><circle class="st2" cx="287.3" cy="182.5" r="1"/><path class="st2" d="M187.2 229.3h-41.9l5.3-25.9h31.2z"/><path class="st5" d="M187.2 229.3l-5.4-25.9h-31.2l25.9 25.9z"/><path class="st2" d="M198.4 232.4h-64.3v-1.2c0-.5.2-1 .6-1.4.4-.4.9-.6 1.4-.6h60.4c.5 0 1 .2 1.4.6.4.4.6.9.6 1.4v1.2z"/><path class="st6" d="M89.8 96.9c-2.1 0-3.9 1.8-3.9 3.9v98.7c0 2.2 1.8 3.9 3.9 3.9h152.9c2.2 0 3.9-1.8 3.9-3.9v-98.7c0-2.1-1.8-3.9-3.9-3.9H89.8z"/><path class="st15" d="M94 105h144.5v90.3H94z"/><path class="st2" d="M101.1 190h131.1v1.2H101.1zm0-9.3h131.1v1.2H101.1zm0-9.4h131.1v1.2H101.1zm0-9.3h131.1v1.2H101.1zm0-9.3h131.1v1.2H101.1zm0-9.4h131.1v1.2H101.1zm0-9.3h131.1v1.2H101.1zm0-9.3h131.1v1.2H101.1z"/><path class="st16" d="M101.1 173.6h14.5v17.7h-14.5z"/><path class="st17" d="M117.9 165.9h14.5v25.4h-14.5z"/><path transform="translate(-.218 .182)" class="st16" d="M134.6 148.1h14.5v43.2h-14.5z"/><path class="st17" d="M151.3 154.1h14.5v37.2h-14.5z"/><path transform="translate(-.3 .29)" class="st16" d="M168 172.6h14.5v18.6H168z"/><path transform="translate(-.276 .297)" class="st17" d="M184.3 165.5h14.5v25.6h-14.5z"/><path class="st16" d="M201 153.9h14.5v37.2H201z"/><path transform="translate(-.18 .252)" class="st17" d="M217.8 129.4h14.5v61.7h-14.5z"/><path class="st18" d="M250.2 239.5h-41.4c-2.1 0-3.8 1.7-3.8 3.8v55.9c0 2.1 1.7 3.8 3.8 3.8h41.4c2.1 0 3.8-1.7 3.8-3.8v-55.9c0-2.1-1.7-3.8-3.8-3.8z"/><path class="st19" d="M250.2 239.5h-41.4c-2.1 0-3.8 1.7-3.8 3.8v18.2h49v-18.2c0-2.1-1.7-3.8-3.8-3.8z"/><path class="st18" d="M249 285.1c0 .7-.6 1.3-1.3 1.3h-7.4c-.7 0-1.3-.6-1.3-1.3v-4.9c0-.7.6-1.3 1.3-1.3h7.4c.7 0 1.3.6 1.3 1.3v4.9z"/><path class="st2" d="M220.1 295.6c0 .7-.6 1.3-1.3 1.3h-7.4c-.7 0-1.3-.6-1.3-1.3v-4.9c0-.7.6-1.3 1.3-1.3h7.4c.7 0 1.3.6 1.3 1.3v4.9zm0-11.8c0 .7-.6 1.3-1.3 1.3h-7.4c-.7 0-1.3-.6-1.3-1.3V279c0-.7.6-1.3 1.3-1.3h7.4c.7 0 1.3.6 1.3 1.3v4.8zm0-11.8c0 .7-.6 1.3-1.3 1.3h-7.4c-.7 0-1.3-.6-1.3-1.3v-4.9c0-.7.6-1.3 1.3-1.3h7.4c.7 0 1.3.6 1.3 1.3v4.9zm14.4 23.6c0 .7-.6 1.3-1.3 1.3h-7.4c-.7 0-1.3-.6-1.3-1.3v-4.9c0-.7.6-1.3 1.3-1.3h7.4c.7 0 1.3.6 1.3 1.3v4.9zm0-11.8c0 .7-.6 1.3-1.3 1.3h-7.4c-.7 0-1.3-.6-1.3-1.3V279c0-.7.6-1.3 1.3-1.3h7.4c.7 0 1.3.6 1.3 1.3v4.8zm0-11.8c0 .7-.6 1.3-1.3 1.3h-7.4c-.7 0-1.3-.6-1.3-1.3v-4.9c0-.7.6-1.3 1.3-1.3h7.4c.7 0 1.3.6 1.3 1.3v4.9z"/><path class="st20" d="M249 295.6c0 .7-.6 1.3-1.3 1.3h-7.4c-.7 0-1.3-.6-1.3-1.3V282c0-.7.6-1.3 1.3-1.3h7.4c.7 0 1.3.6 1.3 1.3v13.6z"/><path class="st20" d="M249 283.8c0 .7-.6 1.3-1.3 1.3h-7.4c-.7 0-1.3-.6-1.3-1.3V279c0-.7.6-1.3 1.3-1.3h7.4c.7 0 1.3.6 1.3 1.3v4.8z"/><path class="st2" d="M249 272c0 .7-.6 1.3-1.3 1.3h-7.4c-.7 0-1.3-.6-1.3-1.3v-4.9c0-.7.6-1.3 1.3-1.3h7.4c.7 0 1.3.6 1.3 1.3v4.9z"/><path class="st21" d="M249 256.2c0 .7-.6 1.3-1.3 1.3h-36.3c-.7 0-1.3-.6-1.3-1.3v-10.4c0-.7.6-1.3 1.3-1.3h36.3c.7 0 1.3.6 1.3 1.3v10.4z"/><path class="st2" d="M76.8 243.9v66c0 2.7 2.2 4.8 4.8 4.8h86.9c2.7 0 4.8-2.2 4.8-4.8v-66c0-2.7-2.2-4.8-4.8-4.8H81.6c-2.6 0-4.8 2.1-4.8 4.8z"/><path class="st22" d="M168.5 239.1h-44.2v75.6h44.2c2.7 0 4.8-2.2 4.8-4.8v-66c.1-2.7-2.1-4.8-4.8-4.8z"/><ellipse class="st23" cx="169" cy="276.9" rx="1.9" ry="1.9"/><circle class="st23" cx="82.5" cy="276.9" r="1.1"/><path class="st23" d="M86.1 247.6H164v58.5H86.1z"/><path class="st24" d="M119 267.6h9.7v32H119zm-26.2 13.9h9.7v18h-9.7zm13.1-8.8h9.7v26.8h-9.7z"/><path class="st25" d="M136 253.5h22.9v5.2H136zm0 7.8h22.9v5.2H136zm0 7.8h22.9v5.2H136zm0 7.9h22.9v5.2H136zm0 7.8h22.9v5.2H136zm0 7.8h22.9v5.2H136z"/><path class="st26" d="M293.8 104l-28.4 20.5V159h56.7v-34.5z"/><path class="st2" d="M270.3 95.9h47v49h-47z"/><path class="st4" d="M275.9 105.3H293v17.1h-17.1z"/><path class="st2" d="M285.1 108.6c-3.1 0-5.9 2.6-5.9 5.8 0 2.6 2 4.6 4.7 4.6 1.1 0 2.2-.3 3.1-.9l-.3-.4c-.8.5-1.7.8-2.8.8-2.5 0-4.2-1.8-4.2-4.2 0-2.8 2.4-5.3 5.3-5.3 2.5 0 4.2 1.8 4.2 4.2 0 2-1 2.7-1.6 2.7-.4 0-.7-.3-.7-.8v-.3l.8-4h-1l-.2.9c-.3-.6-.9-1.2-1.9-1.2-1.7 0-3.5 1.7-3.5 3.7 0 1.4.9 2.4 2.3 2.4.9 0 1.8-.6 2.4-1.3v.1c0 .6.5 1.2 1.3 1.2 1.2 0 2.6-1.2 2.6-3.5 0-2.4-1.8-4.5-4.6-4.5zm.9 6c-.4.6-1.2 1.3-2.2 1.3-1 0-1.5-.7-1.5-1.6 0-1.4 1.1-2.8 2.6-2.8.9 0 1.4.6 1.5 1.1l-.4 2z"/><path class="st3" d="M296.3 105.3h16.3v1.8h-16.3zm0 5.1h16.3v1.8h-16.3zm0 5.1h16.3v1.8h-16.3zm0 5h16.3v1.8h-16.3zm-20.4 5.1h36.6v1.8h-36.6zm0 5.1h18.3v1.8h-18.3z"/><path class="st27" d="M322.1 124.5V159l-28.3-17.3zm-28.3 17.2L265.4 159v-34.5z"/><path class="st28" d="M322.1 159h-56.7l28.4-17.3z"/><path class="st18" d="M153 5.9c-.4.9-1.3 1.3-1.9 1.1-9.6-4.3-20.7-4.3-30.3 0-.6.3-1.5-.2-1.9-1.1 0-.1-.1-.1-.1-.2-.4-.9-.2-1.9.4-2.2 10.6-4.8 22.8-4.8 33.4 0 .7.3.9 1.3.4 2.2.1.1.1.2 0 .2z"/><path class="st29" d="M152.7 3.6c-10.6-4.8-22.8-4.8-33.4 0-.7.3-.9 1.3-.4 2.2 10.8-5.3 23.5-5.3 34.3 0 .4-.9.2-1.9-.5-2.2z"/><path class="st30" d="M122.4 16c0 .6-.5 1.2-1.2 1.2h-.2c-.6 0-1.2-.5-1.2-1.2V6.1c0-.6.5-1.2 1.2-1.2h.2c.6 0 1.2.5 1.2 1.2V16z"/><ellipse class="st30" cx="121.2" cy="11.6" rx="2.8" ry="2.8"/><path class="st30" d="M152.1 16c0 .6-.5 1.2-1.2 1.2h-.2c-.6 0-1.2-.5-1.2-1.2V6.1c0-.6.5-1.2 1.2-1.2h.2c.6 0 1.2.5 1.2 1.2V16z"/><circle class="st30" cx="150.8" cy="11.6" r="2.8"/><path class="st18" d="M189.3 79.6c0 1.9-1.6 3.5-3.5 3.5H86.2c-1.9 0-3.5-1.6-3.5-3.5V15c0-1.9 1.6-3.5 3.5-3.5h99.6c1.9 0 3.5 1.6 3.5 3.5v64.6z"/><path class="st31" d="M185.8 80.5H86.2c-1.9 0-3.5-1.6-3.5-3.5v2.7c0 1.9 1.6 3.5 3.5 3.5h99.6c1.9 0 3.5-1.6 3.5-3.5V77c0 1.9-1.6 3.5-3.5 3.5z"/><path class="st32" d="M189.3 41.7c0 1.9-1.5 3.9-3.5 4.4-32.8 7.8-67 7.8-99.7 0-1.9-.5-3.5-2.4-3.5-4.4V18c0-1.9 1.6-3.5 3.5-3.5h99.6c1.9 0 3.5 1.6 3.5 3.5.1 7.9.1 15.8.1 23.7z"/><path class="st29" d="M189.3 38.8c0 1.9-1.5 3.9-3.5 4.4-32.8 7.8-67 7.8-99.7 0-1.9-.5-3.5-2.4-3.5-4.4V15.1c0-1.9 1.6-3.5 3.5-3.5h99.6c1.9 0 3.5 1.6 3.5 3.5.1 7.9.1 15.8.1 23.7z"/><path class="st18" d="M129.2 11.5v30.9c0 1.5.5 2.8 1.2 2.8h11.3c.6 0 1.2-1.3 1.2-2.8V11.5h-13.7z"/><path class="st32" d="M189.3 17.2v-2.1c0-1.9-1.6-3.5-3.5-3.5H86.2c-1.9 0-3.5 1.6-3.5 3.5v2.1h106.6z"/><path class="st33" d="M142 56.3c0 .6-.4 1.2-1 1.4-3.3 1-6.8 1-10.1 0-.6-.2-1-.8-1-1.4V44.2c0-.6.4-1.2 1-1.4 3.3-1 6.8-1 10.1 0 .6.2 1 .8 1 1.4v12.1z"/><path class="st21" d="M141 43.3c-3.3-1-6.8-1-10.1 0-.6.2-1 .8-1 1.3v5.3H142v-5.3c0-.6-.4-1.2-1-1.3z"/><path class="st34" d="M140.1 43.8c-2.7-.8-5.6-.8-8.3 0-.5.1-.8.6-.8 1.1v4.4h10v-4.4c0-.5-.4-1-.9-1.1z"/><path class="st33" d="M129.9 50.9v5.3c0 .6.4 1.2 1 1.4 3.3 1 6.8 1 10.1 0 .6-.2 1-.8 1-1.4v-5.3h-12.1z"/><path class="st21" d="M136 57.4c-1.6 0-3.2-.2-4.7-.7-.1 0-.3-.3-.3-.4V52h10v4.3c0 .1-.2.4-.3.4-1.5.5-3.1.7-4.7.7z"/><path class="st35" d="M222.6 52.1c0-4.6 1.7-8.9 4.9-12.2 6.6-6.8 17.6-6.9 24.3-.3 3.3 3.2 5.1 7.5 5.2 12.2 0 4.6-1.7 8.9-4.9 12.2-3.2 3.3-7.5 5.1-12.1 5.2-4.6.1-8.9-1.7-12.2-4.9-3.4-3.2-5.2-7.5-5.2-12.2z"/><path class="st33" d="M256.9 50.3c0 .2 0 .5.1.7-.1-.2-.1-.5-.1-.7zm.1.8z"/><path class="st36" d="M222.6 52.1c0 4.1 1.5 8 4.2 11.1-.5-.6-1-1.2-1.4-1.9-.7-1.9-1.1-4-1.2-6.1 0-4.6 1.7-8.9 4.9-12.2 6.6-6.8 17.6-6.9 24.3-.3.9.9 1.7 1.9 2.4 3 .6 1.4.9 3 1.1 4.5-.4-4-2.2-7.7-5.1-10.6-6.8-6.6-17.7-6.5-24.3.3-3.2 3.3-5 7.6-4.9 12.2z"/><path class="st33" d="M226.7 63.2l.3.3-.3-.3zm.4.4c.1.1.2.2.2.3-.1-.1-.1-.2-.2-.3zm.3.4l.3.3-.3-.3z"/><path class="st37" d="M269.9 51.6c0-1.6-1.4-2.9-3-2.9l-5.3.1c-1.6 0-2.9 1.4-2.9 3s1.4 2.9 3 2.9l5.3-.1c1.6 0 2.9-1.4 2.9-3z"/><path class="st38" d="M216.6 52.2c.1 6.2 2.5 12 6.9 16.3 4.4 4.3 10.3 6.7 16.4 6.6 6.2-.1 12-2.5 16.3-6.9 4.3-4.4 6.6-10.2 6.6-16.4-.1-6.2-2.5-12-7-16.3-9.1-8.9-23.8-8.8-32.7.4-4.2 4.3-6.5 10.1-6.5 16.3zm35.2-12.5c3.3 3.2 5.1 7.5 5.2 12.2 0 4.6-1.7 8.9-4.9 12.2-3.2 3.3-7.5 5.1-12.1 5.2-4.6.1-8.9-1.7-12.2-4.9-3.3-3.2-5.1-7.5-5.2-12.2 0-4.6 1.7-8.9 4.9-12.2 6.6-6.9 17.5-7 24.3-.3z"/><path transform="matrix(1 -.00923 .00923 1 -.463 2.636)" class="st18" d="M266.7 45.5H304v11.9h-37.3z"/><path transform="matrix(1 -.00924 .00924 1 -.463 2.638)" class="st38" d="M266.7 48H304v7h-37.3z"/><path transform="matrix(1 -.00915 .00915 1 -.457 2.757)" class="st37" d="M298.2 45.4h5.7v11.9h-5.7z"/><path transform="matrix(1 -.00904 .00904 1 -.452 2.723)" class="st39" d="M298.2 47.8h5.7v7h-5.7z"/><path class="st36" d="M236.8 66.2c-4.4-1.4-7.9-4.5-10-8.6-.7-1.4-1.2-2.9-1.5-4.4l3.3-1.5c.3 1.8.8 3.6 1.7 5.4 2.1 4.1 5.6 7.1 10 8.6 2 .7 4.1.9 6.2.8-3.2.8-6.6.7-9.7-.3z"/></g></svg>