<svg xmlns="http://www.w3.org/2000/svg" width="14" height="16" viewBox="0 0 14 16"><title>calendar copy</title><path d="M12.5 15.464h-11c-.55 0-1-.448-1-1v-11c0-.552.45-1 1-1h1v.5c0 .829.67 1.5 1.5 1.5s1.5-.671 1.5-1.5v-.5h3v.5c0 .829.67 1.5 1.5 1.5s1.5-.671 1.5-1.5v-.5h1c.55 0 1 .448 1 1v11c0 .552-.45 1-1 1zm0-9.5h-11v8.5h11zM4 8.464H2.5v-1.5H4zm0 2.5H2.5v-1.5H4zm0 2.5H2.5v-1.5H4zm2.5-5H5v-1.5h1.5zm0 2.5H5v-1.5h1.5zm0 2.5H5v-1.5h1.5zm2.5-5H7.5v-1.5H9zm0 2.5H7.5v-1.5H9zm0 2.5H7.5v-1.5H9zm2.5-5H10v-1.5h1.5zm0 2.5H10v-1.5h1.5zm0 2.5H10v-1.5h1.5zm-1.52-9.5A.983.983 0 0 1 9 2.98V1.949a.985.985 0 0 1 1.97 0V2.98c0 .543-.44.984-.99.984zM4.97 2.98V1.949a.985.985 0 0 0-1.97 0V2.98a.985.985 0 0 0 1.97 0z" fill="#3cbd0d"/></svg>