<svg xmlns="http://www.w3.org/2000/svg" width="58.144" height="79.63" viewBox="0 0 58.144 79.63"><path fill-rule="evenodd" clip-rule="evenodd" fill="#FFF" d="M57.939 0H.204A.205.205 0 0 0 0 .204v79.222c0 .112.092.204.204.204h57.735a.205.205 0 0 0 .204-.204V.204A.204.204 0 0 0 57.939 0z"/><path fill-rule="evenodd" clip-rule="evenodd" fill="#9BB5B5" d="M3.115 6.419h22.309v1.292H3.115z"/><g fill-rule="evenodd" clip-rule="evenodd"><path fill="#FFAE00" d="M5.654 73.058H52.49v1.291H5.654z"/><path fill="#0E8E42" d="M44.163 46.028h8.327v27.03h-8.327z"/><path fill="#FCCC00" d="M34.536 56.22h8.326v16.838h-8.326z"/><path fill="#89C53E" d="M24.909 61.922h8.326v11.136h-8.326z"/><path fill="#FFA403" d="M15.281 56.7h8.326v16.357h-8.326z"/><path fill="#077D38" d="M5.654 61.361h8.326v11.697H5.654z"/></g><g fill="#FFA403"><circle fill-rule="evenodd" clip-rule="evenodd" cx="7.979" cy="49.699" r="1.785"/><path fill-rule="evenodd" clip-rule="evenodd" d="M51.95 29.384l-4.693.084 1.631 2.194 1.632 2.193z"/><path d="M9.566 47.181l13.375-9.958.424-.315.344.404 6.363 7.495 17.761-13.213.366.492.308.414-18.188 13.528-.424.315-.343-.404-6.363-7.495-12.949 9.64a2.46 2.46 0 0 0-.674-.903z"/></g><path fill-rule="evenodd" clip-rule="evenodd" fill="#9BB5B5" d="M3.115 8.419h22.309v1.292H3.115zm0 2h22.309v1.292H3.115zm0 2h22.309v1.292H3.115zm0 2h22.309v1.292H3.115zm0 2h22.309v1.292H3.115zm0 5h22.309v1.292H3.115zm0 2h22.309v1.292H3.115zm0 2h22.309v1.292H3.115zm0 2h22.309v1.292H3.115zm29-21h22.309v1.292H32.115zm0 2h22.309v1.292H32.115zm0 2h22.309v1.292H32.115zm0 2h22.309v1.292H32.115zm0 2h22.309v1.292H32.115zm0 2h22.309v1.292H32.115z"/></svg>