<svg xmlns="http://www.w3.org/2000/svg" viewBox="0 0 19.468 19.503"><path fill="#FFF" d="M0 7.883h3.438v10.361H0V7.883zm19.468 9.634l-4.104-4.203-.533.333-.808-.803c1.263-1.814 1.113-4.344-.476-5.971-.109-.111-.233-.195-.349-.292V0H9.762v5.566c-.5.065-.985.217-1.446.452V4.327H4.883v13.917h3.432v-3.95c.46.235.946.386 1.446.452v3.497h3.435v-4.089l.53.523-.305.626 4.105 4.199s.892.011 1.43-.617c.54-.628.512-1.368.512-1.368zM7.869 7.626a3.436 3.436 0 0 1 4.941-.001 3.64 3.64 0 0 1-.003 5.062 3.44 3.44 0 0 1-4.942-.002c-1.366-1.396-1.364-3.662.004-5.059z"/></svg>