<svg xmlns="http://www.w3.org/2000/svg" width="108.334" height="153.214" viewBox="0 0 108.334 153.214"><g fill-rule="evenodd" clip-rule="evenodd"><path fill="#FFF" d="M0 0h90.811l17.523 17.796v135.418H.001z"/><path fill="#CCC" d="M27.87 16.411h52.594v2.696H27.87zM9.943 23.153h88.448v2.697H9.943zm0 4.72h88.448v2.697H9.943zm0 4.72h88.448v2.697H9.943zm0 4.72h88.448v2.697H9.943zm0 4.72h88.448v2.697H9.943zm0 4.72h88.448v2.697H9.943zm0 4.72h88.448v2.697H9.943zm0 4.719h88.448v2.697H9.943zm0 4.72h44.225v2.697H9.943z"/><circle fill="#077D38" cx="86.921" cy="87.014" r="11.47"/><path fill="#FFA403" d="M80.608 96.592a11.516 11.516 0 0 1-3.901-4.354l10.214-5.225-6.313 9.579z"/><path fill="#89C53E" d="M76.707 92.238a11.418 11.418 0 0 1-1.256-5.225c0-3.667 1.721-6.933 4.4-9.032l7.069 9.032-10.213 5.225z"/><path fill="#FCCC00" d="M79.852 77.981a11.425 11.425 0 0 1 7.069-2.438v11.47l-7.069-9.032z"/><path fill="#0E8E42" d="M86.921 75.544v11.47l8.175-8.045a11.436 11.436 0 0 0-8.175-3.425z"/><path fill="#CCC" d="M9.943 100.434h52.629v1.347H9.943z"/><path fill="#077D38" d="M9.943 72.248h9.355v28.186H9.943z"/><path fill="#89C53E" d="M20.762 82.876h9.355v17.558h-9.355z"/><path fill="#FCCC00" d="M31.579 88.822h9.356v11.611h-9.356z"/><path fill="#0E8E42" d="M42.397 83.377h9.356v17.057h-9.356z"/><path fill="#FFA403" d="M53.216 88.236h9.356v12.197h-9.356z"/><path fill="#CCC" d="M76.181 100.434h4.722v1.347h-4.722zm6.909 0h14.026v1.347H83.09zm-73.147 5.608h40.592v2.697H9.943zm0 4.721h40.592v2.696H9.943zm0 4.719h40.592v2.696H9.943zm0 4.72h40.592v2.697H9.943zm0 4.72h40.592v2.697H9.943zm0 4.72h40.592v2.697H9.943zm0 4.719h40.592v2.697H9.943zm0 4.72h20.296v2.697H9.943zm47.856-33.039h40.593v2.697H57.799zm0 4.721h40.593v2.696H57.799zm0 4.719h40.593v2.697H57.799zm0 4.72h40.593v2.697H57.799zm0 4.72h40.593v2.697H57.799zm0 4.72h40.593v2.697H57.799zm0 4.719h40.593v2.697H57.799zm0 4.72h28.572v2.697H57.799z"/></g></svg>