<svg xmlns="http://www.w3.org/2000/svg" width="38" height="43" viewBox="0 0 38 43"><title>Shape 1</title><path d="M37.6 40.17l-6.006-6.02c3.14-4.09 2.84-9.99-.902-13.74a10.484 10.484 0 0 0-3.781-2.43V8.54c0-.36-.144-.71-.4-.96L19.843.9c-.256-.26-.603-.4-.965-.4H1.864C1.111.5.5 1.11.5 1.87v29.06c0 .75.611 1.36 1.364 1.36h12.032a10.264 10.264 0 0 0 2.04 2.89 10.332 10.332 0 0 0 7.378 3.06c2.327 0 4.538-.75 6.351-2.15l6.006 6.01c.266.27.615.4.964.4a1.365 1.365 0 0 0 .965-2.33zM20.242 5.16l2.012 2.02h-2.012zM3.228 3.23h14.286v5.31c0 .76.611 1.37 1.364 1.37h5.305v7.48a8.372 8.372 0 0 0-.869-.04c-.737 0-1.463.08-2.168.22H5.59c-.502 0-.91.41-.91.91 0 .51.408.92.91.92h11.518a10.513 10.513 0 0 0-2.438 2.54H5.59c-.502 0-.91.41-.91.91 0 .51.408.92.91.92h8.098a10.501 10.501 0 0 0-.655 5.79H3.228zM15.87 25.81h5.834a.911.911 0 0 0 0-1.82H16.61c.335-.59.752-1.15 1.255-1.65a7.64 7.64 0 0 1 5.449-2.26c1.084 0 2.133.23 3.097.65v11.18h-9.613a7.739 7.739 0 0 1-.928-6.1zm2.523 7.92h8.927c.502 0 .909-.4.909-.91V21.85c.185.16.363.32.534.49 3.005 3.01 3.005 7.9 0 10.91a7.64 7.64 0 0 1-5.449 2.26c-1.818 0-3.54-.63-4.921-1.78zM5.59 15.03h16.231c.502 0 .91-.41.91-.92 0-.5-.408-.91-.91-.91H5.59c-.502 0-.91.41-.91.91 0 .51.408.92.91.92z" fill="#3cbd0d"/></svg>