<svg xmlns="http://www.w3.org/2000/svg" width="36" height="36" viewBox="0 0 36 36"><title>Forma 1</title><path d="M26.75 15.88V6.61L20.64.5H.5v35h26.25v-.06c4.921-.55 8.748-4.72 8.75-9.78a9.839 9.839 0 0 0-8.75-9.78zM20.185 3.14l3.925 3.92h-3.925zM2.687 33.31V2.69H18v6.56h6.562v6.63A9.775 9.775 0 0 0 19.474 18H4.875v2.19h12.597a9.827 9.827 0 0 0-1.088 2.18H4.875v2.19h11.002a9.807 9.807 0 0 0 3.599 8.75zm22.969-.13c-4.157-.01-7.52-3.37-7.529-7.52a7.542 7.542 0 0 1 7.529-7.53 7.542 7.542 0 0 1 7.528 7.53c-.009 4.15-3.373 7.51-7.528 7.52zM22 16v-2H5v2zm5 15v-6h-2v6zm0-9v-2h-2v2z" fill="#3cbd0d"/></svg>