<svg xmlns="http://www.w3.org/2000/svg" width="40" height="49" viewBox="0 0 40 49"><title>15</title><path d="M20 48.506c-11.025 0-19.992-8.8-19.992-19.621 0-9.555 7.002-17.526 16.236-19.258V7.424c-1.816-.155-3.24-1.631-3.24-3.449 0-1.924 1.586-3.481 3.545-3.481h7.711c1.957 0 3.544 1.559 3.544 3.481 0 1.818-1.426 3.294-3.238 3.449v2.382a20.171 20.171 0 0 1 6.687 2.879l3.071-3.015 2.475 9.303-9.483-2.425 2.151-2.111a17.781 17.781 0 0 0-9.47-2.747c-9.662 0-17.525 7.714-17.525 17.195 0 9.484 7.863 17.2 17.525 17.2 9.658 0 17.523-7.716 17.523-17.2h2.472c0 10.821-8.971 19.621-19.992 19.621zm.807-32.398h-1.231V13.68h1.231zm0 27.511h-1.231v-2.428h1.231zm12.162-14.366v-1.207h2.473v1.207zm-28.032 0v-1.207H7.41v1.207zm11.964 4.714h-2.227v-8.393a7.686 7.686 0 0 1-2.877 1.688v-2.021c.581-.19 1.213-.551 1.894-1.082.682-.531 1.15-1.15 1.403-1.858h1.807zm3.361-2.988l2.219-.23c.063.502.251.9.563 1.193.311.293.671.44 1.078.44.464 0 .858-.189 1.181-.567.322-.377.483-.947.483-1.708 0-.713-.16-1.248-.479-1.605-.32-.356-.736-.535-1.249-.535-.639 0-1.212.283-1.72.849l-1.807-.262 1.142-6.047h5.888v2.084h-4.2l-.349 1.974a3.361 3.361 0 0 1 1.522-.373c.988 0 1.825.359 2.512 1.078.687.719 1.031 1.651 1.031 2.798 0 .956-.278 1.81-.833 2.56-.755 1.025-1.804 1.537-3.146 1.537-1.073 0-1.947-.288-2.624-.863-.676-.576-1.08-1.351-1.212-2.323z" fill="#3cbd0d"/></svg>