<svg xmlns="http://www.w3.org/2000/svg" width="38" height="38" viewBox="0 0 38 38"><title>Forma 1</title><path d="M36.18.5H1.321A1.32 1.32 0 0 0 0 1.82v28.323c0 .73.591 1.321 1.321 1.321h11.751v3.895h-3.037a1.32 1.32 0 0 0 0 2.641h17.43a1.32 1.32 0 0 0 0-2.641h-3.037v-3.895H36.18a1.32 1.32 0 0 0 1.32-1.321V1.82A1.32 1.32 0 0 0 36.18.5zm-1.321 2.641v17.76H21.011v-9.047a1.32 1.32 0 0 0-1.32-1.32h-4.069V7.148c0-.729-.591-1.321-1.321-1.321H9.99c-.73 0-1.321.592-1.321 1.321v1.441H5.678a1.32 1.32 0 0 0-1.32 1.32v10.992H2.641V3.141zm-16.488 17.12h-2.749v-7.086h2.749zm-5.39 0H11.31V8.468h1.671zm-4.312 0H6.998V11.23h1.671zm13.118 15.098h-6.074v-3.895h6.074zM2.641 28.823v-5.282h32.218v5.282zm16.109-3.895a1.33 1.33 0 0 0-.934.387 1.327 1.327 0 0 0-.387.933c0 .347.141.688.387.934.246.245.586.387.934.387.347 0 .688-.142.933-.387.246-.246.387-.587.387-.934 0-.347-.141-.688-.387-.933a1.327 1.327 0 0 0-.933-.387z" fill="#3cbd0d"/></svg>