<svg xmlns="http://www.w3.org/2000/svg" width="38" height="31" viewBox="0 0 38 31"><title>Forma 1</title><path d="M37.003 26.194l-8.94-24.343-.497-1.352-1.364.49-5.459 1.97-1.364.493.497 1.351 8.94 24.346.497 1.352 1.364-.493 5.459-1.967 1.364-.493zM21.986 6.342l5.457-1.97 4.348 11.833-5.46 1.97zm7.604 17.549a1.793 1.793 0 0 1 1.085-2.305 1.82 1.82 0 0 1 2.328 1.075 1.794 1.794 0 0 1-1.087 2.305 1.819 1.819 0 0 1-2.326-1.075zM.5 1.716v28.785h8.713V1.716zm4.357 24.467a1.807 1.807 0 0 1-1.816-1.799c0-.994.813-1.799 1.816-1.799 1.002 0 1.815.805 1.815 1.799 0 .994-.813 1.799-1.815 1.799zm2.904-8.276H1.952V5.314h5.809zM9.939 1.716v28.785h8.714V1.716zm4.357 24.467a1.807 1.807 0 0 1-1.815-1.799c0-.994.813-1.799 1.815-1.799 1.003 0 1.815.805 1.815 1.799 0 .994-.812 1.799-1.815 1.799zm2.905-8.276h-5.809V5.314h5.809z" fill="#3cbd0d"/></svg>