<svg xmlns="http://www.w3.org/2000/svg" width="35" height="44" viewBox="0 0 35 44"><title>Forma 1</title><path d="M30.228 2.547h-5.221V.5H9.993v2.047H4.772A4.282 4.282 0 0 0 .5 6.83v32.888A4.282 4.282 0 0 0 4.772 44h25.456a4.282 4.282 0 0 0 4.272-4.282V6.83a4.282 4.282 0 0 0-4.272-4.283zM11.76 2.27h11.48v2.325H11.76zm20.974 37.448a2.51 2.51 0 0 1-2.506 2.511H4.772a2.51 2.51 0 0 1-2.506-2.511V6.83a2.512 2.512 0 0 1 2.506-2.512h5.221v2.047h15.014V4.318h5.221a2.512 2.512 0 0 1 2.506 2.512zm-7.557-19.229l-.919 1.399a.485.485 0 0 1-.408.222.487.487 0 0 1-.412-.215l-.026-.037a2.231 2.231 0 0 0-2.052-.979 2.234 2.234 0 0 0-1.863 1.305l-.491 1.06a.473.473 0 0 1-.494.284.474.474 0 0 1-.433-.371l-1.067-4.219a2.23 2.23 0 0 0-2.19-1.708h-.013a2.231 2.231 0 0 0-2.185 1.731l-.963 3.978a.474.474 0 0 1-.437.377.472.472 0 0 1-.495-.296l-.95-2.189a2.26 2.26 0 0 0-2.073-1.362H5.161v1.771h2.545c.197 0 .375.116.453.297l.95 2.189a2.229 2.229 0 0 0 2.267 1.353 2.232 2.232 0 0 0 2.002-1.723l.963-3.977c.082-.34.361-.378.477-.379.121.001.396.035.482.374l1.067 4.218a2.237 2.237 0 0 0 2.2 1.709 2.23 2.23 0 0 0 2.041-1.313l.491-1.06a.488.488 0 0 1 .407-.285.487.487 0 0 1 .449.214l.025.038a2.257 2.257 0 0 0 1.865.986h.021a2.255 2.255 0 0 0 1.867-1.02l.919-1.399a.492.492 0 0 1 .412-.222h2.775v-1.771h-2.775c-.762 0-1.468.382-1.887 1.02zM15 34v-1H5v1zm10 5v-2H5v2z" fill="#3cbd0d"/></svg>