<svg id="Background" xmlns="http://www.w3.org/2000/svg" viewBox="0 0 769.8 583.7"><style>.st0{fill:#ededed}.st0,.st1,.st2,.st3,.st4,.st5,.st6{fill-rule:evenodd;clip-rule:evenodd}.st1{fill:#ccc}.st2{fill:#f06358}.st3{fill:#c17bb5}.st4{fill:#b6a94a}.st5{fill:#5896cc}.st6{fill:#ffcd61}.st10,.st11,.st12,.st13{fill-rule:evenodd;clip-rule:evenodd}.st7{fill:#fff}.st7,.st8,.st9{fill-rule:evenodd;clip-rule:evenodd}.st8{fill:#ff623b}.st9{fill:#5cd1ba}.st10{fill:#087e38}.st11{fill:#212b38}.st12{fill:#9db8cc}.st13{fill:none;stroke:#ccc;stroke-width:2.4001;stroke-miterlimit:22.9256}.st14,.st15{fill:#91569a}.st15{fill-rule:evenodd;clip-rule:evenodd}.st16{fill:#4c8eb4}.st17{fill:#ff623b}.st18{fill:#f9a818}.st19{fill:#ffae00}.st19,.st20,.st21,.st22,.st23,.st24{fill-rule:evenodd;clip-rule:evenodd}.st20{fill:#6a8733}.st21{fill:#f9a818}.st22{fill:#ffd7b7}.st23{fill:#7fb4e3}.st24{fill:#4d86b8}.st25{fill:#b3d6f5}.st25,.st26,.st27,.st28,.st29,.st30{fill-rule:evenodd;clip-rule:evenodd}.st26{fill:#deb99b}.st27{fill:#fff2e8}.st28{fill:#4d4d4d}.st29{fill:#999}.st30{fill:#e6e6e6}.st31{fill:#4d4d4d}.st32{fill-rule:evenodd;clip-rule:evenodd;fill:#fcc058}.st33{fill:#fff}</style><path transform="rotate(-14.488 607.486 134.773)" class="st0" d="M498.1 57.4h218.6V212H498.1z"/><path transform="rotate(-14.488 688.802 113.768)" class="st1" d="M686.8 76.2h3.8v75.1h-3.8z"/><path transform="rotate(-14.488 679.47 116.174)" class="st1" d="M677.5 53h3.8v126.2h-3.8z"/><path transform="rotate(-14.488 672.948 117.859)" class="st1" d="M670.9 54.7h3.8v126.2h-3.8z"/><path transform="rotate(-14.488 666.446 119.544)" class="st1" d="M664.4 56.4h3.8v126.2h-3.8z"/><path transform="rotate(-14.488 659.903 121.228)" class="st1" d="M657.9 58.1h3.8v126.2h-3.8z"/><path transform="rotate(-14.488 653.38 122.913)" class="st1" d="M651.4 59.7h3.8v126.2h-3.8z"/><path transform="rotate(-14.488 646.854 124.596)" class="st1" d="M644.8 61.4h3.8v126.2h-3.8z"/><path transform="rotate(-14.488 640.337 126.282)" class="st1" d="M638.3 63.1h3.8v126.2h-3.8z"/><path transform="rotate(-14.488 633.832 127.967)" class="st1" d="M631.8 64.8h3.8V191h-3.8z"/><path transform="rotate(-14.488 619.417 99.095)" class="st1" d="M617.4 67.5h3.8v63.1h-3.8z"/><path transform="rotate(-14.488 567.236 118.769)" class="st2" d="M566.2 81.2h1.9v75.1h-1.9z"/><path transform="rotate(-14.488 579.824 83.597)" class="st3" d="M559.7 76.9h40.2v13.4h-40.2z"/><path transform="rotate(-14.488 576.446 100.445)" class="st4" d="M563.8 93.7h25.1v13.4h-25.1z"/><path transform="rotate(-14.488 576.2 116.456)" class="st2" d="M567.8 109.7h16.6v13.4h-16.6z"/><path transform="rotate(-14.488 583.604 130.354)" class="st5" d="M571.6 123.7h24.3v13.4h-24.3z"/><path transform="rotate(-14.488 584.232 146.18)" class="st6" d="M575.5 139.5h17.4v13.4h-17.4z"/><path transform="rotate(-14.488 582.144 177.169)" class="st1" d="M581.3 173.8h1.9v6.7h-1.9z"/><path transform="rotate(-14.488 586.468 193.178)" class="st1" d="M585.4 183.1h1.9v20h-1.9z"/><path transform="rotate(-14.488 556.222 112.624)" class="st1" d="M554.4 83.7h3.8v57.9h-3.8z"/><path transform="rotate(-14.488 549.875 114.38)" class="st1" d="M547.9 85.4h3.8v57.9h-3.8z"/><path transform="rotate(-14.488 543.172 115.993)" class="st1" d="M541.3 87.1h3.8V145h-3.8z"/><path transform="rotate(-14.488 536.83 117.748)" class="st1" d="M534.8 88.7h3.8v57.9h-3.8z"/><path transform="rotate(-14.488 530.304 119.432)" class="st1" d="M528.3 90.4h3.8v57.9h-3.8z"/><path transform="rotate(-14.488 523.618 121.047)" class="st1" d="M521.8 92.1h3.8V150h-3.8z"/><path transform="rotate(-14.488 517.23 122.798)" class="st1" d="M515.3 93.8h3.8v57.9h-3.8z"/><path transform="rotate(-14.488 507.073 110.459)" class="st1" d="M505.1 95.9h3.8v29h-3.8z"/><path transform="rotate(-14.488 573.478 178.825)" class="st1" d="M571.5 149.8h3.8v57.9h-3.8z"/><path transform="rotate(-14.488 566.952 180.509)" class="st1" d="M565 151.5h3.8v57.9H565z"/><path transform="rotate(-14.488 560.42 182.192)" class="st1" d="M558.4 153.2h3.8v57.9h-3.8z"/><path transform="rotate(-14.488 553.898 183.876)" class="st1" d="M551.9 154.9h3.8v57.9h-3.8z"/><path transform="rotate(-14.488 547.385 185.563)" class="st1" d="M545.4 156.5h3.8v57.9h-3.8z"/><path transform="rotate(-14.488 540.864 187.247)" class="st1" d="M538.9 158.2h3.8v57.9h-3.8z"/><path transform="rotate(-14.488 534.308 188.925)" class="st1" d="M532.3 159.9h3.8v57.9h-3.8z"/><path transform="rotate(-14.488 525.507 182.22)" class="st1" d="M523.7 161.9h3.8v40.8h-3.8z"/><path transform="rotate(-17.032 642.405 105.932)" class="st7" d="M533 28.6h218.6v154.6H533z"/><path transform="rotate(-17.032 722.68 81.33)" class="st1" d="M720.7 43.8h3.8v75.1h-3.8z"/><path transform="rotate(-17.032 713.497 84.149)" class="st1" d="M711.5 21h3.8v126.2h-3.8z"/><path transform="rotate(-17.032 707.055 86.122)" class="st1" d="M705 23h3.8v126.2H705z"/><path transform="rotate(-17.032 700.61 88.095)" class="st1" d="M698.6 25h3.8v126.2h-3.8z"/><path transform="rotate(-17.032 694.186 90.068)" class="st1" d="M692.2 27h3.8v126.2h-3.8z"/><path transform="rotate(-17.032 687.733 92.042)" class="st1" d="M685.7 28.9h3.8v126.2h-3.8z"/><path transform="rotate(-17.032 681.294 94.015)" class="st1" d="M679.3 30.9h3.8v126.2h-3.8z"/><path transform="rotate(-17.032 674.875 95.988)" class="st1" d="M672.9 32.9h3.8v126.2h-3.8z"/><path transform="rotate(-17.032 668.413 97.961)" class="st1" d="M666.4 34.8h3.8V161h-3.8z"/><path transform="rotate(-17.032 652.721 69.762)" class="st1" d="M650.7 38.2h3.8v63.1h-3.8z"/><path transform="rotate(-17.032 616.123 114.04)" class="st8" d="M614.7 61.4h2.7v105.4h-2.7z"/><path transform="rotate(-17.032 623.237 66.557)" class="st3" d="M603.8 57.2h38.7v18.7h-38.7z"/><path transform="rotate(-17.032 627.852 87.79)" class="st4" d="M610.2 78.4h35.1v18.7h-35.1z"/><path transform="rotate(-17.032 628.495 110.24)" class="st8" d="M616.8 100.9H640v18.7h-23.2z"/><path transform="rotate(-17.032 640.085 129.353)" class="st9" d="M622.9 120H657v18.7h-34.1z"/><path transform="rotate(-17.032 641.744 151.483)" class="st6" d="M629.5 142.1h24.4v18.7h-24.4z"/><path transform="rotate(-17.032 590.374 86.152)" class="st1" d="M588.4 57.2h3.8v57.9h-3.8z"/><path transform="rotate(-17.032 583.937 88.125)" class="st1" d="M582 59.2h3.8v57.9H582z"/><path transform="rotate(-17.032 577.517 90.098)" class="st1" d="M575.5 61.1h3.8V119h-3.8z"/><path transform="rotate(-17.032 571.078 92.071)" class="st1" d="M569.1 63.1h3.8V121h-3.8z"/><path transform="rotate(-17.032 564.617 94.044)" class="st1" d="M562.6 65.1h3.8V123h-3.8z"/><path transform="rotate(-17.032 558.175 96.018)" class="st1" d="M556.2 67.1h3.8V125h-3.8z"/><path transform="rotate(-17.032 551.766 97.991)" class="st1" d="M549.8 69h3.8v57.9h-3.8z"/><path transform="rotate(-17.032 541.092 86.117)" class="st1" d="M539.1 71.6h3.8v29h-3.8z"/><path transform="rotate(-17.032 610.38 151.452)" class="st1" d="M608.4 122.5h3.8v57.9h-3.8z"/><path transform="rotate(-17.032 603.978 153.43)" class="st1" d="M602 124.5h3.8v57.9H602z"/><path transform="rotate(-17.032 597.545 155.404)" class="st1" d="M595.5 126.4h3.8v57.9h-3.8z"/><path transform="rotate(-17.032 591.063 157.372)" class="st1" d="M589.1 128.4h3.8v57.9h-3.8z"/><path transform="rotate(-17.032 584.62 159.345)" class="st1" d="M582.6 130.4h3.8v57.9h-3.8z"/><path transform="rotate(-17.032 578.205 161.322)" class="st1" d="M576.2 132.3h3.8v57.9h-3.8z"/><path transform="rotate(-17.032 571.742 163.292)" class="st1" d="M569.8 134.3h3.8v57.9h-3.8z"/><path transform="rotate(-17.032 562.796 157.065)" class="st1" d="M560.8 136.7h3.8v40.8h-3.8z"/><path transform="rotate(-81.252 594.375 475.37)" class="st10" d="M511.4 356.3h166v238.2h-166z"/><path class="st11" d="M710.4 415l-23.6 152.9-219.4-30.6 26.8-155.6z"/><path transform="rotate(-81.252 590.477 474.77)" class="st7" d="M513.2 365.4h154.7v218.8H513.2z"/><path class="st1" d="M703.2 461.5l-9.4 61-6.5-1.6 9.4-61z"/><path class="st12" d="M711.8 468.4l-2.5 16.4 4.1.6-2.8 17.9-4.1-.6-2.5 16.4c-.4 2.8-3.1 5-5.9 4.3l-4.2-1 9.4-60.9 4.2 1c2.7.7 4.7 3.1 4.3 5.9z"/><path transform="rotate(-81.252 590.538 476.422)" class="st0" d="M513.3 367.1h154.6v218.6H513.3z"/><path class="st13" d="M604.6 421.4l-18.7 121.2m95.7-109.4l-77-11.8m73.4 34.9l-77-11.8m73.5 35l-77-11.9m73.4 35l-77-11.9m73.2 35.9l-76.7-12.8m73.4 35l-77-11.8m35.9-112.8L604 545.4m36.7-118.5L621.2 548m37.6-118.3l-18.7 121.2m36.7-118.4l-18.6 121.2"/><path class="st14" d="M653.9 456.5l-50.2-34.3 2-3 50.2 34.3-.4 3.2-1.6-.2zm2-3l2.8 1.9-3.2 1.2.4-3.1zm-41 15.2l39.4-15.4 1.3 3.4-39.4 15.4-2.2-.8.9-2.6zm-.9 2.6l-1-1.8 1.9-.8-.9 2.6zm14.5 25.9L614 471.3l3.1-1.8 14.5 25.9-.3 2.2-2.8-.4zm3.1-1.8l.7 1.2-1 1 .3-2.2zm-24.4 19.9l21.6-20.3 2.5 2.6-21.6 20.3-2.2.2-.3-2.8zm.3 2.9l-2-1.2 1.7-1.6.3 2.8zm37.4 22.7l-37.4-22.7 1.9-3.1 37.4 22.7-1.9 3.1zm4.5-10.4l9.7 16.9-19.5-.8 9.8-16.1z"/><path transform="rotate(-81.252 600.363 420.717)" class="st1" d="M596.8 418.9h7.1v3.6h-7.1z"/><path transform="rotate(-81.252 596.795 443.833)" class="st1" d="M593.3 442h7.1v3.6h-7.1z"/><path transform="rotate(-81.252 593.25 466.947)" class="st1" d="M589.7 465.2h7.1v3.6h-7.1z"/><path transform="rotate(-81.252 589.68 490.062)" class="st1" d="M586.1 488.3h7.1v3.6h-7.1z"/><path transform="rotate(-81.252 586.122 513.177)" class="st1" d="M582.6 511.4h7.1v3.6h-7.1z"/><path transform="rotate(-81.252 582.576 536.293)" class="st1" d="M579 534.5h7.1v3.6H579z"/><path transform="rotate(-81.263 623.532 418.253)" class="st1" d="M620 416.4h7.1v3.6H620z"/><path transform="rotate(-81.252 641.608 421.017)" class="st1" d="M638.1 419.2h7.1v3.6h-7.1z"/><path transform="rotate(-81.252 659.673 423.797)" class="st1" d="M656.1 422h7.1v3.6h-7.1z"/><path transform="rotate(-81.252 675.636 426.254)" class="st1" d="M672.1 424.5h7.1v3.6h-7.1z"/><path transform="rotate(-74.502 493.864 479.472)" class="st7" d="M416.5 370.1h154.6v218.6H416.5z"/><path transform="rotate(-74.502 574.788 501.908)" class="st1" d="M537.2 500h75.1v3.8h-75.1z"/><path transform="rotate(-74.502 565.519 499.338)" class="st1" d="M502.4 497.4h126.2v3.8H502.4z"/><path transform="rotate(-74.502 559.028 497.538)" class="st1" d="M495.9 495.6h126.2v3.8H495.9z"/><path transform="rotate(-74.502 552.538 495.738)" class="st1" d="M489.4 493.8h126.2v3.8H489.4z"/><path transform="rotate(-74.502 546.053 493.94)" class="st1" d="M482.9 492h126.2v3.8H482.9z"/><path transform="rotate(-74.502 539.561 492.14)" class="st1" d="M476.4 490.2h126.2v3.8H476.4z"/><path transform="rotate(-74.502 533.07 490.34)" class="st1" d="M469.9 488.4h126.2v3.8H469.9z"/><path transform="rotate(-74.502 526.58 488.54)" class="st1" d="M463.4 486.6h126.2v3.8H463.4z"/><path transform="rotate(-74.502 520.09 486.742)" class="st1" d="M456.9 484.8h126.2v3.8H456.9z"/><path transform="rotate(-74.502 522.024 454.533)" class="st1" d="M490.4 452.6h63.1v3.8h-63.1z"/><path transform="rotate(-74.503 466.954 445.458)" class="st2" d="M429.4 444.5h75.1v1.9h-75.1z"/><path transform="rotate(-74.509 495.48 421.344)" class="st3" d="M488.8 401.2h13.4v40.2h-13.4z"/><path transform="rotate(-74.496 484.105 434.217)" class="st4" d="M477.4 421.7h13.4v25.1h-13.4z"/><path transform="rotate(-74.496 475.903 447.962)" class="st2" d="M469.2 439.7h13.4v16.6h-13.4z"/><path transform="rotate(-74.496 475.522 463.876)" class="st15" d="M468.8 451.7h13.4V476h-13.4z"/><path transform="rotate(-74.509 468 477.8)" class="st6" d="M461.4 469.1h13.4v17.4h-13.4z"/><path transform="rotate(-74.496 450.873 503.64)" class="st1" d="M447.5 502.7h6.7v1.9h-6.7z"/><path transform="rotate(-74.496 446.46 519.537)" class="st1" d="M436.4 518.6h20v1.9h-20z"/><path transform="rotate(-74.502 460.654 434.828)" class="st1" d="M431.7 432.9h57.9v3.8h-57.9z"/><path transform="rotate(-74.502 454.16 433.029)" class="st1" d="M425.2 431.1h57.9v3.8h-57.9z"/><path transform="rotate(-74.502 447.672 431.23)" class="st1" d="M418.7 429.3h57.9v3.8h-57.9z"/><path transform="rotate(-74.502 441.182 429.43)" class="st1" d="M412.2 427.5h57.9v3.8h-57.9z"/><path transform="rotate(-74.502 434.69 427.63)" class="st1" d="M405.7 425.7h57.9v3.8h-57.9z"/><path transform="rotate(-74.502 428.198 425.83)" class="st1" d="M399.2 423.9h57.9v3.8h-57.9z"/><path transform="rotate(-74.502 421.71 424.032)" class="st1" d="M392.7 422.1h57.9v3.8h-57.9z"/><path transform="rotate(-74.502 419.09 408.276)" class="st1" d="M404.6 406.3h29v3.8h-29z"/><path transform="rotate(-74.502 442.406 500.64)" class="st1" d="M413.4 498.7h57.9v3.8h-57.9z"/><path transform="rotate(-74.502 435.917 498.841)" class="st1" d="M406.9 496.9h57.9v3.8h-57.9z"/><path transform="rotate(-74.502 429.426 497.041)" class="st1" d="M400.4 495.1h57.9v3.8h-57.9z"/><path transform="rotate(-74.502 422.934 495.242)" class="st1" d="M393.9 493.3h57.9v3.8h-57.9z"/><path transform="rotate(-74.502 416.445 493.442)" class="st1" d="M387.5 491.5h57.9v3.8h-57.9z"/><path transform="rotate(-74.502 409.954 491.643)" class="st1" d="M381 489.7h57.9v3.8H381z"/><path transform="rotate(-74.502 403.464 489.843)" class="st1" d="M374.5 487.9h57.9v3.8h-57.9z"/><path transform="rotate(-74.502 399.25 479.776)" class="st1" d="M378.8 477.8h40.8v3.8h-40.8z"/><path class="st16" d="M490 446.6c-.5.1-1-.3-1-.8-.1-.5.3-1 .8-1l3.6-.5c.5-.1 1 .3 1 .8.1.5-.3 1-.8 1l-3.6.5z"/><path class="st17" d="M498.5 448.7c-3.3.5-6.2-1-6.5-3.3-.3-2.3 2.1-4.5 5.4-5l105.7-15c3.3-.5 6.2 1 6.5 3.3.3 2.3-2.1 4.5-5.4 5l-105.7 15z"/><path class="st18" d="M504.7 448.9c-2.9.4-5.6-1.6-6-4.5-.4-2.9 1.6-5.6 4.5-6l94.9-13.5c2.9-.4 5.6 1.6 6 4.5.4 2.9-1.6 5.6-4.5 6l-94.9 13.5z"/><path class="st17" d="M598.3 435.6l-6 4-28.5 4s-1.7-.6-2.9-1.6l23.7-3.4s3.3-5.8-.9-12.1l13.4-1.9c-.1.1 3.9 5.3 1.2 11z"/><circle class="st8" cx="477" cy="514.6" r="15.8"/><path class="st15" d="M463.8 505.8c1.5-2.3 3.6-4.1 6-5.4l7.2 14.1-13.2-8.7z"/><path class="st15" d="M469.8 500.5c2.2-1.1 4.6-1.7 7.2-1.7 5.1 0 9.6 2.4 12.5 6.1l-12.5 9.7-7.2-14.1z"/><path class="st19" d="M489.5 504.8c2.1 2.7 3.4 6.1 3.4 9.8h-15.8l12.4-9.8z"/><path class="st20" d="M492.9 514.6h-15.8l11.1 11.3c2.9-2.9 4.7-6.9 4.7-11.3z"/><path class="st21" d="M744.3 497.1c0 .5 0 .9-.1 1.4-.8 4.9-5.4 8.3-10.3 7.6l-26.1-4-2.5 16.4c-.4 2.8-3.1 4.8-5.9 4.3l-12-1.9 3.7-23.8h40.1c0 2 1.5 3.8 3.5 4.1 2.3.3 4.4-1.2 4.7-3.5v-.6h4.9zm-31.2-29.4l-2.5 16.4 26.1 4c4.5.7 7.7 4.6 7.7 8.9h-4.9c0-2-1.5-3.8-3.5-4.1-2.3-.3-4.4 1.2-4.7 3.5v.6H691l5.7-37.1 12 1.9c2.9.4 4.8 3.1 4.4 5.9z"/><path class="st22" d="M357.9 360.3c-3.3 2.6-8.1 2-10.7-1.2l-48.5-59.4c-2.7-3.2-2.1-8.1 1.2-10.7 3.3-2.6 8.1-2 10.7 1.2l48.5 59.4c2.6 3.2 2 8.1-1.2 10.7z"/><path class="st22" d="M270.3 255.1l-12.5 40.3 31.7 9.8 38.6 33.4 18.6-59.8z"/><path class="st22" d="M333.6 357c-3.3 2.6-8.1 2-10.7-1.2l-48.5-59.4c-2.7-3.2-2.1-8.1 1.2-10.7 3.3-2.6 8.1-2 10.7 1.2l48.5 59.4c2.6 3.2 2 8-1.2 10.7zm53.6 11.6c-3.3 2.6-8.1 2-10.7-1.2l-46.7-57.2c-2.7-3.3-2.1-8.1 1.2-10.7 3.3-2.6 8.1-2 10.7 1.2l46.7 57.2c2.7 3.2 2.1 8.1-1.2 10.7z"/><path class="st10" d="M431.6 299.5V342c0 8.2-6.7 15-15 15H303.8c-8.2 0-15-6.7-15-15v-42.5c0-8.2 6.7-15 15-15h112.8c8.3.1 15 6.8 15 15z"/><path class="st10" d="M419.7 291.2v59.3c0 .1-.1.2-.2.2H302.2c-.1 0-.2-.1-.2-.2v-59.3c0-.1.1-.2.2-.2h117.2c.2 0 .3 0 .3.2zm8.4 18.6v22c0 .6-.5 1.1-1.1 1.1-.6 0-1.1-.5-1.1-1.1v-22c0-.6.5-1.1 1.1-1.1.6 0 1.1.5 1.1 1.1z"/><circle class="st10" cx="295.6" cy="320.8" r="3.7"/><path class="st7" d="M419.7 291.3v59c0 .1-.1.2-.2.2l-116.6-.1c-.1 0-.2-.1-.2-.2v-59c0-.1.1-.2.2-.2l116.6.1c.1 0 .2.1.2.2z"/><circle class="st8" cx="357.1" cy="320.8" r="15.8"/><path class="st23" d="M343.9 312.1c1.5-2.3 3.6-4.1 6-5.4l7.2 14.1-13.2-8.7z"/><path class="st24" d="M349.9 306.7c2.2-1.1 4.6-1.7 7.2-1.7 5.1 0 9.6 2.4 12.5 6.1l-12.5 9.7-7.2-14.1z"/><path class="st19" d="M369.6 311.1c2.1 2.7 3.4 6.1 3.4 9.8h-15.8l12.4-9.8z"/><path class="st20" d="M373 320.8h-15.8l11.1 11.3c2.8-2.9 4.6-6.9 4.7-11.3z"/><path class="st25" d="M322 297.9h1.1v45.8H322zm-2.4 0h1.1v45.8h-1.1zm-2.5 0h1.1v45.8h-1.1zm-2.4 0h1.1v45.8h-1.1zm-2.4 0h1.1v24.7h-1.1zm14.8 0h5.9v45.8h-5.9z"/><path class="st2" d="M380.5 304.6h1.2v32.3h-1.2z"/><path class="st3" d="M381.7 304.6h25.1v5.8h-25.1z"/><path class="st4" d="M381.7 311.3h15.6v5.8h-15.6z"/><path class="st8" d="M381.7 317.9H392v5.8h-10.3z"/><path class="st5" d="M381.7 324.6h15.2v5.7h-15.2z"/><path class="st6" d="M381.7 331.2h10.9v5.8h-10.9z"/><path class="st22" d="M338 362.5c-3.3 2.6-8.1 2.1-10.7-1.2l-8.9-11.1c-2.6-3.3-2.1-8.1 1.2-10.7 3.3-2.6 8.1-2.1 10.7 1.2l8.9 11.1c2.6 3.3 2.1 8.1-1.2 10.7zm24.9 4.2c-3.3 2.6-8.1 2.1-10.7-1.2l-7.6-9.5c-2.6-3.3-2.1-8.1 1.2-10.7 3.3-2.6 8.1-2.1 10.7 1.2l7.6 9.5c2.7 3.2 2.1 8-1.2 10.7z"/><path transform="rotate(-72.795 152.786 240.712)" class="st21" d="M125.7 112.7h54.2v256h-54.2z"/><path class="st22" d="M300.4 269.8l-1.6 5.1 6.5 1.4 52.5 11.4c10.9 2.4 14.6-4.4 16.7-11.2l-62-13.4c-5.1-1-10.6 2-12.1 6.7zm-53 81.8l-35.7 14.6v46.2l43.6-17z"/><path transform="rotate(-21.13 118.273 426.499)" class="st21" d="M1.6 400.2h233.3v52.6H1.6z"/><path class="st26" d="M284.2 312.2l-30.3 21.4c-3.9 2.7-16 17-13.5 21.2 2.4 4.1 15.8-1.7 19.6-4.5l20.5-16.4c11.7-9.4 6.8-17.5 3.7-21.7z"/><path class="st22" d="M344.4 318.8L305.1 336c7.1 1.4 8.2 12.2 1.5 16.2 7.5.4 9.4 10.5 4 15.3 6.8 1.5 7.5 12.4.2 15.6l-33.3 14.7c-9.4 4.1-23.6 4.4-30.2 2.5-19.4-5.6-20-31.2-14-40.2 4.6-7 7.2-12.6 12.2-14.8l92.3-42.2c11.6-5.4 16.3 11.6 6.6 15.7z"/><path class="st26" d="M299.1 373.1s6.7-2.8 12.6-5.3c-.4-.1-.7-.3-1.1-.4.5-.4.9-.9 1.3-1.4-5.8 3.2-12.8 7.1-12.8 7.1zm6.2-37c.6.1 1.2.4 1.7.6-6.6 2.8-18.1 7.3-18.1 7.3s11.3-5.7 16.1-8c.1.1.1.1.3.1zm3.7 14c-.7.8-1.5 1.5-2.4 2.1.5 0 1 .1 1.4.2-6.5 2.8-14.6 6.3-14.6 6.3s9.6-5.4 15.6-8.6z"/><path class="st27" d="M373.8 279c.3-.8.6-1.6.8-2.4l-12.5-2.7c.1 4.5 7.1 4.9 11.7 5.1zm-18.5 68.7l2 2.6c-1.3 4.7-4.4 7-9.2 7.2l-2-2.4c-5.3-6.8 5-13 9.2-7.4zm-26.1-5.7l2 2.6c-1.3 4.7-4.4 7-9.2 7.2l-2-2.4c-5.3-6.7 5-13 9.2-7.4zm14.8-25.3l-3.4 1.5c-4.8-2.7-6.4-6.8-5.3-12l3.2-1.5c8.8-4 12.8 9 5.5 12z"/><path class="st28" d="M638.8 251.7l8.7 74.1c.5 4.2-2.5 8-6.7 8.5l-94.1 11c-4.2.5-8-2.5-8.5-6.7l-8.7-74.1c-.5-4.2 2.5-8 6.7-8.5l94.1-11c4.1-.5 8 2.5 8.5 6.7z"/><path class="st29" d="M632.9 254l8.3 71c.2 2.1-1.3 4.1-3.4 4.3l-10.8 1.3c-2.1.2-4.1-1.3-4.3-3.4l-8.3-71c-.2-2.1 1.3-4.1 3.4-4.3l10.8-1.3c2.2-.3 4.1 1.2 4.3 3.4z"/><path class="st30" d="M611.5 256.2l1.2 10c.2 2-1.2 3.7-3.1 4l-10.4 1.2c-2 .2-3.7-1.2-4-3.1l-1.2-10c-.2-2 1.2-3.7 3.1-4l10.4-1.2c2-.3 3.8 1.1 4 3.1zm2.4 20.5l1.2 10c.2 2-1.2 3.7-3.1 4l-10.4 1.2c-2 .2-3.7-1.2-4-3.1l-1.2-10c-.2-2 1.2-3.7 3.1-4l10.4-1.2c2-.3 3.8 1.2 4 3.1zm2.4 20.5l1.2 10c.2 2-1.2 3.7-3.1 4l-10.4 1.2c-2 .2-3.7-1.2-4-3.1l-1.2-10c-.2-2 1.2-3.7 3.1-4l10.4-1.2c2-.2 3.8 1.2 4 3.1zm2.4 20.6l1.2 10c.2 2-1.2 3.7-3.1 4l-10.4 1.2c-2 .2-3.7-1.2-4-3.1l-1.2-10c-.2-2 1.2-3.7 3.1-4l10.4-1.2c2-.3 3.8 1.1 4 3.1zm-27.1-59.3l1.2 10c.2 2-1.2 3.7-3.1 4l-10.4 1.2c-2 .2-3.7-1.2-4-3.1l-1.2-10c-.2-2 1.2-3.7 3.1-4l10.4-1.2c2-.3 3.8 1.2 4 3.1zM594 279l1.2 10c.2 2-1.2 3.7-3.1 4l-10.4 1.2c-2 .2-3.7-1.2-4-3.1l-1.2-10c-.2-2 1.2-3.7 3.1-4l10.4-1.2c2-.2 3.8 1.2 4 3.1zm2.4 20.6l1.2 10c.2 2-1.2 3.7-3.1 4l-10.4 1.2c-2 .2-3.7-1.2-4-3.1l-1.2-10c-.2-2 1.2-3.7 3.1-4l10.4-1.2c2-.3 3.8 1.1 4 3.1zm2.4 20.5l1.2 10c.2 2-1.2 3.7-3.1 4l-10.4 1.2c-2 .2-3.7-1.2-4-3.1l-1.2-10c-.2-2 1.2-3.7 3.1-4l10.4-1.2c2-.2 3.8 1.2 4 3.1zm-27.1-59.3l1.2 10c.2 2-1.2 3.7-3.1 4l-10.4 1.2c-2 .2-3.7-1.2-4-3.1l-1.2-10c-.2-2 1.2-3.7 3.1-4l10.4-1.2c2-.2 3.7 1.2 4 3.1zm2.4 20.6l1.2 10c.2 2-1.2 3.7-3.1 4l-10.4 1.2c-2 .2-3.7-1.2-4-3.1l-1.2-10c-.2-2 1.2-3.7 3.1-4l10.4-1.2c2-.3 3.7 1.1 4 3.1zm2.4 20.5l1.2 10c.2 2-1.2 3.7-3.1 4l-10.4 1.2c-2 .2-3.7-1.2-4-3.1l-1.2-10c-.2-2 1.2-3.7 3.1-4l10.4-1.2c2-.2 3.8 1.2 4 3.1zm2.4 20.6l1.2 10c.2 2-1.2 3.7-3.1 4l-10.4 1.2c-2 .2-3.7-1.2-4-3.1l-1.2-10c-.2-2 1.2-3.7 3.1-4l10.4-1.2c2-.3 3.8 1.1 4 3.1zm-27.1-59.3l1.2 10c.2 2-1.2 3.7-3.1 4l-10.4 1.2c-2 .2-3.7-1.2-4-3.1l-1.2-10c-.2-2 1.2-3.7 3.1-4l10.4-1.2c1.9-.3 3.7 1.1 4 3.1zm2.4 20.5l1.2 10c.2 2-1.2 3.7-3.1 4l-10.4 1.2c-2 .2-3.7-1.2-4-3.1l-1.2-10c-.2-2 1.2-3.7 3.1-4l10.4-1.2c1.9-.3 3.7 1.2 4 3.1zm2.4 20.6l1.2 10c.2 2-1.2 3.7-3.1 4l-10.4 1.2c-2 .2-3.7-1.2-4-3.1l-1.2-10c-.2-2 1.2-3.7 3.1-4l10.4-1.2c1.9-.3 3.7 1.1 4 3.1z"/><path class="st21" d="M559 324.8l1.2 10c.2 2-1.2 3.7-3.1 4l-10.4 1.2c-2 .2-3.7-1.2-4-3.1l-1.2-10c-.2-2 1.2-3.7 3.1-4l10.4-1.2c2-.3 3.7 1.1 4 3.1z"/><path class="st1" d="M632.9 254l8.3 71c.2 2.1-1.3 4.1-3.4 4.3l-10.8 1.3c-.9.1-1.7-.1-2.4-.5l5.9-79.2c1.3.4 2.3 1.6 2.4 3.1z"/><path class="st31" d="M627.8 322.6l-.4.5.5.4.2 1.8 3.2-.4.6.4.4-.5 1.8-.2-2.1-1.1-.1-.7 1.1-.1 2.4 1.3-.2-1.4v-.1h1.2l.2 1.9-.5.7-.4.5-3.3.4-.6-.4-.4.5-3.3.4-.7-.5-.5-.4-.2-1.9.4-.6-.5-.4v-.1h1.2zm-.1-1.5l.2 1.4v.1h-1.2l-.2-1.9.5-.7.4-.5 3.3-.4.6.4.4-.5 3.3-.4.7.5.5.4.2 1.9-.4.6.5.4v.1h-1.2l.4-.5-.5-.4-.2-1.8-3.2.4-.6-.4-.4.5-1.8.2 2.1 1.1.1.7-1.1.1-2.4-1.3zM606 264.5c-1-.7-1.9-1.1-2.8-1.3-.8-.2-1.8-.3-3-.3h-.8l-.2-1.5h.8c1.1 0 2.1.1 3.1.4 1 .3 1.8.7 2.7 1.3l-.4-3.8 1.1-.1.6 5.2-1.1.1zm1.8 20.6c-.4 0-.7 0-1-.2-.3-.2-.6-.4-.8-.7-.1.4-.3.8-.6 1-.3.3-.6.4-1 .5-.7.1-1.2-.1-1.7-.5-.4-.4-.7-1-.8-1.8v-.3h1.1v.1c0 .3.2.5.4.7.2.2.5.2.8.2.3 0 .6-.2.8-.4.2-.2.2-.4.2-.7h1.2c.1.1.2.3.3.3.2.1.5.2.8.1.3 0 .5-.1.7-.3 0-.1.1-.1.1-.2h1.2c0 .4-.1.8-.4 1.1-.2.7-.7 1-1.3 1.1zm-5.8-2c0-.6.1-1.2.4-1.6.3-.5.8-.8 1.5-.9.4 0 .8 0 1.1.2.3.2.6.5.8.8.1-.4.3-.7.6-.9.3-.2.6-.4.9-.4.7-.1 1.2.1 1.6.5.4.4.7.9.7 1.6v.6h-1.2c.1-.1.1-.3.1-.5 0-.3-.1-.5-.3-.6-.2-.1-.4-.2-.7-.1-.3 0-.5.1-.7.3-.2.2-.2.4-.2.7 0 .1 0 .2.1.3h-1.2v-.1c0-.3-.2-.5-.4-.7-.2-.2-.5-.2-.8-.2-.3 0-.6.2-.8.4-.1.2-.2.4-.2.7H602zm3.5 20.3c0 .4.2.7.5.9.3.2.7.3 1.3.2h.4c-.2-.1-.4-.3-.5-.5-.1-.2-.2-.4-.2-.7h1.1v.1c0 .2.1.5.2.6.1.2.3.3.4.4l.7-.1c.5-.1.9-.2 1.2-.4.2-.2.3-.4.3-.6h1.2c0 .6-.2 1.1-.6 1.6-.5.5-1.2.9-2.1 1l-1.7.2c-.9.1-1.6-.1-2.2-.5-.6-.5-.9-1.1-1-1.9v-.3h1.1-.1zm1.4-.1c-.1-.7.1-1.3.5-1.7.4-.4 1-.7 1.8-.8.7-.1 1.4.1 1.9.5s.9 1 .9 1.7v.4h-1.2v-.2c0-.3-.2-.5-.5-.7-.3-.2-.6-.2-1-.2s-.7.2-1 .4c-.2.2-.3.4-.3.7h-1.1v-.1zm-2.6 0v-.5c0-.3.1-.5.1-.8h1.1c-.1.2-.1.5-.1.7v.6h-1.1zm2.7 22.8h.8v.1c0 .2.1.4.2.4.1.1.3.1.5.1h.4c.2 0 .4-.1.5-.2.1-.1.2-.2.2-.4h.8c0 .4-.1.8-.3 1-.3.3-.6.5-1 .6h-.4c-.4.1-.8 0-1.1-.3-.3-.2-.5-.6-.6-1.1v-.2zm3.5 0h-.8v-.1c0-.1-.1-.2-.1-.3h.9v.4zm-2.7 0h-.8v-.4h1s-.1 0-.1.1c0 0-.1.1-.1.3zm5.2-.5h.5l-.1.2-.4-.2zm.6 0h-.6l-1-.5h1.8l-.2.5zm-3.2 0h-.9l-.1-.1c-.1-.1-.3-.1-.5-.1h-.4c-.2 0-.3.1-.4.2h-1c0-.2.1-.3.2-.5h3c0 .2.1.4.1.5zm3.6-2.7c0 .1-.1.1-.1.2-.3.3-.6.5-1 .5h-.4c-.4.1-.8 0-1.1-.3-.2-.1-.3-.3-.4-.5h3v.1zm-.2 2.2l-4.5-2.2h-1.9l4.7 2.2h1.7zm-3.6 0h-3s0-.1.1-.1c.3-.3.6-.5 1-.6h.4c.4 0 .8 0 1.1.3l.4.4zm4-2.7c0 .2-.1.3-.2.5h-3c-.1-.1-.1-.3-.2-.5h.9c0 .1.1.1.2.2s.3.1.5.1h.4c.2 0 .4-.1.5-.2h.9v-.1zm-5 .5h-1.9l.2-.5h.7l1 .5zm5-.8v.4h-1c.1-.1.2-.2.2-.4h.8zm-3.4.3v-.4h.8v.1c0 .1 0 .2.1.3h-.9zm-2.6 0h-.7l.1-.3.6.3zm4.3-2c.4-.1.8 0 1.1.3.3.2.5.6.6 1.1v.2h-.8v-.1c0-.2-.1-.3-.3-.4-.1-.1-.3-.1-.5-.1h-.4c-.2 0-.4.1-.5.2-.1.1-.1.2-.2.4h-.8c0-.4.1-.8.3-1 .3-.3.6-.5 1-.6h.5zm-29.8-53.8l.1.8-1.1.1-.1-.8-1.6.2-.2-1.5 1.6-.2-.1-1h1.2l.1.8 2.7-.3-.2-.1-.9-.4h2.4l.6.3.2 1.5-4.7.6zm-1.4-2.4l-.2-2 .9-.2 4.6 2.2h-2.4l-1.8-.8.1.8h-1.2zm3.9 18.8l4.2-.1.5 4.1-1.2.1-.3-2.9h-1.7c.1.1.2.3.3.5.1.2.1.4.2.6.1.7-.1 1.3-.5 1.7-.4.4-1 .7-1.8.8-.7.1-1.3-.1-1.8-.4-.5-.4-.8-1-.9-1.8-.1-.7 0-1.3.4-1.8.3-.5.8-.8 1.4-.9l.2 1.4c-.3 0-.6.2-.7.4-.2.2-.2.5-.2.8 0 .3.2.6.5.7.3.1.6.2 1 .1.4 0 .8-.2 1-.4.2-.2.3-.5.3-.8 0-.3-.1-.5-.2-.6-.1-.1-.3-.2-.5-.3l-.2-1.2zm7 23v.6c0 .2-.1.5-.1.7l-1.1-.1c.1-.2.1-.4.1-.6v-.6h1.1zm-2.6 0v.2c.1.7-.1 1.2-.5 1.6-.4.4-1 .7-1.7.8-.7.1-1.4-.1-1.9-.5s-.8-1-.9-1.7v-.4h1.2v.3c0 .3.2.5.5.7.3.2.6.2 1 .2s.7-.2 1-.4c.2-.2.3-.4.3-.7h1zm2.5-.1v.1H591c-.1-.5-.3-.8-.6-1-.4-.2-.8-.3-1.4-.2.2.1.4.3.5.6.1.2.2.4.2.6h-1.1v-.1c0-.3-.1-.5-.2-.7-.1-.2-.2-.3-.4-.4l-.5.1c-.6.1-1 .2-1.3.5-.2.2-.3.4-.4.6h-1.2c0-.6.2-1.1.6-1.6.5-.6 1.2-.9 2.1-1l1.4-.2c1-.1 1.8.1 2.4.6.6.5.9 1.2 1 2.1zm-1.4 20.5l1.9.6.2 1.7-2.9-1.3-2.6 2-.2-1.7 1.7-1.1-1.9-.7-.2-1.6 3 1.4 2.5-2 .2 1.6zm-30.8-58.2l-.1-1.5 6-.7-.1-1.5 1-.1.6 3zm2.7 22.4l-.6-5 1-.1 2.8 2.1c.4.3.8.5 1.1.6.3.1.6.2.8.1.3 0 .6-.2.7-.3.2-.2.2-.4.2-.7 0-.3-.2-.6-.4-.7-.3-.1-.6-.2-1-.2l-.2-1.4c.7-.1 1.3.1 1.8.5s.8 1 .9 1.8c.1.8 0 1.4-.4 1.9-.3.5-.8.8-1.5.8-.4.1-.9 0-1.3-.2s-.9-.5-1.6-1l-1.6-1.1.4 3.1-1.1-.2zm6.3 16.5l.1.8c0 .4.2.6.4.7.2.1.5.2.8.2.3 0 .5-.1.7-.3.2-.2.2-.4.2-.8 0-.3-.1-.5-.3-.7-.2-.2-.4-.2-.7-.2l-.2-1.4c.6-.1 1.1.1 1.5.5.4.4.7 1 .8 1.7.1.8 0 1.4-.3 1.9s-.8.8-1.5.9c-.3 0-.6 0-1-.2-.3-.2-.6-.4-.8-.8-.1.4-.3.8-.6 1-.3.3-.6.4-1 .4-.7.1-1.2-.1-1.7-.5-.4-.4-.7-1.1-.8-1.8-.1-.7 0-1.3.3-1.8s.8-.8 1.5-.9l.2 1.4c-.3 0-.5.2-.7.4-.2.2-.2.5-.2.8 0 .3.2.6.4.8.2.2.5.2.8.2.4 0 .7-.2.8-.4.2-.2.2-.5.2-.9l-.1-.8 1.2-.2z"/><path transform="rotate(-6.686 569.994 328.727)" class="st31" d="M569.6 327.4h1.1v2.9h-1.1z"/><path class="st31" d="M543.1 271.9c-1 .1-1.7 0-2.3-.4-.6-.4-.9-1-1-1.7v-.5h1.2v.3c0 .3.2.6.5.7.3.1.7.2 1.3.1l1.9-.2c.6-.1 1-.2 1.3-.4.2-.1.3-.3.3-.5h1.2c0 .6-.2 1.1-.6 1.5-.5.5-1.2.8-2.1.9l-1.7.2zm-3.3-2.6c0-.6.2-1.1.6-1.5.5-.5 1.2-.8 2.1-.9l1.6-.2c1-.1 1.7 0 2.3.4.6.4.9 1 1 1.7v.4h-1.2v-.3c0-.3-.2-.6-.5-.7-.3-.1-.7-.2-1.3-.1l-1.9.2c-.6.1-1 .2-1.3.4-.2.1-.3.3-.3.5h-1.1zm6.5 19.4c.3 0 .6 0 .9.2.2.2.4.5.4.8 0 .4 0 .7-.2.9-.2.2-.5.4-.8.4l-.5.1c-.3 0-.6 0-.9-.2-.2-.2-.4-.5-.4-.8 0-.4 0-.7.2-.9.2-.2.4-.4.8-.4l.5-.1zm2.6 22.4l.3 1.8-1.3.2-.2-1.8-2.1.2-.2-1.4 2.1-.2-.2-1.9 1.3-.1.2 1.8 2-.2.1 1.4zm2.4 22.2l-.5-4.5 1.2-.1.5 4.5-1.2.1zm-2.2.2l-.5-4.5 1.2-.1.5 4.5-1.2.1z"/><path transform="rotate(-19.937 408.886 190.988)" class="st21" d="M377.4 159.5h63v63h-63z"/><path class="st21" d="M409.7 224.2l-19.7 7.1-4.6-12.6z"/><path class="st32" d="M409.7 224.2c-4.7-4.5-7.9-9.6-8.6-15.5-3.8 5.4-9.2 8.3-15.7 9.9l24.3 5.6z"/><path transform="rotate(-19.937 435.007 181.513)" class="st32" d="M431.3 150h7.4v63h-7.4z"/><path class="st33" d="M407.5 178.7c.1.5-.2.6-.7.2-.5-.3-.9-1-1-1.5-.3-1.6-.5-3.5-.6-5.4-.2-1.8-.3-3.7-.6-5.2-.1-.5.2-.6.7-.2.5.3.9 1 1 1.5.3 1.6.5 3.5.6 5.4.1 1.8.3 3.6.6 5.2zm-6.6 1.1c.2.4-.1.6-.6.4-.6-.2-1.2-.7-1.4-1.2-.7-1.5-1.3-3.3-2-5.1-.6-1.7-1.3-3.5-1.9-4.9-.2-.4.1-.6.6-.4.5.2 1.2.7 1.4 1.2.7 1.5 1.3 3.3 2 5.1.6 1.7 1.2 3.4 1.9 4.9zm-5.8 15.1c-.4.2-1.2 0-1.7-.4s-.5-.8-.1-1c1.4-.5 2.2-1.9 3.1-3.4 1.3-2.3 2.9-5.1 7.1-6.7 4-1.6 7.7.1 10.3 3 .9 1.1 1.7 2.3 2.1 3.6.5 1.3.7 2.7.6 4-.2 3-1.9 5.9-5.9 7.2-4.7 1.5-7.6.3-10-.7-1.2-.5-2.3-.9-3.4-.5-.4.2-1.2 0-1.7-.4s-.5-.8-.1-1c2.2-.8 3.9-.1 5.9.8 1.8.8 4 1.7 7.7.5 3.6-1.1 5.1-3.7 5.2-6.4.1-1.2-.2-2.5-.6-3.6-.4-1.2-1.1-2.2-1.8-3.1-1.6-1.8-3.9-2.8-6.4-1.9-3.8 1.5-5.3 4.1-6.6 6.3-1 1.6-1.9 3.1-3.7 3.7zm-4.5-1.7c.1-.2.5-.3.9-.2.5.1.8.5.7.7-.2 1-.3 2.6-.1 4.2.1 1.5.4 3 .9 4.3.1.3-.2.5-.6.4-.5-.1-.9-.3-1-.6-.5-1.4-.8-3-1-4.5-.1-1.6-.1-3.2.2-4.3zm-2.5 1.7c.1-.2.5-.3.9-.2.5.1.8.5.7.7-.2.8-.2 2.1-.1 3.5.1 1.2.3 2.5.7 3.6.1.3-.2.5-.6.4-.5-.1-.9-.3-1-.6-.4-1.2-.7-2.5-.8-3.7-.1-1.4 0-2.8.2-3.7zm-3 1.9c0-.3.4-.4.9-.2.5.1.8.4.8.7-.1.7 0 1.7.2 2.7.2.9.5 1.8 1 2.5.2.3 0 .5-.4.5s-.9-.2-1.1-.5c-.5-.8-.9-1.8-1.1-2.8-.3-1.1-.4-2.1-.3-2.9zm29.9 5.8c-.3-.3-.1-.5.4-.5s1.2.2 1.5.5c1 1 2.2 2.2 3.3 3.5 1.1 1.2 2.2 2.4 3.2 3.4.3.3.1.5-.4.5s-1.2-.2-1.5-.5c-1.1-1-2.2-2.2-3.3-3.5-1.1-1.2-2.2-2.4-3.2-3.4zm-6.9 2.6c-.2-.3.1-.5.7-.4.6.1 1.2.4 1.3.7.7 1.2 1.4 2.8 2.1 4.3.7 1.5 1.4 3 2.1 4.2.2.3-.1.5-.7.4-.6-.1-1.2-.4-1.3-.7-.7-1.2-1.4-2.8-2.1-4.3-.7-1.5-1.4-3-2.1-4.2zm-6.1 0c0-.3.2-.3.6-.1.4.2.8.6.8.9.2 1.1.3 2.5.4 3.8.1 1.3.2 2.6.4 3.7 0 .3-.2.3-.6.1-.4-.2-.8-.6-.8-.9-.2-1.1-.3-2.5-.4-3.8-.1-1.2-.2-2.6-.4-3.7zm17.1-6.8c-.4-.1-.4-.4.1-.7.5-.2 1.2-.4 1.6-.3 1.4.4 3 1 4.5 1.6 1.5.6 3.1 1.1 4.4 1.5.4.1.4.4-.1.7-.5.2-1.2.4-1.6.3-1.4-.4-3-1-4.5-1.6-1.5-.6-3-1.1-4.4-1.5zm0-6.7c-.4 0-.5-.2-.2-.6.3-.4.9-.8 1.4-.8 1.4-.2 3.1-.2 4.8-.2 1.6 0 3.3-.1 4.7-.2.4 0 .5.2.2.6-.3.4-.9.8-1.4.8-1.4.2-3.1.2-4.8.2-1.7 0-3.3.1-4.7.2zm-2.7-6.3c-.4.2-.5 0-.4-.5.1-.5.5-1.1.9-1.3 1.2-.8 2.7-1.5 4.2-2.3 1.5-.7 2.9-1.5 4.1-2.2.4-.2.5 0 .4.5-.1.5-.5 1.1-.9 1.3-1.2.8-2.7 1.5-4.2 2.3-1.5.8-3 1.5-4.1 2.2zm-4-5.1c-.2.4-.5.3-.6-.3-.1-.5-.1-1.2.2-1.6.7-1.2 1.7-2.6 2.7-4 .9-1.3 1.9-2.7 2.6-3.9.2-.4.5-.3.6.3.1.5.1 1.2-.2 1.6-.7 1.2-1.7 2.6-2.7 4-.9 1.4-1.9 2.7-2.6 3.9zm-17.8 5.1c.2.3 0 .5-.4.4-.5-.1-1-.4-1.2-.7-.7-1.1-1.5-2.4-2.2-3.7-.7-1.3-1.4-2.6-2.1-3.6-.2-.3 0-.5.4-.4.5.1 1 .4 1.2.7.7 1.1 1.5 2.4 2.2 3.7.7 1.2 1.4 2.5 2.1 3.6z"/></svg>