<svg xmlns="http://www.w3.org/2000/svg" viewBox="0 0 321.4 88.4"><g fill-rule="evenodd" clip-rule="evenodd"><path fill="#73B452" d="M121.8 1.9V62L72.9 86.5z"/><path fill="#9DC44D" d="M121.8 1.9l48.8 84.6L121.8 62z"/><path fill="#427C3F" d="M121.8 62l48.8 24.5H72.9z"/><path fill="#484B51" d="M179 24.3C179 6.8 194.8 0 210.1 0c10.8 0 20.7 2.5 30.3 7.5l-7 12.2c-6.5-2.9-14.1-5.6-21.2-5.5-6.1.1-18.5 1.4-18.5 9.9 0 16.6 50.5 9 50.5 39.3 0 19.7-16.3 25.1-33.2 25.1-10.8 0-23-3.2-33-7.2l7.7-13.3c2 .8 4.1 1.5 6.2 2.2 5.2 1.6 12.3 3.4 17.8 3.4 5.9 0 19.5-1 19.5-9.4 0-17.8-50.2-9.8-50.2-39.9zM15.8 37.5h13.7L50 1.9h16.8L42.4 44.2l24.4 42.3H50L29.5 50.9H15.8v35.6H0V1.9h15.8zm247.2 49h58.4V73h-42.6V50.9h38.9V37.5h-38.9V15.4h42.6V1.9H263v84.6z"/></g></svg>