<svg id="objects" xmlns="http://www.w3.org/2000/svg" xmlns:xlink="http://www.w3.org/1999/xlink" viewBox="0 0 633.1 633.1"><style>.st0,.st1{clip-path:url(#SVGID_2_);fill:#e8eef0}.st1{fill:#fff}.st2{fill:none;stroke:#fff;stroke-width:30;stroke-miterlimit:10}.st2,.st3{clip-path:url(#SVGID_2_)}.st4{fill:#ffe0b8}.st5{fill:#8ac53f}.st6{fill:#fff}.st7{fill:#0a622b}.st8{fill:#454a51}.st9{fill:#8ac53f;stroke:#0a622b;stroke-width:6;stroke-miterlimit:10}.st10{fill:#0a622b}.st10,.st11,.st12{fill-rule:evenodd;clip-rule:evenodd}.st11{fill:#8cd3cb}.st12{clip-path:url(#SVGID_2_);fill:#fff}</style><defs><circle id="SVGID_1_" cx="316.6" cy="316.6" r="316.6"/></defs><clipPath id="SVGID_2_"><use xlink:href="#SVGID_1_" overflow="visible"/></clipPath><path class="st0" d="M-56.6-60.5h737.8v737.8H-56.6z"/><path class="st1" d="M492.7 327.8l-181.4-.2 1.1-188.9 11.2-15.1 11.2 15.2-1 166.7 159.2-.1 14.5 11.2z"/><circle class="st2" cx="316.6" cy="316.6" r="282.8"/><g class="st3"><path class="st4" d="M225.9 398.6l15.2.1s7.8-20 20.9-24.1l141.1-2.6s12.4-1.3 12.4 11.1c0 5.5-1.9 10.2-9.1 10.2l-73.7 1.4 1.9 5.7 83 .3s11.9.5 11.9 9.8-8.6 10.6-8.6 10.6l-79.9 2.6-1 6.2 87.5-1s9.2-.5 9.2 10c0 10.6-10.6 10.5-10.6 10.5l-86.9.5v6.4l77.5.9s10.3 1.1 10.3 10.3c0 9.3-8.1 10.6-8.1 10.6l-193.1-4.3.1-75.2z"/><ellipse transform="rotate(-45.001 340.01 427.483)" class="st5" cx="340" cy="427.5" rx="57.8" ry="57.8"/><path class="st6" d="M294.6 472.9c-25-25-25-65.7 0-90.8 25-25 65.7-25 90.8 0 25 25 25 65.7 0 90.8-25 25-65.7 25-90.8 0zm83-83.1c-20.8-20.8-54.5-20.8-75.3 0-20.8 20.8-20.8 54.5 0 75.3 20.7 20.8 54.5 20.8 75.3 0 20.8-20.7 20.8-54.5 0-75.3z"/><path class="st7" d="M289.5 478c-27.8-27.8-27.8-73.2 0-101 27.8-27.8 73.2-27.8 101 0 27.8 27.8 27.8 73.2 0 101-27.8 27.8-73.1 27.8-101 0zm92.4-92.4c-23.1-23.1-60.7-23.1-83.8 0-23.1 23.1-23.1 60.7 0 83.8 23.1 23.1 60.7 23.1 83.8 0 23.1-23.1 23.1-60.7 0-83.8z"/><ellipse transform="rotate(-45.004 302.47 389.75)" class="st6" cx="302.5" cy="389.8" rx="5.8" ry="5.8"/><ellipse transform="rotate(-44.992 377.632 464.92)" class="st6" cx="377.6" cy="464.9" rx="5.8" ry="5.8"/><ellipse transform="rotate(-44.992 377.632 389.854)" class="st6" cx="377.6" cy="389.8" rx="5.8" ry="5.8"/><ellipse transform="rotate(-45.001 302.293 465.227)" class="st6" cx="302.3" cy="465.2" rx="5.8" ry="5.8"/><ellipse transform="rotate(-45.001 340.177 427.455)" class="st6" cx="340.1" cy="427.4" rx="5.8" ry="5.8"/><path transform="rotate(-10.549 336.046 406.206)" class="st6" d="M335.4 384.1h1.4v44.4h-1.4z"/><path transform="rotate(-77.32 352.021 430.247)" class="st6" d="M351.3 417.6h1.4V443h-1.4z"/><path class="st4" d="M222.5 435.2s28.9-5.9 45.9 5.4c17 11.4 21.5 25.1 21.5 25.1l44 1.9s18.5 1.2 19.3 20.8l-95.5-1.9s-10.8.9-22.7-12.3l-12.7-.4.2-38.6z"/><path class="st6" d="M216.1 389.8h9.7V482h-9.7z"/><path class="st8" d="M-50.2 378.9h266.3v112.7H-50.2z"/><circle class="st6" cx="200.4" cy="391.7" r="4.6"/><circle class="st6" cx="176.1" cy="391.7" r="4.6"/></g><g class="st3"><path class="st4" d="M516.2 256.8s-35.7 20.4-48.3 21.5c-12.7 1.1-91.3-67.8-91.3-67.8s19.8-24.4 25.8-25.3c6-.8 75.7 12.9 75.7 12.9l13.3-6 24.8 64.7z"/><path transform="rotate(-14.234 325.033 278.645)" class="st7" d="M228.5 225.5h193.3v106.3H228.5z"/><path transform="rotate(-14.224 325.188 278.71)" class="st5" d="M235.6 232.7h179v91.8h-179z"/><ellipse transform="rotate(-14.234 396.869 218.812)" class="st7" cx="396.9" cy="218.8" rx="12.4" ry="12.4"/><ellipse transform="rotate(-14.217 416.91 297.532)" class="st7" cx="416.8" cy="297.5" rx="12.4" ry="12.4"/><ellipse transform="rotate(-14.224 233.534 260.28)" class="st7" cx="233.5" cy="260.3" rx="12.4" ry="12.4"/><ellipse transform="rotate(-14.234 325.041 278.652)" class="st7" cx="325.1" cy="278.7" rx="29.4" ry="29.4"/><ellipse transform="rotate(-14.224 253.492 338.961)" class="st7" cx="253.5" cy="338.9" rx="12.4" ry="12.4"/><path transform="rotate(-20.702 507.458 222.037)" class="st6" d="M502.8 177.9h9.3v88.4h-9.3z"/><path class="st7" d="M228.5 201.7h193.3V308H228.5z"/><path class="st5" d="M235.6 208.9h179v91.8h-179z"/><circle class="st7" cx="409.4" cy="214.5" r="12.4"/><circle class="st7" cx="414" cy="293.9" r="12.4"/><circle class="st7" cx="240.8" cy="214.5" r="12.4"/><ellipse transform="matrix(.9999 -.01235 .01235 .9999 -3.123 4.035)" class="st9" cx="325.1" cy="254.8" rx="29.4" ry="29.4"/><circle class="st7" cx="240.8" cy="295.6" r="12.4"/><path class="st4" d="M470.7 277.8s-30.3 6.2-48.1-5.7c-17.9-11.9-20.9-21.3-20.9-21.3l-41.2-2.7s-14.1-5.5-14.9-26l88.1 2s11.4-.9 23.8 12.9l13.3.5-.1 40.3z"/><path class="st10" d="M324.7 229.5c-14 .2-25.2 11.8-25 25.8.2 14 11.8 25.2 25.8 25 14-.2 25.2-11.8 24.9-25.8-.1-14.1-11.7-25.3-25.7-25zm7.6 34.5c-1.1 1.3-2.6 2.1-4.4 2.6v2.3h-4.3v-2c-1.3-.1-2.4-.3-3.5-.8-1.3-.6-2.7-1.4-3.9-2.6l3-5c1 1.1 2 1.9 3 2.5.5.3 1 .5 1.5.6.5.1 1.1.2 1.6.2.8 0 1.5-.3 2.1-.8.3-.2.5-.5.6-.8V258c-.1-.3-.3-.5-.5-.8-.5-.4-1.5-.8-3.2-1.3-.2 0-.4-.1-.6-.2-2.3-.6-3.9-1.4-4.8-2.4-1-1-1.6-2.4-1.6-4.3 0-2.2.6-4 2-5.5 1.1-1.1 2.6-1.9 4.4-2.3v-2.7h4.3v2.4c.7.1 1.5.3 2.2.6 1 .3 1.9.8 2.8 1.4l-2.1 4.9c-.8-.6-1.6-1.1-2.4-1.4-.2-.1-.4-.1-.6-.2-.6-.2-1.2-.2-1.8-.2-.8 0-1.5.2-1.9.6-.3.2-.5.5-.6.7-.1.2-.1.5-.1.7 0 .3.1.5.1.7.1.3.3.5.5.7.4.4 1.3.7 2.6 1l.2.1c.3.1.6.2.9.2 2.3.6 3.8 1.3 4.6 2.1.6.6 1.1 1.3 1.4 2.2.3.8.5 1.8.5 2.8.1 2.6-.6 4.6-2 6.2z"/><path class="st8" d="M530.9 270.5l-38-98L676.6 97l27.7 97.4z"/><ellipse transform="rotate(-27.625 560.282 239.024)" class="st6" cx="560.2" cy="239" rx="4.6" ry="4.6"/><ellipse transform="rotate(-27.638 539.965 248.4)" class="st6" cx="539.9" cy="248.4" rx="4.6" ry="4.6"/><path class="st11" d="M327.9 238.7v2.4c-.2 0-.5-.1-.7-.1l-2.2.1c-.5.1-1 .1-1.4.3v-2.7h4.3zm0 27.8v2.3h-4.3v-2h.9l2.2-.1c.4 0 .8-.1 1.2-.2z"/></g><path class="st12" d="M322.1 63.3c-14 .2-25.2 11.8-25 25.8.2 14 11.8 25.2 25.8 25 14-.2 25.2-11.8 24.9-25.8-.1-14-11.7-25.2-25.7-25zm7.6 34.5c-1.1 1.3-2.6 2.1-4.4 2.6v2.3H321v-2c-1.3-.1-2.4-.3-3.5-.8-1.3-.6-2.7-1.4-3.9-2.6l3-5c1 1.1 2 1.9 3 2.5.5.3 1 .5 1.5.6.5.1 1.1.2 1.6.2.8 0 1.5-.3 2.1-.8.3-.2.5-.5.6-.8v-2.1c-.1-.3-.3-.5-.5-.8-.5-.4-1.5-.8-3.2-1.3-.2 0-.4-.1-.6-.2-2.3-.6-3.9-1.4-4.8-2.4-1-1-1.6-2.4-1.6-4.3 0-2.2.6-4 2-5.5 1.1-1.1 2.6-1.9 4.4-2.3v-2.7h4.3V75c.7.1 1.5.3 2.2.6 1 .3 1.9.8 2.8 1.4l-2.1 4.9c-.8-.6-1.6-1.1-2.4-1.4-.2-.1-.4-.1-.6-.2-.6-.2-1.2-.2-1.8-.2-.8 0-1.5.2-1.9.6-.3.2-.5.5-.6.7-.1.2-.1.5-.1.7 0 .3.1.5.1.7.1.3.3.5.5.7.4.4 1.3.7 2.6 1l.2.1c.3.1.6.2.9.2 2.3.6 3.8 1.3 4.6 2.1.6.6 1.1 1.3 1.4 2.2.3.8.5 1.8.5 2.8.1 2.4-.6 4.4-2 5.9zm-7.6 422.8c-14 .2-25.2 11.8-25 25.8.2 14 11.8 25.2 25.8 25 14-.2 25.2-11.8 24.9-25.8-.1-14.1-11.7-25.2-25.7-25zm7.6 34.5c-1.1 1.3-2.6 2.1-4.4 2.6v2.3H321v-2c-1.3-.1-2.4-.3-3.5-.8-1.3-.6-2.7-1.4-3.9-2.6l3-5c1 1.1 2 1.9 3 2.5.5.3 1 .5 1.5.6.5.1 1.1.2 1.6.2.8 0 1.5-.3 2.1-.8.3-.2.5-.5.6-.8v-2.1c-.1-.3-.3-.5-.5-.8-.5-.4-1.5-.8-3.2-1.3-.2 0-.4-.1-.6-.2-2.3-.6-3.9-1.4-4.8-2.4-1-1-1.6-2.4-1.6-4.3 0-2.2.6-4 2-5.5 1.1-1.1 2.6-1.9 4.4-2.3v-2.7h4.3v2.4c.7.1 1.5.3 2.2.6 1 .3 1.9.8 2.8 1.4l-2.1 4.9c-.8-.6-1.6-1.1-2.4-1.4-.2-.1-.4-.1-.6-.2-.6-.2-1.2-.2-1.8-.2-.8 0-1.5.2-1.9.6-.3.2-.5.5-.6.7-.1.2-.1.5-.1.7 0 .3.1.5.1.7.1.3.3.5.5.7.4.4 1.3.7 2.6 1l.2.1c.3.1.6.2.9.2 2.3.6 3.8 1.3 4.6 2.1.6.6 1.1 1.3 1.4 2.2.3.8.5 1.8.5 2.8.1 2.6-.6 4.5-2 6.1zM90.2 291.2c-14 .2-25.2 11.8-25 25.8.2 14 11.8 25.2 25.8 25 14-.2 25.2-11.8 24.9-25.8-.1-14.1-11.6-25.2-25.7-25zm7.6 34.5c-1.1 1.3-2.6 2.1-4.4 2.6v2.3h-4.3v-2c-1.3-.1-2.4-.3-3.5-.8-1.3-.6-2.7-1.4-3.9-2.6l3-5c1 1.1 2 1.9 3 2.5.5.3 1 .5 1.5.6.5.1 1.1.2 1.6.2.8 0 1.5-.3 2.1-.8.3-.2.5-.5.6-.8v-2.1c-.1-.3-.3-.5-.5-.8-.5-.4-1.5-.8-3.2-1.3-.2 0-.4-.1-.6-.2-2.3-.6-3.9-1.4-4.8-2.4-1-1-1.6-2.4-1.6-4.3 0-2.2.6-4 2-5.5 1.1-1.1 2.6-1.9 4.4-2.3v-2.7h4.3v2.4c.7.1 1.5.3 2.2.6.9.3 1.9.8 2.8 1.4l-2.1 4.9c-.8-.6-1.6-1.1-2.4-1.4-.2-.1-.4-.1-.6-.2-.6-.2-1.2-.2-1.8-.2-.8 0-1.5.2-1.9.6-.3.2-.5.5-.6.7-.1.2-.1.5-.1.7 0 .3.1.5.1.7.1.3.3.5.5.7.4.4 1.3.7 2.6 1l.2.1.9.3c2.3.6 3.8 1.3 4.6 2.1.6.6 1.1 1.3 1.4 2.2.3.8.5 1.8.5 2.8.1 2.5-.6 4.4-2 6zm444.9-34.5c-14 .2-25.2 11.8-25 25.8.2 14 11.8 25.2 25.8 25 14-.2 25.2-11.8 24.9-25.8-.1-14.1-11.7-25.2-25.7-25zm7.6 34.5c-1.1 1.3-2.6 2.1-4.4 2.6v2.3h-4.3v-2c-1.3-.1-2.4-.3-3.5-.8-1.3-.6-2.7-1.4-3.9-2.6l3-5c1 1.1 2 1.9 3 2.5.5.3 1 .5 1.5.6.5.1 1.1.2 1.6.2.8 0 1.5-.3 2.1-.8.3-.2.5-.5.6-.8v-2.1c-.1-.3-.3-.5-.5-.8-.5-.4-1.6-.8-3.2-1.3-.2 0-.4-.1-.6-.2-2.3-.6-3.9-1.4-4.8-2.4-1-1-1.6-2.4-1.6-4.3 0-2.2.6-4 2-5.5 1.1-1.1 2.6-1.9 4.4-2.3v-2.7h4.3v2.4c.7.1 1.5.3 2.2.6 1 .3 1.9.8 2.8 1.4l-2.1 4.9c-.8-.6-1.6-1.1-2.4-1.4-.2-.1-.4-.1-.6-.2-.6-.2-1.2-.2-1.8-.2-.8 0-1.5.2-1.9.6-.3.2-.5.5-.6.7-.1.2-.1.5-.1.7 0 .3.1.5.1.7.1.3.3.5.5.7.4.4 1.3.7 2.6 1l.2.1.9.3c2.3.6 3.8 1.3 4.6 2.1.6.6 1.1 1.3 1.4 2.2.3.8.5 1.8.5 2.8.1 2.5-.6 4.4-2 6z"/></svg>