<svg xmlns="http://www.w3.org/2000/svg" width="50" height="50" viewBox="0 0 50 50"><title>Forma 1</title><defs><linearGradient id="a" gradientUnits="userSpaceOnUse" x1="1416.5" y1="1572.309" x2="1465.5" y2="1541.691"><stop stop-color="#087e38" offset="0"/><stop stop-color="#8ac53f" offset="1"/></linearGradient></defs><path d="M31.45 28.87c0 1.42-1.16 2.58-2.58 2.58-1.42 0-2.58-1.16-2.58-2.58 0-1.43 1.15-2.58 2.58-2.58a2.58 2.58 0 0 1 2.58 2.58zm-12.9-7.74a2.58 2.58 0 1 1 5.16 0c0 1.43-1.15 2.58-2.58 2.58a2.58 2.58 0 0 1-2.58-2.58zm12.9 0a2.58 2.58 0 0 1-2.58 2.58c-1.43 0-2.58-1.15-2.58-2.58a2.58 2.58 0 1 1 5.16 0zm0-11.87h-12.9v-3.6h12.9zm2.58 11.87a2.58 2.58 0 0 1 2.58-2.58c1.42 0 2.57 1.16 2.57 2.58 0 1.43-1.15 2.58-2.57 2.58-1.43 0-2.58-1.15-2.58-2.58zm0 7.74c0-1.43 1.15-2.58 2.58-2.58 1.42 0 2.57 1.15 2.57 2.58 0 1.42-1.15 2.58-2.57 2.58a2.58 2.58 0 0 1-2.58-2.58zm-15.48 0a2.58 2.58 0 0 1 2.58-2.58c1.43 0 2.58 1.15 2.58 2.58a2.58 2.58 0 1 1-5.16 0zm-7.73 7.74c0-1.43 1.15-2.58 2.57-2.58 1.43 0 2.58 1.15 2.58 2.58 0 1.42-1.15 2.57-2.58 2.57a2.57 2.57 0 0 1-2.57-2.57zM49.5 10.82v33.52a5.16 5.16 0 0 1-5.16 5.16H5.66A5.16 5.16 0 0 1 .5 44.34V10.82a5.16 5.16 0 0 1 5.16-5.16h2.58v3.6H4.1V45.9h41.8V9.26h-4.14v-3.6h2.58a5.16 5.16 0 0 1 5.16 5.16zM10.82 28.87c0-1.43 1.15-2.58 2.57-2.58 1.43 0 2.58 1.15 2.58 2.58a2.58 2.58 0 0 1-2.58 2.58c-1.42 0-2.57-1.16-2.57-2.58zm0-7.74c0-1.42 1.15-2.58 2.57-2.58a2.58 2.58 0 0 1 2.58 2.58c0 1.43-1.15 2.58-2.58 2.58-1.42 0-2.57-1.15-2.57-2.58zm7.73 15.48a2.58 2.58 0 0 1 2.58-2.58c1.43 0 2.58 1.15 2.58 2.58 0 1.42-1.15 2.57-2.58 2.57-1.42 0-2.58-1.15-2.58-2.57zM10.82 8.24V3.08c0-1.43 1.15-2.58 2.57-2.58 1.43 0 2.58 1.15 2.58 2.58v5.16a2.58 2.58 0 0 1-2.58 2.58c-1.42 0-2.57-1.16-2.57-2.58zm25.79 2.58c1.42 0 2.57-1.16 2.57-2.58V3.08c0-1.43-1.15-2.58-2.57-2.58-1.43 0-2.58 1.15-2.58 2.58v5.16a2.58 2.58 0 0 0 2.58 2.58z"/><path d="M1447.45 1560.87c0 1.42-1.16 2.58-2.58 2.58-1.42 0-2.58-1.16-2.58-2.58 0-1.43 1.15-2.58 2.58-2.58a2.58 2.58 0 0 1 2.58 2.58zm-12.9-7.74a2.58 2.58 0 1 1 5.16 0c0 1.43-1.15 2.58-2.58 2.58a2.58 2.58 0 0 1-2.58-2.58zm12.9 0a2.58 2.58 0 0 1-2.58 2.58c-1.43 0-2.58-1.15-2.58-2.58a2.58 2.58 0 1 1 5.16 0zm0-11.87h-12.9v-3.6h12.9zm2.58 11.87a2.58 2.58 0 0 1 2.58-2.58c1.42 0 2.57 1.16 2.57 2.58 0 1.43-1.15 2.58-2.57 2.58-1.43 0-2.58-1.15-2.58-2.58zm0 7.74c0-1.43 1.15-2.58 2.58-2.58 1.42 0 2.57 1.15 2.57 2.58 0 1.42-1.15 2.58-2.57 2.58a2.58 2.58 0 0 1-2.58-2.58zm-15.48 0a2.58 2.58 0 0 1 2.58-2.58c1.43 0 2.58 1.15 2.58 2.58a2.58 2.58 0 1 1-5.16 0zm-7.73 7.74c0-1.43 1.15-2.58 2.57-2.58 1.43 0 2.58 1.15 2.58 2.58 0 1.42-1.15 2.57-2.58 2.57a2.57 2.57 0 0 1-2.57-2.57zm38.68-25.79v33.52a5.16 5.16 0 0 1-5.16 5.16h-38.68a5.16 5.16 0 0 1-5.16-5.16v-33.52a5.16 5.16 0 0 1 5.16-5.16h2.58v3.6h-4.14v36.64h41.8v-36.64h-4.14v-3.6h2.58a5.16 5.16 0 0 1 5.16 5.16zm-38.68 18.05c0-1.43 1.15-2.58 2.57-2.58 1.43 0 2.58 1.15 2.58 2.58a2.58 2.58 0 0 1-2.58 2.58c-1.42 0-2.57-1.16-2.57-2.58zm0-7.74c0-1.42 1.15-2.58 2.57-2.58a2.58 2.58 0 0 1 2.58 2.58c0 1.43-1.15 2.58-2.58 2.58-1.42 0-2.57-1.15-2.57-2.58zm7.73 15.48a2.58 2.58 0 0 1 2.58-2.58c1.43 0 2.58 1.15 2.58 2.58 0 1.42-1.15 2.57-2.58 2.57-1.42 0-2.58-1.15-2.58-2.57zm-7.73-28.37v-5.16c0-1.43 1.15-2.58 2.57-2.58 1.43 0 2.58 1.15 2.58 2.58v5.16a2.58 2.58 0 0 1-2.58 2.58c-1.42 0-2.57-1.16-2.57-2.58zm25.79 2.58c1.42 0 2.57-1.16 2.57-2.58v-5.16c0-1.43-1.15-2.58-2.57-2.58-1.43 0-2.58 1.15-2.58 2.58v5.16a2.58 2.58 0 0 0 2.58 2.58z" fill="url(#a)" transform="translate(-1416 -1532)"/></svg>