<svg xmlns="http://www.w3.org/2000/svg" width="34" height="45" viewBox="0 0 34 45"><title>Forma 1</title><defs><linearGradient id="a" gradientUnits="userSpaceOnUse" x1="1814" y1="1567.123" x2="1848" y2="1545.877"><stop stop-color="#087e38" offset="0"/><stop stop-color="#8ac53f" offset="1"/></linearGradient></defs><path d="M32.51 3.65h-5.65V1.48c0-.82-.67-1.48-1.49-1.48-.83 0-1.5.66-1.5 1.48v2.17h-5.38V1.48C18.49.66 17.82 0 17 0c-.83 0-1.49.66-1.49 1.48v2.17h-5.38V1.48C10.13.66 9.46 0 8.63 0c-.82 0-1.49.66-1.49 1.48v2.17H1.49C.67 3.65 0 4.31 0 5.12v38.4C0 44.34.67 45 1.49 45h31.02c.82 0 1.49-.66 1.49-1.48V5.12c0-.81-.67-1.47-1.49-1.47zm-1.5 38.4H2.99V6.6h4.15v1.72c0 .82.67 1.48 1.49 1.48.83 0 1.5-.66 1.5-1.48V6.6h5.38v1.72c0 .82.66 1.48 1.49 1.48.82 0 1.49-.66 1.49-1.48V6.6h5.38v1.72c0 .82.67 1.48 1.5 1.48.82 0 1.49-.66 1.49-1.48V6.6h4.15zm-5.17-25.54H8.16c-.83 0-1.5.67-1.5 1.48 0 .82.67 1.48 1.5 1.48h17.68c.83 0 1.5-.66 1.5-1.48 0-.81-.67-1.48-1.5-1.48zm0 8.28H8.16c-.83 0-1.5.66-1.5 1.47 0 .82.67 1.48 1.5 1.48h17.68c.83 0 1.5-.66 1.5-1.48 0-.81-.67-1.47-1.5-1.47zm0 8.27H8.16c-.83 0-1.5.66-1.5 1.47 0 .82.67 1.48 1.5 1.48h17.68c.83 0 1.5-.66 1.5-1.48 0-.81-.67-1.47-1.5-1.47z"/><path d="M1846.51 1537.65h-5.65v-2.17c0-.82-.67-1.48-1.49-1.48-.83 0-1.5.66-1.5 1.48v2.17h-5.38v-2.17c0-.82-.67-1.48-1.49-1.48-.83 0-1.49.66-1.49 1.48v2.17h-5.38v-2.17c0-.82-.67-1.48-1.5-1.48-.82 0-1.49.66-1.49 1.48v2.17h-5.65c-.82 0-1.49.66-1.49 1.47v38.4c0 .82.67 1.48 1.49 1.48h31.02c.82 0 1.49-.66 1.49-1.48v-38.4c0-.81-.67-1.47-1.49-1.47zm-1.5 38.4h-28.02v-35.45h4.15v1.72c0 .82.67 1.48 1.49 1.48.83 0 1.5-.66 1.5-1.48v-1.72h5.38v1.72c0 .82.66 1.48 1.49 1.48.82 0 1.49-.66 1.49-1.48v-1.72h5.38v1.72c0 .82.67 1.48 1.5 1.48.82 0 1.49-.66 1.49-1.48v-1.72h4.15zm-5.17-25.54h-17.68c-.83 0-1.5.67-1.5 1.48 0 .82.67 1.48 1.5 1.48h17.68c.83 0 1.5-.66 1.5-1.48 0-.81-.67-1.48-1.5-1.48zm0 8.28h-17.68c-.83 0-1.5.66-1.5 1.47 0 .82.67 1.48 1.5 1.48h17.68c.83 0 1.5-.66 1.5-1.48 0-.81-.67-1.47-1.5-1.47zm0 8.27h-17.68c-.83 0-1.5.66-1.5 1.47 0 .82.67 1.48 1.5 1.48h17.68c.83 0 1.5-.66 1.5-1.48 0-.81-.67-1.47-1.5-1.47z" fill="url(#a)" transform="translate(-1814 -1534)"/></svg>