<svg xmlns="http://www.w3.org/2000/svg" width="59" height="43" viewBox="0 0 59 43"><title>Forma 1</title><defs><linearGradient id="a" gradientUnits="userSpaceOnUse" x1="1017.5" y1="1575.87" x2="1075.5" y2="1539.628"><stop stop-color="#087e38" offset="0"/><stop stop-color="#8ac53f" offset="1"/></linearGradient></defs><path d="M57.43 5.85h-2.55V3.42c0-.54-.41-1-.94-1.06L39.14.62a17.4 17.4 0 0 0-9.64 1.61c-3-1.45-6.32-2-9.64-1.61L5.06 2.36c-.53.06-.94.52-.94 1.06v2.43H1.57C.98 5.85.5 6.33.5 6.92v35.01C.5 42.52.98 43 1.57 43h55.86c.59 0 1.07-.48 1.07-1.07V6.92c0-.59-.48-1.07-1.07-1.07zM38.89 2.74l13.86 1.64V36.2l-13.61-1.61c-2.93-.34-5.86.05-8.57 1.14V4.09c2.6-1.22 5.46-1.68 8.32-1.35zm-18.78 0c2.86-.33 5.72.13 8.32 1.35v31.64a17.458 17.458 0 0 0-8.57-1.14L6.25 36.2V4.38zM2.63 40.86V7.99h1.49V37.4c0 .31.13.6.36.8.23.2.53.3.83.26l14.8-1.74c3.07-.36 6.15.2 8.9 1.63.31.16.67.16.98 0 2.75-1.43 5.83-1.99 8.9-1.63l14.8 1.74c.04.01.08.01.12.01.26 0 .51-.1.71-.27.23-.2.36-.49.36-.8V7.99h1.49v32.87zM33.02 8.77c1.92-.52 3.88-.67 5.85-.43l11.11 1.3c.04.01.09.01.13.01.53 0 .99-.4 1.06-.94.06-.59-.35-1.12-.94-1.19L39.12 6.21c-2.24-.26-4.48-.1-6.66.5-.56.15-.9.74-.75 1.31.16.57.75.91 1.31.75zm-24.17.88c.04 0 .09 0 .13-.01l11.11-1.3c1.96-.23 3.95-.08 5.85.43.56.16 1.15-.18 1.3-.75.16-.57-.18-1.16-.74-1.31-2.16-.59-4.42-.76-6.66-.5L8.73 7.52c-.59.07-1 .6-.94 1.19.07.54.53.94 1.06.94zm24.17 4.03c1.92-.52 3.88-.67 5.85-.44l11.11 1.31c.04.01.09.01.13.01.53 0 .99-.4 1.06-.95.06-.58-.35-1.11-.94-1.18l-11.11-1.31c-2.24-.27-4.48-.1-6.66.49-.56.16-.9.75-.75 1.32.16.57.75.9 1.31.75zm-24.17.88c.04 0 .09 0 .13-.01l11.11-1.31c1.96-.23 3.95-.08 5.85.44.56.16 1.15-.18 1.3-.75.16-.57-.18-1.16-.74-1.31-2.16-.59-4.42-.76-6.66-.5L8.73 12.43c-.59.07-1 .6-.94 1.18.07.55.53.95 1.06.95zm24.17 4.03c1.92-.52 3.88-.67 5.85-.44l11.11 1.31c.04 0 .09.01.13.01.53 0 .99-.4 1.06-.95.06-.59-.35-1.12-.94-1.19l-11.11-1.3c-2.24-.27-4.48-.1-6.66.49-.56.16-.9.75-.75 1.32.16.57.75.9 1.31.75zm-24.17.88c.04 0 .09-.01.13-.01l11.11-1.31c1.96-.23 3.95-.08 5.85.44.56.15 1.15-.18 1.3-.75.16-.57-.18-1.16-.74-1.32-2.16-.58-4.42-.76-6.66-.49l-11.11 1.3c-.59.07-1 .6-.94 1.19.07.55.53.95 1.06.95zm24.17 4.02a15.4 15.4 0 0 1 5.85-.43l11.11 1.31h.13c.53 0 .99-.4 1.06-.94.06-.59-.35-1.12-.94-1.19l-11.11-1.31c-2.24-.26-4.48-.09-6.66.5-.56.15-.9.74-.75 1.31.16.57.75.91 1.31.75zm-24.17.88h.13l11.11-1.31c1.96-.23 3.95-.08 5.85.44.56.15 1.15-.19 1.3-.76.16-.57-.18-1.15-.74-1.31-2.16-.59-4.42-.76-6.66-.5L8.73 22.24c-.59.07-1 .6-.94 1.19.07.54.53.94 1.06.94zm41.38 2.78l-11.11-1.31c-2.24-.26-4.48-.1-6.65.5-.57.15-.91.74-.75 1.31.15.57.74.91 1.3.75 1.92-.52 3.88-.67 5.85-.43l11.11 1.3c.04.01.09.01.13.01.53 0 .99-.4 1.06-.94.06-.59-.35-1.12-.94-1.19zM8.85 29.28c.04 0 .09 0 .13-.01l11.11-1.3c1.96-.23 3.95-.08 5.85.43.56.16 1.15-.18 1.3-.75.16-.57-.18-1.16-.74-1.31-2.16-.59-4.42-.76-6.66-.5L8.73 27.15c-.59.07-1 .6-.94 1.19.07.54.53.94 1.06.94z"/><path d="M1074.43 1541.85h-2.55v-2.43c0-.54-.41-1-.94-1.06l-14.8-1.74a17.4 17.4 0 0 0-9.64 1.61c-3-1.45-6.32-2-9.64-1.61l-14.8 1.74c-.53.06-.94.52-.94 1.06v2.43h-2.55c-.59 0-1.07.48-1.07 1.07v35.01c0 .59.48 1.07 1.07 1.07h55.86c.59 0 1.07-.48 1.07-1.07v-35.01c0-.59-.48-1.07-1.07-1.07zm-18.54-3.11l13.86 1.64v31.82l-13.61-1.61c-2.93-.34-5.86.05-8.57 1.14v-31.64c2.6-1.22 5.46-1.68 8.32-1.35zm-18.78 0c2.86-.33 5.72.13 8.32 1.35v31.64a17.458 17.458 0 0 0-8.57-1.14l-13.61 1.61v-31.82zm-17.48 38.12v-32.87h1.49v29.41c0 .31.13.6.36.8.23.2.53.3.83.26l14.8-1.74c3.07-.36 6.15.2 8.9 1.63.31.16.67.16.98 0 2.75-1.43 5.83-1.99 8.9-1.63l14.8 1.74c.04.01.08.01.12.01.26 0 .51-.1.71-.27.23-.2.36-.49.36-.8v-29.41h1.49v32.87zm30.39-32.09c1.92-.52 3.88-.67 5.85-.43l11.11 1.3c.04.01.09.01.13.01.53 0 .99-.4 1.06-.94.06-.59-.35-1.12-.94-1.19l-11.11-1.31c-2.24-.26-4.48-.1-6.66.5-.56.15-.9.74-.75 1.31.16.57.75.91 1.31.75zm-24.17.88c.04 0 .09 0 .13-.01l11.11-1.3c1.96-.23 3.95-.08 5.85.43.56.16 1.15-.18 1.3-.75.16-.57-.18-1.16-.74-1.31-2.16-.59-4.42-.76-6.66-.5l-11.11 1.31c-.59.07-1 .6-.94 1.19.07.54.53.94 1.06.94zm24.17 4.03c1.92-.52 3.88-.67 5.85-.44l11.11 1.31c.04.01.09.01.13.01.53 0 .99-.4 1.06-.95.06-.58-.35-1.11-.94-1.18l-11.11-1.31c-2.24-.27-4.48-.1-6.66.49-.56.16-.9.75-.75 1.32.16.57.75.9 1.31.75zm-24.17.88c.04 0 .09 0 .13-.01l11.11-1.31c1.96-.23 3.95-.08 5.85.44.56.16 1.15-.18 1.3-.75.16-.57-.18-1.16-.74-1.31-2.16-.59-4.42-.76-6.66-.5l-11.11 1.31c-.59.07-1 .6-.94 1.18.07.55.53.95 1.06.95zm24.17 4.03c1.92-.52 3.88-.67 5.85-.44l11.11 1.31c.04 0 .09.01.13.01.53 0 .99-.4 1.06-.95.06-.59-.35-1.12-.94-1.19l-11.11-1.3c-2.24-.27-4.48-.1-6.66.49-.56.16-.9.75-.75 1.32.16.57.75.9 1.31.75zm-24.17.88c.04 0 .09-.01.13-.01l11.11-1.31c1.96-.23 3.95-.08 5.85.44.56.15 1.15-.18 1.3-.75.16-.57-.18-1.16-.74-1.32-2.16-.58-4.42-.76-6.66-.49l-11.11 1.3c-.59.07-1 .6-.94 1.19.07.55.53.95 1.06.95zm24.17 4.02a15.4 15.4 0 0 1 5.85-.43l11.11 1.31h.13c.53 0 .99-.4 1.06-.94.06-.59-.35-1.12-.94-1.19l-11.11-1.31c-2.24-.26-4.48-.09-6.66.5-.56.15-.9.74-.75 1.31.16.57.75.91 1.31.75zm-24.17.88h.13l11.11-1.31c1.96-.23 3.95-.08 5.85.44.56.15 1.15-.19 1.3-.76.16-.57-.18-1.15-.74-1.31-2.16-.59-4.42-.76-6.66-.5l-11.11 1.31c-.59.07-1 .6-.94 1.19.07.54.53.94 1.06.94zm41.38 2.78l-11.11-1.31c-2.24-.26-4.48-.1-6.65.5-.57.15-.91.74-.75 1.31.15.57.74.91 1.3.75 1.92-.52 3.88-.67 5.85-.43l11.11 1.3c.04.01.09.01.13.01.53 0 .99-.4 1.06-.94.06-.59-.35-1.12-.94-1.19zm-41.38 2.13c.04 0 .09 0 .13-.01l11.11-1.3c1.96-.23 3.95-.08 5.85.43.56.16 1.15-.18 1.3-.75.16-.57-.18-1.16-.74-1.31-2.16-.59-4.42-.76-6.66-.5l-11.11 1.31c-.59.07-1 .6-.94 1.19.07.54.53.94 1.06.94z" fill="url(#a)" transform="translate(-1017 -1536)"/></svg>