<svg xmlns="http://www.w3.org/2000/svg" xmlns:xlink="http://www.w3.org/1999/xlink" width="234" height="234" viewBox="0 0 234 234"><circle fill="#FFF" cx="117" cy="117.029" r="117"/><defs><circle id="a" cx="117" cy="117.029" r="117"/></defs><clipPath id="b"><use xlink:href="#a" overflow="visible"/></clipPath><g clip-path="url(#b)"><path fill="#0E55B7" d="M105.91 118.615v.004c-2.319-.966-7.786-2.87-11.168-3.866-.29-.091-.335-.104-.335-1.304 0-.994.408-1.992.803-2.837.438-.921.946-2.467 1.126-3.853.518-.595 1.213-1.772 1.662-4.012.396-1.977.213-2.692-.05-3.368a1.607 1.607 0 0 1-.074-.211c-.098-.461.035-2.87.371-4.735.239-1.279-.056-4.002-1.819-6.255-1.111-1.429-3.246-3.174-7.139-3.417l-2.131.003c-3.829.24-5.958 1.985-7.073 3.414-1.763 2.253-2.055 4.976-1.823 6.255.34 1.865.476 4.274.378 4.728-.022.079-.05.147-.079.219-.262.676-.446 1.392-.052 3.368.449 2.239 1.151 3.417 1.662 4.012.185 1.386.696 2.932 1.127 3.853.318.67.464 1.584.464 2.878 0 1.201-.045 1.217-.314 1.303-3.5 1.034-9.07 3.044-11.146 3.953-.018-.018-.03-.036-.047-.053v8.787h35.658v-8.866z"/><path fill="#A71AEF" d="M94.742 114.753c-.29-.091-.335-.104-.335-1.304 0-.994.408-1.992.803-2.837.438-.921.946-2.467 1.126-3.853.518-.595 1.213-1.772 1.662-4.012.396-1.977.213-2.692-.05-3.368a1.607 1.607 0 0 1-.074-.211c-.098-.461.035-2.87.371-4.735.239-1.279-.056-4.002-1.819-6.255-1.111-1.429-3.246-3.174-7.139-3.417l-1.239.003v42.716h17.862v-8.865.004c-2.319-.966-7.786-2.87-11.168-3.866z"/><path fill="#0E55B7" d="M173.748 118.615l-.002.004c-2.316-.966-7.786-2.87-11.166-3.866-.29-.091-.337-.104-.337-1.304 0-.994.408-1.992.806-2.837.434-.921.946-2.467 1.127-3.853.514-.595 1.213-1.772 1.658-4.012.399-1.977.214-2.692-.048-3.368-.028-.071-.057-.14-.076-.211-.097-.461.035-2.87.374-4.735.237-1.279-.06-4.002-1.819-6.255-1.111-1.429-3.246-3.174-7.138-3.417l-2.135.003c-3.827.24-5.955 1.985-7.07 3.414-1.763 2.253-2.055 4.976-1.822 6.255.34 1.865.472 4.274.378 4.728-.023.079-.052.147-.08.219-.262.676-.447 1.392-.052 3.368.449 2.239 1.148 3.417 1.662 4.012.185 1.386.696 2.932 1.127 3.853.318.67.464 1.584.464 2.878 0 1.201-.044 1.217-.317 1.303-3.497 1.034-9.067 3.044-11.144 3.953-.019-.018-.03-.036-.048-.053v8.787h35.658v-8.866z"/><path fill="#A71AEF" d="M162.58 114.753c-.29-.091-.337-.104-.337-1.304 0-.994.408-1.992.806-2.837.434-.921.946-2.467 1.127-3.853.514-.595 1.213-1.772 1.658-4.012.399-1.977.214-2.692-.048-3.368-.028-.071-.057-.14-.076-.211-.097-.461.035-2.87.374-4.735.237-1.279-.06-4.002-1.819-6.255-1.111-1.429-3.246-3.174-7.138-3.417l-1.24.003v42.716h17.861v-8.865l-.002.004c-2.316-.966-7.786-2.87-11.166-3.866z"/><path fill="#0E55B7" d="M146.759 130.905h-.005c-3.253-1.358-10.941-4.024-15.698-5.428-.408-.131-.469-.151-.469-1.841 0-1.394.569-2.798 1.13-3.987.611-1.289 1.33-3.463 1.584-5.41.723-.838 1.707-2.492 2.333-5.641.56-2.776.298-3.784-.064-4.735a1.923 1.923 0 0 1-.108-.297c-.142-.649.049-4.031.524-6.654.329-1.801-.083-5.63-2.563-8.794-1.562-2.003-4.561-4.46-10.03-4.805l-3.001.003c-5.377.342-8.374 2.799-9.938 4.802-2.479 3.164-2.89 6.993-2.562 8.794.476 2.623.664 6.005.528 6.642-.029.114-.071.212-.107.31-.368.951-.63 1.959-.074 4.735.634 3.148 1.615 4.803 2.338 5.641.259 1.947.978 4.121 1.584 5.41.445.946.651 2.23.651 4.05 0 1.688-.063 1.71-.442 1.831-4.922 1.451-12.753 4.281-15.672 5.561l-.062-.081v12.356h50.124v-12.462z"/><path fill="#A71AEF" d="M131.056 125.478c-.408-.131-.469-.151-.469-1.841 0-1.394.569-2.798 1.13-3.987.611-1.289 1.33-3.463 1.584-5.41.723-.838 1.707-2.492 2.333-5.641.56-2.776.298-3.784-.064-4.735a1.923 1.923 0 0 1-.108-.297c-.142-.649.049-4.031.524-6.654.329-1.801-.083-5.63-2.563-8.794-1.562-2.003-4.561-4.46-10.03-4.805l-1.746.003v60.05h25.113v-12.461h-.005c-3.254-1.359-10.943-4.025-15.699-5.428z"/></g></svg>