<svg xmlns="http://www.w3.org/2000/svg" xmlns:xlink="http://www.w3.org/1999/xlink" width="234.25" height="234.25" viewBox="0 0 234.25 234.25"><circle fill="#FFF" cx="117.25" cy="117.25" r="117"/><defs><circle id="a" cx="117.25" cy="117.25" r="117"/></defs><clipPath id="b"><use xlink:href="#a" overflow="visible"/></clipPath><g clip-path="url(#b)"><path fill="#8AC53F" d="M173.52 152.241c-27.511-22.879-67.427-11.365-94.937-34.245l14.77-40.944c27.51 22.88 67.427 11.366 94.936 34.245a294631.25 294631.25 0 0 0-14.769 40.944z"/><path fill="#087E38" d="M95.486 79.92c-4.478 12.41-8.953 24.819-13.43 37.229 26.199 21.232 63.682 11.191 89.882 32.424 4.476-12.41 8.952-24.82 13.43-37.231-26.201-21.231-63.682-11.191-89.882-32.422zm87.045 33.236l-.021-.144.059.043a1.948 1.948 0 0 1-.038.101zm-10.905 19.741c-2.269-1.451-5.196.395-6.451 3.869-.639 1.77-.72 3.621-.348 5.203-22.71-12.697-51.327-9.02-74.036-21.718 1.196-.707 2.265-2.047 2.902-3.814 1.257-3.482.363-7.276-1.906-8.728-1.227-.781-2.6-.715-3.802.05 1.878-5.207 3.755-10.413 5.635-15.619.261 1.844 1.038 3.432 2.263 4.214 2.27 1.451 5.198-.396 6.451-3.87.596-1.65.703-3.369.416-4.877 22.634 12.567 51.096 8.979 73.73 21.547-1.1.737-2.07 2.011-2.665 3.658-1.256 3.484-.36 7.277 1.907 8.729 1.227.782 2.6.715 3.804-.051-1.88 5.206-3.757 10.415-5.636 15.62-.26-1.843-1.037-3.431-2.264-4.213zM96.721 83.748c-.032.02-.064.038-.096.059.014-.034.024-.068.037-.101l.059.042zm-11.742 32.347c.023.164.049.329.08.489a10.543 10.543 0 0 1-.202-.149l.122-.34zm85.58 29.543c.109-.059.218-.125.326-.193l-.123.342c-.068-.052-.136-.1-.203-.149z"/><circle fill="#087E38" cx="109.63" cy="110.18" r="4.075"/><circle fill="#087E38" cx="157.194" cy="119.52" r="4.075"/><ellipse transform="rotate(19.831 133.15 115.202)" fill="#087E38" cx="133.141" cy="115.175" rx="12.295" ry="16.359"/><path fill="#087E38" d="M130.909 133.438c-1.377 0-2.724-.234-4.002-.695-7.56-2.727-10.873-12.812-7.387-22.48 2.822-7.821 9.417-13.282 16.036-13.282 1.376 0 2.723.233 4.001.694 3.78 1.363 6.607 4.536 7.959 8.933 1.281 4.164 1.078 8.975-.571 13.548-2.821 7.82-9.415 13.282-16.036 13.282zm4.648-31.894c-4.732 0-9.562 4.222-11.744 10.268-2.633 7.301-.55 14.766 4.644 16.639.78.281 1.605.424 2.453.424 4.733 0 9.562-4.222 11.743-10.267 1.315-3.649 1.494-7.435.503-10.658-.92-2.992-2.748-5.116-5.146-5.981a7.204 7.204 0 0 0-2.453-.425z"/><path fill="#A7D497" d="M130.657 131.521a9.937 9.937 0 0 1-3.381-.586c-3.227-1.164-5.652-3.918-6.831-7.752-1.164-3.788-.971-8.188.545-12.39 2.564-7.109 8.45-12.075 14.314-12.075 1.164 0 2.302.197 3.38.587 3.228 1.164 5.654 3.916 6.834 7.75 1.165 3.788.972 8.188-.545 12.39-2.564 7.109-8.451 12.076-14.316 12.076zm4.648-31.896c-5.489 0-11.024 4.719-13.462 11.476-1.449 4.019-1.638 8.215-.531 11.815 1.094 3.556 3.321 6.101 6.272 7.165a9.013 9.013 0 0 0 3.073.533c5.49 0 11.026-4.721 13.464-11.478 1.45-4.018 1.639-8.214.53-11.815-1.093-3.555-3.321-6.099-6.274-7.164a9.035 9.035 0 0 0-3.072-.532z"/><text transform="matrix(.8729 .3149 -.3393 .9407 124.862 120.827)" fill="#AAE0AA" font-family="'MyriadPro-Regular'" font-size="24.768">$</text><path fill="#CC9774" d="M200.879 152.198l3.291 3.406-62.438 23.148-8.048-9.115c0 .001 53.853-25.111 67.195-17.439z"/><path fill="#E3A882" d="M203.277 148.56l3.486 2.619-61.793 25.734-8.324-8.867s55.92-25.041 66.631-19.486z"/><path fill="#FFBF96" d="M28.443 146.894s43.06-3.426 49.446-4.367 28.812-11.395 47.416 7.504l17.069 1.818s18.214-5.646 23.343 2.305c0 0 26.903-13.674 36.399-4.904 0 0-48.291 22.451-53.635 27.572 0 0-8.885 8.877-13.361 7.656-4.477-1.217-45.019-13.229-61.591-13.078l-49.126 4.979 4.04-29.485z"/><path fill="#E3A882" d="M165.718 154.153s6.205 12.172-41.015 11.086L112 161.708l11.885 5.572s47.704 2.463 41.833-13.127z"/><path fill="#FCDBCA" d="M153.155 154.495s-.978 4.178 1.989 6.654c0 0 9.041-.896 8.769-4.385-.435-5.585-10.758-2.269-10.758-2.269z"/><path fill="#FFF" d="M70.8 139.778l-1.375 39.866-70.295 3.398.29-47.215z"/><path fill="#0E56B7" d="M63.264 135.13l1.25 50.418-72.703 5.826-.024-60.869z"/><path opacity=".1" d="M-8.195 175.155l72.382-2.808.327 13.201-72.703 5.826z"/><circle fill="#E2E3E4" cx="120.872" cy="44.317" r="12.564"/><circle fill="#CCCED1" cx="120.872" cy="44.316" r="9.604"/><path fill="#C4C6C8" d="M120.866 54.578c-2.341 0-4.633-.812-6.455-2.288-4.396-3.562-5.075-10.038-1.513-14.434a10.226 10.226 0 0 1 7.979-3.802c2.34 0 4.631.812 6.453 2.288 4.396 3.562 5.075 10.037 1.514 14.434a10.223 10.223 0 0 1-7.978 3.802zm.012-19.209a8.919 8.919 0 0 0-6.958 3.315c-3.105 3.832-2.514 9.478 1.319 12.584a8.972 8.972 0 0 0 5.627 1.995 8.917 8.917 0 0 0 6.957-3.314c3.105-3.834 2.513-9.479-1.32-12.585a8.968 8.968 0 0 0-5.625-1.995z"/><text transform="rotate(39.018 -7.65 181.372)" fill="#ACAEB0" font-family="'MyriadPro-Regular'" font-size="18.876">€</text><circle fill="#A71AF0" cx="146.84" cy="69.324" r="14.261"/><circle fill="#A71AF0" cx="146.84" cy="69.323" r="10.902"/><path fill="#FFF" d="M146.838 80.848a11.526 11.526 0 0 1-10.886-7.755 11.447 11.447 0 0 1 .523-8.804 11.447 11.447 0 0 1 6.596-5.855 11.497 11.497 0 0 1 3.767-.636c4.908 0 9.284 3.117 10.89 7.757 1.007 2.907.821 6.033-.523 8.802s-3.688 4.848-6.596 5.854a11.5 11.5 0 0 1-3.771.637zm0-21.81c-1.141 0-2.271.19-3.361.567-2.596.899-4.686 2.755-5.886 5.226s-1.366 5.261-.467 7.855a10.286 10.286 0 0 0 9.714 6.922 10.24 10.24 0 0 0 3.364-.569 10.214 10.214 0 0 0 5.887-5.225 10.217 10.217 0 0 0 .467-7.854 10.289 10.289 0 0 0-9.718-6.922z"/><text transform="rotate(-19.091 300.93 -390.179)" fill="#FFF" font-family="'MyriadPro-Regular'" font-size="19.857">$</text></g></svg>