<svg xmlns="http://www.w3.org/2000/svg" xmlns:xlink="http://www.w3.org/1999/xlink" width="236.007" height="237" viewBox="0 0 236.007 237"><circle fill="#FFF" cx="119.007" cy="120" r="117"/><defs><circle id="a" cx="119.007" cy="120" r="117"/></defs><clipPath id="b"><use xlink:href="#a" overflow="visible"/></clipPath><g clip-path="url(#b)"><path fill="#FFC6A1" d="M72.812 116.054l-77.751-9.089-3.154 38.784 80.01.663z"/><path fill="#FFC6A1" d="M124.066 143.697s5.515-28.524-17.543-38.082c0 0-20.961-1.439-36.805 13.021 0 0-11.098 9.959-2.299 29.743l15.038 15.375s3.301 4.495 8.285 6.243c4.983 1.749 14.827 4.356 23.06 11.941 0 0 2.411 1.475 4.505-.319 1.361-1.167 4.215-12.045-17.912-21.525 0 0-4.262-3.416 3.859-6.257 8.122-2.841 19.252-4.024 19.812-10.14z"/><path fill="#FFC6A1" d="M104.987 116.43c-1.399.026-2.447-3.773-2.474-5.172l-.03-1.636c-.024-1.398.521-4.033 1.919-4.059l40.241.76c1.398-.024 3.895.318 4.031 3.104.138 2.785-2.511 3.57-3.909 3.596l-39.778 3.407zm14.4 9.569c-1.44.094-2.83-2.534-2.944-4.302l-.134-2.066c-.114-1.768.959-3.275 2.399-3.368l40.843-2.651c1.439-.094 3.334-.008 4.188 3.018.988 4.302-2.197 5.354-3.637 5.446l-40.715 3.923zm3.45 11.457c-1.442.188-1.679-2.416-1.906-4.155l-.265-2.03c-.228-1.738-.538-4.439.905-4.628l42.197-4.202c1.442-.188 3.912 1.142 4.2 3.87s-1.67 4.265-3.112 4.454l-42.019 6.691zm-.303 11.078c-6.826 1.36-1.563 1.37-2.515-3.426l-.369-1.854c-.315-1.585.349-4.323 1.665-4.586l37.473-6.177c1.315-.261 3.97.471 4.439 3.394.473 2.922-1.613 3.938-2.93 4.202l-37.763 8.447z"/><path fill="#FFF" d="M54.629 110.733l-2.14 39.413-60.61-1.62.679-43.953z"/><path fill="#0E54B7" d="M49.014 107.195l-.816 44.81-56.038.43-2.027-53.448z"/><path opacity=".1" d="M48.478 136.646l-56.952-.942.634 16.731 56.038-.43zm18.119 9.766s-2.126-4.805-2.345-8.947l-11.055-.343-.496 9.131 13.896.159z"/><circle fill="#FF9000" cx="23.859" cy="144.646" r="2.88"/><circle fill="#FF9000" cx="34.1" cy="144.646" r="2.88"/><path fill="#85BD70" d="M194.68 77.478c-23.824 2.153-47.993-2.277-72.27-.115a3046.66 3046.66 0 0 1-2.303 7.895c25.91-2.198 51.717 2.196 77.164.009-.871-2.596-1.736-5.191-2.591-7.789z"/><path fill="#6D9C5C" d="M181.15 86.205c-7.383 0-14.923-.322-22.214-.634-7.342-.314-14.934-.638-22.42-.638-6 0-11.358.207-16.382.633l-.45.038.127-.433c.772-2.632 1.539-5.263 2.303-7.894l.059-.203.21-.019c4.634-.413 9.562-.614 15.064-.614 7.14 0 14.371.341 21.364.671 6.93.326 14.095.664 21.104.664 5.403 0 10.222-.198 14.738-.606l.244-.022.077.233c.854 2.597 1.719 5.192 2.59 7.786l.125.373-.391.033c-4.937.426-10.219.632-16.148.632zm-44.634-1.891c7.5 0 15.099.324 22.447.639 7.283.312 14.817.634 22.187.634 5.755 0 10.896-.195 15.702-.595-.803-2.394-1.599-4.788-2.39-7.185-4.462.396-9.223.587-14.547.588-7.024 0-14.196-.338-21.133-.665-6.986-.33-14.21-.67-21.335-.67-5.401 0-10.245.194-14.799.592-.704 2.42-1.409 4.841-2.118 7.26 4.911-.402 10.147-.598 15.986-.598z"/><path fill="#85BD70" d="M194.68 76.568c-23.824 2.152-47.993-2.277-72.27-.115-.764 2.631-1.531 5.262-2.303 7.895 25.91-2.198 51.717 2.196 77.164.009-.871-2.596-1.736-5.191-2.591-7.789z"/><path fill="#6D9C5C" d="M181.153 85.295h-.001c-7.383 0-14.923-.322-22.213-.634-7.343-.314-14.936-.638-22.422-.638-6 0-11.358.207-16.383.633l-.45.038.127-.433c.772-2.632 1.539-5.263 2.303-7.894l.059-.203.21-.019c4.635-.413 9.563-.614 15.066-.614 7.14 0 14.372.341 21.365.671 6.93.326 14.095.664 21.104.664 5.4 0 10.221-.198 14.735-.606l.244-.022.077.233c.854 2.597 1.719 5.191 2.59 7.786l.125.373-.391.033c-4.937.425-10.217.632-16.145.632zm-44.637-1.891c7.5 0 15.1.325 22.448.639 7.285.312 14.817.634 22.187.634h.001c5.754 0 10.894-.195 15.699-.595-.803-2.394-1.599-4.788-2.39-7.185-4.462.396-9.223.587-14.544.587-7.024 0-14.196-.338-21.133-.665-6.986-.329-14.21-.669-21.336-.669-5.401 0-10.246.194-14.801.592-.704 2.42-1.409 4.84-2.118 7.26 4.913-.402 10.148-.598 15.987-.598z"/><path fill="#85BD70" d="M194.68 75.656c-23.824 2.153-47.993-2.277-72.27-.115-.764 2.631-1.531 5.263-2.303 7.896 25.91-2.199 51.717 2.196 77.164.009-.871-2.596-1.736-5.192-2.591-7.79z"/><path fill="#6D9C5C" d="M181.157 84.384h-.004c-7.382-.001-14.921-.323-22.211-.635-7.343-.314-14.936-.639-22.423-.639-6.001 0-11.36.207-16.385.633l-.45.038.127-.432a3046.66 3046.66 0 0 0 2.303-7.895l.059-.203.21-.019c4.634-.413 9.562-.614 15.064-.614 7.14 0 14.371.341 21.364.671 6.93.326 14.095.664 21.104.664 5.403 0 10.222-.198 14.738-.606l.244-.022.077.233c.854 2.597 1.719 5.192 2.59 7.787l.125.373-.391.034c-4.935.426-10.216.632-16.141.632zm-44.638-1.891c7.5 0 15.1.325 22.449.639 7.285.311 14.817.634 22.186.634h.004c5.751 0 10.891-.195 15.695-.595-.803-2.394-1.599-4.789-2.39-7.186-4.462.396-9.223.587-14.547.588-7.024 0-14.196-.338-21.133-.665-6.986-.33-14.21-.67-21.335-.67-5.401 0-10.245.194-14.799.592-.704 2.42-1.409 4.841-2.118 7.261 4.911-.403 10.148-.598 15.988-.598z"/><path fill="#85BD70" d="M194.68 74.746c-23.824 2.153-47.993-2.277-72.27-.115a3046.66 3046.66 0 0 1-2.303 7.895c25.91-2.198 51.717 2.196 77.164.009-.871-2.597-1.736-5.193-2.591-7.789z"/><path fill="#6D9C5C" d="M181.157 83.473h-.001c-7.383 0-14.923-.323-22.214-.634-7.343-.314-14.935-.639-22.423-.639-6.001 0-11.361.208-16.385.634l-.45.038.127-.433c.772-2.633 1.539-5.264 2.303-7.894l.059-.203.21-.019c4.634-.413 9.562-.614 15.064-.614 7.14 0 14.371.341 21.364.671 6.93.326 14.095.665 21.104.665 5.401 0 10.222-.199 14.738-.606l.244-.022.077.233c.854 2.596 1.719 5.192 2.59 7.788l.125.373-.391.033c-4.935.423-10.215.629-16.141.629zm-44.638-1.891c7.501 0 15.1.326 22.449.64 7.285.312 14.817.633 22.188.633h.001c5.752 0 10.891-.194 15.695-.595a1678.48 1678.48 0 0 1-2.39-7.185c-4.462.395-9.223.587-14.547.588-7.024 0-14.196-.338-21.133-.665-6.986-.33-14.21-.67-21.335-.67-5.401 0-10.245.194-14.799.592-.704 2.42-1.409 4.84-2.118 7.26 4.912-.402 10.149-.598 15.989-.598z"/><path fill="#85BD70" d="M194.68 73.834c-23.824 2.153-47.993-2.277-72.27-.115-.764 2.631-1.531 5.262-2.303 7.895 25.91-2.198 51.717 2.196 77.164.009-.871-2.596-1.736-5.191-2.591-7.789z"/><path fill="#6D9C5C" d="M181.15 82.562c-7.383 0-14.923-.322-22.214-.634-7.342-.313-14.934-.638-22.42-.638-6 0-11.358.207-16.382.633l-.45.038.127-.433c.772-2.632 1.539-5.263 2.303-7.894l.059-.203.21-.019c4.635-.413 9.563-.614 15.066-.614 7.14 0 14.372.341 21.365.671 6.93.326 14.095.664 21.104.664 5.4 0 10.221-.198 14.735-.606l.244-.022.077.233c.854 2.597 1.719 5.192 2.59 7.786l.125.373-.391.033c-4.937.425-10.219.632-16.148.632zm-44.634-1.891c7.5 0 15.099.325 22.447.639 7.283.312 14.817.634 22.187.634 5.755 0 10.896-.195 15.702-.595-.803-2.394-1.599-4.788-2.39-7.184-4.462.395-9.223.587-14.544.587-7.024 0-14.196-.338-21.133-.665-6.986-.329-14.21-.669-21.336-.669-5.401 0-10.246.194-14.801.592-.704 2.42-1.409 4.84-2.118 7.261 4.911-.404 10.147-.6 15.986-.6z"/><path fill="#85BD70" d="M194.68 72.923c-23.824 2.153-47.993-2.277-72.27-.115a3046.66 3046.66 0 0 1-2.303 7.895c25.91-2.198 51.717 2.196 77.164.01a1449.61 1449.61 0 0 1-2.591-7.79z"/><path fill="#6D9C5C" d="M181.157 81.65h-.001c-7.383 0-14.923-.322-22.214-.634-7.343-.314-14.935-.639-22.423-.639-6.001 0-11.361.207-16.385.634l-.45.038.127-.433c.772-2.631 1.539-5.263 2.303-7.894l.059-.203.21-.019c4.634-.413 9.561-.613 15.063-.613 7.139 0 14.372.34 21.366.67 6.929.326 14.094.664 21.103.664 5.4 0 10.222-.198 14.738-.606l.244-.022.077.233c.854 2.597 1.719 5.192 2.59 7.787l.125.373-.391.034c-4.935.424-10.215.63-16.141.63zm-44.638-1.891c7.501 0 15.1.325 22.449.64 7.285.311 14.818.633 22.188.633h.001c5.752 0 10.891-.194 15.695-.594-.803-2.394-1.599-4.789-2.39-7.186-4.464.396-9.225.588-14.547.588-7.022 0-14.196-.338-21.132-.665-6.987-.33-14.212-.67-21.337-.67-5.4 0-10.244.194-14.798.592-.704 2.42-1.409 4.841-2.118 7.261 4.912-.403 10.149-.599 15.989-.599z"/><path fill="#85BD70" d="M194.68 72.011c-23.824 2.154-47.993-2.275-72.27-.115-.764 2.632-1.531 5.264-2.303 7.896 25.91-2.198 51.717 2.196 77.164.009a1392.88 1392.88 0 0 1-2.591-7.79z"/><path fill="#6D9C5C" d="M181.157 80.74h-.004c-7.382 0-14.921-.322-22.211-.634-7.343-.314-14.936-.639-22.423-.639-6.001 0-11.36.208-16.385.634l-.45.038.127-.433c.772-2.632 1.539-5.264 2.303-7.896l.059-.203.21-.019c4.632-.413 9.558-.613 15.059-.613 7.14 0 14.371.341 21.365.671 6.93.326 14.095.665 21.105.665 5.403 0 10.225-.199 14.741-.607l.244-.022.077.233c.854 2.597 1.719 5.193 2.59 7.788l.125.373-.391.033c-4.935.424-10.216.631-16.141.631zm-44.638-1.891c7.5 0 15.1.325 22.449.639 7.285.312 14.817.634 22.186.634h.004c5.751 0 10.891-.194 15.695-.595-.803-2.394-1.599-4.789-2.39-7.185-4.464.395-9.226.587-14.55.587-7.025 0-14.198-.338-21.135-.665-6.986-.329-14.21-.669-21.335-.669-5.398 0-10.24.194-14.793.591-.704 2.421-1.409 4.841-2.118 7.262 4.91-.404 10.147-.599 15.987-.599z"/><path fill="#85BD70" d="M194.68 71.101c-23.824 2.153-47.993-2.277-72.27-.115a3046.66 3046.66 0 0 1-2.303 7.895c25.91-2.198 51.717 2.196 77.164.009-.871-2.596-1.736-5.191-2.591-7.789z"/><path fill="#6D9C5C" d="M181.153 79.828h-.001c-7.383 0-14.923-.322-22.213-.634-7.343-.313-14.936-.638-22.422-.638-6 0-11.358.207-16.383.633l-.45.038.127-.433c.772-2.631 1.539-5.263 2.303-7.894l.059-.203.21-.019c4.634-.413 9.562-.614 15.064-.614 7.14 0 14.371.341 21.364.671 6.93.326 14.095.664 21.104.664 5.401 0 10.222-.198 14.738-.606l.244-.022.077.233c.854 2.597 1.719 5.192 2.59 7.786l.125.373-.391.033c-4.937.426-10.217.632-16.145.632zm-44.637-1.89c7.5 0 15.1.325 22.448.639 7.285.312 14.817.634 22.187.634h.001c5.754 0 10.894-.194 15.699-.595-.803-2.394-1.599-4.788-2.39-7.184-4.462.395-9.223.587-14.547.587-7.024 0-14.196-.338-21.133-.665-6.986-.33-14.21-.67-21.335-.67-5.401 0-10.245.194-14.799.592-.704 2.419-1.409 4.84-2.118 7.26 4.913-.403 10.148-.598 15.987-.598z"/><path fill="#85BD70" d="M194.68 70.191c-23.824 2.152-47.993-2.278-72.27-.115-.764 2.63-1.531 5.262-2.303 7.894 25.91-2.198 51.717 2.196 77.164.009-.871-2.596-1.736-5.192-2.591-7.788z"/><path fill="#6D9C5C" d="M181.157 78.917h-.001c-7.383 0-14.923-.323-22.214-.634-7.343-.314-14.935-.639-22.423-.639-6.001 0-11.361.208-16.385.634l-.45.038.127-.433c.772-2.632 1.539-5.264 2.303-7.894l.059-.203.21-.019c4.636-.413 9.565-.614 15.07-.614 7.139 0 14.371.341 21.364.67 6.929.327 14.095.665 21.104.665 5.399 0 10.219-.199 14.733-.605l.244-.022.077.233c.854 2.595 1.719 5.191 2.59 7.787l.125.372-.391.033c-4.936.425-10.216.631-16.142.631zm-44.638-1.891c7.501 0 15.1.326 22.449.64 7.285.312 14.818.634 22.188.634h.001c5.752 0 10.891-.194 15.695-.595a1725.93 1725.93 0 0 1-2.39-7.184c-4.46.395-9.222.587-14.542.587-7.024 0-14.197-.338-21.134-.665-6.986-.329-14.209-.669-21.334-.669-5.403 0-10.248.194-14.804.592-.703 2.419-1.408 4.839-2.118 7.259 4.912-.402 10.149-.599 15.989-.599z"/><path fill="#85BD70" d="M194.68 69.279c-23.824 2.153-47.993-2.277-72.27-.115-.764 2.631-1.531 5.262-2.303 7.895 25.91-2.198 51.717 2.196 77.164.009a1449.29 1449.29 0 0 1-2.591-7.789z"/><path fill="#6D9C5C" d="M181.157 78.006h-.004c-7.382 0-14.921-.322-22.211-.634-7.343-.314-14.936-.639-22.423-.639-6.001 0-11.36.208-16.385.634l-.45.038.127-.433c.772-2.632 1.539-5.263 2.303-7.894l.059-.203.21-.019c4.635-.413 9.562-.614 15.066-.614 7.139 0 14.371.341 21.364.671 6.93.326 14.095.664 21.104.664 5.401 0 10.222-.198 14.736-.606l.244-.022.077.233c.854 2.596 1.719 5.192 2.59 7.786l.125.373-.391.033c-4.935.426-10.216.632-16.141.632zm-44.638-1.89c7.5 0 15.1.325 22.449.639 7.285.312 14.817.634 22.186.634h.004c5.751 0 10.891-.194 15.695-.595-.803-2.394-1.599-4.789-2.39-7.184-4.462.395-9.223.587-14.546.587-7.024 0-14.196-.338-21.133-.665-6.986-.329-14.21-.669-21.335-.669-5.401 0-10.246.194-14.801.592a4496.57 4496.57 0 0 1-2.118 7.26c4.912-.404 10.149-.599 15.989-.599z"/><path fill="#85BD70" d="M193.864 68.369c-23.564 2.152-47.468-2.278-71.481-.115-.755 2.631-1.514 5.263-2.278 7.895 25.627-2.199 51.152 2.196 76.323.009-.863-2.597-1.718-5.193-2.564-7.789z"/><path fill="#6D9C5C" d="M180.489 77.093h-.003c-7.303 0-14.76-.322-21.971-.634-7.262-.314-14.772-.639-22.177-.639-5.935 0-11.236.207-16.206.634l-.447.038.125-.429c.763-2.632 1.523-5.264 2.277-7.894l.058-.202.21-.02c4.584-.413 9.461-.614 14.905-.614 7.062 0 14.214.341 21.131.671 6.853.326 13.941.665 20.873.665 5.342-.001 10.107-.198 14.571-.606l.244-.022.076.233c.849 2.597 1.702 5.192 2.565 7.787l.123.369-.388.034c-4.881.424-10.104.629-15.966.629zm-44.152-1.887c7.418 0 14.935.325 22.204.639 7.204.311 14.654.634 21.944.634h.003c5.689 0 10.771-.195 15.525-.595a1507.84 1507.84 0 0 1-2.367-7.188c-4.412.395-9.119.587-14.382.587-6.947 0-14.041-.338-20.902-.665-6.91-.329-14.055-.67-21.102-.67-5.343 0-10.135.194-14.641.593-.694 2.42-1.393 4.842-2.095 7.263 4.86-.403 10.038-.598 15.813-.598z"/><path fill="#89C53E" d="M194.998 67.793c-24.048 2.153-48.444-2.277-72.95-.115-.771 2.632-1.545 5.263-2.324 7.896 26.153-2.198 52.203 2.196 77.889.009-.88-2.597-1.751-5.192-2.615-7.79z"/><path fill="#077D38" d="M196.049 75.104c-.832-2.359-1.657-4.72-2.477-7.081-22.767 1.957-45.864-2.071-69.065-.104a2183.12 2183.12 0 0 1-2.201 7.177c24.76-1.997 49.424 1.997 73.743.008zm-1.942-.29a.98.98 0 0 0-.054.004l.046-.024a.064.064 0 0 1 .008.02zm-1.53-4.577c.329.99.66 1.981.991 2.972-.729-.201-1.721-.297-2.775-.24-1.957.105-3.408.689-3.223 1.354.087.313.535.586 1.193.778-19.641.742-39.337-1.608-58.959-.868.658-.238 1.096-.538 1.17-.856.156-.668-1.328-1.164-3.332-1.057-1.083.057-2.104.278-2.848.577.292-1.003.584-2.007.874-3.011.583.206 1.494.302 2.555.245 1.965-.105 3.672-.694 3.829-1.365.079-.34-.252-.635-.846-.83 18.609-.737 37.284 1.663 55.907.926-.578.244-.896.56-.801.897.18.662 1.895 1.154 3.813 1.048 1.034-.057 1.905-.275 2.452-.57zm-68.257 4.285l.005-.019.048.016c-.017.002-.035.002-.053.003zm1.831-6.308a9.4 9.4 0 0 1 .179-.013 4.082 4.082 0 0 0-.198.079l.019-.066zm65.879.371c.009.022.016.044.023.065a5.489 5.489 0 0 0-.194-.053c.057-.002.116-.007.171-.012z"/><path fill="#077D38" d="M143.17 70.391c-.069-.402-1.436-.733-3.053-.739-1.617-.005-2.977.321-3.036.729-.061.408 1.306.739 3.053.739 1.745 0 3.105-.326 3.036-.729zm37.169 0c-.068-.402-1.434-.733-3.052-.739-1.618-.005-2.979.321-3.039.729-.06.408 1.309.739 3.055.739 1.744 0 3.104-.326 3.036-.729z"/><path fill="#86BF71" d="M168.38 71.572c.207 1.265-3.895 2.292-9.162 2.292-5.269 0-9.391-1.041-9.212-2.324.181-1.284 4.283-2.311 9.163-2.293 4.882.017 9.004 1.059 9.211 2.325z"/><path fill="#077D38" d="M159.293 75.013c-3.867 0-8.494-.568-9.882-2.162-.375-.43-.542-.952-.47-1.469.442-3.193 9.182-3.286 10.176-3.286l.127.001c1.003.003 9.825.126 10.342 3.289.085.516-.07 1.04-.438 1.473-1.346 1.589-5.973 2.154-9.855 2.154zm-7.776-3.417c.974.486 3.618 1.118 7.777 1.118 4.086 0 6.705-.605 7.7-1.078-1.024-.537-3.823-1.226-7.758-1.24h-.119c-4.028 0-6.651.688-7.6 1.2z"/><path fill="#077D38" d="M159.087 74.092c-4.534 0-8.225-.742-9.183-1.846-.203-.233-.287-.482-.25-.739.229-1.617 4.947-2.49 9.271-2.49h.123c4.378.016 9.172.904 9.431 2.519.042.252-.037.498-.233.728-.932 1.094-4.612 1.828-9.159 1.828zm-.161-4.618c-5.022 0-8.68 1.105-8.819 2.098-.018.122.029.244.143.375.729.839 3.998 1.689 8.838 1.689 4.852 0 8.105-.839 8.812-1.668.107-.125.15-.243.131-.359-.161-.995-3.889-2.116-8.982-2.135h-.123z"/><path fill="#95D47D" d="M158.536 72.994v-.354c-1.013-.004-2.059-.068-2.668-.156l.427-.235c.624.084 1.527.153 2.503.154 1.235.001 2.064-.141 2.057-.34-.006-.192-.684-.312-1.958-.419-1.751-.143-2.825-.307-2.813-.61.013-.292 1.018-.51 2.57-.558l-.001-.354 1.042.003.004.339c1.013.01 1.707.067 2.199.127l-.412.229a17.705 17.705 0 0 0-2.138-.124c-1.304-.003-1.795.157-1.799.296-.003.182.629.275 2.117.403 1.771.149 2.676.333 2.694.643.018.276-.926.532-2.722.59l.006.364-1.108.002z"/><path fill="#D6D6D6" d="M150.236 67.296v17.976l16.829.624V68.129z"/><path fill="#BDBDBD" d="M150.236 75.302l16.829.683v9.911l-16.829-.624z"/><path fill="#FF9000" d="M161.05 85.674l-5.235-.195V67.572l5.235.26z"/><path fill="#FAFDFF" d="M137.612 159.75h57.806V203h-57.806z"/><path fill="#D9D9D9" d="M139.758 197.099h53.034v1.429h-53.034z"/><path fill="#A71AEE" d="M141.412 194.1l-1.038-.678c.721-.524 1.935-1.566 3.22-2.669 3.497-3.002 5.883-4.99 7.125-5.258l.667-.144.223.457c.591 1.208 1.884 2.472 3.253 3.81l.171.168c.391-.462.949-1.398 1.347-2.066.655-1.1 1.274-2.139 1.84-2.591l.358-.286.493.164c.581.193 1.11.441 1.623.682.368.172.722.339 1.078.478.443-1.049 1.27-4.01 1.953-6.454 1.477-5.285 2.181-7.651 2.732-8.13l.536-.465.564.449c4.177 3.326 2.801 2.391 5.458 5.484l.705.818c.307.353.616.736.914 1.107.537.668 1.088 1.355 1.692 1.945 1.796-2.372 7.681-11.531 8.243-12.566.363-.668.938-1.653 1.615-2.544.62-.814 1.835-1.14 2.908-1.428.869-.233 1.689-.453 2.119-.883l1.177.558c-.678.68-1.793.98-2.778 1.244-.96.257-1.789.48-2.16.967-.643.846-1.194 1.79-1.542 2.432-.067.122-8.063 12.922-9.068 13.473l-.539.295-.448-.359c-.947-.761-1.722-1.724-2.47-2.656-.306-.38-.594-.74-.888-1.078-.237-.272-.472-.546-.709-.823-1.314-1.529-2.668-3.104-4.534-4.701-.544 1.394-1.437 4.587-2.124 7.047-1.838 6.58-2.085 7.144-2.652 7.355l-.296.111-.35-.085c-.704-.196-1.333-.491-1.941-.777-.306-.144-.601-.283-.897-.406-.385.477-.859 1.274-1.29 1.997-1.24 2.083-1.75 2.817-2.604 2.882-.354.028-.681-.082-.901-.299l-.503-.492c-1.226-1.199-2.395-2.341-3.118-3.49-1.352.797-4.113 3.167-5.868 4.673-1.361 1.17-2.536 2.178-3.296 2.732z"/><path fill="#FF9000" d="M167.106 194.673l-2.395-2.823-2.472 2.327-7.348-1.904-7.234 2.387-7.059-3.196.59-1.302 6.551 2.965 7.104-2.343 6.99 1.812 2.994-2.819 2.831 3.337 7.822-1.479 7.67.526 9.051-1.34.21 1.414-9.205 1.363-7.641-.525z"/><path fill="#D9D9D9" d="M139.758 163.5h1.429v34.313h-1.429z"/></g></svg>