<svg xmlns="http://www.w3.org/2000/svg" xmlns:xlink="http://www.w3.org/1999/xlink" width="234" height="234" viewBox="0 0 234 234"><circle fill="#FFF" cx="117" cy="117" r="117"/><defs><circle id="a" cx="117" cy="117" r="117"/></defs><clipPath id="b"><use xlink:href="#a" overflow="visible"/></clipPath><g clip-path="url(#b)"><defs><path id="c" d="M218.777 222.948c0 7.512-6.092 13.604-13.605 13.604H16.084c-7.514 0-13.604-6.092-13.604-13.604V41.283c0-7.513 6.09-13.604 13.604-13.604h189.088c7.514 0 13.605 6.091 13.605 13.604v181.665z"/></defs><clipPath id="d"><use xlink:href="#c" overflow="visible"/></clipPath><g clip-path="url(#d)"><path fill="#F8FDFF" d="M35.945-6.778h148.848V141.79H35.945z"/><path fill="#D9D9D9" d="M48.461 126.594h114.826v3.681H48.461z"/><path fill="#A71AEF" d="M49.057 115.976l-2.604-2.469c1.81-1.907 4.856-5.702 8.082-9.719 8.779-10.931 14.768-18.169 17.883-19.144l1.675-.524.561 1.662c1.484 4.401 4.729 9.004 8.167 13.875l.43.612c.981-1.682 2.382-5.092 3.379-7.521 1.646-4.006 3.198-7.791 4.62-9.437l.897-1.04 1.238.597c1.459.702 2.788 1.608 4.074 2.485.922.628 1.812 1.234 2.704 1.738 1.112-3.821 3.188-14.601 4.902-23.503 3.705-19.244 5.474-27.859 6.857-29.603l1.345-1.695 1.416 1.636c5.934 6.852 9.881 13.521 13.7 19.969.592 1 1.18 1.994 1.771 2.978.77 1.285 1.543 2.682 2.292 4.033 1.349 2.436 2.731 4.934 4.245 7.083C141.2 59.354 155.97 26 157.382 22.232c.911-2.435 2.354-6.019 4.055-9.262 1.554-2.966 4.605-4.153 7.298-5.201 2.181-.848 4.241-1.649 5.317-3.217l2.956 2.031c-1.702 2.479-4.502 3.568-6.973 4.53-2.41.938-4.491 1.748-5.422 3.521-1.613 3.081-2.996 6.516-3.872 8.856-.165.441-20.234 47.051-22.76 49.059l-1.353 1.074-1.125-1.31c-2.377-2.769-4.319-6.277-6.198-9.669-.767-1.387-1.491-2.695-2.229-3.927-.595-.99-1.186-1.989-1.781-2.996-2.854-4.819-5.883-10.298-11.378-17.116-1.367 5.073-3.606 16.702-5.331 25.661-4.613 23.959-5.235 26.013-6.656 26.784l-.744.404-.878-.309c-1.768-.715-3.346-1.79-4.871-2.83-.768-.523-1.509-1.029-2.253-1.478-.965 1.736-2.157 4.64-3.237 7.271-3.113 7.583-4.394 10.257-6.537 10.495-.886.102-1.708-.299-2.261-1.088l-1.262-1.793c-3.079-4.366-6.013-8.524-7.827-12.708-3.393 2.902-10.323 11.531-14.729 17.017-3.416 4.256-6.365 7.929-8.274 9.945z"/><path fill="#FF9000" d="M113.542 117.415l-6.011-7.087-6.205 5.842-18.44-4.778-18.156 5.989-17.715-8.02 1.479-3.267 16.443 7.441 17.827-5.882 17.546 4.548 7.512-7.075 7.106 8.376 21.581-3.714 19.248 1.321 20.766-3.361.526 3.548-23.101 3.419-19.175-1.317z"/><path fill="#D9D9D9" d="M46.621 6.58h3.68v121.854h-3.68z"/><path fill="#FFBF96" d="M105.637 145.485s11.895-8.135 15.576 4.49c0 0 11.508-1.828 13.336 8.939 0 0 12.982 3.369 12.217 13.389 0 0-.082 33.396-9.744 39.684l.949 69.424s-43.049.611-41.934-.129c1.115-.738-1.971-69.047-1.971-69.047s-11.449-22.734-11.518-33.406c-.066-10.67 5.912-26.232 5.912-26.232l17.177-7.112z"/><path fill="#FFBF96" d="M103.947 150.427c.156 10.156 1.555 2.605-5.578 2.707l-2.758.041c-2.359.035-7.123 1.908-7.152-.051l2.016-58.962c-.031-1.957 1.719-5.574 6.039-5.481 4.318.092 5.23 3.355 5.26 5.314l2.173 56.432z"/><path fill="#FBE2DB" d="M92.508 91.661s3.943-4.284 7.391.018c0 0 .504 6.324-3.232 6.311-4.003-.016-4.163-4.051-4.159-6.329z"/><path fill="#FFF" d="M92.201 213.413l47.77.113-.147 61.2-47.775 2.515z"/><path fill="#0E55B7" d="M88.285 218.97l55.383.133 2.826 72.369-58.381-.139z"/><path opacity=".1" d="M127.877 219.063l-.17 72.366 18.787.043-2.826-72.369z"/><circle fill="#FF9000" cx="136.662" cy="234.426" r="3.834"/><circle fill="#FF9000" cx="137.203" cy="247.786" r="3.834"/></g></g></svg>