<svg id="Layer_1" xmlns="http://www.w3.org/2000/svg" viewBox="0 0 166.5 166.9"><style>.st0{fill:#ffd05b}.st1{fill:#f9b54c}.st2{fill:#fff}.st3{fill:#324a5e}.st4{fill:#2b3b4e}.st5{fill:#e6e9ee}.st6{fill:#f1543f}.st7{fill:#ff7058}.st8{fill:#ced5e0}.st9{fill:#3cbd0d}</style><path class="st0" d="M119.8 86.5c0 1.6-.2 2.5-.2 2.5-.5.5-1.4 1.8-1.4 1.8-2 1.6-.9 2.7-.9 2.7v1.1c-.5.5-.2 1.6-.2 1.6.9 2 1.8.2 1.8.2 1.1 1.4 1.8-.5 1.8-.5 1.4.7 1.6-.7 1.6-.7s2.3.2 1.8-5c-.2-1.1 0-2.7 0-4.1h-4.3v.4z"/><path class="st1" d="M121.9 91.7c0-.2-.2-.9-.2-.9.2 1.1-.9 1.8-.9 1.8.2 0 .2-.7.2-.7-.2.9-1.8 1.6-1.8 1.6-.2-.7-.7-.9-.7-.9.5.5.5.9.5.9-.2 0-.5.2-.5.2.5-.2.7 0 .7 0-.7.2-.5.9-.5.9 0-.7.5-.7.5-.7-.5.2-.2.7-.2.7 0-.7.7-.7.7-.7-.2-.5 0-.5 0-.5.7-.9.9 0 .9.5h.2c-.5-.9 0-1.1 0-1.1.7-.5.7.2.7.2 0 1.4.9 2 .9 2h.2c-.7-.2-.9-1.1-.9-1.1-.5-1.4.2-1.6.2-1.6 1.1 0 .9.9.9.9.5.2 1.1 0 1.1 0-.2 0-.5-.2-.5-.2-.5-.5.2-1.1.2-1.1-.5.7-1.8.7-1.8.7-.6 0 .1-.7.1-.9l.2.2c0-.2.5-1.1.5-1.1-.3.2-.5.7-.7.9z"/><path class="st1" d="M117.3 93.7s.2.2.7 1.1c0 0 0 .2.2.5 0 .2.5.5.7.2.5-.2.9-.2 1.4-.2h.7c.2 0 .5-.2.2-.5 0-.5-.5-.7-1.1-.9 0 0-.7-.2-.9 0 0 0 1.1-.5 1.8.2 0 0 .7.7.2.9 0 0-1.8 0-1.8.2 0 0-.7.5-1.1-.2 0 0-.2-.7-.9-.7 0 0 .2-.2.5-.2-.1.6-.3.1-.6-.4z"/><path class="st1" d="M118.9 95.6c0 .2-.2 1.4-.2 1.4l.2-.2.2.2c-.2-.8 0-1.4-.2-1.4z"/><path class="st0" d="M120.5 96.2c.2 0 .2 0 0 0v-.9h-.2c0 .5.2.9.2.9z"/><path class="st2" d="M119.1 83.8h5.7v3.9h-5.7z"/><path class="st3" d="M136.4 152.6s3.4 2.9.9 6.6c0 0-1.8 2.3-1.8 3.6 0 0 .2 3.9-3.9 2.9 0 0-4.1-2.9-6.8-.5 0 0-2-.2-1.1-2.9 0 0 2.3-2.9 3.6-5.4 0 0 .9-.7.5-2.5l8.6-1.8zm10.4 0s-3.4 2.9-.9 6.6c0 0 1.8 2.3 1.8 3.6 0 0-.2 3.9 3.9 2.9 0 0 4.1-2.9 6.8-.5 0 0 2-.2 1.1-2.9 0 0-2.3-2.9-3.6-5.4 0 0-.9-.7-.5-2.5l-8.6-1.8z"/><path class="st4" d="M156.3 108s-2.5 37.6-.2 45.8c0 0-4.5 7.9-12.2 0 0 0-.2-61.6-2.3-64.3-2 2.7-2.3 64.3-2.3 64.3-7.9 7.9-12.2 0-12.2 0 2.3-8.2-.2-45.8-.2-45.8-2.7-16.3-1.1-30.4.2-38.1h28.8c1.5 7.8 3.1 21.8.4 38.1z"/><path class="st5" d="M133.4 27.8l7.7 29.9 7.7-29.9z"/><path class="st6" d="M141.6 27.8zm2.5 1.4l-.7 1.8h-3.6l-.7-1.8c1.4-1.1 2.5-1.4 2.5-1.4s1.1.3 2.5 1.4z"/><path class="st7" d="M145.2 41c-1.4 6.3-2.9 12.9-3.6 16.1-.7-3.2-2.3-9.5-3.4-16.1l1.8-10.2h3.6l1.6 10.2z"/><path id="SVGCleanerId_0" class="st3" d="M125.7 86h-1.1c-.5-6.1.7-12.7.7-12.7.2-.9.2-1.6.5-2.5-.1 7.1-.1 15.2-.1 15.2z"/><path class="st3" d="M142 59.1l-4.3-11.6-3.6-21.3-13.6 5s-4.1 10.2-2.7 54.8h6.8c0 .9.2 1.6.2 2.5 0 0 9.5 6.8 13.1.5 0 .2 5-15 4.1-29.9zm-16.5 11.8c0-4.1-.2-7.7-.7-9.1 0 0-.2-4.1.7-7.2.7 5.4.9 11.3 0 16.3z"/><path id="SVGCleanerId_0_1_" class="st3" d="M125.7 86h-1.1c-.5-6.1.7-12.7.7-12.7.2-.9.2-1.6.5-2.5-.1 7.1-.1 15.2-.1 15.2z"/><path class="st0" d="M163.5 86.5c0 1.6.2 2.5.2 2.5.5.5 1.4 1.8 1.4 1.8 2 1.6.9 2.7.9 2.7v1.1c.5.5.2 1.6.2 1.6-.9 2-1.8.2-1.8.2-1.1 1.4-1.8-.5-1.8-.5-1.4.7-1.6-.7-1.6-.7s-2.3.2-1.8-5c.2-1.1 0-2.7 0-4.1h4.3v.4z"/><path class="st2" d="M158.5 83.8h5.7v3.9h-5.7z"/><path class="st3" d="M137.5 157.8s.9 3.4-.5 4.5c0 0-1.4.5-1.1 2.3 0 0 0 2.3-2.9 2 0 0-7.7.9-8.8-.9 0 0-.9-.9-.2-2.5l8.8-3.4 4.7-2zm8.1 0s-.9 3.4.5 4.5c0 0 1.4.5 1.1 2.3 0 0 0 2.3 2.9 2 0 0 7.7.9 8.8-.9 0 0 .9-.9.2-2.5l-8.8-3.4-4.7-2z"/><path class="st8" d="M147.7 23.5h-12.3l-1.8 4.3h15z"/><path class="st4" d="M135.4 23.5l-6.6 7 2.5 1.1-2 2s6.1 19 12.7 25.6c0-.1-7-29.6-6.6-35.7z"/><path class="st3" d="M162.6 31.2l-13.6-5-3.6 21.3-4.3 11.6c-.9 14.7 4.1 30.1 4.1 30.1 3.6 6.3 13.1-.5 13.1-.5.2-.9.2-1.6.2-2.5h6.8c1.4-44.8-2.7-55-2.7-55zm-5 23.4c.9 3.2.7 7.2.7 7.2-.5 1.4-.7 5.2-.7 9.3-.9-5.2-.6-10.9 0-16.5z"/><path id="SVGCleanerId_1" class="st3" d="M158.5 86h-1.1s0-8.2.2-14.9c.2.7.2 1.6.5 2.3-.2 0 .9 6.8.4 12.6z"/><path class="st4" d="M147.7 23.5l6.6 7-2.5 1.1 1.8 1.8s-6.1 19-12.7 25.6c.2.1 7.2-29.4 6.8-35.5z"/><circle class="st4" cx="143.4" cy="60.4" r="1.4"/><path class="st2" d="M149.9 49.4l2.3-3.9 3.6 2.7z"/><path transform="rotate(-11.783 152.898 49.114)" class="st4" d="M149 48.2h7.7V50H149z"/><path class="st1" d="M161.5 91.7c0-.2.2-.9.2-.9-.2 1.1.9 1.8.9 1.8-.2 0-.2-.7-.2-.7.2.9 1.8 1.6 1.8 1.6.2-.7.7-.9.7-.9-.7.2-.7.7-.7.7.2 0 .5.2.5.2-.5-.2-.7 0-.7 0 .7.2.5.9.5.9 0-.7-.5-.7-.5-.7.5.2.2.7.2.7 0-.7-.7-.7-.7-.7.2-.5 0-.5 0-.5-.7-.9-.9 0-.9.5h-.2c.5-.9 0-1.1 0-1.1-.5 0-.5.9-.5.9 0 1.4-.9 2-.9 2h-.2c.7-.2.9-1.1.9-1.1.5-1.4-.2-1.6-.2-1.6-1.1 0-.9.9-.9.9-.5.2-1.1 0-1.1 0 .2 0 .5-.2.5-.2.5-.5-.2-1.1-.2-1.1.2.2 1.6.2 1.6.2.5 0 .1-.7.1-.9l-.2.2c0-.2-.5-1.1-.5-1.1.2.2.5.7.7.9z"/><path class="st1" d="M166 93.7s-.2.2-.7 1.1c0 0 0 .2-.2.5 0 .2-.5.5-.7.2-.5-.2-.9-.2-1.4-.2h-.7c-.2 0-.5-.2-.2-.5 0-.5.5-.7 1.1-.9 0 0 .7-.2.9 0 0 0-1.1-.5-1.8.2 0 0-.7.7-.2.9 0 0 1.8 0 1.8.2 0 0 .7.5 1.1-.2 0 0 .2-.7.9-.7 0 0-.2-.2-.5-.2.2.6.2.1.6-.4z"/><path class="st0" d="M162.9 96.2c-.3 0-.3 0 0 0-.3 0-.3 0 0 0v-.9h.2c0 .5-.2.9-.2.9z"/><path id="SVGCleanerId_1_1_" class="st3" d="M158.5 86h-1.1s0-8.2.2-14.9c.2.7.2 1.6.5 2.3-.2 0 .9 6.8.4 12.6z"/><path class="st1" d="M146.8 21.9c0 1.6-.7 4.5-5 5.9h-.2c-4.8-1.6-5.2-5-5-6.1 1.4 1.6 3.2 2.7 5.2 2.7 1.8 0 3.4-1.1 5-2.5z"/><path class="st2" d="M146.5 21s.9 5-5 6.8c0 0 3.4.7 5 5 0 0 4.1-6.6 0-11.8z"/><path class="st2" d="M136.6 21c-3.9 5.2.2 11.8.2 11.8 1.6-4.1 5-5 5-5-6.4-1.8-5.2-6.8-5.2-6.8z"/><path class="st0" d="M148.8 16.7c-.7 2-.9 3.4-1.1 3.6-1.6 2.3-3.9 3.9-6.1 3.9s-4.3-1.4-5.9-3.4c-3.2-4.1-.9-12-.9-12 1.8 2 7.2 2 7.2 2-2.3-.5-2.7-2-2.9-2.3.5 1.1 5.9 1.8 5.9 1.8 5.8 1 3.8 6.4 3.8 6.4z"/><path class="st3" d="M138.4.7s7.7-2.9 11.6 3.9c4.1 7.5-1.1 15.4-2 16.1 0 0 .2-1.4 1.1-3.6 0 0 1.8-5.4-3.9-6.3 0 0-5.4-.7-5.9-1.8 0 0 .5 2 2.9 2.3 0 0-5.7-.2-7.2-2 0 0-2.5 7.9 1.1 12.2 0 0-5.9-4.8-5.2-12.2-.2-.5-.7-10.7 7.5-8.6z"/><path class="st4" d="M76.8 144.9l-22-34.2v11.6l14.5 22.6zm-36.5 0l14.5-22.6v-11.6l-21.7 34.2z"/><path class="st3" d="M51.6 98h6.3v54.8h-6.3z"/><path class="st2" d="M104.6 103.5H5.2c-2.9 0-5.2-2.3-5.2-5.2v-72c0-3 2.3-5.3 5.2-5.3h99.4c2.9 0 5.2 2.3 5.2 5.2v72c.1 3-2.2 5.3-5.2 5.3z"/><path class="st9" d="M33.3 62h7.9v27.2h-7.9zm17.2-18.5h7.9V89h-7.9zm17.2 27.4h7.9v18.3h-7.9zm17.2-18.6h7.9V89h-7.9zm-68.8 0H24V89h-7.9z"/></svg>