<svg id="Layer_1" xmlns="http://www.w3.org/2000/svg" xmlns:xlink="http://www.w3.org/1999/xlink" viewBox="0 0 340.8 410.9"><style>.st0,.st1{fill:#c6cbcb}.st1{clip-path:url(#SVGID_2_)}.st2{fill:#ffd05b}.st3{fill:#d89932}.st4{fill:#f2b643}.st5{fill:#f3be54}.st6{fill:#fecc00}.st7{fill:#0a6f8e}.st8{fill:#0094de}.st9{fill:#d1d5d5}.st10{fill:#3cbd0d}.st11{fill:#038726}.st12{fill:#e2e5e7}.st12,.st13,.st14{clip-path:url(#SVGID_4_)}.st13{fill:#038726}.st14{fill:#3cbd0d}.st15{fill:#9ed110}</style><path class="st0" d="M74.2 324.8L5.3 346.7l1.5 4.9 68.8-21.9-1.4-4.9zm3.1 10.2L8.4 356.8l1.6 5.4 68.8-21.9-1.5-5.3zm-6.4-21L2 335.8l1.8 5.8 68.8-21.9-1.7-5.7zm0 0"/><defs><path id="SVGID_1_" d="M0 0h340.8v410.9H0z"/></defs><clipPath id="SVGID_2_"><use xlink:href="#SVGID_1_" overflow="visible"/></clipPath><path class="st1" d="M50.7 298.2l-41 12c-4.6 1.3-8.1 4.6-9.3 8.4l61.5-18.8c-2.8-2.1-7-2.8-11.2-1.6zm14.9 6.2L.4 325.1c-.5 1.8-.6 3.6-.1 5.4l.1.4L69.2 309c-.6-1.9-1.9-3.5-3.6-4.6zm0 0"/><path class="st0" d="M27.7 408.6c3 1.4 6.9 1.8 10.7.6L81.8 396c4.3-1.3 7.6-4.1 9.1-7.4l-63.2 20zm52.8-63l-68.8 21.9 1.7 5.5 68.8-21.9-1.7-5.5zm6.4 21.1l-68.8 21.9 1.6 5.3L88.5 372l-1.6-5.3zm4.6 15.1l-1.4-4.4-68.8 21.9 1.1 3.6c.1.4.3.8.5 1.2l68.7-21.8c0-.2 0-.3-.1-.5zM83.7 356l-68.8 21.9 1.6 5.3 68.9-21.9-1.7-5.3zm0 0"/><path class="st2" d="M153.9 273.2l39 57.6s-7.9 16.5-28.6 25.2c-20.6 8.7-32.7 11.1-41.1 11.9-8.3.8-15.9.3-20 2.1s-13.7 5.3-13.7 5.3l-18.9-61.5s7.5-3 15-18.3 11.8-20.3 11.8-20.3 19.7-8.3 32.2-11.1c12.5-2.9 17.1-4.8 19.5-1 2.5 3.9 4.8 10.1 4.8 10.1zm0 0"/><path class="st3" d="M89.4 375.9l-.1-.4-19-61.8.4-.1c.1 0 7.4-3.2 14.8-18.1 7.5-15.2 11.7-20.2 11.8-20.4l.1-.1h.1c.2-.1 19.9-8.3 32.2-11.2 1.9-.4 3.7-.9 5.3-1.2 5.3-1.3 8.9-2.1 11.3-1.8 1.6.2 2.7 1 3.5 2.3 2.3 3.7 4.5 9.5 4.7 10.1l39.1 57.8-.1.2c-.1.2-8.2 16.8-28.8 25.4-21.7 9.2-33.9 11.2-41.2 11.9-2.9.3-5.9.4-8.4.5-4.8.2-8.8.4-11.4 1.5-4 1.7-13.6 5.3-13.7 5.3l-.6.1zm-18.1-61.8l18.6 60.7c1.9-.7 9.7-3.6 13.2-5.2 2.7-1.2 6.9-1.4 11.7-1.6 2.7-.1 5.4-.2 8.4-.5 7.2-.7 19.3-2.7 40.9-11.8 19-8 27.2-22.8 28.2-24.8l-38.9-57.4v-.1c0-.1-2.3-6.2-4.6-10-.7-1.1-1.6-1.7-2.9-1.9-2.2-.3-5.7.5-10.9 1.8-1.6.4-3.3.8-5.3 1.3-11.8 2.7-30.5 10.4-32 11.1-.6.7-4.7 6-11.7 20.1-6.5 13.5-13.1 17.5-14.7 18.3zm0 0"/><path class="st4" d="M192 323.7s-1.3-7.2-7.9-5.8c-7.3 1.5-24.9 7.4-33.8 11.7-7.8 3.8-9.1 5.8-8.1 11.4.9 5.6 7.3 7 10 6.2 2.6-.8 1.8 0 35.7-11.2 0 0 6.3-2.7 5.3-7.2s-1.2-5.1-1.2-5.1zm0 0"/><path class="st3" d="M149.1 347.8c-3.1-.5-6.7-2.4-7.4-6.6-1-5.9.6-8.1 8.4-11.9 8.9-4.3 26.6-10.3 33.9-11.8 1-.2 1.9-.2 2.7-.1 4.7.7 5.7 6 5.8 6.3l1.1 5.1c1 4.7-5.3 7.5-5.6 7.7-27.2 9-32 10.3-34.3 10.9-.5.1-.9.2-1.4.4-.9.1-2 .1-3.2 0zm37.5-29.6c-.7-.1-1.5-.1-2.4.1-7.2 1.5-24.8 7.4-33.7 11.7-7.9 3.8-8.8 5.8-7.9 11 .6 3.7 3.8 5.5 6.6 5.9 1 .2 2.1.1 2.8-.1.5-.2.9-.3 1.5-.4 2.3-.6 7-1.8 34.2-10.8 0 0 5.9-2.6 5-6.7l-1.1-5.1c0-.1-1-5-5-5.6zm0 0"/><path class="st4" d="M188.6 307.3s-1.2-6.5-7.9-5.8c-6.8.6-28.9 8.7-36.3 13.1-7.4 4.4-11.8 6.3-10.8 11.9.9 5.6 7.4 7 10 6.2 2.6-.8 40.9-13.1 40.9-13.1s6.2-2.7 5.3-7.2c-1.1-4.4-1.2-5.1-1.2-5.1zm0 0"/><path class="st3" d="M140.4 333.3c-3.1-.5-6.7-2.4-7.4-6.6-.9-5.4 2.9-7.6 9.1-11.2.6-.4 1.3-.8 2-1.2 7.7-4.5 29.9-12.5 36.5-13.2.8-.1 1.5-.1 2.2 0 5.1.8 6.2 6.1 6.2 6.1l1.1 5.1c1 4.7-5.3 7.5-5.6 7.7-.4.1-38.3 12.3-40.9 13.1-.9.3-2 .3-3.2.2zm42.3-31.3c-.6-.1-1.3-.1-2 0-6.6.6-28.5 8.5-36.1 13-.7.4-1.4.8-2 1.2-6.1 3.5-9.4 5.5-8.6 10.3.6 3.7 3.9 5.5 6.7 5.9 1.1.2 2.1.1 2.8-.1 2.6-.8 40.5-13 40.9-13.1 0 0 5.9-2.6 5-6.7l-1.1-5.1c-.2-.2-1.1-4.7-5.6-5.4zm0 0"/><path class="st4" d="M183.4 291.1s-1.3-6.4-8-5.7c-6.8.7-24.3 8.3-31.6 12.8-7.4 4.5-14.6 8.4-13.6 14.1 1 5.6 5.8 5.6 8.4 4.8 2.6-.9 40.7-13.6 40.7-13.6s6.2-2.8 5.2-7.2c-.9-4.6-1.1-5.2-1.1-5.2zm0 0"/><path class="st3" d="M134.9 317.7c-2-.3-4.4-1.5-5.1-5.5-1-5.6 5.6-9.6 12.6-13.8l1.2-.7c7.3-4.4 24.8-12.1 31.8-12.8.8-.1 1.6-.1 2.3 0 5.1.7 6.1 6 6.2 6l1.1 5c1.1 4.7-5.2 7.6-5.5 7.7-.4.1-38.2 12.8-40.8 13.6-.7.4-2.1.8-3.8.5zm42.7-31.9c-.7-.1-1.4-.1-2.1 0-6.8.7-24.4 8.4-31.5 12.7l-1.2.7c-6.7 4-13.1 7.9-12.2 12.9.6 3.5 2.7 4.5 4.4 4.8 1.1.2 2.3 0 3.4-.3 2.6-.8 40.3-13.5 40.7-13.6 0 0 5.8-2.7 4.9-6.7l-1.1-5.1c.1-.2-.9-4.7-5.3-5.4zm0 0"/><path class="st4" d="M177.3 272.4s-1.9-6.3-8.5-4.9c-6.7 1.4-24 9.7-30.9 14.8-6.9 5.1-13 10.7-11.5 16.2s6.3 5 8.8 3.9c2.5-1.1 39.2-17.4 39.2-17.4s5.9-3.4 4.5-7.7c-1.3-4.3-1.6-4.9-1.6-4.9zm0 0"/><path class="st3" d="M131 303.5c-1.7-.3-4-1.3-5-4.9-1.6-5.8 4.6-11.5 11.6-16.7 6.9-5.2 24.4-13.5 31.1-14.9 1.1-.2 2.1-.3 3-.1 4.6.7 5.9 5.2 6 5.3l1.6 4.9c1.5 4.6-4.4 8.1-4.7 8.2-.4.2-36.8 16.4-39.3 17.5-.6.4-2.3 1-4.3.7zm40.7-35.7c-.8-.1-1.8-.1-2.7.1-6.6 1.4-23.9 9.6-30.8 14.8-6.4 4.8-12.8 10.4-11.3 15.8.7 2.5 2.1 3.9 4.3 4.2 1.7.3 3.3-.3 3.9-.6 2.5-1.1 38.9-17.3 39.2-17.4 0 0 5.6-3.2 4.3-7.2l-1.6-4.9c-.1-.3-1.4-4.2-5.3-4.8zm0 0"/><path class="st4" d="M73.4 312.2l-2.6 1.7c0-.1 1-.5 2.6-1.7zm0 0"/><path class="st2" d="M161.6 287.6c-3.5-4.9-7.4-13.9-7.4-13.9s-2.7-6.7-5-10.6c-2.4-3.9-7.1-1.9-19.5 1-12.5 2.9-32.2 11.1-32.2 11.1s-4.3 5-11.8 20.3c-4.8 9.7-9.5 14.5-12.4 16.7l37.2-23.5c21.2 6.9 27.7-4.3 27.7-4.3 1.9 6.7 5.7 12.3 10.5 15.4 4.8 3.1 15.1 3.5 17.6 1.3 2.7-2.3-1.2-8.6-4.7-13.5zm0 0"/><path class="st3" d="M70.9 314.3l-.3-.8c.1 0 7.4-3.2 14.8-18.1 7.5-15.2 11.7-20.2 11.8-20.4l.1-.1h.1c.2-.1 19.9-8.3 32.2-11.2 1.9-.4 3.7-.9 5.3-1.3 8.6-2.1 12.6-3 14.7.5 2.4 3.9 5 10.6 5.1 10.7 0 .1 3.9 9 7.3 13.8 3.7 5.2 7.6 11.6 4.8 14.1-2.9 2.6-13.4 1.9-18.2-1.2-4.7-3-8.4-8.4-10.4-14.8-2 2.4-9.6 9.6-27.7 3.8l.3-.8c20.7 6.7 27.1-4 27.2-4.1l.5-.9.3 1c1.9 6.6 5.6 12.1 10.3 15.2 4.7 3 14.8 3.4 17.1 1.3 2.6-2.3-3.1-10.3-4.9-12.9-3.4-4.9-7.4-13.9-7.4-14 0-.1-2.7-6.7-5-10.5-1.8-3-5.3-2.2-13.8-.1-1.6.4-3.3.8-5.3 1.3-11.8 2.7-30.5 10.4-32 11.1-.6.7-4.7 6-11.7 20.1-7.5 15-14.9 18.1-15.2 18.3zm0 0"/><path class="st5" d="M170.3 286.4c2.6-1.2 4.1-1.8 4.1-1.8s5.5-3.1 4.2-7.4c-1.1-4-1.9-5.4-1.9-5.4s-2.1-5.3-7.8-4c-1.2.3-2.8.8-4.6 1.5 0 0 2.2.5 3.4 2.4 1.3 1.9 3.9 8.7 3.7 11.1-.3 2.4-1.1 3.6-1.1 3.6zm0 0"/><path class="st2" d="M175.9 304.1c2.6-.9 4.1-1.5 4.1-1.5s5.3-2.6 4.3-7.1-2-6.1-2-6.1-1.6-4.9-7.4-3.8c-1.2.2-2.6.7-4.7 1.7 0 0 2.4.2 3.6 2.2 1.2 2 3.6 8.8 3.3 11.2-.3 2.5-1.2 3.4-1.2 3.4zm5.5 16c3-.7 4.5-1.9 4.5-1.9s4.2-1.7 3.2-6.7c-.9-4.3-1.4-5.6-1.4-5.6s-1.9-4-5.3-4c-1.7 1.5-3.5 2.1-6.2 2.9 0 0 2.3.5 3.5 2.5 1.2 2 3.2 7.6 2.8 9.9-.3 2.5-1.1 2.9-1.1 2.9zm4.9 15.9c3.3-.9 7.4-3.7 6.4-8-1-4.2-1.6-5.8-1.6-5.8s-.6-2.6-3.7-3.9c-1.7 1.4-3.6 2-6.1 2.8 0 0 2.2.6 3.4 2.5 1.2 2 3 7.4 2.7 9.7-.5 2.3-1.1 2.7-1.1 2.7zm0 0"/><path class="st6" d="M29.4 189l-16.5 4.2s-5.1 16.5 5.3 27.3l15.7-3-4.5-28.5zm0 0"/><path class="st3" d="M32.7 210.2l1.1 7.3-15.7 3c-10.3-10.8-5.3-27.3-5.3-27.3s-.1 15 6.1 19.5l13.8-2.5zm0 0"/><path class="st7" d="M156.5 236.6l2.3 11-55.8 10.2-2.4-9.6 55.9-11.6zm0 0"/><path class="st8" d="M155.8 253.9s11.1 54.4 34.1 98.9l-44.1 15.8s-22.2-45-36.6-105.3l46.6-9.4zm0 0"/><path class="st7" d="M191.9 351.3l-48.7 17.6 3.5 10.9L196 361l-4.1-9.7zm0 0"/><path class="st9" d="M278.5 1.1s-66.3 87.6-105.1 109.8c-38.9 22.1-74 19-74 19L119 246s35.4-12.7 61.1-9.9c25.8 2.8 61.1 11.9 153.7 73.2L278.5 1.1zm0 0"/><path class="st10" d="M99.4 129.8s-79.4-1.7-71.8 68C35.2 267.5 119 246 119 246L99.4 129.8zm0 0"/><path class="st0" d="M113.5 212.7L119 246s35.4-12.7 61.1-9.9c25.8 2.8 61.1 11.9 153.7 73.2l-7.9-43.7-55.6-31.2s-48.4-24.9-82-29.3c-33.5-4.5-74.8 7.6-74.8 7.6zm0 0"/><path class="st11" d="M38.3 154.2c-8 9.9-12.8 23.9-10.7 43.6C35.2 267.5 119 246 119 246l-5.5-33.2s-14.7 3.1-37.1-3.9c-35.4-11.1-38.1-54.7-38.1-54.7zm0 0"/><defs><path id="SVGID_3_" d="M0 0h340.8v410.9H0z"/></defs><clipPath id="SVGID_4_"><use xlink:href="#SVGID_3_" overflow="visible"/></clipPath><path class="st12" d="M100.8 138.5l-1.4-8.6s35.1 3.2 74-19C212.2 88.8 278.5 1.1 278.5 1.1l2.4 13.6s-40.4 49-50.7 61.8c-11.5 14.2-32.1 35.8-59.4 48.5-10.5 4.9-37.3 13.2-70 13.5zm0 0"/><path class="st13" d="M326.6 151.4c14.8 85.3 18.1 155.9 7.4 157.8-10.7 1.9-31.3-65.8-46.1-151.1C273.1 72.9 269.8 2.2 280.5.4c10.7-1.9 31.4 65.7 46.1 151zm0 0"/><path class="st14" d="M338.6 242.6c3.2 39.3 1.8 65.5-4.6 66.6-10.7 1.9-31.3-65.8-46.1-151.1C273.1 72.9 269.8 2.2 280.5.4c4.4-.8 10.4 10 17 28.9 0 0-7.3-14-13.1-11.9-5.8 2.1 5.9 112.1 12.6 141.4 6.6 29.3 24 127.9 33.4 130.8 9.4 2.8 8.2-47 8.2-47zm0 0"/><path class="st6" d="M304.8 197.2s35.2-10.7 28.3-45c-6.9-34.3-42.3-31.3-42.3-31.3s5.4 37.7 14 76.3zm0 0"/><path class="st15" d="M100.9 138.4l-1.5-8.6s-46.5-1-64.9 29.8c0 0 17.2-25.7 66.4-21.2zm0 0"/><path class="st3" d="M315.6 192c-5.8 3.7-10.8 5.2-10.8 5.2-8.6-38.6-14-76.2-14-76.2s1.6-.1 4.1 0c0 0 4.3 40.1 9.7 54.1 5.5 13.8 11 16.9 11 16.9zm0 0"/></svg>