<svg id="Layer_1" xmlns="http://www.w3.org/2000/svg" viewBox="0 0 234.5 172"><style>.st0{fill:#fff}.st1{fill:#038726}.st2{fill:#3cbd0d}.st3{fill:#45464f}.st4{fill:#acb3ba}.st5{fill:#ef7f1a}</style><path class="st0" d="M0 33.3v136.8c0 1.1.9 1.9 1.9 1.9h230.6c1.1 0 1.9-.9 1.9-1.9V33.3H0z"/><path class="st1" d="M234.5 35.2V12c0-6.6-5.4-12-12-12H12C5.4 0 0 5.4 0 12v23.2h234.5z"/><path class="st0" d="M139.1 26.1h-115c-4.7 0-8.5-3.8-8.5-8.5s3.8-8.5 8.5-8.5h115c4.7 0 8.5 3.8 8.5 8.5s-3.8 8.5-8.5 8.5z"/><circle class="st2" cx="210.1" cy="17.7" r="8.7"/><circle class="st2" cx="185.2" cy="17.7" r="8.7"/><path class="st3" d="M24.7 20.7H23l-2-5.9h1.7l1.2 3.6 1.2-3.6h1.6l1.2 3.6 1.2-3.6h1.7l-2 5.9h-1.7L26 17.4l-1.3 3.3zm10 0H33l-2-5.9h1.7l1.2 3.6 1.2-3.6h1.6l1.2 3.6 1.2-3.6h1.7l-2 5.9h-1.7L36 17.4l-1.3 3.3zm9.9 0h-1.7l-2-5.9h1.7l1.2 3.6 1.2-3.6h1.6l1.2 3.6 1.2-3.6h1.7l-2 5.9H47l-1.1-3.3-1.3 3.3z"/><path class="st4" d="M34.6 79.7h-6.2l-7.3-21.5h6.2l4.2 13 4.2-13h5.8l4.2 13 4.2-13h6.2l-7.3 21.6h-6.2L38.7 68l-4.1 11.7zm36.2 0h-6.2l-7.3-21.5h6.2l4.2 13 4.2-13h5.8l4.2 13 4.2-13h6.2L85 79.7h-6.2l-4-11.7-4 11.7zm36.2 0h-6.2l-7.3-21.5h6.2l4.2 13 4.2-13h5.8l4.2 13 4.2-13h6.2l-7.3 21.6H115L111.1 68 107 79.7z"/><path class="st5" d="M197.7 148.5l12.4-12.4-20.3-20.4 18.6-13.6-57.5-12.8 12.8 57.5 13.6-18.7z"/></svg>