<svg id="Режим_изоляции" xmlns="http://www.w3.org/2000/svg" viewBox="0 0 449 449"><style>.st0{fill:#fff}.st1{fill:none}.st2{fill:#fdcf9d}.st3{fill:#2f4962}.st4{fill:#103754}.st5{display:none}.st6{fill:#1f3656}.st6,.st7,.st8{display:inline}.st7{fill:#40bfc6}.st8{fill:#fff}.st9{fill:#ef7f1a}.st10{display:none;fill-rule:evenodd;clip-rule:evenodd;fill:#fff}.st11{display:inline;fill:#2c5871}.st12{fill:#15b0bf}.st12,.st13{display:inline}.st14{fill:#0e303f}.st15{fill:#2c5871}.st16{display:inline;fill:#1c75bc}.st17{fill:#15b0bf}.st18{display:inline;fill:#d1ecfb}.st19{fill:#fec00f}.st20{fill:#f99b1c}.st21{fill:#a6dae9}.st22{fill:#2c5066}.st23{display:none;fill:#15b0bf}</style><circle class="st0" cx="224.5" cy="224.5" r="224.5" id="Слой_2"/><g id="Слой_2__x28_копия_x29_"><path class="st1" d="M304.4 375.1l.8-1.3-5.9-3.5 2.7-4.6-11.1-6.5c-1.5 1.5-3.3 2.6-5.3 3.2l.3.2L265 368l-9.7-5.7-7.3-4.3c0-.1.1-.2.1-.3l1.1-2c1.9-3.2 6.1-4.3 9.3-2.4l7.9 4.7 2.9-.8-9.9-5.8c-.2-.1-.3-.2-.5-.3L233 335.8c-2.2-1.3-2.9-4.1-1.6-6.3 1.3-2.2 4.1-2.9 6.3-1.6l16.4 9.6c.2-.7.5-1.4.9-2.1l-6.4-3.7c-2.2-1.3-2.9-4.1-1.6-6.3 1.3-2.2 4.1-2.9 6.3-1.6l6.3 3.7 1.1-1.9-6.3-3.7c-2.2-1.3-2.9-4.1-1.6-6.3 1.3-2.2 4.1-2.9 6.3-1.6l6.4 3.7c.4-.6.8-1.1 1.3-1.6l-3.3-2c-2.2-1.3-2.9-4.1-1.6-6.3 1.3-2.2 4.1-2.9 6.3-1.6l14.8 8.7 15.2 9c3.4 2 5.4 5.4 5.8 9l12.9 7.6 2.7-4.6 5.9 3.5.8-1.3 64.4 37.5c36.3-39.9 58.4-92.9 58.4-151.1C449 100.5 348.5 0 224.5 0S0 100.5 0 224.5 100.5 449 224.5 449c49.5 0 95.3-16.1 132.5-43.2l-52.6-30.7z"/><path class="st2" d="M258.8 359.9l7.6-2-7.9-4.7c-3.2-1.9-7.4-.8-9.3 2.4l-1.1 2c0 .1-.1.2-.1.3l7.3 4.3c.8-1.1 2-1.9 3.5-2.3z"/><path class="st2" d="M276.1 361.2l-6.9-4-2.9.8-7.6 2c-1.5.4-2.7 1.2-3.6 2.3l9.7 5.7 20.9-5.4-.3-.2c-2.9.8-6.3.5-9.3-1.2zm-16.6-33.7l-6.3-3.7c-2.2-1.3-5-.6-6.3 1.6-1.3 2.2-.6 5 1.6 6.3l6.4 3.7c.1-.2.1-.3.2-.5l4.4-7.4z"/><path class="st2" d="M274.8 340.4l2.9-4.9-17-10-1.1 1.9-4.4 7.5c-.1.1-.2.3-.2.5-.4.7-.6 1.4-.9 2.1l10.8 6.4c2.2 1.3 2.9 4.1 1.6 6.3-1.3 2.2-4.1 2.9-6.3 1.6l-1.3-.7c.2.1.3.2.5.3l9.9 5.8 6.9 4c2.9 1.7 6.3 2 9.4 1.2 2-.6 3.8-1.6 5.3-3.2l-13.1-7.7c-4-2.3-5.3-7.2-3-11.1zm17.7-14.2l11.4 6.7c-.4-3.6-2.4-7-5.8-9l-15.2-9 3.9 2.3c2.2 1.3 2.9 4.1 1.6 6.3-1.3 2.2-4.1 2.9-6.3 1.6l-15.4-9c-.5.5-.9 1-1.3 1.6l17.1 10c2.5-2.8 6.7-3.5 10-1.5z"/><path class="st2" d="M288.3 323.5c1.3-2.2.6-5-1.6-6.3l-3.9-2.3-14.8-8.7c-2.2-1.3-5-.6-6.3 1.6-1.3 2.2-.6 5 1.6 6.3l3.3 2 15.4 9c2.2 1.3 5.1.5 6.3-1.6zm-6.9 5.6c.3-.5.6-.9 1-1.3l-17.1-10-6.4-3.7c-2.2-1.3-5-.6-6.3 1.6-1.3 2.2-.6 5 1.6 6.3l6.3 3.7 17 10 3.9-6.6zm-14.9 21.1c1.3-2.2.6-5-1.6-6.3l-10.8-6.4-16.4-9.6c-2.2-1.3-5-.6-6.3 1.6-1.3 2.2-.5 5 1.6 6.3l25.9 15.2 1.3.7c2.2 1.4 5 .7 6.3-1.5z"/><path class="st2" d="M303.9 332.8l-11.4-6.7c-3.4-2-7.6-1.2-10.1 1.5-.4.4-.7.9-1 1.3l-3.8 6.5-2.9 4.9c-2.3 3.9-1 8.8 2.9 11.1l13.1 7.7 11.1 6.5 14.9-25.3-12.8-7.5z"/><path class="st0" d="M325.4 339.3l-6-3.5-2.6 4.6-14.9 25.3-2.7 4.6 5.9 3.5z"/><path class="st3" d="M325.4 339.3l-20.3 34.5-.8 1.3 52.6 30.7c12.2-8.9 23.5-19 33.6-30.2L326.1 338l-.7 1.3zm2.9 7.7c.6-1 1.8-1.3 2.8-.7 1 .6 1.3 1.8.7 2.8-.6 1-1.8 1.3-2.8.7-1-.6-1.3-1.8-.7-2.8z"/><ellipse transform="rotate(-59.568 330.075 348.058)" class="st4" cx="330.1" cy="348" rx="2" ry="2"/></g><g id="green_yellow"><g class="st5"><path class="st6" d="M253.1 393.2c0 .9-.8 1.7-1.7 1.7H217c-.9 0-1.7-.8-1.7-1.7v-65c0-.9.8-1.7 1.7-1.7h34.3c.9 0 1.7.8 1.7 1.7v65z"/><path class="st7" d="M218 333.7h32.4v53.7H218z"/><circle class="st8" cx="234.2" cy="390.9" r="2.2"/><circle class="st8" cx="234.2" cy="330.1" r="1"/></g><path class="st9" d="M351.5 139.5h-.5c-3.7-29.3-28.7-52-59.1-52-5.8 0-11.4.8-16.8 2.4C263 76.6 245.4 68.3 226 68.3c-22.7 0-42.7 11.3-54.8 28.5-3.9-1.1-8-1.7-12.2-1.7-20.4 0-37.5 13.7-42.8 32.4-35.3 6-62.2 36.8-62.2 73.8 0 40.5 32.1 73.4 72.2 74.9 10.6 13.3 26.9 21.9 45.2 21.9 12.4 0 23.8-3.9 33.2-10.5 3.6 3 7.9 5.1 12.6 6.2 2.3 7 6.6 16.9 13.5 22.7.7-10.4 3.1-18.6 5.6-24.5 4.9-2.2 9.2-5.6 12.3-9.8 10.9 5.3 23.1 8.2 36 8.2 23.5 0 44.8-9.8 59.8-25.6 2.3.3 4.7.4 7.2.4 34.7 0 62.9-28.1 62.9-62.9-.1-34.7-28.3-62.8-63-62.8z"/><path class="st10" d="M383.1 153.3h-32c-1.4 0-1.9-.4-2.2-1.7-.6-2.2-1.1-4.4-1.7-6.6-.3-1.2-.6-1.5-1.9-1.5h-8.2c-1.5 0-1.2 3.4.3 3.4h6.7c1.3 0 1.4.2 1.7 1.5 2.4 9.6 4.4 18.1 7 27.7.4 1.6.2 2-.7 2.9-.9.9-1.5 2.2-1.5 3.6 0 2.8 2.2 5 5 5 1.8 0 3.4-1 4.3-2.5.6-1 1.1-1.4 2.1-1.4h8.3c1.2 0 1.6.4 2.2 1.3.9 1.5 2.5 2.5 4.3 2.5 2.8 0 5-2.2 5-5 0-2.7-2.2-5-5-5-1.7 0-3.2.8-4.1 2.1-.9 1.3-1.5 1.7-2.3 1.7h-8.3c-1.1 0-1.5-.4-2.3-1.7-.6-1-1.6-1.7-2.7-2-1.2-.4-1.7-.6-1.9-1.7-.1-.5-.3-1-.4-1.5-.3-1.2-.1-1.5 1.3-1.5h21.6c1.9 0 2.5-.3 2.8-1.4.5-1.7.3-1.9-1.3-1.9h-23.1c-.9 0-1-1.4 0-1.4h23.6c1.5 0 1.6-.1 1.9-1.2.3-1.2.1-1.3-1.3-1.3H355c-.9 0-1-1.4 0-1.4h25.7c1.4 0 1.7-.1 1.9-1.2.3-1.1.1-1.2-1.4-1.2h-27.1c-1 0-1-1.5 0-1.5h27.6c1.4 0 1.6-.1 1.9-1.3.3-1 .2-1.3-1.4-1.3H353c-1 0-1-1.5 0-1.5h29.6c1.5 0 1.8-.1 2-1.4.4-1.3 0-1.6-1.5-1.6zm-6.3 27c-1.2 0-2.2 1-2.2 2.2 0 1.2 1 2.2 2.2 2.2 1.2 0 2.2-1 2.2-2.2 0-1.2-.9-2.2-2.2-2.2zm-21.2 0c-1.2 0-2.2 1-2.2 2.2 0 1.2 1 2.2 2.2 2.2 1.2 0 2.2-1 2.2-2.2 0-1.2-1-2.2-2.2-2.2z"/><g class="st5"><path class="st11" d="M341.9 190.9c0 1-.8 1.8-1.7 1.8h-3.3v6.9l-8.2-6.9h-21.3c-1 0-1.7-.8-1.7-1.8V170c0-1 .8-1.8 1.7-1.8h32.8c.9 0 1.7.8 1.7 1.8v20.9z"/><path class="st8" d="M291.2 184.3c0 1 .8 1.8 1.7 1.8h3.3v6.9l8.2-6.9h21.3c1 0 1.7-.8 1.7-1.8v-20.9c0-1-.8-1.8-1.7-1.8h-32.8c-1 0-1.7.8-1.7 1.8v20.9z"/><path class="st12" d="M296.6 168.3H322v1.6h-25.4zm0 5H322v1.6h-25.4zm0 5h19.7v1.6h-19.7z"/></g><g class="st5"><g class="st13"><path class="st14" d="M122.1 159.1h6.5v7h-6.5z"/><path class="st15" d="M147.4 145c-.7.8-1.4 1.6-2.2 2.4-11 11-28.8 11-39.8 0-11-11-11-28.8 0-39.8.8-.8 1.6-1.5 2.4-2.2l-2.8-2.8c-.8.7-1.6 1.4-2.4 2.2-12.5 12.5-12.5 32.9 0 45.4s32.9 12.5 45.4 0c.8-.8 1.5-1.6 2.2-2.4l-2.8-2.8z"/><path transform="rotate(-44.984 106.262 105.6)" class="st14" d="M104.9 100.3h2.7v10.6h-2.7z"/><circle class="st14" cx="102.3" cy="101.8" r="2.5"/><path class="st15" d="M141.3 170.5c-.1-2.5-2.1-4.4-4.6-4.4h-22.4c-2.5 0-4.5 2-4.6 4.4h31.6z"/><path transform="rotate(-44.944 147.135 146.597)" class="st14" d="M145.8 141.3h2.7v10.6h-2.7z"/><circle class="st14" cx="151.1" cy="150.4" r="2.5"/></g><path class="st16" d="M108.4 110.4c-9.4 9.4-9.4 24.7 0 34.1 9.4 9.4 24.7 9.4 34.1 0 9.4-9.4 9.4-24.7 0-34.1-9.4-9.4-24.7-9.4-34.1 0z"/><g class="st13"><path class="st17" d="M147 116.8v.2l.1.2s.4.8.8 1.8c.4.9 1 3.5 1 3.6 0 .1-.1.5-.2.7-.1.2-.4.7-.5.7-.1 0-.5 0-.7-.3l-.3-.3-.2-.1c-.2 0-.5-.2-.7-.4-.2-.2-.7-.7-.6-.8.1-.1 0-.7-.2-1.1v-.5c.2 0 .2 0 .1-.1s-.1-.4 0-.6c0-.1.3-.3.3-.5-.1-.2-.2-.7-.2-.8.1-.1.2-.6.1-.7-.1-.1.1-.5.3-.7.2-.2.9-.3.9-.3zm-44.7 16.9c-.5-2.2-.8-4-.8-4 .1 0 .2-.2.1-.3 0-.2.4-.5.4-.4.1.1.2-.1.1-.3-.1-.2-.5-.4-.6-.4 0-.1-.1-.3 0-.3s.5-.2.7-.2c.2.1.7.1.7.3 0 .1.3.1.3 0s-.2-.5-.3-.4c-.1 0-.5-.1-.8-.4-.3-.3-.4-1.1-.2-1.1.1 0 .5 0 .5-.2.1-.2.5-.1.6-.2.1-.1.5-.4.6-.5.1 0 .4.1.5 0 .1-.1.4-.3.6-.3.1 0 .5.2.4.3 0 .1.2.3.3.2.1 0 .5-.2.6-.1.1.1.3 0 .3.1s.3.4.2.5c0 .1 0 .3-.1.3s-.4.2-.3.2c.1 0 .4.3.5.5.1.2.3.5 0 .6-.3 0-1.2.3-1.3.5-.1.1-.3-.3-.1-.8l-.4-.5-.3-.3c-.2 0-.6.1-.7.2-.2 0-.3.4-.4.4-.1 0-.4.3-.3.3.1 0 .4.1.5.2.1.1.4.6.3.8-.1.2-.4.8-.3.8.1 0 .2.3.2.5s.1.8.1 1c0 .2 0 .7.1.7.1.1.1.2.2.1.1 0 .6.3.8.3.2-.1.7-.1.8-.2 0-.1.3-.1.2-.2 0-.1.4 0 .6.1.2.1.5.2.4 0-.2-.2-.3-.7-.3-.6 0 .1-.2-.1-.2-.1.1-.1 0-.5-.2-.7-.2-.3-1.1-1.1-1.1-1.2 0-.1.3-.2.4-.2.1 0 .3-.2.4-.2.2 0 .5-.3.6-.2.1.1.5.4.6.3.1-.1.3-.3.2-.3-.1-.1 0-.2.2-.1s.8.1.8.2c.1.1.2.2.4.2s.6.3.6.2c0-.1.4 0 .5.1.1.1.7.7.9.8.1.1.6 0 .6.1.1.1.2.3.1.4-.1.1-.2.3-.3.3-.1 0-.2-.1-.3 0 0 .1-.4.1-.4-.1-.1-.3-.3-.8-.4-.5 0 .3-.5.6-.4.6.1 0 .2.3.1.4-.1.1.1.4.3.4.1 0 .5.1.4.3 0 .2-.2.6-.1.6 0-.1-.3-.1-.4.1-.1.2-.1.8 0 .8s.3.4.2.5c-.1.2-.2.7-.1.9 0 .2.5.6.5.7 0 .1-.1.3-.1.3.1 0 .2.5.1.8-.1.3.3 1.1.4 1.1.1 0 .4.2.5.3.1.1.4.5.2.6-.2.1-.8-.3-1-.2-.2.1-.6.4-.6.5 0 0 0 .2-.2.2s-.6.5-.6.7c0 .1.1 1 .5 1.5.4.6 1.4.1 1.3-.1-.1-.1-.1-.6 0-.6.1-.1.5-.3.6-.1.1.2.6.6.8.4.2-.1.8.1.9.3.2.2.8.5.8.4 0-.1.2-.5.3-.5.1 0 .4 0 .4-.2s-.1-.8-.1-.9c0-.1.1-.3.2-.3s.3-.1.3-.2c-.1-.1.3-.3.4-.3.2 0 .6.1.6 0s.2-.2.4-.3c.2-.1.9-.2 1.1-.1.2.1.9 0 1.3 0 .4-.1.9.3 1 .3.1 0 .4-.2.6-.3.2-.1.6-.1.7-.2.1-.1.4-.3.6-.4.2-.1.6-.1.6-.2s.4-.1.7.1l.2.3.2.2c.1.2.2.4.3.4.1.1.1.5.1.7 0 .1.2.5.2.5v.3c.1.1.3.5.5.8.2.3.7 1 .7 1.1 0 .1-.2.6-.2.8 0 .1.1.5.2.6.1.1.3.5.3.6 0 .2.4.8.3.9 0 .1.1.4.1.4s-.1.2-.1.3c-.1.1-.2.4-.1.4.1.1.5.6.5.8 0 .2-.2.7-.1.9.1.2 0 .7.2.9.2.2.6.6.7.6.1 0 .4.3.5.4v.6c0 .1.4.5.5.5.1 0 .4.2.5.2.1 0 .3 0 .2.2-.1.1-.4.5-.5.5-.1 0-.3.1-.3.1h-.1c-.1 0-.4-.2-.6-.3-.2-.1-.8-.3-1-.4-.2-.2-.9-.7-1.1-.8-.1-.1-.3-.4-.4-.4-.1 0-.2-.3-.2-.5 0-.1-.3-.4-.3-.4 0 .1-.6-.2-.9-.5-.3-.3-.7-1.2-1-1.4-.2-.2-.7-.8-.7-.9-.1-.1-.3-.1-.3-.2-.1-.1-.3-.4-.5-.5-.2-.1-1-.4-1.2-.4-.2 0-.8 0-.9-.1 0-.1-.4-.2-.7-.2-.2.1-.9-.5-.8-.6.1-.1 0-.2-.2-.2-.1 0-.6 0-.7-.1-.2-.1-.7-.9-.7-1 0-.2-.4-.7-.4-.7 0-.1-.3-.3-.4-.4-.1-.1-.5-.3-.5-.2 0 .1-.1.3-.3.3-.2 0-.8.2-.8.2s-.2-.1-.3-.1c-.1 0-.5-.1-.6 0-.1 0-.4.3-.6.3-.1 0-.7 0-1 .2-.3.2-1.3.6-1.5.5-.2-.1-1-.7-1.2-.7-.2 0-.7-.1-.8-.1-.1-.1-.1.1 0 .1l.4.4c-.1 0-.4.2-.6.1-.2-.1-.7-.1-.8-.2-.1-.1-.2-.3-.5-.4-.2-.1-.9-.3-.9-.3.6-.7-2.4-6-2.8-8.2zm-.8-8.3c-.1.1-.1-.7.1-1.6.1-1 .8-3.5.9-3.5.1 0 .1.2.1.4-.1.2-.2.7-.1.7s.2.4.1.5c-.1.1 0 .6-.1.8 0 .2-.3.8-.3 1 0 .2.3.8.3.8-.1.1-.2.2-.2.1.1-.1.3.1.3.2s-.2.5-.4.7c-.2.2-.7.9-.7.9s-.1-.1-.1-.2.1-.3.2-.4c.1-.1 0-.5-.1-.4zm28.6-21.5c1.4.3 2.5.6 2.5.7 0 .1.2.3.3.3.1 0 .4-.2.6-.2l1 .5c.2.2.8.9.8 1.2.1.2.3 1 .2 1.1-.1.1.2.7.6 1 .4.3.5 1.2.4 1.3-.1 0-.7-.3-.8-.3-.1 0-.5-.1-.4 0 .1.1.1.4.2.5 0 .1-.1.3 0 .3 0 .1.3.3.4.3.1 0 .5.1.6.2.1.1.5.3.7.5.2.2.5.8.5.8s0 .4.1.7c.1.3.2 1.1 0 1.3-.2.2 0 .6 0 .5.1 0 .3 0 .3.1.1.1.3.7.7 1.1.4.4.1 1.3.1 1.3-.1-.1-.4-.1-.5-.1-.2 0-.5.1-.5.2.1.1.5.5.6.5.2 0 .8.1 1 .1.2.1.6.6.3.6s-1.2 0-1.3-.1c-.1-.1-.5-.4-.5-.5 0-.1-.3-.3-.4-.4-.1-.1-.5-.1-.6-.1-.1-.1-.3-.2-.4-.1-.1.1-.5.1-.6 0 0-.1-.4-.3-.5-.4-.2-.1-.7 0-.7.1-.1.1-.1.6-.2.8 0 .1.3.6.4.7 0 .1-.2.3-.1.4 0 0 .1.2.1.3 0 0 0 .4.2.6.2.3.6 1.1.5 1.2-.1.1-.4.1-.4 0-.1-.1-.4-.3-.5-.4-.1 0-.7-.2-.9-.3-.2-.1-.9-.3-1-.4-.1 0-.4-.3-.5-.2-.1.1-.4 0-.4 0s-.3-.2-.7-.2l-.3.5-.1.1c-.1-.1-.2 0-.2.2 0 .1-.4.5-.5.5-.1 0-.6-.2-.9-.2-.3 0-1.1.1-1.1.1 0 .1 0 .3.1.3s.5-.1.7 0c.2.1.6.2.6.1s.4-.3.6-.3c.2 0 .7.3.7.5 0 .1.3.6.3.8 0 .2-.2.7-.1.7.1.1 0 .5-.1.8-.1.3-.6 1-.9.9-.3-.1-1.1-.4-1.4-.5-.3-.1-1.2-.3-1.3-.4-.2-.1-.5-.1-.3 0 .1.1.5.4.6.4.1 0 .7.1.8.1.2 0 .9.5 1.2.5.2 0 1 .3 1.1.2.1-.1.3-.4.3-.6 0-.1.4-.3.6-.2.2.1.6.8.7 1.2.1.4.4 1.6.4 1.7 0 .1 0 .7.2.9.1.2.7 1 1.1 1.4.4.3 1.2 1.6 1.2 2 0 .4.8 1.6.7 1.6 0 .1-.1.4 0 .5.1.1.4.6.4.9 0 .2.2 1.2.1 1.5-.1.3-.9 1.1-1.3.9-.3-.2-1.3-.5-1.4-.7-.1-.1-.6-.5-.9-.7-.3-.1-1.2-.5-1.4-.7-.2-.3-.7-1-.9-1.2-.2-.2-1-.5-1.2-.7-.2-.2-1.1-.6-1.2-.9-.1-.2-.9-.8-.9-.7 0 .1-.2.4-.4.4-.1 0-.6.3-.7.1l-.1.1-.3.2c.1.3.1.6 0 .8-.2.2-.7.6-.9.7-.2 0-1.1.1-1.3 0-.3-.1-1.2-.5-1.5-.9-.3-.3-1.2-1.3-1.3-1.5-.1-.2-.4-1.1-.4-1.6l-.1-.3-.1-.4c-.3-.5-.6-.9-.5-1.1 0-.1 0-.6.1-.7.1-.1.4-.2.5-.5.1-.3.7-1.1.8-1.2.1-.2.6-.7.7-.6.1 0 .1.2.2.2s.6.2.9.1c.3-.1 1.1-.3 1-.4-.1-.1.3-.7.6-.9.3-.3 1.1-.9 1-1-.1-.2-.2-.6-.3-.7-.1-.1-.2-.2-.1 0 .1.1-.2.3-.2.3-.1-.1-.5.2-.7.6h-.6c-.1-.1-.3-.2-.4-.2l-.4-.4s0 .2.2.4c.2.1.5.5.6.4.1-.1.3.2.2.3-.1.1-.4 0-.3 0 0 0-.1 0-.2.1s-.4.1-.4 0c-.1-.1-.4-.3-.5-.4h-.1c-.1 0-.3-.1-.4-.1l-.5-.1c-.5 0-.7.1-.4.1.3 0 1 .2.9.2-.1 0 0 .3 0 .3.1 0 .2.2.1.4 0 .1.2.6.1.6-.1.1-.4-.2-.3-.3.1-.1-.1-.3-.3-.4-.2 0-.7.2-.8.1-.1-.1-.1.1.2.3.2.1-.1.5-.3.4-.2-.2-.6-.6-.6-.4 0 .2-.4.5-.4.7.1.2 0 .9.2 1.1.1.2.3.8.2.9-.1 0-.4.4-.5.4-.1 0-.5.3-.7.2-.1-.1-.6-.5-.7-.6-.1-.2-.3-.7-.2-.9.1-.2.6-.5.6-.6 0-.1-.2-.3-.3-.3-.1 0-.6-.2-.7-.1-.1.1-.3.1-.4 0v-.6c0-.1.2-.5.2-.5s-.2 0-.4.2-.5.6-.5.5c0-.1 0-.4-.2-.4-.1 0-.4-.5-.3-.6.1-.1-.2-.4-.2-.3 0 0-.4 0-.5-.2-.1-.2-.6-.7-.6-.8 0-.1.3-.3.3-.2 0 .1.1.3.2.3s.4 0 .6.1c.2 0 .7.5.8.5.1 0 .3.1.4.3.1.2.3.5.2.4-.1-.1.2-.5.1-.6-.1-.1-.1-.4-.1-.6 0-.1.2-.5.2-.5-.1-.1-.2 0-.3-.2 0-.1-.3-.4-.4-.3-.1.1-.6-.1-.7-.2-.2-.2-.7-.5-.8-.8-.2-.2 0-.9 0-.9s-.1-.2-.1-.3c0 0 .1-.2.1-.4s-.3-.9-.3-1.2v-1c0-.1.2-.2.2-.3 0-.2.1-.6.2-.7.1-.1.4-.3.6-.3h.7c.1-.1.7-.2 1-.4.3-.2.8.1.8 0 0-.2-.3-.7-.2-.7.1 0 .3-.2.4-.1.1.1.3.1.3-.1s.3-.9.5-1.1l.4-.4c-.1.1-.3-.3-.2-.4.1-.1.6-.7.6-.9 0-.2-.1-.9.1-.9.1 0 .4-.1.3-.2 0-.1.3-.3.4-.2.1.1.3.1.2 0 0-.1-.1-.4 0-.4.2 0 .5-.2.3-.2-.1 0-.4-.3-.4-.3 0-.1.1-.4.1-.5 0-.1-.1-.4 0-.5 0-.1.2-.5.3-.7l.3-.6c.1 0 .2-.2.2-.3-.1-.1.2-.5.1-.6s0-.4.1-.4.5-.2.7-.3c.1-.1.5-.5.6-.5.1 0 .6.2.6.3 0 .1.4.2.7.1l.2-.1c.1-.1.1-.2.2-.2l.2-.1c-.3-.9 3.5-.8 4.8-.5zm6.5 2.2c.2.1.3.2.3.2h-.1c-.1 0-.2.1-.2.3 0 .1-.3.1-.4 0-.1-.1-.5-.6-.4-.6 0-.1.6.1.8.1zm4.3 8.1c0 .1-.1 0-.1-.1s.1-.4 0-.5c-.1-.1-.1-.4 0-.4s.5.1.6 0c.1-.1.4.3.3.5-.1.1-.1.5-.2.5h-.6zm2.5 2.6c.2 0 .2.1.1.1s-.4.1-.4.2 0 .2-.4 0c-.3-.2-.5-1-.3-1.1.2-.1.6.2.5.3.1.1.4.5.5.5zm-1.3-.2c.1.1.3.4.4.5.1.2.1.6.2.6 0 0 .1 0 0 .1 0 .1 0 .3-.2.3s-.7.4-.9.4c-.2 0-.6-.6-.5-1 .1-.4-.4-1.5-.2-1.5.1-.1.6-.1.6 0l.6.6zm1.2 2.2c.1 0-.1.1-.4.3-.3.2-1.2.8-1.2.7-.1-.1 0-.4.3-.5.3-.1 1.2-.4 1.3-.5z"/><path class="st17" d="M138.3 112.6c0 .2 0 .2-.1.2-.1-.1-.4-.3-.4-.4-.1-.2.5.1.5.2zm.9.4c.2-.1.4-.1.5.1.1.2.1.6 0 .6-.2-.1-.7-.5-.5-.7zm4.9 1.6c.3.3-.1.8-.4.8-.3-.2.1-.7.4-.8zm-5.9-6l-.2.4s-.2.2-.2.4c0 .1.1.6 0 .6s-.4-.3-.3-.3c.1-.1.2-.1.1 0s-.3-.2-.2-.4c0-.2.1-.8.1-.9 0-.2.1-.6.1-.7 0 0-.1-.2-.3-.4-.1-.1-.6-.5-.5-.6 0 0 .4 0 .6.2.1.2.8 1.5.8 1.7zm-3.4-3.3c.3.1.6.3.9.4-.3.1-.6-.1-.9-.4zm4 13.6c-.4.1-.6.1-.4.1.1 0 0-.3.1-.3s.4-.1.7 0l.2.1.2.1c.4 0 .9 0 1.1.1.2.1.4.6.2.6-.1 0-1.7-.7-2.1-.7zm-3.3 1.6c-.1-.2 0-.3.1-.3s.5.2.6.3c0 .1-.6.2-.7 0zm.8 8.9l.2.4s.1.2.2.3c.1.1.3.3.4.5.1.1.3.8.2.9 0 .1-.4.2-.6.1-.2-.1-.7-.5-.8-.6 0-.1-.2-.4-.3-.5-.1 0-.4-.5-.4-.7 0-.2 0-.8-.1-.9-.1-.2-.2-.5 0-.4.2.2 1.1.7 1.2.9zm-6.5 19.3c-.2-.2 0-.5.2-.2-.1 0-.1.1-.2.2zm-19.7-24.3c.1.2.1.5.1.6 0 .1 0 .3-.1.3s-.4.1-.5.2c-.1.1-.5 0-.9-.3-.3-.3-1.3-.6-1.3-.8 0-.1-.2-.3-.2-.4 0-.1-.1-.4-.3-.3-.2.1-.6-.2-.5-.3.1-.1-.1-.3-.1-.2 0 .1-.4.2-.5.1-.1-.1-.4-.4-.5-.4-.1 0-.6-.3-.8-.2-.2.1-.6.3-.6.4 0 .1-.3.3-.5.4-.2.1-.5-.2-.3-.3.1-.1.4-.5.3-.5-.1 0-.4.3-.5.3-.1 0-.1.2-.2.2s-.3.1-.3-.1c0-.1.3-.5.4-.6.1-.2.1-.6 0-.5-.1.1-.3-.5-.2-.8.1-.4.8-1.5 1-1.7.2-.2.7-.7.6-.8-.1-.1-.3-.4-.2-.6.1-.2.6-.7.8-.9.2-.2.5-.8.6-.9.1-.1.3-.1.4-.3.1-.1.5-.4.7-.6.2-.2.5-.1.4.1-.1.2.1.6.2.4.1-.2.5-.5.6-.5.1 0 .4-.2.5-.3.1-.1.3.2.2.3-.1.1-.2.5-.2.6 0 .1-.1.4 0 .4s.3.4.3.5c0 .1-.1.2.1.1s.5.2.4.3c-.1.1 0 .6.4.8.3.2.3.9.4.9.1 0 .3.3.2.3-.1 0-.1.1 0 0 .2 0 .1.4-.1.4-.2.1-.6.3-.6.4 0 .1.1.2.2.2.2 0 .3-.2.3 0s.2.7.2.9c0 .2-.2.8-.3.9 0 .1 0 .5-.1.6 0 .1-.4.3-.3.4.3.2.8 1.1.8 1.3zm1.2-10.9c.1-.1.2-.1.4-.1.1 0 .3-.2.5-.3.2-.1.7.5.5.6-.2.1-.6.3-.5.4.1.2.3.7.2.8-.1.1-.4 0-.5.1-.1.1-.4 0-.4-.2s-.3-.5-.3-.3c0 .1-.3.5-.3.4 0 0-.3-.2-.4-.2-.1 0-.4-.3-.3-.5.1-.2.5-.3.4-.3-.1 0 0-.4.1-.5.1-.1.5.1.6.1zm-.4-.6c-.1-.1.1-.3.4-.6.3-.3 1.1-.8 1.1-.7 0 .1 0 .6-.3.8-.3.3-1.2.6-1.2.5zm4.3 10.3c.1.1.1.2 0 .3-.1.1-.3.3-.4.2-.1-.1-.3-.4-.2-.4.1 0-.1-.4 0-.5.1.1.6.4.6.4zm-2.6-2.2c-.1.1-.3.2-.4.1-.1-.1-.5.2-.5.1s-.2-.3-.2-.3c0 .1-.2.1-.1 0 0-.1-.2-.5-.1-.5s.5-.2.6-.2c.1-.1.4-.5.6-.4.1 0 .5.5.4.6-.1.2-.2.5-.3.6zm4.4-10.2c0-.2.1-.5.1-.8.1-.3.5-1 .5-1v-.2c.1-.1.3 0 .3.2.1.2-.2.9-.2 1.1 0 .3-.2 1 0 1.1.2.1.7.4.7.5 0 .1-.1.2-.3.3-.2 0-.7 0-.7-.1.1-.2-.4-1-.4-1.1zm-1.5-1.8c-.4-.3 0-1 .4-.6-.2.2 0 .6-.4.6zm3.8-3.6c-.1-.1 0-.4.3-.6.2-.2.7-.2.5 0-.1.2-.7.6-.8.6zM105 128.6c.1 0-.1.1-.3.1-.2 0 0 .7-.1.8-.1.1-.5-.1-.4-.3 0-.1 0-.4.1-.4 0 0 .6-.2.7-.2zm10.3 8.6c.1-.1.1 0 .2.1 0 .1-.2.4-.2.3-.1-.1 0-.4 0-.4zm-1.5 1c-.1.1-.3.2-.5.2s-.6.3-.7.4c0 .1-.3.4-.4.3 0-.1 0-.4.1-.6.2-.2.7-.6.8-.6.1 0 .5-.1.5-.1.1 0 .4 0 .6-.2.2-.2.7.1.6.2-.1.1-.1.4-.2.4s-.4.2-.5.2c-.1-.1-.2-.3-.3-.2zm.2.5c.1 0 .1.1 0 0 0 .1-.2.4-.2.4-.1 0 0-.4.2-.4zm-1.2-.8h-.2c0-.1-.1-.2 0-.2.1-.1.2.1.2.2zm.2-.5c-.1-.1-.2-.2-.1-.2l.2-.1c.1.1 0 .4-.1.3zm.8.1c0 .1-.1 0-.2 0-.1-.1-.1-.2-.1-.3h.4c.1-.1.2.1.1.2 0 .1-.2 0-.2.1zm32.3-22.3c.2.3.2.4.2.4-.1-.1-.5-.2-.7-.2-.3 0-1 .2-1 .3 0 .1-.2 0-.2-.1s-.1-.3 0-.3.3-.2.3-.3c0-.1.1-.3.1-.4.1-.1.3-.3.4-.3 0-.1.7.6.9.9z"/></g><path class="st18" d="M102.2 125.1s-.1.1 0 .1v-.1zm7.5 3.7s-.1.1 0 .1v-.1z"/></g><path class="st19" d="M312.2 200.3c-1.4-.6-4.6-1.7-6.6-2.3-.2-.1-.2-.1-.2-.8 0-.6.2-1.2.5-1.7s.6-1.5.7-2.3c.3-.4.7-1 1-2.4.2-1.2.1-1.6 0-2v-.1c-.1-.3 0-1.7.2-2.8.1-.8 0-2.4-1.1-3.7-.7-.8-1.9-1.9-4.2-2h-1.3c-2.3.1-3.5 1.2-4.2 2-1 1.3-1.2 2.9-1.1 3.7.2 1.1.3 2.5.2 2.8v.1c-.2.4-.3.8 0 2 .3 1.3.7 2 1 2.4.1.8.4 1.7.7 2.3.2.4.3.9.3 1.7 0 .7 0 .7-.2.8-2.1.6-5.3 1.8-6.6 2.3v5.2h21v-5.2z"/><path class="st20" d="M305.6 198.1c-.2-.1-.2-.1-.2-.8 0-.6.2-1.2.5-1.7s.6-1.5.7-2.3c.3-.4.7-1 1-2.4.2-1.2.1-1.6 0-2v-.1c-.1-.3 0-1.7.2-2.8.1-.8 0-2.4-1.1-3.7-.7-.8-1.9-1.9-4.2-2h-.7v25.2h10.5v-5.2c-1.5-.5-4.7-1.7-6.7-2.2z"/><path class="st19" d="M352.2 200.3c-1.4-.6-4.6-1.7-6.6-2.3-.2-.1-.2-.1-.2-.8 0-.6.2-1.2.5-1.7s.6-1.5.7-2.3c.3-.4.7-1 1-2.4.2-1.2.1-1.6 0-2v-.1c-.1-.3 0-1.7.2-2.8.1-.8 0-2.4-1.1-3.7-.7-.8-1.9-1.9-4.2-2h-1.3c-2.3.1-3.5 1.2-4.2 2-1 1.3-1.2 2.9-1.1 3.7.2 1.1.3 2.5.2 2.8v.1c-.2.4-.3.8 0 2 .3 1.3.7 2 1 2.4.1.8.4 1.7.7 2.3.2.4.3.9.3 1.7 0 .7 0 .7-.2.8-2.1.6-5.3 1.8-6.6 2.3v5.2h21v-5.2z"/><path class="st20" d="M345.6 198.1c-.2-.1-.2-.1-.2-.8 0-.6.2-1.2.5-1.7s.6-1.5.7-2.3c.3-.4.7-1 1-2.4.2-1.2.1-1.6 0-2v-.1c-.1-.3 0-1.7.2-2.8.1-.8 0-2.4-1.1-3.7-.7-.8-1.9-1.9-4.2-2h-.7v25.2h10.5v-5.2c-1.5-.5-4.7-1.7-6.7-2.2z"/><path class="st19" d="M336.3 207.6c-1.9-.8-6.5-2.4-9.3-3.2-.2-.1-.3-.1-.3-1.1 0-.8.3-1.6.7-2.3.4-.8.8-2 .9-3.2.4-.5 1-1.5 1.4-3.3.3-1.6.2-2.2 0-2.8 0-.1 0-.1-.1-.2-.1-.4 0-2.4.3-3.9.2-1.1 0-3.3-1.5-5.2-.9-1.2-2.7-2.6-5.9-2.8h-1.8c-3.2.2-4.9 1.6-5.9 2.8-1.5 1.9-1.7 4.1-1.5 5.2.3 1.5.4 3.5.3 3.9 0 .1 0 .1-.1.2-.2.6-.4 1.2 0 2.8.4 1.9 1 2.8 1.4 3.3.2 1.1.6 2.4.9 3.2.3.6.4 1.3.4 2.4 0 1 0 1-.3 1.1-2.9.9-7.5 2.5-9.2 3.3v7.3h29.5v-7.5z"/><path class="st20" d="M327 204.4c-.2-.1-.3-.1-.3-1.1 0-.8.3-1.6.7-2.3.4-.8.8-2 .9-3.2.4-.5 1-1.5 1.4-3.3.3-1.6.2-2.2 0-2.8 0-.1 0-.1-.1-.2-.1-.4 0-2.4.3-3.9.2-1.1 0-3.3-1.5-5.2-.9-1.2-2.7-2.6-5.9-2.8h-1V215h14.8v-7.3c-1.9-.9-6.5-2.5-9.3-3.3z"/><g class="st5"><path class="st11" d="M225.8 161.5h-17.4c-.8 0-1.4-.6-1.4-1.4 0-.8.6-1.4 1.4-1.4h17.4c.8 0 1.4.6 1.4 1.4 0 .8-.6 1.4-1.4 1.4z"/><g class="st13"><path class="st21" d="M195.4 116.7c0-12 9.7-21.7 21.7-21.7s21.7 9.7 21.7 21.7c0 .7-.5 10.7-8.7 21.3-2.4 3.2-2 9.6-2 9.6H206s.5-6.4-1.9-9.6c-8.2-10.6-8.7-20.6-8.7-21.3z"/><path class="st0" d="M217.1 147.5H206s.5-6.4-1.9-9.6c-8.2-10.5-8.7-20.6-8.7-21.3 0-12 9.7-21.7 21.7-21.7m17.1 21.8h-1.9c0-8.4-6.8-15.2-15.2-15.2v-1.9c9.4 0 17.1 7.7 17.1 17.1z"/><path class="st14" d="M221.8 149.2l-1.8-.3 3.7-22.4 1.8.3-3.7 22.4zm-9.5 0l-3.7-22.4 1.9-.3 3.7 22.4-1.9.3z"/><path class="st14" d="M224.5 129.6c-.8 0-1.1-.8-1.4-1.3-.1-.2-.3-.7-.4-.7-.1 0-.3.5-.4.7-.2.6-.6 1.3-1.4 1.3-.8 0-1.1-.8-1.4-1.3-.1-.2-.3-.7-.4-.7-.1 0-.3.5-.4.7-.2.6-.6 1.3-1.4 1.3-.8 0-1.1-.8-1.4-1.3-.1-.2-.3-.7-.4-.7-.1 0-.3.5-.4.7-.2.6-.6 1.3-1.4 1.3-.8 0-1.1-.8-1.4-1.3-.1-.2-.3-.7-.4-.7-.1 0-.3.5-.4.7-.2.6-.6 1.3-1.4 1.3v-1c.1 0 .3-.5.4-.7.2-.6.6-1.3 1.4-1.3.8 0 1.1.8 1.4 1.3.1.2.3.7.4.7.1 0 .3-.5.4-.7.2-.6.6-1.3 1.4-1.3.8 0 1.1.8 1.4 1.3.1.2.3.7.4.7.1 0 .3-.5.4-.7.2-.6.6-1.3 1.4-1.3.8 0 1.1.8 1.4 1.3.1.2.3.7.4.7.1 0 .3-.5.4-.7.2-.6.6-1.3 1.4-1.3.8 0 1.1.8 1.4 1.3.1.2.3.7.4.7v1zm3.6 17.9v11.4c0 .8-.6 1.4-1.4 1.4h-19.3c-.8 0-1.4-.6-1.4-1.4v-11.4h22.1zm.5 1.1h-23"/><path class="st15" d="M228.6 149.7h-23c-.6 0-1.1-.5-1.1-1.1 0-.6.5-1.1 1.1-1.1h23c.6 0 1.1.5 1.1 1.1 0 .7-.5 1.1-1.1 1.1z"/><path class="st14" d="M228.6 152.3h-23"/><path class="st15" d="M228.6 153.5h-23c-.6 0-1.1-.5-1.1-1.1 0-.6.5-1.1 1.1-1.1h23c.6 0 1.1.5 1.1 1.1 0 .6-.5 1.1-1.1 1.1z"/><path class="st14" d="M228.6 156.1h-23"/><path class="st15" d="M228.6 157.2h-23c-.6 0-1.1-.5-1.1-1.1 0-.6.5-1.1 1.1-1.1h23c.6 0 1.1.5 1.1 1.1 0 .6-.5 1.1-1.1 1.1z"/><path class="st21" d="M217.1 87.9c-.3 0-.6-.3-.6-.6V75.4c0-.3.3-.6.6-.6s.6.3.6.6v11.9c-.1.3-.3.6-.6.6zM201.9 92c-.2 0-.4-.1-.5-.3l-6-10.3c-.2-.3-.1-.6.2-.8.3-.2.6-.1.8.2l6 10.3c.2.3.1.6-.2.8-.1 0-.2.1-.3.1zm-11.1 11.1c-.1 0-.2 0-.3-.1l-10.3-6c-.3-.2-.4-.5-.2-.8.2-.3.5-.4.8-.2l10.3 6c.3.2.4.5.2.8-.2.2-.4.3-.5.3zm-4.1 15.2h-11.9c-.3 0-.6-.3-.6-.6s.3-.6.6-.6h11.9c.3 0 .6.3.6.6-.1.4-.3.6-.6.6zm-6.3 21.2c-.2 0-.4-.1-.5-.3-.2-.3-.1-.6.2-.8l10.3-6c.3-.2.6-.1.8.2.2.3.1.6-.2.8l-10.3 6c-.1.1-.2.1-.3.1zm15.5 15.5c-.1 0-.2 0-.3-.1-.3-.2-.4-.5-.2-.8l6-10.3c.2-.3.5-.4.8-.2.3.2.4.5.2.8l-6 10.3c-.1.2-.3.3-.5.3zm42.4 0c-.2 0-.4-.1-.5-.3l-6-10.3c-.2-.3-.1-.6.2-.8.3-.2.6-.1.8.2l6 10.3c.2.3.1.6-.2.8-.1 0-.2.1-.3.1zm15.5-15.5c-.1 0-.2 0-.3-.1l-10.3-6c-.3-.2-.4-.5-.2-.8.2-.3.5-.4.8-.2l10.3 6c.3.2.4.5.2.8-.2.2-.3.3-.5.3zm5.6-21.2h-11.9c-.3 0-.6-.3-.6-.6s.3-.6.6-.6h11.9c.3 0 .6.3.6.6s-.3.6-.6.6zm-16-15.2c-.2 0-.4-.1-.5-.3-.2-.3-.1-.6.2-.8l10.3-6c.3-.2.6-.1.8.2.2.3.1.6-.2.8l-10.3 6c-.1.1-.2.1-.3.1zM232.3 92c-.1 0-.2 0-.3-.1-.3-.2-.4-.5-.2-.8l6-10.3c.2-.3.5-.4.8-.2.3.2.4.5.2.8l-6 10.3c-.1.2-.3.3-.5.3z"/><path class="st21" d="M217.1 87.9c-.3 0-.6-.3-.6-.6V75.4c0-.3.3-.6.6-.6s.6.3.6.6v11.9c-.1.3-.3.6-.6.6z"/></g></g><path class="st14" d="M150.7 243.2c.5 2.8-1.4 5.4-4.2 5.9l-13.4 2.4c-2.8.5-5.4-1.4-5.9-4.1l-6.1-34.4c-.5-2.8 1.4-5.4 4.1-5.9l13.4-2.4c2.8-.5 5.4 1.4 5.9 4.1l6.2 34.4z"/><path class="st22" d="M221.7 180.7c-3.8-3.8-9.9-3.8-13.6 0-3.8 3.8-3.8 9.9 0 13.6 3.8 3.8 9.9 3.8 13.6 0 3.7-3.7 3.7-9.8 0-13.6z"/><path class="st0" d="M153.2 160.2v40.1h53.5v-62c-9.4 10.7-21.7 18.4-35.7 21.2-6 1.2-12 1.4-17.8.7z"/><path class="st22" d="M154.5 160.1h-29.4c-11.3 0-20.4 9.2-20.5 20.5v14.1c0 11.3 9.2 20.5 20.5 20.5h29.4v-55.1z"/><path class="st19" d="M209.4 239.9c-2.6 0-4.6-2.4-4.6-5.3v-94.2c0-2.9 2.1-5.3 4.6-5.3h4.6c2.6 0 4.6 2.4 4.6 5.3v94.2c0 2.9-2.1 5.3-4.6 5.3h-4.6z"/><path class="st21" d="M206.7 236.6v-49.4h-53.5v27.5c5.8-.7 11.8-.5 17.9.7 13.9 2.8 26.3 10.5 35.6 21.2z"/><path class="st14" d="M154.5 187.2h-49.8v7.3c0 11.3 9.2 20.5 20.5 20.5h29.4v-27.8z"/><path class="st20" d="M218.7 234.6v-47.4h-13.9v47.4c0 2.9 2.1 5.3 4.6 5.3h4.6c2.6 0 4.7-2.3 4.7-5.3z"/><path class="st22" d="M131.9 219.3c-.3-1.8-2.1-3-3.8-2.6-1.8.3-3 2.1-2.6 3.8l4.7 25.6c.3 1.8 2.1 3 3.8 2.6 1.8-.3 3-2.1 2.6-3.8l-4.7-25.6z"/><path class="st0" d="M231.6 188.5c-.2-.2-.3-.5-.3-.8 0-.6.5-1.1 1.1-1.1h39.7c.6 0 1.1.5 1.1 1.1 0 .6-.5 1.1-1.1 1.1h-39.7c-.3.1-.6-.1-.8-.3zm-.7-8.5c-.1-.1-.1-.2-.2-.3-.3-.5 0-1.2.5-1.4l35.6-17.5c.5-.3 1.2-.1 1.4.5.3.5 0 1.2-.5 1.4l-35.6 17.5c-.4.2-.9.1-1.2-.2zm0 17.1c-.3-.3-.4-.8-.2-1.2.3-.5.9-.8 1.4-.5l35.6 17.5c.6.3.8.9.5 1.4-.3.5-.9.8-1.4.5l-35.6-17.5c-.1 0-.2-.1-.3-.2z"/><path class="st23" d="M413.3 206.4c-.3-2.7-1.3-5.2-2.9-7.4-2.6-3.6-6.1-5.7-10.4-6.5-.9-.1-1.8-.2-2.6-.3h-.2c-.8.1-1.6.1-2.5.3-8.4 1.3-14.4 9.2-13.4 17.6.5 4 2.1 7.4 5.1 10.2 3.5 3.2 7.8 4.6 12.6 4.2 3.7-.3 6.9-1.8 9.5-4.4 3.8-3.8 5.4-8.4 4.8-13.7m-3.4 8.2c-.4-.7-.9-1.7-1.2-2.6-.3-1.2-1.1 0-1.2.8-.1.8-.6 1.4-1.7.2s-1.3-.9-1.6-.9c-.3 0-.9.8-.8 4.6.1 2.7 1.2 3.1 1.8 3.3-1.3.9-2.8 1.6-4.4 2-6.3 1.6-12.8-1.3-15.8-7.1-2.8-5.4-1.4-11.5 1.4-14.8.1.6.2 1.1.2 1.7.2 1.5 0 3-.3 4.4-.1.3 0 .7 0 1 0 .2.3.4.5.4.1 0 .4-.2.4-.4.1-.3.1-.6.1-.9v-.8c.2.2.4.3.5.4.4.4.7.7 1 1.1.1.2.3.4.3.6 0 .4.2.7.4 1.1.3.4.4.9.5 1.3.1.2.1.4.2.6.2.4.4.6.9.7.5 0 .7.2.7.7h-.4c-.6.1-.9.3-.9.9 0 1.2.5 2.2 1.3 3 .2.2.5.4.7.7.5.5.7 1.2.5 1.9-.1.3-.3.7-.3 1.1-.1.4-.1.8 0 1.1.1.4 0 1.2.4 1.1.7-.1 1.1 0 1.1-.7v-.3c-.2-.7.7-2.7 1.3-3.1.5-.3.9-.6 1.4-1 .6-.5.9-1.2.6-2-.2-.8 0-1.3.6-1.8.5-.5.9-1.1.9-1.8 0-.8-.5-1.3-1.2-1.2-.3 0-.6.2-.9.3-.5.2-.9.4-1.4.5-.7.1-1.1-.3-1.4-.8-.2-.4-.3-.5-.7-.2-.3.2-.7.4-1 .6-.4.2-.6.1-.9-.2-.2-.2-.4-.3-.6-.4-.2-.1-.4-.1-.5-.2-.2-.2-.4-.4-.4-.6 0-.2.3-.5.5-.5l1.2-.3c.2 0 .4-.1.6-.2.3-.1.3-.3 0-.4-.1-.1-.2-.1-.3-.2-.6-.2-1.2-.5-1.8-.7-.1-.1-.3-.1-.4-.2-.4-.2-.4-.5-.1-.8 1.3-1.2 2.9-1.5 4.2 0 .4.5.7 1.1 1.1 1.6.3.4.7.8 1.1 1.1.2.1.5.1.7 0 .3-.1.3-.5.1-.8-.1-.2-.3-.5-.4-.7-.8-1-.7-3 .8-3.8.5-.3 1-.6 1.3-1.3-.3.1-.5.1-.7.2-1.2.4-.4-.5.2-.7.3-.1-.3-.3-.3-.3s.4-.1.8-.3c.3-.1.6-.3.9-.5.2-.1.2-.4.3-.6l-.1-.1c-.3 0-.6.1-.9.1-.5.1-.6 0-.7-.6 0-.4-.4-.6-.7-.4-.2.1-.4.3-.7.5-.5.3-.9.2-1.1-.4-.1-.3-.3-.4-.6-.2-.2.1-.3.2-.4.3-.3.1-.5.3-.8.4-.3.1-.6.2-.8-.1-.2-.3 0-.6.2-.8.3-.3.7-.4 1-.6.5-.3 1-.5 1.5-.8.4-.2.5-.6.4-1-.1-.4-.3-.5-.7-.3-.3.1-.5.4-.8.5-.2.1-.5.1-.7 0-.1 0-.2-.2-.2-.4 0-.1.2-.2.3-.2l2.1-.3c.1 0 .2 0 .3.1.5.6 1.1.9 1.8 1.1.6.2.7.1.7-.5.7-.2 1.5-.5 2.2 0 .4.3.8.6 1.1.9.1.1 0 .3 0 .5-.1.2-.2.4-.2.7-.1.4.2.8.6.8h.4c.4 0 .6.1.5.6-.1.6 0 .7.7.6.2 0 .4 0 .6.1.1 0 .2.1.3.2.6.4 1 .3 1.2-.4v-.2c.1-.3.2-.4.5-.2.5.5.9 1 1.3 1.5-.5.5-.5 1-.4 1.5.1.6 0 1.1-.3 1.6-.2.5-.5 1-.6 1.5-.2.8 0 1.2.8 1.3.8.2.9.3.9 1.1 0 1 .6 1.7 1.5 2.2l.6.3c.5 1 .1 2.7-.7 4.2"/></g></svg>